<svg width="30" height="30" viewBox="0 0 30 30" fill="none" xmlns="http://www.w3.org/2000/svg">
<path d="M0 16.0379C0 8.33061 6.22464 2.07904 13.9071 2.07886C14.1743 2.07886 14.3909 2.29547 14.3909 2.56268C14.3909 2.82989 14.1743 3.0465 13.9071 3.0465C6.76252 3.04668 0.967645 8.86154 0.967645 16.0379C0.967867 23.2141 6.76266 29.0282 13.9071 29.0283C21.0516 29.0283 26.8472 23.2142 26.8474 16.0379C26.8474 15.7707 27.064 15.5541 27.3313 15.5541C27.5984 15.5542 27.8151 15.7708 27.8151 16.0379C27.8149 23.7451 21.5895 29.996 13.9071 29.996C6.22477 29.9958 0.000221596 23.745 0 16.0379Z" fill="#00A78B"/>
<path d="M15.9728 15.5579C16.2399 15.558 16.4566 15.7745 16.4566 16.0417C16.4566 16.3088 16.2399 16.5254 15.9728 16.5255H0.483823C0.216615 16.5255 0 16.3089 0 16.0417C0 15.7745 0.216615 15.5579 0.483823 15.5579H15.9728Z" fill="#00A78B"/>
<path d="M13.5324 2.2584C13.7006 2.05077 14.0052 2.01839 14.2128 2.18658C14.4204 2.35478 14.4519 2.65933 14.2837 2.86696C11.2524 6.60891 9.48229 11.2206 9.22906 16.0369C9.47139 20.6501 11.1067 25.0745 13.9076 28.7278C16.0904 25.8808 17.5661 22.5663 18.2251 19.058C18.2745 18.7954 18.5276 18.6222 18.7902 18.6715C19.0527 18.7209 19.226 18.974 19.1767 19.2366C18.451 23.1003 16.776 26.7399 14.2837 29.8164C14.1919 29.9297 14.0543 29.9959 13.9085 29.996C13.7626 29.996 13.6243 29.9298 13.5324 29.8164C10.3668 25.9086 8.52123 21.092 8.26236 16.0625C8.26151 16.0459 8.26151 16.0289 8.26236 16.0124C8.52125 10.9828 10.3668 6.16618 13.5324 2.2584Z" fill="#00A78B"/>
<path d="M21.203 0.967552C21.4829 -0.316612 23.3083 -0.324924 23.5994 0.957158L23.6571 1.20946C24.2543 3.83774 26.3641 5.84767 29.0075 6.30944C30.3307 6.54053 30.3306 8.44453 29.0075 8.67564C26.3641 9.13733 24.2544 11.1475 23.6571 13.7756L23.5994 14.0289C23.3083 15.3109 21.483 15.3025 21.203 14.0185L21.1557 13.8011C20.5799 11.1614 18.4711 9.13459 15.8214 8.67186C14.5023 8.44138 14.5022 6.5436 15.8214 6.31322C18.471 5.8505 20.5799 3.82457 21.1557 1.18489L21.203 0.967552ZM22.6554 1.17166C22.5935 0.898974 22.2086 0.89995 22.1489 1.17355L22.1016 1.3909C21.4425 4.41304 19.0266 6.736 15.9877 7.2667C15.9096 7.28038 15.8695 7.31266 15.846 7.34324C15.8185 7.37896 15.7997 7.43164 15.7997 7.49254C15.7997 7.55367 15.8184 7.607 15.846 7.64279C15.8695 7.67337 15.9096 7.70566 15.9877 7.71933C19.0266 8.25004 21.4426 10.5729 22.1016 13.5951L22.1489 13.8125C22.2088 14.0858 22.5935 14.087 22.6554 13.8144L22.713 13.5611C23.3964 10.5544 25.8117 8.25222 28.8411 7.72311C28.9203 7.70929 28.9607 7.67591 28.9848 7.64468C29.0128 7.60824 29.033 7.55448 29.033 7.49254C29.0329 7.43077 29.0128 7.37772 28.9848 7.34135C28.9607 7.31009 28.9204 7.27676 28.8411 7.26292C25.8116 6.73378 23.3963 4.43091 22.713 1.42397L22.6554 1.17166Z" fill="#00A78B"/>
</svg>
