<svg width="35" height="35" viewBox="0 0 35 35" fill="none" xmlns="http://www.w3.org/2000/svg">
<path d="M32.1818 19.7645C33.6729 19.6473 34.8773 20.6434 34.992 22.1668C35.1067 23.7488 34.017 25.0379 32.5259 25.1551C31.0921 25.2723 29.8304 24.159 29.7157 22.6942C29.601 21.1121 30.6333 19.9402 32.1818 19.7645Z" fill="#86DA2F"/>
<path d="M14.0586 32.2461C14.0586 30.7227 15.2056 29.5508 16.582 29.5508C17.9584 29.5508 19.2775 30.8398 19.2775 32.3047C19.2775 33.7109 18.1305 34.9414 16.8114 35C15.1483 35 14.0586 33.9453 14.0586 32.2461Z" fill="#24C2FF"/>
<path d="M18.1287 15.1354C17.8993 15.2526 17.7846 15.0768 17.7273 14.9011C15.6053 10.8581 16.2362 5.76043 19.9639 2.71355C20.9389 1.89324 22.7741 1.71746 23.577 2.53777C23.9211 2.83074 23.9785 3.1823 24.0358 3.59246C24.1505 4.47137 24.3226 5.35027 24.8961 6.0534C25.527 6.81512 26.3299 7.10808 27.2475 7.04949C28.0504 7.04949 28.8533 6.9323 29.3695 7.8698C29.6562 8.39715 29.5415 10.4479 29.0827 10.8581C28.8533 11.0339 28.6812 10.9167 28.5092 10.8581C27.1901 10.3307 25.8137 10.3307 24.4373 10.5651C23.9785 10.6237 23.7491 10.5065 23.7491 9.97918C23.6917 9.10027 23.5197 8.27996 23.0609 7.51824C22.2006 5.93621 20.5948 5.87762 19.5625 7.34246C18.7022 8.51433 18.4728 9.92058 18.2434 11.3268C18.014 12.5573 18.0714 13.8464 18.1287 15.1354Z" fill="#FFCB12"/>
<path d="M19.5636 16.0141C19.4489 15.8383 19.5062 15.6625 19.6783 15.5453C22.9473 12.4985 27.8221 11.9125 31.6072 14.9008C32.5822 15.7211 33.213 17.4203 32.6969 18.4164C32.4675 18.8266 32.1807 19.0024 31.8366 19.1196C31.0337 19.4711 30.2881 19.8227 29.772 20.5844C29.2558 21.3461 29.1411 22.225 29.3705 23.1625C29.5426 23.9243 29.8293 24.7446 29.0838 25.4477C28.6823 25.8578 26.7324 26.2094 26.2163 25.8578C25.9869 25.6821 26.0442 25.5063 26.1016 25.2719C26.2736 23.8071 25.9295 22.4594 25.4133 21.1703C25.2413 20.7016 25.2986 20.4672 25.7574 20.35C26.5604 20.1157 27.3059 19.7055 27.8794 19.1196C29.1411 17.8891 28.8544 16.3071 27.1912 15.6039C25.8721 15.018 24.4957 15.1352 23.1767 15.2524C21.915 15.311 20.7106 15.6625 19.5636 16.0141Z" fill="#86DA2F"/>
<path d="M18.819 17.5372C18.9911 17.3614 19.1058 17.42 19.2778 17.5372C23.063 19.881 25.0129 24.5099 23.2924 29.0216C22.8336 30.1935 21.3425 31.3653 20.2528 31.0724C19.794 30.9552 19.5646 30.7208 19.3352 30.4278C18.819 29.7247 18.2455 29.0802 17.3853 28.7872C16.4677 28.4942 15.6648 28.67 14.8619 29.1388C14.1736 29.5489 13.4854 30.0763 12.6252 29.5489C12.109 29.256 11.2488 27.4396 11.4208 26.8536C11.5355 26.6192 11.7649 26.6192 11.9943 26.6192C13.4281 26.3849 14.5751 25.6817 15.6648 24.7442C16.0089 24.4513 16.2956 24.4513 16.5824 24.8614C17.0412 25.5646 17.6147 26.1505 18.3602 26.5606C19.8514 27.4396 21.2851 26.6778 21.4572 24.92C21.6292 23.4552 21.1131 22.1661 20.6543 20.8771C20.1381 19.7052 19.5073 18.5919 18.819 17.5372Z" fill="#24C2FF"/>
<path d="M16.9832 17.8887C16.7538 19.0606 16.2376 20.1738 15.5494 21.1699C13.4848 24.334 10.5025 25.6231 6.83211 25.2715C5.51304 25.1543 4.42338 24.041 4.30868 22.9277C4.25133 22.459 4.36603 22.1074 4.65278 21.7559C5.05424 21.2285 5.39834 20.7598 5.57039 20.1152C5.9145 18.8262 5.45569 17.7715 4.53808 16.834C3.27637 15.5449 3.44842 14.3731 4.93954 13.4356C5.11159 13.3184 5.34099 13.2012 5.57039 13.084C5.9145 12.9082 6.20125 12.9082 6.31595 13.3184C6.83211 14.666 7.86442 15.6621 9.01143 16.4824C9.41288 16.834 9.41288 17.0684 9.06878 17.4785C8.38057 18.2402 7.97912 19.1777 7.92177 20.2324C7.80707 21.5215 8.55262 22.3418 9.81434 22.3418C10.6172 22.3418 11.3628 22.0488 12.051 21.6973C13.8289 20.7598 15.2053 19.4121 16.5244 18.0059C16.6964 17.9473 16.7538 17.8301 16.9832 17.8887Z" fill="#0069DA"/>
<path d="M7.58162 5.58442C7.69633 5.58442 7.98308 5.64301 8.26983 5.70161C10.3918 6.11176 11.7109 5.35004 12.3991 3.29926C12.8579 1.95161 13.8328 1.54145 15.0946 2.24457C15.1519 2.24457 15.1519 2.30317 15.2093 2.30317C16.5283 3.06489 16.5283 3.18207 15.7254 4.35395C15.0372 5.29145 14.6931 6.34614 14.521 7.45942C14.4063 8.10395 14.1769 8.22114 13.6034 7.98676C12.6858 7.6352 11.7109 7.6352 10.7359 7.98676C9.64625 8.33832 9.18744 9.33442 9.53154 10.4477C9.99035 11.9125 11.2521 12.5571 12.3417 13.3188C13.4314 14.0805 14.6931 14.4907 15.8975 15.018C16.0695 15.0766 16.3563 15.0766 16.2989 15.3696C16.2416 15.5454 16.0122 15.5454 15.7828 15.5454C13.202 15.6625 10.7359 15.2524 8.72864 13.4946C6.83607 11.9125 5.45965 9.97895 5.68905 7.28364C5.86111 6.40473 6.49196 5.7602 7.58162 5.58442Z" fill="#FF4649"/>
<path d="M2.87546 22.0499C1.49904 22.2257 0.122627 21.0538 0.00792601 19.589C-0.106775 18.1827 1.04024 16.7765 2.3593 16.6593C3.85042 16.4835 5.22683 17.5382 5.34153 18.9445C5.39888 20.2921 4.53862 21.9327 2.87546 22.0499Z" fill="#0069DA"/>
<path d="M26.9643 1.18948C28.3981 1.0723 29.7745 2.24417 29.8892 3.70901C30.0039 5.11526 28.8569 6.46292 27.4804 6.58011C25.9893 6.6973 24.6703 5.58401 24.5556 4.11917C24.4409 2.65433 25.4732 1.30667 26.9643 1.18948Z" fill="#FFCB12"/>
<path d="M11.9961 2.30348C12.1681 3.82692 11.1358 5.11598 9.58735 5.35036C8.26829 5.52614 6.89188 4.41286 6.71982 3.1238C6.54777 1.42458 7.46538 0.194108 9.01385 0.0183267C10.4476 -0.157455 11.824 0.955827 11.9961 2.30348Z" fill="#FF4649"/>
</svg>
