<svg width="31" height="30" viewBox="0 0 31 30" fill="none" xmlns="http://www.w3.org/2000/svg">
<path d="M2.08598 23.2569C2.08598 23.1431 2.08975 23.0297 2.09533 22.9172C1.45293 22.1586 0.946225 21.1326 0.595252 20.0417C0.214169 18.8572 3.78208e-05 17.5572 0 16.3653C0 13.2798 1.4428 10.2021 3.66189 8.80567C3.65701 8.70686 3.65463 8.60747 3.65462 8.50752C3.65462 5.21742 6.32123 2.54993 9.6113 2.5498C11.076 2.5498 12.4187 3.07937 13.456 3.95639C13.6801 4.14608 13.708 4.48114 13.5184 4.70539C13.3288 4.9296 12.9937 4.95811 12.7694 4.76876C11.9168 4.04798 10.8152 3.61357 9.6113 3.61357C6.90873 3.6137 4.71839 5.80493 4.71839 8.50752C4.7184 8.68705 4.72765 8.86415 4.74644 9.03837C4.76954 9.25271 4.66057 9.46005 4.47115 9.56298C2.51732 10.6248 1.06377 13.4136 1.06377 16.3653C1.06381 17.439 1.25746 18.6299 1.60708 19.7166C1.95864 20.8092 2.45492 21.7559 3.02924 22.3729C3.13104 22.4824 3.18189 22.63 3.16949 22.779C3.1564 22.9364 3.14975 23.0959 3.14975 23.2569C3.14993 26.3921 5.69166 28.9339 8.82698 28.9341C11.9625 28.9341 14.5051 26.3923 14.5053 23.2569V14.2055C14.5055 13.912 14.7435 13.6736 15.0371 13.6736C15.3307 13.6737 15.5688 13.912 15.569 14.2055V23.2569C15.5688 26.9798 12.55 29.9979 8.82698 29.9979C5.10417 29.9976 2.08616 26.9796 2.08598 23.2569Z" fill="#00A78B"/>
<path d="M4.14881 8.58282C4.44052 8.5484 4.70441 8.75652 4.73887 9.04822C4.8595 10.0704 5.31814 10.8399 5.83484 11.3763C6.3638 11.9252 6.92701 12.2023 7.20402 12.2655C7.49018 12.331 7.66921 12.616 7.60397 12.9023C7.53868 13.1887 7.25357 13.3675 6.96717 13.3023C6.4476 13.1838 5.70896 12.779 5.06818 12.1138C4.4151 11.4358 3.83515 10.4586 3.68341 9.17288C3.64899 8.88117 3.85711 8.61728 4.14881 8.58282Z" fill="#00A78B"/>
<path d="M3.97058 19.0609C4.20111 18.8792 4.53556 18.9188 4.7175 19.1492C4.89921 19.3797 4.85963 19.7142 4.6292 19.8961C4.31167 20.1469 3.99001 20.5909 3.71814 21.1437C3.45016 21.6888 3.25272 22.2945 3.15717 22.8246C3.10507 23.1137 2.82816 23.3057 2.53906 23.2536C2.25022 23.2014 2.05814 22.9254 2.11002 22.6365C2.22383 22.005 2.45354 21.3045 2.76345 20.6742C3.06962 20.0515 3.47765 19.4501 3.97058 19.0609Z" fill="#00A78B"/>
<path d="M14.5039 23.2589C14.5039 22.9652 14.742 22.727 15.0358 22.727C15.3295 22.727 15.5677 22.9652 15.5677 23.2589C15.5678 26.3943 18.1095 28.936 21.2449 28.9362C24.3804 28.9362 26.9231 26.3944 26.9232 23.2589C26.9232 23.0979 26.9166 22.9384 26.9034 22.7811C26.891 22.6319 26.9417 22.4845 27.0437 22.3749C27.6181 21.7579 28.1132 20.8111 28.4648 19.7186C28.8145 18.6318 29.0091 17.4411 29.0092 16.3673C29.0092 15.4329 28.8623 14.5048 28.5947 13.6393C28.508 13.3587 28.6652 13.0612 28.9458 12.9745C29.2263 12.8879 29.5239 13.0451 29.6106 13.3256C29.9087 14.2894 30.0729 15.3229 30.0729 16.3673C30.0729 17.5592 29.8588 18.8592 29.4777 20.0437C29.1267 21.1344 28.6189 22.1597 27.9766 22.9182C27.9822 23.0311 27.9869 23.1447 27.9869 23.2589C27.9869 26.9819 24.9679 29.9999 21.2449 29.9999C17.522 29.9997 14.504 26.9818 14.5039 23.2589Z" fill="#00A78B"/>
<path d="M25.3524 19.1492C25.5344 18.9188 25.8688 18.8791 26.0993 19.0609C26.5922 19.4501 26.9993 20.0516 27.3054 20.6742C27.6154 21.3046 27.846 22.005 27.9599 22.6366C28.0117 22.9254 27.8196 23.2014 27.5309 23.2537C27.2418 23.3058 26.9649 23.1137 26.9128 22.8246C26.8171 22.2945 26.6188 21.6889 26.3507 21.1438C26.0789 20.591 25.7582 20.1469 25.4407 19.8961C25.2103 19.7142 25.1706 19.3797 25.3524 19.1492Z" fill="#00A78B"/>
<path d="M20.5472 2.01387C20.8417 0.66854 22.7579 0.659392 23.0643 2.00245L23.1224 2.25904C23.7272 4.91003 25.8641 6.9394 28.5431 7.40543C29.9346 7.64756 29.9347 9.64509 28.5431 9.8872C25.8643 10.3532 23.7273 12.3818 23.1224 15.0326L23.0643 15.2902C22.7577 16.633 20.8417 16.6239 20.5472 15.2788L20.4983 15.0585C19.9155 12.3961 17.7805 10.3502 15.0954 9.88305C13.7079 9.64166 13.7077 7.64994 15.0954 7.40854C17.7803 6.94132 19.9155 4.89637 20.4983 2.23411L20.5472 2.01387ZM21.8062 2.06374C21.7489 2.06399 21.6985 2.08149 21.6639 2.10737C21.634 2.12973 21.6021 2.16781 21.586 2.24138L21.5382 2.46161C20.863 5.5462 18.3881 7.91552 15.2772 8.45673C15.2068 8.46902 15.1754 8.49722 15.1577 8.5201C15.1357 8.54861 15.1183 8.59264 15.1182 8.6458C15.1182 8.69913 15.1356 8.74395 15.1577 8.77253C15.1755 8.7954 15.207 8.82364 15.2772 8.8359C18.3881 9.37712 20.863 11.7464 21.5382 14.831L21.586 15.0513C21.6021 15.1246 21.6341 15.1618 21.6639 15.1842C21.6985 15.2101 21.7489 15.2286 21.8062 15.2289C21.8632 15.229 21.9128 15.2117 21.9475 15.1863C21.9775 15.1642 22.0097 15.1266 22.0265 15.0533L22.0857 14.7967C22.7857 11.7278 25.2599 9.37856 28.3613 8.83902C28.4325 8.82654 28.4646 8.79812 28.4828 8.77461C28.5054 8.74537 28.5233 8.69995 28.5233 8.6458C28.5233 8.59182 28.5054 8.54719 28.4828 8.51802C28.4646 8.49448 28.4326 8.46613 28.3613 8.45361C25.2599 7.9141 22.7857 5.56489 22.0857 2.49589L22.0265 2.2393C22.0097 2.16589 21.9775 2.1284 21.9475 2.10633C21.9128 2.08091 21.8633 2.06359 21.8062 2.06374Z" fill="#00A78B"/>
</svg>
