<svg width="35" height="35" viewBox="0 0 35 35" fill="none" xmlns="http://www.w3.org/2000/svg">
<circle cx="17.5" cy="17.5" r="17.5" fill="#A14F8C"/>
<path d="M17.3999 4.15625L13.5207 8.03534L8.03545 8.0349L8.035 13.5205L4.15625 17.3996L8.035 21.2783L8.03521 26.764L13.5207 26.7639L17.3999 30.6429L21.2786 26.7639L26.7646 26.7636L26.7643 21.2783L30.6435 17.3996L26.7639 13.5209L21.2785 8.03552L17.3999 4.15625ZM18.5772 8.03494V12.2199L17.3999 13.3972L16.2225 12.2199V8.03534L18.5772 8.03494ZM11.6103 9.94525L14.5696 12.9048L14.57 14.5693L12.9046 14.5697L9.94537 11.6102L11.6103 9.94525ZM8.035 16.2222H12.22L13.3974 17.3996L12.22 18.5769H8.035V16.2222ZM22.4852 16.2222H26.6702V18.5769H22.4852L21.3078 17.3996L22.4852 16.2222ZM12.9714 20.163H14.6364V21.8279L11.6772 24.7871L10.0122 23.1221L12.9714 20.163ZM20.1636 20.1628L21.8283 20.163L24.7875 23.1222L23.1225 24.7871L20.1633 21.8279L20.1636 20.1628ZM17.3999 21.3075L18.5772 22.4848V26.6698H16.2225V22.4848L17.3999 21.3075Z" fill="white"/>
<path d="M18.5769 14.6942L17.3996 15.7346L16.2222 14.6938V16.2222H14.6941L15.7346 17.3995L14.6938 18.5768H16.2222V20.1049L17.3996 19.0644L18.5769 20.105V18.5768H20.1049L19.0646 17.3995L20.1053 16.2222H18.5769V14.6942Z" fill="#EFA724"/>
<path d="M21.2817 8.03862L23.1887 9.9456L20.2295 12.9048L20.2296 14.5696L21.8945 14.5697L24.8537 11.6105L26.7673 13.5241L26.7643 8.03516L21.2817 8.03862Z" fill="#EFA724"/>
</svg>
