<svg width="35" height="35" viewBox="0 0 35 35" fill="none" xmlns="http://www.w3.org/2000/svg">
<path d="M0 0.407366C0 0.169736 0.169898 0 0.407754 0H3.46591C3.70376 0 3.87366 0.169736 3.87366 0.407366V34.5922C3.87366 34.8298 3.70376 34.9995 3.46591 34.9995H0.407754C0.169898 34.9995 0 34.8298 0 34.5922V0.407366Z" fill="#1E1E1E"/>
<path d="M7.78027 0.407366C7.78027 0.169736 7.95017 0 8.18803 0H11.2462C11.484 0 11.6539 0.169736 11.6539 0.407366V34.5922C11.6539 34.8298 11.484 34.9995 11.2462 34.9995H8.18803C7.95017 34.9995 7.78027 34.8298 7.78027 34.5922V0.407366Z" fill="#1E1E1E"/>
<path d="M15.5625 0.407366C15.5625 0.169736 15.7324 0 15.9703 0H19.0284C19.2663 0 19.4362 0.169736 19.4362 0.407366V34.5922C19.4362 34.8298 19.2663 34.9995 19.0284 34.9995H15.9703C15.7324 34.9995 15.5625 34.8298 15.5625 34.5922V0.407366Z" fill="#1E1E1E"/>
<path d="M23.3428 0.407366C23.3428 0.169736 23.5127 0 23.7505 0H26.8087C27.0465 0 27.2164 0.169736 27.2164 0.407366V34.5922C27.2164 34.8298 27.0465 34.9995 26.8087 34.9995H23.7505C23.5127 34.9995 23.3428 34.8298 23.3428 34.5922V0.407366Z" fill="#1E1E1E"/>
<path d="M31.126 14.0202C31.126 13.7825 31.2959 13.6128 31.5337 13.6128H34.5919C34.8297 13.6128 34.9996 13.7825 34.9996 14.0202V20.9793C34.9996 21.217 34.8297 21.3867 34.5919 21.3867H31.5337C31.2959 21.3867 31.126 21.217 31.126 20.9793V14.0202Z" fill="#1E1E1E"/>
</svg>
