<svg width="35" height="35" viewBox="0 0 35 35" fill="none" xmlns="http://www.w3.org/2000/svg">
<g clip-path="url(#clip0_6475_2879)">
<path d="M32.6723 16.5821C31.4073 15.1625 29.6922 14.1055 27.7479 13.5457V13.4352C27.7479 8.23702 23.1464 4 17.4739 4C11.7971 4 7.19361 8.22778 7.19361 13.437V13.566C3.0382 14.7684 0.00390625 18.3443 0.00390625 22.5629C0.00390625 27.7612 4.60948 32 10.282 32C13.0037 31.9945 15.6108 31.0149 17.5031 29.284C19.3911 31.0149 21.9961 31.9963 24.7157 32C30.3779 32 34.9959 27.7722 34.9959 22.5629C34.9959 20.3901 34.1623 18.2652 32.6723 16.5821ZM24.7157 29.6136C20.4831 29.6136 17.0362 26.4501 17.0362 22.5611C17.0466 21.9203 16.4631 21.3863 15.7379 21.3716C15.021 21.3808 14.4375 21.9055 14.4375 22.539V22.5629C14.4375 24.3251 14.9731 25.9787 15.888 27.391C14.4667 28.8071 12.4244 29.6209 10.282 29.6246C6.04741 29.6246 2.59843 26.4593 2.59843 22.5722C2.59843 18.6868 6.04741 15.5215 10.282 15.5215C11.199 15.5215 12.091 15.6725 12.9454 15.9524C12.9558 15.9524 12.9642 15.9616 12.9746 15.9616C13.2705 16.0536 13.6873 16.2323 13.8165 16.3317C14.0458 16.5177 14.3479 16.6208 14.6584 16.6208C15.0398 16.6208 15.4003 16.4661 15.6379 16.2028C16.1047 15.7038 16.0401 14.9599 15.4962 14.5272C14.9293 14.0871 14.0458 13.7869 13.829 13.717C12.6995 13.3376 11.5012 13.1443 10.2925 13.1461C10.1279 13.1461 9.96529 13.1461 9.80067 13.1553C9.97575 9.39891 13.3476 6.39563 17.4843 6.39563C21.7168 6.39563 25.1637 9.55911 25.1637 13.4481C25.172 15.7056 23.9738 17.838 21.9336 19.1969C21.3543 19.5872 21.2208 20.3183 21.6272 20.8504C21.8773 21.1708 22.2837 21.3513 22.6879 21.3513C22.9485 21.3513 23.209 21.2813 23.4403 21.1303C25.3784 19.8469 26.7705 18.0221 27.3894 15.9524C30.357 16.9633 32.418 19.5965 32.418 22.5722C32.4076 26.4501 28.9607 29.6136 24.7157 29.6136Z" fill="#0178D4"/>
</g>
<defs>
<clipPath id="clip0_6475_2879">
<rect width="35" height="28" fill="white" transform="translate(0 4)"/>
</clipPath>
</defs>
</svg>
