<svg width="35" height="35" viewBox="0 0 35 35" fill="none" xmlns="http://www.w3.org/2000/svg">
<path fill-rule="evenodd" clip-rule="evenodd" d="M20.5165 8.47227C20.5874 8.53841 20.6543 8.60708 20.7228 8.67497C21.1801 9.14806 21.6108 9.66193 22.0077 10.2183C22.0082 10.2189 22.009 10.2201 22.0096 10.2207C22.3964 10.7782 22.7516 11.3787 23.094 12.0256C23.1607 9.83731 22.7395 7.91354 21.7619 6.12086C21.3131 5.29622 20.8595 4.4505 20.0982 3.87831C19.0066 3.05659 17.7717 2.49766 16.4497 2.14552C15.8591 1.98867 15.2624 1.87552 14.6384 1.80997C10.0867 1.18315 5.49837 3.46101 3.05226 8.01381C3.32643 8.08658 3.44329 7.8513 3.6002 7.72352C8.74812 3.52266 15.8591 3.95127 20.4284 8.38468C20.4583 8.41335 20.4857 8.4434 20.5165 8.47227ZM15.3715 24.4187C14.5319 23.9292 13.7681 23.3371 12.9821 22.6849C13.7766 24.9659 16.8282 27.7071 19.4293 28.42C19.3232 28.333 19.2244 28.2342 19.1097 28.1605C17.7847 27.3046 16.6966 26.203 15.7701 24.9324C15.6414 24.7564 15.5451 24.5197 15.3715 24.4187ZM34.4068 14.0438C34.4278 13.9502 34.4328 13.8651 34.3074 13.8452C34.3016 13.9121 34.2942 13.9796 34.2884 14.0464C34.275 14.2059 34.2617 14.3651 34.2479 14.5245C33.5409 22.4274 26.0428 27.6989 18.4005 25.6649C18.1479 25.5974 17.8961 25.5241 17.6443 25.4538C19.323 27.3464 21.3899 28.4832 23.8339 28.9455C24.6542 29.1014 25.4493 29.0782 26.2574 28.8568C29.282 28.028 31.6614 26.299 33.2745 23.6155C35.0755 20.6191 35.4906 17.4078 34.4068 14.0438ZM21.1002 30.0398C16.9865 29.2871 14.0193 26.8961 11.9866 23.2548C11.8859 25.5777 12.4492 27.7028 13.6788 29.6442C14.0516 30.2329 14.4037 30.8619 15.0018 31.2523C18.9082 33.804 22.9741 34.0647 27.134 31.9605C29.3087 30.8613 30.9113 29.1399 31.9821 26.9281C28.8233 29.6373 25.2096 30.7913 21.1002 30.0398ZM14.2418 0.73405C22.5994 1.47793 27.7904 9.10475 25.4571 17.2107C25.4301 17.3042 25.3669 17.397 25.5248 17.4573C27.4332 15.58 28.6188 13.3335 28.9631 10.653C29.0222 10.1902 29.0086 9.73977 28.904 9.28462C28.087 5.72112 26.0758 3.04332 22.863 1.34897C20.0601 -0.128636 17.1009 -0.405663 14.0582 0.583636C13.9631 0.566663 13.8735 0.55964 13.8579 0.691715C13.9269 0.697958 13.9958 0.704786 14.0644 0.711029C14.1233 0.719223 14.1824 0.728977 14.2418 0.73405ZM24.4052 17.159C24.4046 17.1401 24.4032 17.122 24.4024 17.1036C24.4017 17.0952 24.4003 17.0874 24.3999 17.0794C24.3962 17.087 24.3933 17.095 24.39 17.1024C24.3951 17.1218 24.4003 17.1399 24.4052 17.159ZM29.97 13.9941C29.2196 18.1179 26.8295 21.0879 23.0468 23.1436C25.3465 23.1986 27.3384 22.7312 29.1757 21.6586C29.9161 21.2262 30.6884 20.8054 31.1909 20.0842C35.2326 14.2922 33.169 6.16534 26.831 3.02655C29.5661 6.19948 30.7256 9.84609 29.97 13.9941ZM28.3751 15.7442C28.2727 15.769 28.1957 15.8234 28.1482 15.8972C27.2159 17.3459 26.0329 18.5445 24.6002 19.4968C24.503 19.5615 24.4013 19.6445 24.3468 19.7438C23.8874 20.5883 23.2803 21.3275 22.7115 22.0973C25.434 20.7274 27.3255 18.615 28.3751 15.7442ZM23.8578 8.29181C23.6877 8.43579 23.7985 8.55362 23.8234 8.6539C24.1666 10.0281 24.3122 11.439 24.0466 12.815C23.7606 14.2984 24.2825 15.6603 24.3999 17.0794C24.7602 16.276 24.879 15.4153 24.9659 14.5532C25.1851 12.3696 24.797 10.2919 23.8578 8.29181ZM21.1813 23.9511C21.0224 23.9198 20.8698 23.9206 20.7101 23.9641C19.8637 24.1939 18.9951 24.2987 18.1254 24.3937C18.0731 24.3689 18.0134 24.3498 18.0002 24.4253C17.9965 24.4446 18.0764 24.4788 18.118 24.5063C21.0234 25.447 23.849 25.1918 26.6545 23.9657C26.5771 23.9128 26.547 23.8758 26.5145 23.8728C26.456 23.8666 26.3949 23.8752 26.3374 23.8882C24.6229 24.2847 22.9039 24.2956 21.1813 23.9511ZM12.9417 22.7001C12.9244 22.6904 12.9079 22.681 12.8909 22.6711C12.9048 22.684 12.9184 22.6959 12.9318 22.7087L12.9417 22.7001ZM12.2324 13.1004C12.287 13.0807 12.343 13.0514 12.2991 12.9886C12.2882 12.9726 12.2075 13.0054 12.1587 13.0155C12.1804 13.0459 12.2051 13.0744 12.2324 13.1004ZM8.01448 31.9694C8.06523 32.0506 8.12201 32.1144 8.22409 32.0397C8.18151 31.9878 8.13892 31.9355 8.09615 31.8836C8.0664 31.9097 8.03917 31.9382 8.01448 31.9694ZM15.5315 6.59902C16.9416 7.49234 18.1932 8.57684 19.0996 9.97466C19.6063 10.756 20.1634 10.8448 20.9967 10.5597C19.533 8.66814 17.7612 7.31363 15.5315 6.59902ZM12.1587 13.0155C9.44131 14.4114 7.62306 16.5966 6.50345 19.4537C6.59562 19.4365 6.64229 19.4414 6.66795 19.4197C6.71326 19.383 6.75059 19.3335 6.78209 19.2835C7.71484 17.7868 8.92273 16.5597 10.384 15.5809C10.5185 15.4904 10.6255 15.3818 10.7077 15.2378C11.1443 14.4748 11.6846 13.7842 12.2324 13.1004C12.2051 13.0744 12.1804 13.0459 12.1587 13.0155ZM11.0813 26.488C11.1361 26.3979 11.152 26.3046 11.1338 26.219C10.7721 24.5328 10.7637 22.8463 11.1054 21.1568C11.1283 21.0419 11.1425 20.911 11.1106 20.8017C10.8403 19.8791 10.7488 18.9256 10.6086 17.9776C9.64801 20.8778 9.79987 23.7132 11.0813 26.488ZM8.8819 11.1349C10.4219 10.8003 11.9679 10.8077 13.5186 11.048C13.7335 11.0814 13.9682 11.1803 14.1622 11.1288C15.1008 10.8789 16.0583 10.756 17.0736 10.6596C14.9046 9.61003 10.8147 9.83692 8.47317 11.1787C8.60948 11.1647 8.74909 11.1645 8.8819 11.1349ZM8.09615 31.8836C7.99348 31.7615 7.89003 31.6397 7.78776 31.5168C2.71782 25.4273 4.30487 16.3798 11.1423 12.3963C11.3683 12.2646 11.5981 12.138 11.8262 12.0094C9.30462 11.8619 7.04187 12.5245 4.98815 13.9313C4.29845 14.4034 3.75245 14.9842 3.33712 15.7134C1.78273 18.4452 1.31821 21.356 2.06896 24.3982C2.90721 27.7945 4.87712 30.3595 8.01448 31.9694C8.03917 31.9382 8.0664 31.9097 8.09615 31.8836ZM11.1866 28.8574C8.81112 25.4082 8.40765 21.6125 9.63381 17.4753C7.96937 19.0682 6.8902 20.8117 6.34692 22.8738C6.12779 23.7045 5.87851 24.5498 6.03115 25.4166C7.25517 32.3795 14.442 36.6627 21.1356 34.3848C16.9657 34.0821 13.5758 32.3262 11.1866 28.8574ZM0.648346 21.1388C-0.153348 18.8149 -0.23307 16.4608 0.529735 14.1408C1.98846 9.70192 5.04706 7.0013 9.60756 6.03424C10.3054 5.88617 10.998 6.08126 11.6764 6.23284C13.9137 6.73324 15.8101 7.83628 17.3764 9.54994C13.3728 8.41765 9.58928 8.83182 6.15054 11.2182C2.71471 13.6021 0.972679 16.9819 0.648346 21.1388Z" fill="#5875B8"/>
</svg>
