<svg width="30" height="30" viewBox="0 0 30 30" fill="none" xmlns="http://www.w3.org/2000/svg">
<path d="M2.72727 3V9H8.18182V3H2.72727ZM10.9091 9C10.9091 10.6569 9.68805 12 8.18182 12H2.72727C1.22104 12 0 10.6569 0 9V3C0 1.34315 1.22104 0 2.72727 0H8.18182C9.68805 0 10.9091 1.34315 10.9091 3V9Z" fill="#00A78B"/>
<path d="M21.8171 3V9H27.2717V3H21.8171ZM29.9989 9C29.9989 10.6569 28.7779 12 27.2717 12H21.8171C20.3109 12 19.0898 10.6569 19.0898 9V3C19.0898 1.34315 20.3109 0 21.8171 0H27.2717C28.7779 0 29.9989 1.34315 29.9989 3V9Z" fill="#00A78B"/>
<path d="M12.2741 12V18H17.7287V12H12.2741ZM20.456 18C20.456 19.6569 19.2349 21 17.7287 21H12.2741C10.7679 21 9.54688 19.6569 9.54688 18V12C9.54688 10.3431 10.7679 9 12.2741 9H17.7287C19.2349 9 20.456 10.3431 20.456 12V18Z" fill="#00A78B"/>
<path d="M2.72727 21V27H8.18182V21H2.72727ZM10.9091 27C10.9091 28.6569 9.68805 30 8.18182 30H2.72727C1.22104 30 0 28.6569 0 27V21C0 19.3431 1.22104 18 2.72727 18H8.18182C9.68805 18 10.9091 19.3431 10.9091 21V27Z" fill="#00A78B"/>
<path d="M21.8171 21V27H27.2717V21H21.8171ZM29.9989 27C29.9989 28.6569 28.7779 30 27.2717 30H21.8171C20.3109 30 19.0898 28.6569 19.0898 27V21C19.0898 19.3431 20.3109 18 21.8171 18H27.2717C28.7779 18 29.9989 19.3431 29.9989 21V27Z" fill="#00A78B"/>
</svg>
