<svg width="20" height="13" viewBox="0 0 20 13" fill="none" xmlns="http://www.w3.org/2000/svg">
<path d="M18.1818 2.72727C18.1818 2.2252 17.7748 1.81818 17.2727 1.81818H2.72727C2.2252 1.81818 1.81818 2.2252 1.81818 2.72727V10C1.81818 10.5021 2.2252 10.9091 2.72727 10.9091H17.2727C17.7748 10.9091 18.1818 10.5021 18.1818 10V2.72727ZM20 10C20 11.5062 18.779 12.7273 17.2727 12.7273H2.72727C1.22104 12.7273 0 11.5062 0 10V2.72727C0 1.22104 1.22104 0 2.72727 0H17.2727C18.779 0 20 1.22104 20 2.72727V10Z" fill="#022C3C"/>
<rect x="4.54541" y="3.63623" width="1.81818" height="5.45455" fill="#022C3C"/>
</svg>
