<svg width="35" height="35" viewBox="0 0 35 35" fill="none" xmlns="http://www.w3.org/2000/svg">
<path d="M19.8054 18.4932C19.2255 18.501 19.9145 18.7913 20.6717 18.9081C20.8817 18.7443 21.0704 18.5798 21.2396 18.4191C20.7688 18.5343 20.289 18.5371 19.8054 18.4932ZM22.9171 17.7173C23.2637 17.2403 23.5152 16.7186 23.6041 16.1791C23.5261 16.5634 23.3184 16.8953 23.1213 17.2461C22.0372 17.9289 23.0188 16.8409 23.1205 16.4268C21.9553 17.8951 22.9598 17.3071 22.9171 17.7173ZM24.0671 14.7271C24.1378 13.6827 23.8618 14.0133 23.7691 14.4112C23.877 14.4679 23.9627 15.1479 24.0671 14.7271ZM17.6055 0.451904C17.9152 0.507019 18.2746 0.549714 18.223 0.623848C18.563 0.548938 18.6395 0.481403 17.6055 0.451904ZM18.2234 0.623848L18.0056 0.66926L18.2086 0.650629L18.2234 0.623848Z" fill="#D70751"/>
<path d="M27.8754 15.1223C27.9103 16.0601 27.6017 16.5157 27.3227 17.3215L26.8208 17.571C26.4106 18.3682 26.8616 18.0772 26.5678 18.711C25.9266 19.2803 24.6248 20.4921 24.208 20.6031C23.9033 20.5965 24.4141 20.2437 24.4808 20.1059C23.6234 20.6943 23.7927 20.9893 22.4812 21.3475L22.4431 21.2617C19.2101 22.7832 14.7186 19.7686 14.7776 15.656C14.7435 15.9168 14.6794 15.8516 14.608 15.9564C14.4411 13.8407 15.5853 11.7158 17.5151 10.8467C19.4026 9.9129 21.6153 10.2956 22.9663 11.5566C22.2242 10.584 20.7459 9.55272 18.995 9.6482C17.2791 9.67614 15.6734 10.7664 15.1378 11.9506C14.2591 12.5036 14.1566 14.0837 13.7739 14.3733C13.2581 18.1614 14.7431 19.7973 17.2554 21.7228C17.6498 21.9891 17.3664 22.0298 17.4192 22.2324C16.5848 21.842 15.8209 21.252 15.1922 20.5297C15.5259 21.0176 15.8857 21.4919 16.3511 21.8645C15.5636 21.5986 14.5122 19.9576 14.2059 19.8909C15.5624 22.3198 19.7088 24.1506 21.8811 23.242C20.8759 23.2792 19.5993 23.2625 18.4707 22.8453C17.9952 22.6012 17.3513 22.0962 17.4666 22.0019C20.4303 23.1084 23.4911 22.8395 26.0551 20.7843C26.7079 20.2759 27.4205 19.4115 27.6266 19.3999C27.3165 19.8664 27.6798 19.6242 27.4415 20.036C28.0904 18.9877 27.1585 19.6091 28.1129 18.2258L28.4653 18.711C28.3334 17.84 29.5463 16.7835 29.4228 15.4072C29.7011 14.9865 29.733 15.8606 29.438 16.8286C29.8475 15.7546 29.5463 15.5819 29.6511 14.6954C29.764 14.9935 29.9142 15.3098 29.9907 15.6246C29.7236 14.5863 30.2635 13.8768 30.3978 13.2733C30.2651 13.2151 29.986 13.7321 29.9216 12.5064C29.9313 11.9739 30.0702 12.2273 30.1234 12.0961C30.0194 12.036 29.745 11.6276 29.5785 10.8448C29.6984 10.6604 29.9014 11.3218 30.066 11.3486C29.96 10.7264 29.778 10.2517 29.7702 9.77395C29.2889 8.7687 29.5998 9.90824 29.2101 9.34235C28.6978 7.7456 29.6348 8.97169 29.6984 8.24667C30.4739 9.3703 30.916 11.113 31.1197 11.8345C30.9645 10.9546 30.7141 10.1019 30.4079 9.27715C30.6443 9.3769 30.0279 7.46731 30.7149 8.73183C29.9817 6.03629 27.5796 3.51734 25.3692 2.33588C25.639 2.58312 25.9802 2.89362 25.8583 2.94253C24.7583 2.28853 24.9516 2.23691 24.794 1.96056C23.8994 1.59611 23.8396 1.99045 23.2477 1.96134C21.5594 1.06554 21.2341 1.16063 19.6805 0.600178L19.7511 0.930863C18.6329 0.558261 18.4482 1.07136 17.2399 0.931639C17.1666 0.874584 17.6273 0.723603 18.0069 0.668877C16.9255 0.811708 16.976 0.455407 15.918 0.708078C16.1784 0.52527 16.4547 0.403786 16.7326 0.248535C15.8512 0.302097 14.6274 0.761639 15.0051 0.343238C13.5671 0.9852 11.0128 1.88604 9.57945 3.23013L9.53443 2.92894C8.87772 3.71723 6.67044 5.28332 6.49462 6.30526L6.3188 6.34601C5.97763 6.92471 5.75601 7.58026 5.4851 8.17526C5.03837 8.93715 4.82994 8.46868 4.89359 8.58822C4.01449 10.3705 3.57707 11.8679 3.2002 13.0967C3.46878 13.4984 3.20679 15.5155 3.30809 17.1297C2.86718 25.1034 8.90411 32.8446 15.503 34.6315C16.4703 34.9781 17.9083 34.9657 19.1316 34.9999C17.6886 34.5869 17.5023 34.7814 16.0957 34.2912C15.0815 33.813 14.8595 33.2677 14.1407 32.644L14.4252 33.1466C13.0163 32.6478 13.6059 32.5295 12.4594 32.1666L12.7633 31.7703C12.3064 31.7353 11.5535 31.001 11.3478 30.5931L10.8479 30.6129C10.2478 29.8731 9.9276 29.3387 9.95128 28.9245L9.78982 29.2125C9.60701 28.8985 7.58099 26.4343 8.63203 27.008C8.43681 26.8302 8.17715 26.718 7.89576 26.2061L8.10962 25.962C7.60466 25.3111 7.17889 24.477 7.21149 24.1991C7.48124 24.5631 7.66831 24.6315 7.85384 24.6939C6.57651 21.5253 6.50471 24.5197 5.53788 21.4686L5.74204 21.4523C5.58562 21.2152 5.48976 20.9594 5.364 20.7075L5.45327 19.8206C4.53419 18.7587 5.19633 15.3009 5.32946 13.4049C5.42067 12.6341 6.09679 11.8132 6.61028 10.5258L6.29745 10.4722C6.89594 9.42891 9.71374 6.28081 11.0194 6.44227C11.6517 5.64816 10.8937 6.43916 10.7698 6.23967C12.1589 4.80243 12.5956 5.22432 13.5329 4.96544C14.5432 4.36579 12.6655 5.19987 13.1444 4.73684C14.8921 4.29088 14.3825 3.72227 16.662 3.49599C16.9026 3.63262 16.1043 3.70714 15.904 3.88451C17.3595 3.17191 20.5107 3.33453 22.5584 4.27962C24.9326 5.39006 27.6017 8.67089 27.7073 11.7577L27.8272 11.7899C27.7667 13.0171 28.0151 14.4365 27.5839 15.7399L27.8754 15.1223Z" fill="#D70751"/>
<path d="M13.4744 19.288L13.3925 19.6943C13.774 20.2125 14.0767 20.7737 14.5631 21.1774C14.213 20.4947 13.9533 20.2125 13.4744 19.288ZM14.3752 19.253C14.1734 19.0295 14.0546 18.7609 13.9203 18.4939C14.0484 18.9639 14.3108 19.3679 14.5541 19.7793L14.3752 19.253ZM30.321 15.7871L30.236 16.0013C30.08 17.1106 29.7419 18.2082 29.225 19.2263C29.7963 18.1523 30.1646 16.9775 30.321 15.7871ZM17.7205 0.173105C18.1121 0.0298858 18.6838 0.0943149 19.1007 0C18.5581 0.0454109 18.0182 0.0725798 17.4853 0.140502L17.7205 0.173105ZM3.95323 7.49396C4.04366 8.32998 3.32446 8.65485 4.11236 8.10293C4.53542 7.15047 3.9478 7.84017 3.95323 7.49396ZM3.02638 11.3651C3.20841 10.8074 3.24102 10.4728 3.31049 10.1495C2.80864 10.7915 3.07917 10.9285 3.02638 11.3651Z" fill="#D70751"/>
</svg>
