<svg width="35" height="35" viewBox="0 0 35 35" fill="none" xmlns="http://www.w3.org/2000/svg">
<path d="M34.6328 7.1822C34.2621 6.99882 34.1024 7.34828 33.8856 7.52581C33.8115 7.58308 33.7487 7.65751 33.686 7.72622C33.1441 8.31034 32.511 8.69419 31.684 8.6483C30.4748 8.57952 29.4424 8.96337 28.5297 9.89695C28.3358 8.74573 27.6913 8.05832 26.7103 7.6174C26.197 7.38826 25.6779 7.15913 25.3185 6.66081C25.0676 6.30582 24.9991 5.9106 24.8736 5.52109C24.7937 5.2863 24.7139 5.04566 24.4458 5.00555C24.1549 4.95979 24.0408 5.20596 23.9268 5.41228C23.4705 6.25427 23.2937 7.18213 23.3107 8.12144C23.3507 10.235 24.2348 11.9188 25.9915 13.1159C26.1911 13.2534 26.2424 13.3907 26.1797 13.5913C26.0599 14.0037 25.9173 14.4046 25.7919 14.817C25.712 15.0805 25.5922 15.1377 25.3127 15.0231C24.3488 14.6165 23.516 14.0151 22.7802 13.2877C21.5311 12.0677 20.4017 10.7218 18.993 9.66788C18.6622 9.42158 18.3313 9.19257 17.989 8.97481C16.5517 7.56591 18.1773 6.40885 18.5537 6.27149C18.9473 6.12829 18.6906 5.63563 17.4187 5.64148C16.1467 5.64714 14.9832 6.07674 13.5002 6.64949C13.2835 6.73543 13.0552 6.79835 12.8214 6.8499C11.4753 6.59222 10.0779 6.53483 8.61772 6.70104C5.86847 7.01026 3.6726 8.32191 2.05844 10.5614C0.119197 13.2534 -0.337091 16.3118 0.221888 19.5021C0.809389 22.8641 2.50906 25.6477 5.12143 27.8243C7.83076 30.0808 10.9507 31.1863 14.5099 30.9743C16.6716 30.8484 19.0786 30.5563 21.7936 28.2366C22.478 28.5803 23.1967 28.7177 24.3888 28.8208C25.3071 28.9067 26.1913 28.775 26.8757 28.6319C27.948 28.4027 27.8739 27.4004 27.486 27.2171C24.3433 25.7395 25.0333 26.3408 24.406 25.8539C26.003 23.9467 28.41 21.9649 29.3511 15.5443C29.4253 15.0346 29.3625 14.7138 29.3511 14.3014C29.3454 14.0495 29.4025 13.9521 29.6877 13.9234C30.4748 13.8318 31.2391 13.6142 31.9407 13.2247C33.9769 12.1021 34.7982 10.2578 34.9921 8.04701C35.0207 7.70905 34.9865 7.3596 34.6328 7.1822ZM16.8883 27.0796C13.8425 24.6627 12.3653 23.8664 11.7549 23.9008C11.1846 23.9352 11.2873 24.5939 11.4127 25.0235C11.5439 25.4473 11.715 25.7395 11.9545 26.1117C12.1199 26.358 12.2341 26.7245 11.7892 26.9995C10.8081 27.6124 9.10266 26.7932 9.02276 26.7532C7.03793 25.5733 5.37812 24.0153 4.20879 21.8848C3.07943 19.8342 2.42355 17.6349 2.31513 15.2866C2.28661 14.7196 2.45201 14.519 3.01099 14.4161C3.74677 14.2786 4.5054 14.2499 5.24118 14.3587C8.34982 14.817 10.9963 16.2202 13.215 18.4425C14.4813 19.7082 15.4395 21.2204 16.4263 22.6981C17.4758 24.2673 18.6051 25.7623 20.0425 26.988C20.5501 27.4175 20.9551 27.744 21.3429 27.9846C20.1737 28.1163 18.223 28.1451 16.8883 27.0796ZM18.3485 17.6005C18.3485 17.3485 18.5481 17.1481 18.7992 17.1481C18.8562 17.1481 18.9075 17.1594 18.9532 17.1766C19.0159 17.1996 19.073 17.234 19.1186 17.2854C19.1985 17.3657 19.2441 17.4802 19.2441 17.6005C19.2441 17.8525 19.0445 18.0529 18.7936 18.0529C18.5427 18.0529 18.3485 17.8526 18.3485 17.6005ZM22.883 19.9489C22.5921 20.0692 22.3013 20.1722 22.0218 20.1837C21.5883 20.2065 21.1149 20.029 20.8582 19.8113C20.459 19.4734 20.1738 19.2845 20.054 18.6945C20.0026 18.4425 20.0312 18.053 20.0769 17.8297C20.1795 17.3485 20.0654 17.0393 19.7289 16.7585C19.4551 16.5294 19.1072 16.4665 18.725 16.4665C18.5824 16.4665 18.4513 16.4034 18.3543 16.3519C18.1945 16.2717 18.0635 16.0713 18.1889 15.825C18.2288 15.7449 18.4228 15.5501 18.4684 15.5157C18.9875 15.2178 19.5864 15.3153 20.1396 15.5386C20.653 15.7505 21.0409 16.14 21.5998 16.6898C22.1702 17.3542 22.2728 17.5376 22.5979 18.0358C22.8547 18.4253 23.0885 18.8262 23.2482 19.2845C23.3452 19.5709 23.2196 19.8057 22.883 19.9489Z" fill="#4D6BFE"/>
</svg>
