<svg width="35" height="35" viewBox="0 0 35 35" fill="none" xmlns="http://www.w3.org/2000/svg">
<path d="M34.4306 15.2104C33.5724 14.6321 31.3178 14.3852 29.6789 14.8275C29.591 13.1933 28.7484 11.816 27.2084 10.6143L26.6385 10.2314L26.2586 10.806C25.5117 11.9405 25.1968 13.4528 25.3082 14.8275C25.3962 15.6745 25.6902 16.6262 26.2586 17.317C24.1252 18.5557 22.1585 18.2744 13.4493 18.2744H0.0029772C-0.0360564 20.243 0.279855 24.029 2.68537 27.1113C2.95132 27.452 3.24225 27.7812 3.55868 28.0985C5.51452 30.0587 8.46963 31.4964 12.8882 31.5001C19.6296 31.5063 25.405 27.8588 28.9186 19.0407C30.0745 19.0594 33.1264 19.248 34.6201 16.3595C34.6565 16.3111 35 15.5938 35 15.5938L34.4306 15.2109V15.2104ZM8.77826 13.4106H4.9972V17.1951H8.77826V13.4106ZM13.6627 13.4106H9.88161V17.1951H13.6627V13.4106ZM18.5476 13.4106H14.7665V17.1951H18.5476V13.4106ZM23.4325 13.4106H19.6515V17.1951H23.4325V13.4106ZM3.89333 13.4106H0.112271V17.1951H3.89333V13.4106ZM8.77826 8.63059H4.9972V12.4151H8.77826V8.63059ZM13.6627 8.63059H9.88161V12.4151H13.6627V8.63059ZM18.5476 8.63059H14.7665V12.4151H18.5476V8.63059ZM18.5476 3.8501H14.7665V7.63459H18.5476V3.8501Z" fill="#1D63ED"/>
</svg>
