<svg width="416" height="304" viewBox="0 0 416 304" fill="none" xmlns="http://www.w3.org/2000/svg">
<path d="M308.66 64.2049V58.3949H321.82V109.005H315.38V64.2049H308.66ZM332.818 83.1749C332.818 75.1482 334.125 68.8949 336.738 64.4149C339.351 59.8882 343.925 57.6249 350.458 57.6249C356.945 57.6249 361.495 59.8882 364.108 64.4149C366.721 68.8949 368.028 75.1482 368.028 83.1749C368.028 91.3415 366.721 97.6882 364.108 102.215C361.495 106.742 356.945 109.005 350.458 109.005C343.925 109.005 339.351 106.742 336.738 102.215C334.125 97.6882 332.818 91.3415 332.818 83.1749ZM361.728 83.1749C361.728 79.1149 361.448 75.6849 360.888 72.8849C360.375 70.0382 359.278 67.7515 357.598 66.0249C355.965 64.2982 353.585 63.4349 350.458 63.4349C347.285 63.4349 344.858 64.2982 343.178 66.0249C341.545 67.7515 340.448 70.0382 339.888 72.8849C339.375 75.6849 339.118 79.1149 339.118 83.1749C339.118 87.3749 339.375 90.8982 339.888 93.7449C340.448 96.5915 341.545 98.8782 343.178 100.605C344.858 102.332 347.285 103.195 350.458 103.195C353.585 103.195 355.965 102.332 357.598 100.605C359.278 98.8782 360.375 96.5915 360.888 93.7449C361.448 90.8982 361.728 87.3749 361.728 83.1749ZM397.829 84.6449L412.809 109.005H405.599L393.909 89.9649L382.779 109.005H375.709L390.619 84.6449L375.639 60.2149H382.779L394.539 79.3249L405.739 60.2149H412.879L397.829 84.6449Z" fill="white"/>
<path d="M312.594 125.247V126.283H308.352V129.573H311.796V130.609H308.352V135.005H307.078V125.247H312.594ZM313.668 131.141C313.668 130.357 313.827 129.671 314.144 129.083C314.461 128.486 314.895 128.024 315.446 127.697C316.006 127.37 316.627 127.207 317.308 127.207C317.98 127.207 318.563 127.352 319.058 127.641C319.553 127.93 319.921 128.294 320.164 128.733V127.333H321.452V135.005H320.164V133.577C319.912 134.025 319.534 134.398 319.03 134.697C318.535 134.986 317.957 135.131 317.294 135.131C316.613 135.131 315.997 134.963 315.446 134.627C314.895 134.291 314.461 133.82 314.144 133.213C313.827 132.606 313.668 131.916 313.668 131.141ZM320.164 131.155C320.164 130.576 320.047 130.072 319.814 129.643C319.581 129.214 319.263 128.887 318.862 128.663C318.47 128.43 318.036 128.313 317.56 128.313C317.084 128.313 316.65 128.425 316.258 128.649C315.866 128.873 315.553 129.2 315.32 129.629C315.087 130.058 314.97 130.562 314.97 131.141C314.97 131.729 315.087 132.242 315.32 132.681C315.553 133.11 315.866 133.442 316.258 133.675C316.65 133.899 317.084 134.011 317.56 134.011C318.036 134.011 318.47 133.899 318.862 133.675C319.263 133.442 319.581 133.11 319.814 132.681C320.047 132.242 320.164 131.734 320.164 131.155ZM326.332 135.131C325.744 135.131 325.217 135.033 324.75 134.837C324.283 134.632 323.915 134.352 323.644 133.997C323.373 133.633 323.224 133.218 323.196 132.751H324.512C324.549 133.134 324.727 133.446 325.044 133.689C325.371 133.932 325.795 134.053 326.318 134.053C326.803 134.053 327.186 133.946 327.466 133.731C327.746 133.516 327.886 133.246 327.886 132.919C327.886 132.583 327.737 132.336 327.438 132.177C327.139 132.009 326.677 131.846 326.052 131.687C325.483 131.538 325.016 131.388 324.652 131.239C324.297 131.08 323.989 130.852 323.728 130.553C323.476 130.245 323.35 129.844 323.35 129.349C323.35 128.957 323.467 128.598 323.7 128.271C323.933 127.944 324.265 127.688 324.694 127.501C325.123 127.305 325.613 127.207 326.164 127.207C327.013 127.207 327.699 127.422 328.222 127.851C328.745 128.28 329.025 128.868 329.062 129.615H327.788C327.76 129.214 327.597 128.892 327.298 128.649C327.009 128.406 326.617 128.285 326.122 128.285C325.665 128.285 325.301 128.383 325.03 128.579C324.759 128.775 324.624 129.032 324.624 129.349C324.624 129.601 324.703 129.811 324.862 129.979C325.03 130.138 325.235 130.268 325.478 130.371C325.73 130.464 326.075 130.572 326.514 130.693C327.065 130.842 327.513 130.992 327.858 131.141C328.203 131.281 328.497 131.496 328.74 131.785C328.992 132.074 329.123 132.452 329.132 132.919C329.132 133.339 329.015 133.717 328.782 134.053C328.549 134.389 328.217 134.655 327.788 134.851C327.368 135.038 326.883 135.131 326.332 135.131ZM332.496 128.383V132.905C332.496 133.278 332.575 133.544 332.734 133.703C332.892 133.852 333.168 133.927 333.56 133.927H334.498V135.005H333.35C332.64 135.005 332.108 134.842 331.754 134.515C331.399 134.188 331.222 133.652 331.222 132.905V128.383H330.228V127.333H331.222V125.401H332.496V127.333H334.498V128.383H332.496ZM343.052 130.875C343.052 131.118 343.038 131.374 343.01 131.645H336.878C336.925 132.401 337.182 132.994 337.648 133.423C338.124 133.843 338.698 134.053 339.37 134.053C339.921 134.053 340.378 133.927 340.742 133.675C341.116 133.414 341.377 133.068 341.526 132.639H342.898C342.693 133.376 342.282 133.978 341.666 134.445C341.05 134.902 340.285 135.131 339.37 135.131C338.642 135.131 337.989 134.968 337.41 134.641C336.841 134.314 336.393 133.852 336.066 133.255C335.74 132.648 335.576 131.948 335.576 131.155C335.576 130.362 335.735 129.666 336.052 129.069C336.37 128.472 336.813 128.014 337.382 127.697C337.961 127.37 338.624 127.207 339.37 127.207C340.098 127.207 340.742 127.366 341.302 127.683C341.862 128 342.292 128.439 342.59 128.999C342.898 129.55 343.052 130.175 343.052 130.875ZM341.736 130.609C341.736 130.124 341.629 129.708 341.414 129.363C341.2 129.008 340.906 128.742 340.532 128.565C340.168 128.378 339.762 128.285 339.314 128.285C338.67 128.285 338.12 128.49 337.662 128.901C337.214 129.312 336.958 129.881 336.892 130.609H341.736ZM346.019 128.579C346.243 128.14 346.561 127.8 346.971 127.557C347.391 127.314 347.9 127.193 348.497 127.193V128.509H348.161C346.733 128.509 346.019 129.284 346.019 130.833V135.005H344.745V127.333H346.019V128.579ZM355.277 128.383V132.905C355.277 133.278 355.356 133.544 355.515 133.703C355.673 133.852 355.949 133.927 356.341 133.927H357.279V135.005H356.131C355.421 135.005 354.889 134.842 354.535 134.515C354.18 134.188 354.003 133.652 354.003 132.905V128.383H353.009V127.333H354.003V125.401H355.277V127.333H357.279V128.383H355.277ZM362.642 127.193C363.22 127.193 363.743 127.319 364.21 127.571C364.676 127.814 365.04 128.182 365.302 128.677C365.572 129.172 365.708 129.774 365.708 130.483V135.005H364.448V130.665C364.448 129.9 364.256 129.316 363.874 128.915C363.491 128.504 362.968 128.299 362.306 128.299C361.634 128.299 361.097 128.509 360.696 128.929C360.304 129.349 360.108 129.96 360.108 130.763V135.005H358.834V124.645H360.108V128.425C360.36 128.033 360.705 127.73 361.144 127.515C361.592 127.3 362.091 127.193 362.642 127.193ZM367.324 131.141C367.324 130.357 367.483 129.671 367.8 129.083C368.117 128.486 368.551 128.024 369.102 127.697C369.662 127.37 370.283 127.207 370.964 127.207C371.636 127.207 372.219 127.352 372.714 127.641C373.209 127.93 373.577 128.294 373.82 128.733V127.333H375.108V135.005H373.82V133.577C373.568 134.025 373.19 134.398 372.686 134.697C372.191 134.986 371.613 135.131 370.95 135.131C370.269 135.131 369.653 134.963 369.102 134.627C368.551 134.291 368.117 133.82 367.8 133.213C367.483 132.606 367.324 131.916 367.324 131.141ZM373.82 131.155C373.82 130.576 373.703 130.072 373.47 129.643C373.237 129.214 372.919 128.887 372.518 128.663C372.126 128.43 371.692 128.313 371.216 128.313C370.74 128.313 370.306 128.425 369.914 128.649C369.522 128.873 369.209 129.2 368.976 129.629C368.743 130.058 368.626 130.562 368.626 131.141C368.626 131.729 368.743 132.242 368.976 132.681C369.209 133.11 369.522 133.442 369.914 133.675C370.306 133.899 370.74 134.011 371.216 134.011C371.692 134.011 372.126 133.899 372.518 133.675C372.919 133.442 373.237 133.11 373.47 132.681C373.703 132.242 373.82 131.734 373.82 131.155ZM381.01 127.193C381.943 127.193 382.699 127.478 383.278 128.047C383.857 128.607 384.146 129.419 384.146 130.483V135.005H382.886V130.665C382.886 129.9 382.695 129.316 382.312 128.915C381.929 128.504 381.407 128.299 380.744 128.299C380.072 128.299 379.535 128.509 379.134 128.929C378.742 129.349 378.546 129.96 378.546 130.763V135.005H377.272V127.333H378.546V128.425C378.798 128.033 379.139 127.73 379.568 127.515C380.007 127.3 380.487 127.193 381.01 127.193ZM394.406 135.103C393.501 135.103 392.675 134.893 391.928 134.473C391.181 134.044 390.589 133.451 390.15 132.695C389.721 131.93 389.506 131.071 389.506 130.119C389.506 129.167 389.721 128.313 390.15 127.557C390.589 126.792 391.181 126.199 391.928 125.779C392.675 125.35 393.501 125.135 394.406 125.135C395.321 125.135 396.151 125.35 396.898 125.779C397.645 126.199 398.233 126.787 398.662 127.543C399.091 128.299 399.306 129.158 399.306 130.119C399.306 131.08 399.091 131.939 398.662 132.695C398.233 133.451 397.645 134.044 396.898 134.473C396.151 134.893 395.321 135.103 394.406 135.103ZM394.406 133.997C395.087 133.997 395.699 133.838 396.24 133.521C396.791 133.204 397.22 132.751 397.528 132.163C397.845 131.575 398.004 130.894 398.004 130.119C398.004 129.335 397.845 128.654 397.528 128.075C397.22 127.487 396.795 127.034 396.254 126.717C395.713 126.4 395.097 126.241 394.406 126.241C393.715 126.241 393.099 126.4 392.558 126.717C392.017 127.034 391.587 127.487 391.27 128.075C390.962 128.654 390.808 129.335 390.808 130.119C390.808 130.894 390.962 131.575 391.27 132.163C391.587 132.751 392.017 133.204 392.558 133.521C393.109 133.838 393.725 133.997 394.406 133.997ZM402.553 128.383V132.905C402.553 133.278 402.632 133.544 402.791 133.703C402.95 133.852 403.225 133.927 403.617 133.927H404.555V135.005H403.407C402.698 135.005 402.166 134.842 401.811 134.515C401.456 134.188 401.279 133.652 401.279 132.905V128.383H400.285V127.333H401.279V125.401H402.553V127.333H404.555V128.383H402.553ZM409.918 127.193C410.496 127.193 411.019 127.319 411.486 127.571C411.952 127.814 412.316 128.182 412.578 128.677C412.848 129.172 412.984 129.774 412.984 130.483V135.005H411.724V130.665C411.724 129.9 411.532 129.316 411.15 128.915C410.767 128.504 410.244 128.299 409.582 128.299C408.91 128.299 408.373 128.509 407.972 128.929C407.58 129.349 407.384 129.96 407.384 130.763V135.005H406.11V124.645H407.384V128.425C407.636 128.033 407.981 127.73 408.42 127.515C408.868 127.3 409.367 127.193 409.918 127.193ZM422.076 130.875C422.076 131.118 422.062 131.374 422.034 131.645H415.902C415.949 132.401 416.205 132.994 416.672 133.423C417.148 133.843 417.722 134.053 418.394 134.053C418.945 134.053 419.402 133.927 419.766 133.675C420.139 133.414 420.401 133.068 420.55 132.639H421.922C421.717 133.376 421.306 133.978 420.69 134.445C420.074 134.902 419.309 135.131 418.394 135.131C417.666 135.131 417.013 134.968 416.434 134.641C415.865 134.314 415.417 133.852 415.09 133.255C414.763 132.648 414.6 131.948 414.6 131.155C414.6 130.362 414.759 129.666 415.076 129.069C415.393 128.472 415.837 128.014 416.406 127.697C416.985 127.37 417.647 127.207 418.394 127.207C419.122 127.207 419.766 127.366 420.326 127.683C420.886 128 421.315 128.439 421.614 128.999C421.922 129.55 422.076 130.175 422.076 130.875ZM420.76 130.609C420.76 130.124 420.653 129.708 420.438 129.363C420.223 129.008 419.929 128.742 419.556 128.565C419.192 128.378 418.786 128.285 418.338 128.285C417.694 128.285 417.143 128.49 416.686 128.901C416.238 129.312 415.981 129.881 415.916 130.609H420.76ZM425.043 128.579C425.267 128.14 425.584 127.8 425.995 127.557C426.415 127.314 426.924 127.193 427.521 127.193V128.509H427.185C425.757 128.509 425.043 129.284 425.043 130.833V135.005H423.769V127.333H425.043V128.579ZM431.719 135.131C431.131 135.131 430.603 135.033 430.137 134.837C429.67 134.632 429.301 134.352 429.031 133.997C428.76 133.633 428.611 133.218 428.583 132.751H429.899C429.936 133.134 430.113 133.446 430.431 133.689C430.757 133.932 431.182 134.053 431.705 134.053C432.19 134.053 432.573 133.946 432.853 133.731C433.133 133.516 433.273 133.246 433.273 132.919C433.273 132.583 433.123 132.336 432.825 132.177C432.526 132.009 432.064 131.846 431.439 131.687C430.869 131.538 430.403 131.388 430.039 131.239C429.684 131.08 429.376 130.852 429.115 130.553C428.863 130.245 428.737 129.844 428.737 129.349C428.737 128.957 428.853 128.598 429.087 128.271C429.32 127.944 429.651 127.688 430.081 127.501C430.51 127.305 431 127.207 431.551 127.207C432.4 127.207 433.086 127.422 433.609 127.851C434.131 128.28 434.411 128.868 434.449 129.615H433.175C433.147 129.214 432.983 128.892 432.685 128.649C432.395 128.406 432.003 128.285 431.509 128.285C431.051 128.285 430.687 128.383 430.417 128.579C430.146 128.775 430.011 129.032 430.011 129.349C430.011 129.601 430.09 129.811 430.249 129.979C430.417 130.138 430.622 130.268 430.865 130.371C431.117 130.464 431.462 130.572 431.901 130.693C432.451 130.842 432.899 130.992 433.245 131.141C433.59 131.281 433.884 131.496 434.127 131.785C434.379 132.074 434.509 132.452 434.519 132.919C434.519 133.339 434.402 133.717 434.169 134.053C433.935 134.389 433.604 134.655 433.175 134.851C432.755 135.038 432.269 135.131 431.719 135.131Z" fill="#EAF4F4"/>
<path d="M296 77.7432C295.989 77.4405 295.89 77.1459 295.716 76.8968L283.322 58.7028C282.827 57.9743 281.837 57.7868 281.109 58.2796C280.943 58.3921 280.798 58.5368 280.686 58.7028L268.279 76.8942C267.781 77.62 267.968 78.6137 268.696 79.1092C268.961 79.2913 269.274 79.3877 269.596 79.3877H275.9V107.417C275.902 108.292 276.612 109.002 277.487 109.005H286.508C287.389 109.008 288.103 108.298 288.106 107.417V79.3877H294.397C295.277 79.3904 295.992 78.6806 295.997 77.7994C295.997 77.7807 295.997 77.7593 295.997 77.7405L296 77.7432Z" fill="white"/>
<path d="M93.698 8.70605L90.6569 20.0557" stroke="white" stroke-width="2" stroke-linejoin="round"/>
<path d="M162.372 37.1509L156.497 47.3267" stroke="white" stroke-width="2" stroke-linejoin="round"/>
<path d="M221.344 82.4004L213.036 90.7089" stroke="white" stroke-opacity="0.32" stroke-width="2" stroke-linejoin="round"/>
<path d="M266.596 141.372L256.42 147.247" stroke="white" stroke-opacity="0.32" stroke-width="2" stroke-linejoin="round"/>
<path d="M295.044 210.046L283.694 213.088" stroke="white" stroke-opacity="0.32" stroke-width="2" stroke-linejoin="round"/>
<path d="M44.8159 0.0869141L43.7918 11.7922" stroke="white" stroke-width="2" stroke-linejoin="round"/>
<path d="M117.388 16.1748L113.369 27.2162" stroke="white" stroke-width="2" stroke-linejoin="round"/>
<path d="M183.322 50.4971L176.582 60.1221" stroke="white" stroke-width="2" stroke-linejoin="round"/>
<path d="M238.127 100.714L229.126 108.267" stroke="white" stroke-opacity="0.32" stroke-width="2" stroke-linejoin="round"/>
<path d="M278.066 163.406L267.417 168.372" stroke="white" stroke-opacity="0.32" stroke-width="2" stroke-linejoin="round"/>
<path d="M300.419 234.297L288.847 236.338" stroke="white" stroke-opacity="0.32" stroke-width="2" stroke-linejoin="round"/>
<path d="M69.4436 3.3291L67.4032 14.9006" stroke="white" stroke-width="2" stroke-linejoin="round"/>
<path d="M140.337 25.6802L135.372 36.3293" stroke="white" stroke-width="2" stroke-linejoin="round"/>
<path d="M203.028 65.6182L195.475 74.6192" stroke="white" stroke-width="2" stroke-linejoin="round"/>
<path d="M253.249 120.422L243.623 127.161" stroke="white" stroke-opacity="0.32" stroke-width="2" stroke-linejoin="round"/>
<path d="M287.574 186.355L276.533 190.374" stroke="white" stroke-opacity="0.32" stroke-width="2" stroke-linejoin="round"/>
<path d="M303.663 258.926L291.958 259.95" stroke="white" stroke-opacity="0.32" stroke-width="2" stroke-linejoin="round"/>
<path d="M218.059 79.4277L20.0697 284.064" stroke="white" stroke-width="2" stroke-linejoin="round"/>
<circle cx="60" cy="244.005" r="60" fill="#58D7A7"/>
<path d="M72.2387 225.156V214.877C72.2387 214.395 71.8481 214.005 71.3663 214.005H48.6366C48.1548 214.005 47.7642 214.395 47.7642 214.877V230.855C47.7642 231.279 47.467 231.646 47.0518 231.733L30.6924 235.143C30.2888 235.228 30 235.584 30 235.997V273.133C30 273.614 30.3906 274.005 30.8724 274.005H46.9066C47.3884 274.005 47.779 273.614 47.779 273.133V232.425C47.779 232.001 48.0762 231.635 48.4914 231.547L71.1383 226.772C71.6963 226.655 72.2211 227.08 72.2211 227.65V273.133C72.2211 273.614 72.6116 274.005 73.0934 274.005H89.1276C89.6094 274.005 90 273.614 90 273.133V223.632C90 223.078 89.49 222.664 88.9477 222.778L73.3215 226.034C72.7635 226.152 72.2387 225.726 72.2387 225.156Z" fill="white"/>
</svg>
