<svg width="35" height="35" viewBox="0 0 35 35" fill="none" xmlns="http://www.w3.org/2000/svg">
<path d="M35 17.5006C35 7.83541 27.1648 0 17.4997 0C7.83896 0 0.00685405 7.82883 0 17.4883V31.0309C0.00519903 33.2241 1.784 34.9996 3.97861 34.9996H17.5068C27.1687 34.9958 35 27.1632 35 17.5006Z" fill="#294172"/>
<path d="M14.4588 20.5501H10.0893C7.67783 20.5501 5.7198 22.5081 5.7198 24.9196C5.7198 27.331 7.67782 29.2892 10.0893 29.2892C12.5007 29.2892 14.4588 27.331 14.4588 24.9196V20.5501ZM18.2986 24.9196C18.2986 29.4517 14.6213 33.1289 10.0893 33.1289C5.55717 33.1289 1.87988 29.4517 1.87988 24.9196C1.87989 20.3875 5.55717 16.7102 10.0893 16.7102H18.2986V24.9196Z" fill="#3C6EB4"/>
<path d="M18.2682 16.7226H22.6378C25.0492 16.7226 27.0073 14.7646 27.0073 12.3531C27.0073 9.94171 25.0492 7.98355 22.6378 7.98355C20.2264 7.98355 18.2682 9.94171 18.2682 12.3531V16.7226ZM14.4284 12.3531C14.4284 7.82105 18.1057 4.14376 22.6378 4.14376C27.1699 4.14377 30.8472 7.82105 30.8472 12.3531C30.8472 16.8852 27.1699 20.5625 22.6378 20.5625H14.4284V12.3531Z" fill="#3C6EB4"/>
<path d="M18.3024 16.7151V24.9108C18.3024 29.4465 14.6249 33.1241 10.0891 33.1241C9.40091 33.1241 8.91169 33.0464 8.27468 32.8799C7.34583 32.6368 6.58674 31.8752 6.58643 30.9894C6.58643 29.9187 7.36363 29.1398 8.52542 29.1398C9.07837 29.1398 9.27901 29.246 10.0891 29.246C12.4804 29.246 14.4202 27.309 14.4244 24.9176V21.1506C14.4244 20.8131 14.1501 20.5396 13.812 20.5396L10.964 20.539C9.90286 20.539 9.04553 19.6926 9.04553 18.6286C9.04496 17.558 9.91166 16.7151 10.9842 16.7151" fill="white"/>
<path d="M14.4246 20.5571V12.3614C14.4246 7.82572 18.1021 4.14815 22.638 4.14815C23.3261 4.14815 23.8154 4.22584 24.4524 4.39235C25.3812 4.63543 26.1403 5.397 26.1406 6.28281C26.1406 7.35353 25.3634 8.13237 24.2016 8.13237C23.6487 8.13237 23.448 8.0262 22.638 8.0262C20.2466 8.0262 18.3069 9.96321 18.3027 12.3546V16.1216C18.3027 16.4592 18.577 16.7327 18.9151 16.7327L21.7631 16.7332C22.8242 16.7332 23.6815 17.5796 23.6815 18.6436C23.6821 19.7142 22.8154 20.5571 21.7428 20.5571" fill="white"/>
</svg>
