<svg width="35" height="35" viewBox="0 0 35 35" fill="none" xmlns="http://www.w3.org/2000/svg">
<path d="M31.1803 29.9958C33.1197 29.3362 34.629 27.1004 34.9916 24.2895V23.4771H25.0488V29.9965H31.1789L31.1803 29.9958ZM34.993 11.5236V10.7885C34.6118 7.85523 32.9904 5.54375 30.9231 5.0007H25.0502V11.5229L34.993 11.5236ZM0 23.4778V24.2832C0.360048 27.0969 1.8691 29.3367 3.81409 29.9965H9.91327V23.4771L0 23.4778ZM4.06846 5.00563C2.00402 5.54896 0.378037 7.86156 0 10.7991V11.529H9.91327V5.00675L4.06846 5.00563ZM35 14.2431H25.0572V20.7653H35V14.2431ZM12.627 30H22.3533V23.4806H12.627V30ZM22.3533 5H12.627V11.5222H22.3533V5ZM0.00843277 20.7569H9.9217V14.2347H0.00843277V20.7569Z" fill="#EE2E24"/>
</svg>
