<svg width="35" height="35" viewBox="0 0 35 35" fill="none" xmlns="http://www.w3.org/2000/svg">
<path d="M34.4187 14.3429L34.3695 14.2171L29.6056 1.78417C29.5086 1.54049 29.337 1.33377 29.1153 1.19368C28.8935 1.05597 28.6347 0.989648 28.374 1.00366C28.1133 1.01768 27.8631 1.11135 27.6573 1.27205C27.4538 1.43736 27.3062 1.66136 27.2345 1.91356L24.0179 11.7549H10.9926L7.77592 1.91356C7.70616 1.65998 7.55821 1.43486 7.35311 1.27023C7.14731 1.10953 6.89717 1.01585 6.63644 1.00184C6.37571 0.987825 6.11696 1.05415 5.89513 1.19186C5.67393 1.33251 5.50245 1.53905 5.40488 1.78234L0.63181 14.2098L0.584425 14.3356C-0.101368 16.1274 -0.186018 18.0937 0.343238 19.9379C0.872495 21.7821 1.98697 23.4042 3.51862 24.5597L3.53502 24.5724L3.57876 24.6034L10.8359 30.038L14.4261 32.7554L16.6131 34.4065C16.8689 34.6008 17.1813 34.7059 17.5025 34.7059C17.8237 34.7059 18.136 34.6008 18.3919 34.4065L20.5788 32.7554L24.1691 30.038L31.47 24.5706L31.4882 24.556C33.0164 23.4003 34.1283 21.7799 34.6567 19.9382C35.1852 18.0965 35.1017 16.133 34.4187 14.3429Z" fill="#171321"/>
</svg>
