<svg width="35" height="35" viewBox="0 0 35 35" fill="none" xmlns="http://www.w3.org/2000/svg">
<path d="M16.9869 34.2751C16.9396 34.2743 16.8926 34.2832 16.8488 34.3011C16.805 34.3191 16.7653 34.3458 16.7321 34.3796C16.6989 34.4134 16.6729 34.4537 16.6557 34.4979C16.6385 34.5421 16.6304 34.5894 16.632 34.6368C16.6302 34.6843 16.6381 34.7318 16.6552 34.7761C16.6723 34.8205 16.6983 34.861 16.7315 34.8949C16.7647 34.9289 16.8045 34.9558 16.8484 34.9738C16.8923 34.9919 16.9395 35.0007 16.9869 34.9999C17.0345 35.0009 17.0818 34.9922 17.1259 34.9743C17.1699 34.9563 17.2099 34.9295 17.2433 34.8955C17.2766 34.8615 17.3027 34.821 17.3199 34.7765C17.3371 34.732 17.3451 34.6845 17.3433 34.6368C17.3462 34.5471 17.3146 34.4596 17.255 34.3926C17.1955 34.3256 17.1125 34.284 17.0233 34.2766L16.9869 34.2751ZM13.6124 7.82403C14.2354 8.02411 14.7537 8.46396 15.0534 9.04694C15.3531 9.62991 15.4098 10.3083 15.2109 10.9332L15.1076 11.184L15.0844 11.2423L15.0582 11.3211C14.9564 11.5544 14.9069 11.7878 14.9069 12.0473C14.856 13.0827 15.5906 13.9125 16.632 13.9636H17.1644C19.0684 14.0409 20.5651 15.6742 20.4894 17.6429C20.4138 19.5854 18.8138 21.1137 16.8851 21.0365H16.632C15.592 21.0627 14.7789 21.9698 14.8298 23.0314C14.8298 23.2123 14.856 23.3669 14.9069 23.5229C15.2109 24.0669 15.6924 24.4825 16.3033 24.6896C17.3942 25.025 18.5098 24.5073 19.0669 23.5492L19.0931 23.4981C19.6778 22.5648 20.7949 22.0981 21.8858 22.4612C23.128 22.8754 23.8901 24.2491 23.4843 25.6214C23.3915 25.926 23.2396 26.2092 23.0375 26.4549C22.8353 26.7006 22.5868 26.9039 22.3062 27.0531C22.0256 27.2024 21.7184 27.2947 21.4021 27.3248C21.0859 27.3549 20.7669 27.3222 20.4633 27.2285C19.9171 27.0462 19.4509 26.6798 19.144 26.1916L19.1193 26.1406C18.8284 25.6696 18.4458 25.2948 17.8814 25.1037L17.8 25.0775C17.2739 24.9005 16.7028 24.9122 16.1844 25.1106C15.666 25.3091 15.2324 25.6819 14.9578 26.1654C14.7886 26.4468 14.5639 26.6907 14.2976 26.8822C14.0313 27.0738 13.7289 27.209 13.4087 27.2795C12.7786 27.4149 12.1206 27.2947 11.5785 26.9452C11.0364 26.5957 10.6543 26.0454 10.5157 25.4143C10.2117 24.0931 10.9986 22.7456 12.344 22.435C12.4855 22.4038 12.6297 22.3867 12.7746 22.3839H12.8008C13.7898 22.2804 14.4749 21.4769 14.424 20.44C14.4118 20.0785 14.2973 19.728 14.0938 19.4294C13.7199 18.8146 13.5347 18.103 13.5615 17.3834C13.5783 16.7589 13.7621 16.1505 14.0938 15.6217C14.2975 15.3373 14.3993 14.9742 14.424 14.6111C14.4502 13.5757 13.688 12.7721 12.6989 12.6686L12.5971 12.6423C12.4489 12.6241 12.3031 12.5898 12.1622 12.5403L12.0895 12.5125C11.4871 12.2961 10.9919 11.854 10.7079 11.279C10.4239 10.7041 10.3732 10.0412 10.5666 9.42965C10.7605 8.81339 11.1893 8.29889 11.7598 7.99817C12.3303 7.69745 12.9961 7.63486 13.6124 7.82403ZM5.50334 22.5677C5.88152 22.1827 6.43279 22.0325 6.94915 22.1739C7.46551 22.3139 7.86987 22.7267 8.00805 23.2531C8.14623 23.781 7.99787 24.3439 7.61969 24.7304C7.03497 25.3283 6.08806 25.3283 5.50334 24.7304C5.2224 24.4412 5.06518 24.0535 5.06518 23.6498C5.06518 23.2461 5.2224 22.8569 5.50334 22.5677ZM27.0959 22.1389C27.6181 22.0077 28.1694 22.1739 28.5388 22.5721C28.9083 22.9717 29.0392 23.5419 28.8836 24.0669C28.7279 24.5919 28.3076 24.9914 27.7839 25.1139C26.9825 25.3006 26.1839 24.7931 25.9949 23.975C25.902 23.5852 25.9654 23.1744 26.1712 22.8308C26.3771 22.4873 26.7091 22.2398 27.0959 22.1389ZM27.0029 15.7369C27.4596 16.2036 27.7156 16.835 27.7156 17.4956C27.7156 18.1548 27.4596 18.7877 27.0029 19.2544C26.5447 19.721 25.9265 19.9835 25.2792 19.9835C24.6334 19.9835 24.0138 19.721 23.5571 19.2544C23.0993 18.784 22.8431 18.1528 22.8431 17.4956C22.8431 16.8385 23.0993 16.2073 23.5571 15.7369C23.7812 15.5063 24.0491 15.3231 24.345 15.1979C24.6409 15.0728 24.9588 15.0083 25.28 15.0083C25.6011 15.0083 25.919 15.0728 26.2149 15.1979C26.5108 15.3231 26.7787 15.5063 27.0029 15.7369ZM10.6495 15.9746C11.1789 16.6804 11.2997 17.6196 10.9666 18.4406C10.848 18.7403 10.6711 19.0133 10.4463 19.2436C10.2214 19.474 9.95298 19.6572 9.65674 19.7825C9.36049 19.9078 9.04233 19.9727 8.72081 19.9734C8.39929 19.9741 8.08085 19.9106 7.78405 19.7867C6.54043 19.2617 5.95134 17.8063 6.46479 16.5375C6.62546 16.1366 6.88904 15.7854 7.22879 15.5195C7.56854 15.2537 7.97237 15.0826 8.39932 15.0238C9.26186 14.9071 10.12 15.2702 10.6495 15.9746ZM27.4421 9.81902C27.9774 9.81902 28.4719 10.1107 28.7396 10.5832C29.0072 11.0557 29.0072 11.639 28.7396 12.1115C28.6102 12.3427 28.4219 12.5353 28.1939 12.6695C27.966 12.8038 27.7065 12.8749 27.4421 12.8757C26.6159 12.8757 25.944 12.1903 25.944 11.3473C25.944 10.503 26.6159 9.81902 27.4421 9.81902ZM6.55788 9.81902C7.09315 9.81902 7.58624 10.1107 7.85387 10.5832C8.12151 11.0557 8.12151 11.639 7.85387 12.1115C7.72463 12.3425 7.53656 12.5349 7.30887 12.6692C7.08118 12.8034 6.82203 12.8747 6.55788 12.8757C5.73025 12.8757 5.05971 12.1903 5.05971 11.3473C5.05971 10.503 5.73025 9.81902 6.55788 9.81902ZM21.1483 7.66799C22.4938 7.66799 23.5847 8.78215 23.5847 10.1559C23.5847 11.5296 22.4938 12.6423 21.1483 12.6423C19.8029 12.6423 18.7134 11.5296 18.7134 10.1559C18.7134 8.78215 19.8043 7.66799 21.1483 7.66799ZM17.3287 6.67049C17.8553 6.55091 18.2785 6.15133 18.4356 5.62342C18.5132 5.36495 18.5221 5.09065 18.4614 4.82768C18.4007 4.56472 18.2724 4.32223 18.0894 4.12426C17.9087 3.92889 17.6787 3.78596 17.4238 3.71052C17.1689 3.63507 16.8984 3.62989 16.6407 3.69551C15.8451 3.89968 15.3593 4.71634 15.5469 5.52863C15.736 6.34237 16.5287 6.85133 17.3287 6.67049ZM17.3287 31.2812C17.8509 31.1543 18.2654 30.7562 18.4196 30.2312C18.495 29.9747 18.5028 29.7031 18.4424 29.4427C18.382 29.1823 18.2554 28.942 18.0749 28.7452C17.8966 28.5509 17.6698 28.4078 17.418 28.3306C17.1662 28.2535 16.8984 28.245 16.6422 28.3062C16.3816 28.3663 16.1416 28.4949 15.9468 28.6786C15.7521 28.8623 15.6095 29.0947 15.5338 29.3518C15.3767 29.8783 15.5091 30.4514 15.8815 30.851C16.2378 31.2345 16.7629 31.4008 17.2676 31.2958L17.3302 31.2812H17.3287ZM24.549 5.10425C24.6703 5.10369 24.7903 5.07903 24.902 5.03171C25.0137 4.98439 25.1149 4.91534 25.1999 4.82856C25.2848 4.74177 25.3518 4.63897 25.3968 4.52609C25.4419 4.41322 25.4642 4.2925 25.4625 4.17093C25.4625 3.65322 25.0567 3.2376 24.549 3.2376C24.4278 3.23816 24.3078 3.26282 24.1961 3.31014C24.0844 3.35746 23.9831 3.42651 23.8982 3.5133C23.8133 3.60008 23.7463 3.70288 23.7013 3.81576C23.6562 3.92864 23.6339 4.04935 23.6356 4.17093C23.6356 4.68863 24.0429 5.10425 24.549 5.10425ZM9.45095 5.10425C9.57222 5.10369 9.69218 5.07903 9.80389 5.03171C9.9156 4.98439 10.0169 4.91534 10.1018 4.82856C10.1867 4.74177 10.2537 4.63897 10.2987 4.52609C10.3438 4.41322 10.3661 4.2925 10.3644 4.17093C10.3644 3.65322 9.95713 3.2376 9.45095 3.2376C9.32968 3.23816 9.20973 3.26282 9.09802 3.31014C8.98631 3.35746 8.88506 3.42651 8.80012 3.5133C8.71518 3.60008 8.64824 3.70288 8.60317 3.81576C8.55809 3.92864 8.53577 4.04935 8.5375 4.17093C8.5375 4.68863 8.94332 5.10425 9.45095 5.10425ZM1.91354 16.555C1.79227 16.5556 1.67232 16.5802 1.56061 16.6276C1.44889 16.6749 1.34765 16.7439 1.26271 16.8307C1.17777 16.9175 1.11083 17.0203 1.06576 17.1332C1.02068 17.2461 0.998362 17.3668 1.00009 17.4883C1.00009 18.0046 1.40736 18.4202 1.91354 18.4202C2.14989 18.4193 2.37673 18.3268 2.54668 18.1621C2.71663 17.9974 2.81654 17.7733 2.82554 17.5365L2.82699 17.4869C2.83094 17.3647 2.81014 17.243 2.76585 17.1292C2.72157 17.0153 2.65471 16.9116 2.56933 16.8244C2.48396 16.7371 2.38182 16.6682 2.26911 16.6216C2.15639 16.5751 2.03543 16.5519 1.91354 16.5536V16.555ZM9.45095 29.8695C9.32968 29.8701 9.20973 29.8948 9.09802 29.9421C8.98631 29.9894 8.88506 30.0584 8.80012 30.1452C8.71518 30.232 8.64824 30.3348 8.60317 30.4477C8.55809 30.5606 8.53577 30.6813 8.5375 30.8029C8.5375 31.3206 8.94332 31.7362 9.45095 31.7362C9.57222 31.7356 9.69218 31.711 9.80389 31.6636C9.9156 31.6163 10.0169 31.5473 10.1018 31.4605C10.1867 31.3737 10.2537 31.2709 10.2987 31.158C10.3438 31.0451 10.3661 30.9244 10.3644 30.8029C10.3644 30.2852 9.95713 29.8695 9.45095 29.8695ZM24.549 29.8958C24.4278 29.8963 24.3078 29.921 24.1961 29.9683C24.0844 30.0156 23.9831 30.0847 23.8982 30.1715C23.8133 30.2583 23.7463 30.3611 23.7013 30.4739C23.6562 30.5868 23.6339 30.7075 23.6356 30.8291C23.6356 31.3468 24.0429 31.7624 24.549 31.7624C24.6703 31.7619 24.7903 31.7372 24.902 31.6899C25.0137 31.6426 25.1149 31.5735 25.1999 31.4867C25.2848 31.4 25.3518 31.2972 25.3968 31.1843C25.4419 31.0714 25.4642 30.9507 25.4625 30.8291C25.4625 30.3114 25.0567 29.8958 24.549 29.8958ZM32.0865 16.555C31.9652 16.5556 31.8452 16.5802 31.7335 16.6276C31.6218 16.6749 31.5206 16.7439 31.4356 16.8307C31.3507 16.9175 31.2837 17.0203 31.2387 17.1332C31.1936 17.2461 31.1713 17.3668 31.173 17.4883C31.173 18.0046 31.5788 18.4202 32.0865 18.4202C32.2077 18.4197 32.3277 18.395 32.4394 18.3477C32.5511 18.3004 32.6524 18.2313 32.7373 18.1445C32.8222 18.0577 32.8892 17.9549 32.9342 17.8421C32.9793 17.7292 33.0016 17.6085 32.9999 17.4869C32.9999 16.9692 32.5926 16.5536 32.0865 16.5536V16.555ZM31.5279 9.27506C31.5754 9.27589 31.6225 9.26701 31.6664 9.24896C31.7103 9.23091 31.7501 9.20407 31.7833 9.17008C31.8165 9.1361 31.8425 9.09567 31.8596 9.05129C31.8767 9.00691 31.8846 8.95949 31.8828 8.91194C31.8846 8.86439 31.8767 8.81697 31.8596 8.77259C31.8425 8.72821 31.8165 8.68779 31.7833 8.6538C31.7501 8.61981 31.7103 8.59297 31.6664 8.57492C31.6225 8.55687 31.5754 8.54799 31.5279 8.54882C31.4805 8.54799 31.4333 8.55687 31.3894 8.57492C31.3455 8.59297 31.3057 8.61981 31.2725 8.6538C31.2393 8.68779 31.2133 8.72821 31.1962 8.77259C31.1791 8.81697 31.1712 8.86439 31.173 8.91194C31.173 9.11902 31.3505 9.27506 31.5279 9.27506ZM16.9869 0.724903C17.0344 0.725921 17.0815 0.717229 17.1255 0.699357C17.1695 0.681486 17.2094 0.65481 17.2427 0.620961C17.2761 0.587111 17.3022 0.546799 17.3195 0.502487C17.3368 0.458175 17.3449 0.410794 17.3433 0.363239C17.3451 0.315438 17.3371 0.267774 17.3198 0.223189C17.3025 0.178604 17.2763 0.138045 17.2428 0.104016C17.2092 0.0699877 17.1691 0.0432115 17.1248 0.0253412C17.0806 0.00747081 17.0331 -0.00111436 16.9855 0.000115755C16.938 -0.000711046 16.8909 0.00817217 16.847 0.0262225C16.8031 0.0442729 16.7633 0.0711113 16.7301 0.105098C16.6968 0.139084 16.6709 0.179504 16.6538 0.223888C16.6367 0.268273 16.6288 0.315689 16.6305 0.363239C16.6305 0.557196 16.7876 0.707403 16.9549 0.723445L16.9855 0.724903H16.9869ZM2.47063 9.27506C2.5182 9.27609 2.56549 9.26736 2.60957 9.2494C2.65365 9.23144 2.69361 9.20463 2.72699 9.17062C2.76036 9.13661 2.78645 9.09612 2.80364 9.05164C2.82084 9.00716 2.82879 8.95962 2.82699 8.91194C2.82878 8.86439 2.82088 8.81697 2.80377 8.77259C2.78666 8.72821 2.7607 8.68779 2.72748 8.6538C2.69427 8.61981 2.65449 8.59297 2.61057 8.57492C2.56666 8.55687 2.51954 8.54799 2.47209 8.54882C2.42463 8.54799 2.37751 8.55687 2.3336 8.57492C2.28968 8.59297 2.2499 8.61981 2.21669 8.6538C2.18347 8.68779 2.15751 8.72821 2.1404 8.77259C2.12329 8.81697 2.11539 8.86439 2.11718 8.91194C2.11539 8.95949 2.12329 9.00691 2.1404 9.05129C2.15751 9.09567 2.18347 9.1361 2.21669 9.17008C2.2499 9.20407 2.28968 9.23091 2.3336 9.24896C2.37751 9.26701 2.42463 9.27589 2.47209 9.27506H2.47063ZM2.47063 25.7002C2.42343 25.6996 2.37659 25.7086 2.33295 25.7266C2.2893 25.7447 2.24977 25.7714 2.21673 25.8052C2.18369 25.839 2.15783 25.8792 2.14072 25.9233C2.12361 25.9674 2.1156 26.0145 2.11718 26.0618C2.11539 26.1094 2.12329 26.1568 2.1404 26.2012C2.15751 26.2456 2.18347 26.286 2.21669 26.32C2.2499 26.354 2.28968 26.3808 2.3336 26.3989C2.37751 26.4169 2.42463 26.4258 2.47209 26.425C2.51954 26.4258 2.56666 26.4169 2.61057 26.3989C2.65449 26.3808 2.69427 26.354 2.72748 26.32C2.7607 26.286 2.78666 26.2456 2.80377 26.2012C2.82088 26.1568 2.82878 26.1094 2.82699 26.0618C2.82554 25.9674 2.78786 25.8771 2.72178 25.8098C2.65569 25.7424 2.56627 25.7032 2.47209 25.7002H2.47063ZM31.5541 25.6739C31.5067 25.6729 31.4595 25.6816 31.4155 25.6995C31.3715 25.7173 31.3316 25.744 31.2983 25.7779C31.2649 25.8117 31.2388 25.852 31.2215 25.8963C31.2042 25.9407 31.1961 25.988 31.1977 26.0356C31.1957 26.0834 31.2035 26.1311 31.2206 26.1757C31.2377 26.2204 31.2638 26.2611 31.2972 26.2952C31.3306 26.3294 31.3706 26.3563 31.4148 26.3744C31.459 26.3924 31.5064 26.4012 31.5541 26.4002C31.6017 26.401 31.6489 26.3921 31.6929 26.3739C31.737 26.3558 31.7768 26.3288 31.81 26.2947C31.8433 26.2605 31.8692 26.22 31.8862 26.1754C31.9032 26.1308 31.911 26.0833 31.909 26.0356C31.9076 25.9411 31.8699 25.8509 31.8038 25.7835C31.7377 25.7162 31.6483 25.6769 31.5541 25.6739Z" fill="#3859FF"/>
</svg>
