<svg width="122" height="40" viewBox="0 0 122 40" fill="none" xmlns="http://www.w3.org/2000/svg">
<path d="M52.0005 21.0502C52.0005 26.8051 47.4985 31.0457 41.9735 31.0457C36.4484 31.0457 31.9464 26.8051 31.9464 21.0502C31.9464 15.2548 36.4484 11.0547 41.9735 11.0547C47.4985 11.0547 52.0005 15.2548 52.0005 21.0502ZM47.6112 21.0502C47.6112 17.454 45.0019 14.9934 41.9735 14.9934C38.9451 14.9934 36.3358 17.454 36.3358 21.0502C36.3358 24.6104 38.9451 27.107 41.9735 27.107C45.0019 27.107 47.6112 24.6059 47.6112 21.0502Z" fill="black"/>
<path d="M73.6329 21.0502C73.6329 26.8051 69.1308 31.0457 63.6058 31.0457C58.0808 31.0457 53.5787 26.8051 53.5787 21.0502C53.5787 15.2593 58.0808 11.0547 63.6058 11.0547C69.1308 11.0547 73.6329 15.2548 73.6329 21.0502ZM69.2435 21.0502C69.2435 17.454 66.6342 14.9934 63.6058 14.9934C60.5774 14.9934 57.9681 17.454 57.9681 21.0502C57.9681 24.6104 60.5774 27.107 63.6058 27.107C66.6342 27.107 69.2435 24.6059 69.2435 21.0502Z" fill="black"/>
<path d="M94.3621 11.6586V29.6036C94.3621 36.9853 90.0088 40.0002 84.8623 40.0002C80.0178 40.0002 77.1021 36.76 76.0025 34.1102L79.824 32.5194C80.5045 34.1462 82.1719 36.066 84.8578 36.066C88.1521 36.066 90.1936 34.0336 90.1936 30.2075V28.7699H90.0404C89.0579 29.9822 87.1652 31.0412 84.7767 31.0412C79.779 31.0412 75.2003 26.6879 75.2003 21.0863C75.2003 15.4441 79.779 11.0547 84.7767 11.0547C87.1607 11.0547 89.0534 12.1137 90.0404 13.2899H90.1936V11.6631H94.3621V11.6586ZM90.5045 21.0863C90.5045 17.5666 88.1566 14.9934 85.1688 14.9934C82.1404 14.9934 79.6032 17.5666 79.6032 21.0863C79.6032 24.5698 82.1404 27.107 85.1688 27.107C88.1566 27.107 90.5045 24.5698 90.5045 21.0863Z" fill="black"/>
<path d="M101.234 1.14014V30.4327H96.9531V1.14014H101.234Z" fill="black"/>
<path d="M117.918 24.3401L121.325 26.6114C120.225 28.2383 117.575 31.0413 112.997 31.0413C107.319 31.0413 103.078 26.6519 103.078 21.0458C103.078 15.1017 107.355 11.0503 112.506 11.0503C117.693 11.0503 120.23 15.1783 121.059 17.409L121.514 18.5447L108.152 24.0787C109.175 26.0841 110.766 27.1071 112.997 27.1071C115.232 27.1071 116.782 26.0075 117.918 24.3401ZM107.431 20.7439L116.363 17.035C115.872 15.7867 114.394 14.9169 112.654 14.9169C110.424 14.9169 107.319 16.8863 107.431 20.7439Z" fill="black"/>
<path d="M15.7414 18.4498V14.2091H30.0316C30.1713 14.9482 30.2434 15.8225 30.2434 16.7689C30.2434 19.9505 29.3737 23.8847 26.5706 26.6878C23.8441 29.5269 20.3606 31.0411 15.7459 31.0411C7.19244 31.0411 0 24.074 0 15.5205C0 6.96712 7.19244 0 15.7459 0C20.4777 0 23.8486 1.8567 26.3813 4.27671L23.389 7.26906C21.5728 5.56558 19.1123 4.24066 15.7414 4.24066C9.49529 4.24066 4.61019 9.27447 4.61019 15.5205C4.61019 21.7666 9.49529 26.8004 15.7414 26.8004C19.7927 26.8004 22.1001 25.1736 23.5782 23.6954C24.777 22.4967 25.5656 20.7842 25.8766 18.4453L15.7414 18.4498Z" fill="black"/>
</svg>
