<svg width="30" height="30" viewBox="0 0 30 30" fill="none" xmlns="http://www.w3.org/2000/svg">
<path d="M16.4471 19.0972H13.4758C13.2882 19.0972 13.0943 18.9355 13.0943 18.7684V16.3158H10.2481C10.0605 16.3158 9.86658 16.1541 9.86658 15.987V13.4266C9.86658 13.2649 10.0542 13.0978 10.2481 13.0978H13.0943V10.6452C13.0943 10.4835 13.2819 10.3164 13.4758 10.3164H16.4471C16.6347 10.3164 16.8286 10.4781 16.8286 10.6452V13.0978H19.7373C19.925 13.0978 20.1189 13.2595 20.1189 13.4266V15.987C20.1189 16.1487 19.9312 16.3158 19.7373 16.3158H16.8912V18.7684C16.8912 18.9301 16.7035 19.0972 16.4471 19.0972ZM13.9137 18.3911H16.0655V15.9385C16.0655 15.7768 16.2532 15.6097 16.4471 15.6097H19.2932V13.7554H16.4471C16.2594 13.7554 16.0655 13.5937 16.0655 13.4266V10.9201H13.9137V13.3727C13.9137 13.5344 13.726 13.7015 13.5321 13.7015H10.686V15.5558H13.5321C13.7198 15.5558 13.9137 15.7175 13.9137 15.8846V18.3911Z" fill="#00A78B"/>
<path d="M18.5342 30H11.3845C11.2594 30 11.1968 29.9461 11.1343 29.8922C10.3774 29.24 9.67681 28.5824 8.98248 28.0379C4.49123 24.1138 2.27689 22.1463 1.13844 19.1493C-4.99605e-06 16.1523 0 12.2228 0 4.31519V2.40703C0 2.29922 0.0625502 2.19141 0.125102 2.13212C0.187655 2.07282 0.312755 2.02432 0.444115 2.07822C2.08924 2.35312 3.73436 2.46093 5.25438 2.46093C9.05129 2.46093 12.4041 1.6416 15.1877 0.0622419C15.3128 -0.0455642 15.5067 0.00833883 15.6318 0.0622419C17.8461 1.6416 20.5671 2.40703 24.3015 2.40703C25.8215 2.40703 27.5292 2.29922 29.5559 2.02431C29.681 2.02431 29.8061 2.02431 29.8749 2.13212C29.9374 2.18602 30 2.29383 30 2.40703V5.40404C30 12.7133 30 16.3625 29.0492 19.0361C28.0359 21.7636 26.1405 23.4508 22.2123 26.8898C21.1989 27.763 20.0605 28.7441 18.7969 29.8868C18.7969 29.9407 18.6718 29.9946 18.5467 29.9946L18.5342 30ZM11.5721 29.2939H18.4091C19.6101 28.205 20.7485 27.224 21.6993 26.4047C25.4962 23.0788 27.3916 21.4402 28.3424 18.8259C29.2306 16.2655 29.2306 12.6109 29.2306 5.41482V2.85442V2.80052C27.3978 3.01613 25.7527 3.12933 24.3578 3.12933C20.5609 3.12933 17.7148 2.3639 15.3753 0.784541C12.5292 2.3639 9.10759 3.12933 5.24812 3.12933C3.79066 3.12933 2.27689 3.02152 0.756876 2.80052V4.27207C0.756876 12.0718 0.756876 15.996 1.83277 18.8852C2.90867 21.7205 5.12302 23.6826 9.48916 27.4989C10.1835 28.0972 10.8153 28.7009 11.5784 29.2993L11.5721 29.2939Z" fill="#00A78B"/>
<path d="M19.3561 25.2027C19.231 25.2027 19.1684 25.1488 19.0371 25.0949C18.912 24.9332 18.912 24.7122 19.0996 24.6044C22.7714 21.823 24.5416 20.2975 25.4299 18.3894C26.3181 16.4812 26.2493 14.0825 26.1242 9.66246C26.1242 8.62752 26.0617 7.42549 26.0617 6.11564C21.633 6.22345 17.9612 5.46342 14.9274 3.93257C11.6997 5.40413 7.90278 6.16954 3.91821 6.11564C3.85565 8.78923 3.85565 11.3496 3.91821 13.9154C3.91821 14.0771 3.73055 14.2442 3.53664 14.2442C3.34273 14.2442 3.15507 14.0825 3.15507 13.9154C3.09252 11.2418 3.09252 8.62752 3.15507 5.84613V5.73832C3.15507 5.63052 3.21762 5.57662 3.28017 5.52271C3.34272 5.46881 3.46783 5.41491 3.59919 5.41491C7.64632 5.52271 11.5058 4.81658 14.8023 3.23183C14.9274 3.17793 15.0525 3.17793 15.1838 3.23183C18.2239 4.81119 21.8894 5.57662 26.4495 5.41491C26.5746 5.41491 26.6371 5.46881 26.7685 5.52271C26.8311 5.57662 26.8936 5.68442 26.8936 5.73832C26.8936 7.15597 26.9562 8.46582 26.9562 9.60857C27.0813 14.0771 27.1438 16.5351 26.1993 18.605C25.2485 20.621 23.4157 22.2057 19.6813 25.0949C19.5562 25.2027 19.4311 25.2027 19.3623 25.2027H19.3561Z" fill="#00A78B"/>
<path d="M28.0254 29.9975H1.13425C0.946598 29.9975 0.752686 29.8358 0.752686 29.6687C0.752686 29.5016 0.940342 29.3398 1.13425 29.3398H28.0254C28.2131 29.3398 28.407 29.5016 28.407 29.6687C28.4695 29.8304 28.2819 29.9975 28.0254 29.9975Z" fill="#00A78B"/>
</svg>
