<svg width="20" height="20" viewBox="0 0 20 20" fill="none" xmlns="http://www.w3.org/2000/svg">
<path d="M18.2535 6.66853C18.2535 6.1532 18.1518 5.64276 17.9542 5.16668C17.7566 4.69058 17.4665 4.25819 17.1014 3.89386C16.7366 3.52949 16.3033 3.23971 15.8265 3.04247C15.3497 2.84521 14.8384 2.74365 14.3223 2.74364C13.8061 2.74364 13.2949 2.8452 12.818 3.04247C12.3412 3.2397 11.9079 3.52864 11.5431 3.89301L9.99957 5.43402L8.45691 3.89386C7.71977 3.15791 6.71937 2.74449 5.67689 2.74449C4.6345 2.74456 3.63479 3.15797 2.89771 3.89386C2.16068 4.62979 1.74647 5.62783 1.74647 6.66853C1.7465 7.70924 2.16064 8.70728 2.89771 9.44319L9.99957 16.5335L17.1014 9.44319L17.2353 9.30357C17.538 8.97023 17.7813 8.58691 17.9542 8.17037C18.1518 7.6943 18.2535 7.18384 18.2535 6.66853ZM20 6.66853C20 7.41289 19.853 8.15019 19.5676 8.83786C19.2823 9.52545 18.8635 10.1498 18.3362 10.676L9.99957 19L1.6629 10.676C0.598303 9.61309 2.95519e-05 8.17168 0 6.66853C0 5.16529 0.598226 3.72315 1.6629 2.6602C2.72749 1.59747 4.17142 1.00092 5.67689 1.00085C7.18252 1.00085 8.62706 1.59731 9.69172 2.6602L9.99957 2.96755L10.3074 2.6602C10.8345 2.13378 11.4607 1.71658 12.1494 1.43165C12.8382 1.1467 13.5767 1 14.3223 1C15.0679 1.00001 15.8063 1.14671 16.4951 1.43165C17.1837 1.71652 17.8093 2.13398 18.3362 2.6602C18.8636 3.18645 19.2822 3.81149 19.5676 4.4992C19.853 5.18689 20 5.92414 20 6.66853Z" fill="#022C3C"/>
</svg>
