<svg width="35" height="35" viewBox="0 0 35 35" fill="none" xmlns="http://www.w3.org/2000/svg">
<g clip-path="url(#clip0_7377_1311)">
<path d="M0 28.6328V35.0014H5.5748C2.8665 33.4593 0.9527 31.1157 0 28.6328Z" fill="#FF6600"/>
<path d="M23.3947 21.9899C23.387 16.1057 18.6641 10.4399 11.5661 10.1949C6.5373 10.0213 2.6243 11.8658 0 14.5909V20.7341C1.7843 15.58 6.7011 13.2154 10.8206 13.2567C15.967 13.3085 19.9367 17.19 19.9598 21.5776C19.9822 25.7713 18.2252 28.8583 13.4834 29.6192C10.8983 30.0343 6.8523 28.5181 7.0322 24.6121C7.1253 22.5982 8.6933 21.4607 10.4909 21.5433C8.7325 23.8995 11.0607 25.6271 12.7071 25.275C14.7448 24.8396 15.575 23.0301 15.575 21.6259C15.575 20.1454 14.1799 17.7535 10.717 17.8354C6.4316 17.9369 3.7352 21.0197 3.6442 24.8305C3.5301 29.6297 8.0185 32.7839 12.6259 32.8413C19.39 32.9253 23.4031 28.488 23.394 21.9899H23.3947Z" fill="#FF6600"/>
<path d="M0 0V10.0695C3.01 7.7595 6.9272 6.265 11.5661 6.2678C21.497 6.2734 27.8019 13.2125 27.7991 21.9667C27.797 28.0483 24.9592 32.6214 20.5156 35.0007H35V0H0Z" fill="#FF6600"/>
</g>
<defs>
<clipPath id="clip0_7377_1311">
<rect width="35" height="35" fill="white"/>
</clipPath>
</defs>
</svg>
