<svg width="340" height="70" viewBox="0 0 340 70" fill="none" xmlns="http://www.w3.org/2000/svg">
<g clip-path="url(#clip0_6175_4498)">
<path d="M22.3791 21.833L26.4181 30.191H25.3751L24.1711 27.685H20.5871L19.3831 30.191H18.3401L22.3791 21.833ZM23.7371 26.796L22.3791 23.989L21.0211 26.796H23.7371Z" fill="white"/>
<path d="M28.609 21.9941V30.1911H27.615V21.9941H28.609Z" fill="white"/>
<path d="M34.3072 30.3315C31.7872 30.3315 30.1282 28.4695 30.1282 26.0825C30.1282 23.6955 31.8502 21.8545 34.2932 21.8545C35.7702 21.8545 37.0092 22.4985 37.7442 23.6605L36.9392 24.2345C36.3442 23.2965 35.4552 22.7715 34.3142 22.7715C32.4312 22.7715 31.1852 24.2205 31.1852 26.0965C31.1852 27.9725 32.4242 29.4215 34.3142 29.4215C35.4762 29.4215 36.3512 28.8685 36.9462 27.9445L37.7512 28.5185C37.0232 29.6875 35.7702 30.3315 34.3002 30.3315H34.3072Z" fill="white"/>
<path d="M39.165 21.9943H41.216C42.7 21.9943 43.778 22.9393 43.778 24.2553C43.778 25.5713 42.7 26.5233 41.216 26.5233H40.159V30.1843H39.165V21.9873V21.9943ZM41.216 25.6343C42.084 25.6343 42.714 25.0463 42.714 24.2553C42.714 23.4643 42.084 22.8833 41.216 22.8833H40.159V25.6343H41.216Z" fill="white"/>
<path d="M47.621 21.833L51.66 30.191H50.617L49.413 27.685H45.829L44.625 30.191H43.582L47.621 21.833ZM48.979 26.796L47.621 23.989L46.263 26.796H48.979Z" fill="white"/>
<path d="M21.3501 37.639L20.4891 38.822C19.9501 38.395 19.026 38.108 18.291 38.108C17.416 38.108 16.8141 38.591 16.8141 39.291C16.8141 41.223 21.7281 40.474 21.7281 44.058C21.7281 45.934 20.3351 47.201 18.2771 47.201C16.8841 47.201 15.5401 46.557 14.6021 45.682L15.5961 44.499C16.5201 45.248 17.4091 45.682 18.2771 45.682C19.2711 45.682 19.9571 45.129 19.9571 44.31C19.9571 42.014 15.029 42.966 15.029 39.438C15.029 37.744 16.345 36.582 18.291 36.582C19.488 36.582 20.7341 37.051 21.3501 37.639Z" fill="white"/>
<path d="M22.7852 41.895C22.7852 38.808 25.0392 36.582 28.0982 36.582C31.1572 36.582 33.4112 38.808 33.4112 41.895C33.4112 44.982 31.1712 47.208 28.0982 47.208C25.0252 47.208 22.7852 44.968 22.7852 41.895ZM28.0912 45.64C30.1422 45.64 31.6332 44.072 31.6332 41.909C31.6332 39.746 30.1422 38.15 28.0912 38.15C26.0402 38.15 24.5492 39.718 24.5492 41.895C24.5492 44.072 26.0542 45.64 28.0912 45.64Z" fill="white"/>
<path d="M39.9002 47.208C36.7362 47.208 34.5452 44.926 34.5452 41.881C34.5452 38.836 36.7712 36.582 39.8862 36.582C41.7762 36.582 43.3372 37.387 44.2892 38.78L42.9732 39.76C42.2382 38.752 41.2022 38.15 39.9002 38.15C37.7792 38.15 36.3162 39.76 36.3162 41.895C36.3162 44.03 37.7792 45.64 39.9002 45.64C41.2162 45.64 42.2592 45.024 42.9732 44.016L44.3032 44.982C43.3652 46.389 41.7832 47.208 39.9002 47.208Z" fill="white"/>
<path d="M53.2771 39.3472C53.2771 38.5982 52.7661 38.1292 52.0031 38.1292C51.1421 38.1292 50.6101 38.7452 50.5821 39.7532H49.0491C49.0911 37.8632 50.2671 36.5752 52.1501 36.5752C53.8161 36.5752 55.0061 37.5412 55.0061 39.1092C55.0061 40.1802 54.4041 41.4192 53.3821 42.9872L51.7161 45.4722H55.2581V47.0052H48.6851L51.5271 42.9802C52.6541 41.3422 53.2841 40.0682 53.2841 39.3332L53.2771 39.3472Z" fill="white"/>
<path d="M8.04992 34.9997C8.04992 20.1387 20.1389 8.04967 34.9999 8.04967C49.8609 8.04967 61.9499 20.1387 61.9499 34.9997C61.9499 38.1077 61.4179 41.0897 60.4519 43.8757L68.0189 46.6337C69.3349 42.9097 69.9999 39.0107 69.9999 35.0067C69.9999 30.2817 69.0759 25.6967 67.2489 21.3847C65.4849 17.2197 62.9649 13.4747 59.7519 10.2617C56.5389 7.04867 52.7939 4.52867 48.6289 2.76467C44.3099 0.937672 39.7249 0.0136719 35.0069 0.0136719C30.2889 0.0136719 25.6969 0.937672 21.3849 2.76467C17.2199 4.52867 13.4749 7.04867 10.2619 10.2617C7.04892 13.4747 4.52892 17.2197 2.76492 21.3847C0.937916 25.7037 0.013916 30.2887 0.013916 35.0067C0.013916 39.0107 0.678916 42.9097 1.99492 46.6337L9.56192 43.8757C8.58892 41.0967 8.06392 38.1077 8.06392 34.9997H8.04992Z" fill="white"/>
<path d="M34.9999 61.9497C23.5059 61.9497 13.6639 54.7117 9.79991 44.5547L2.23291 47.3127C2.40091 47.7537 2.56891 48.1877 2.75791 48.6217C4.52191 52.7867 7.04191 56.5317 10.2549 59.7447C13.4679 62.9577 17.2129 65.4777 21.3779 67.2417C25.6969 69.0687 30.2819 69.9927 34.9999 69.9927C39.7179 69.9927 44.3099 69.0687 48.6219 67.2417C52.7869 65.4777 56.5319 62.9577 59.7449 59.7447C62.9579 56.5317 65.4779 52.7867 67.2419 48.6217C67.4239 48.1877 67.5989 47.7537 67.7669 47.3127L60.1999 44.5547C56.3359 54.7117 46.4939 61.9497 34.9999 61.9497Z" fill="white"/>
<path d="M12.5088 53.0457L12.0258 53.3957L11.1228 52.1567L10.4718 52.6327L11.4238 53.9417L10.9408 54.2917L9.98884 52.9827L8.70784 53.9207L8.30884 53.3677L11.2068 51.2607L12.5088 53.0527V53.0457Z" fill="black"/>
<path d="M10.9967 54.8517C11.5847 54.3337 12.3827 54.3757 12.9007 54.9567C13.4187 55.5447 13.3697 56.3427 12.7887 56.8607C12.2007 57.3787 11.4027 57.3367 10.8847 56.7557C10.3667 56.1747 10.4157 55.3767 11.0037 54.8517H10.9967ZM11.3187 56.3637C11.5847 56.6647 12.0187 56.6647 12.3547 56.3637C12.6907 56.0697 12.7397 55.6287 12.4737 55.3347C12.2077 55.0337 11.7667 55.0337 11.4377 55.3347C11.1017 55.6287 11.0597 56.0627 11.3257 56.3637H11.3187Z" fill="black"/>
<path d="M14.1189 56.3564L14.6089 56.8184L14.3009 57.1404C14.6649 57.0004 14.9939 57.0844 15.2809 57.3574C15.3019 57.3784 15.3229 57.4064 15.3439 57.4274L14.9169 57.8824C14.8609 57.7774 14.7909 57.6934 14.7209 57.6234C14.4059 57.3294 14.0349 57.4344 13.6359 57.8544L12.8589 58.6734L12.3689 58.2114L14.1329 56.3564H14.1189Z" fill="black"/>
<path d="M15.5469 57.7637L16.0859 58.1697L15.8479 58.4777C16.1699 58.3587 16.4849 58.3797 16.7509 58.5827C17.0379 58.7997 17.1569 59.1287 17.0659 59.4717C17.3809 59.3457 17.7519 59.3387 18.0739 59.5907C18.4799 59.8987 18.5499 60.4027 18.1999 60.8717L17.1849 62.2157L16.6459 61.8097L17.3809 60.8437C17.6119 60.5427 17.8429 60.1437 17.5279 59.9057C17.2759 59.7167 16.9259 59.8147 16.5479 60.2977L15.8619 61.2077L15.3229 60.8017L16.0579 59.8357C16.2889 59.5347 16.5199 59.1357 16.2119 58.9047C15.9739 58.7227 15.6659 58.7997 15.3229 59.1917L14.5529 60.2137L14.0139 59.8077L15.5609 57.7637H15.5469Z" fill="black"/>
<path d="M18.5289 61.5153C18.9209 60.8363 19.6699 60.6193 20.3209 60.9903C20.9719 61.3613 21.1679 62.1313 20.7829 62.8033C20.7619 62.8453 20.7199 62.9083 20.6849 62.9643L19.0119 62.0053C18.8789 62.3623 18.9839 62.7193 19.2849 62.8943C19.5089 63.0273 19.7959 63.0273 19.9989 62.9013L20.2929 63.4543C19.9289 63.6223 19.4039 63.5873 18.9909 63.3563C18.3259 62.9783 18.1299 62.2083 18.5219 61.5223L18.5289 61.5153ZM20.3279 62.2223C20.4119 61.9003 20.3069 61.6063 20.0549 61.4593C19.8029 61.3123 19.4949 61.3823 19.2639 61.6133L20.3279 62.2223Z" fill="black"/>
<path d="M21.8748 61.9004L22.4908 62.1874L22.3018 62.5934C22.6028 62.3414 22.9388 62.3204 23.3028 62.4884C23.3238 62.5024 23.3588 62.5234 23.3798 62.5374L23.1138 63.1044C23.0298 63.0274 22.9388 62.9644 22.8408 62.9224C22.4488 62.7404 22.1268 62.9574 21.8818 63.4894L21.4058 64.5184L20.7898 64.2314L21.8678 61.9074L21.8748 61.9004Z" fill="black"/>
<path d="M24.8078 61.8379L23.4078 65.3589L22.7778 65.1069L24.1778 61.5859L24.8078 61.8379Z" fill="black"/>
<path d="M25.3328 63.3425L25.5498 64.9385L26.6488 63.7625L27.2858 63.9655L24.4228 67.0315L23.7788 66.8285L25.0178 65.5055L24.6958 63.1465L25.3328 63.3495V63.3425Z" fill="black"/>
<path d="M31.1149 63.9725L30.7509 64.3995C30.5829 64.2105 30.2679 64.0635 30.0229 64.0215C29.7289 63.9725 29.5119 64.0845 29.4769 64.3015C29.3719 64.8895 31.1079 64.9525 30.8979 66.1985C30.7789 66.8705 30.2189 67.2345 29.4769 67.1085C28.9799 67.0245 28.5809 66.7375 28.2659 66.3805L28.6929 65.9605C29.0219 66.2755 29.2739 66.4575 29.5679 66.5065C29.8969 66.5625 30.1489 66.4365 30.1909 66.1845C30.3169 65.4775 28.5669 65.4915 28.7769 64.2665C28.8889 63.6435 29.4139 63.3075 30.0999 63.4335C30.5269 63.5105 30.9259 63.7485 31.1149 63.9795V63.9725Z" fill="black"/>
<path d="M33.1378 63.7764L34.6918 67.5564L34.0408 67.5144L33.7327 66.7654L32.1578 66.6604L31.7518 67.3604L31.0938 67.3184L33.1378 63.7764ZM33.4948 66.2054L33.0468 65.1274L32.4588 66.1354L33.4878 66.2054H33.4948Z" fill="black"/>
<path d="M37.4217 64.1411L37.1557 64.6381C36.9527 64.4911 36.6097 64.4071 36.3647 64.4211C36.0707 64.4351 35.8817 64.5891 35.8887 64.8131C35.9167 65.4081 37.6247 65.0931 37.6807 66.3601C37.7087 67.0391 37.2397 67.5151 36.4837 67.5501C35.9797 67.5711 35.5247 67.3751 35.1467 67.1021L35.4757 66.5981C35.8677 66.8361 36.1547 66.9551 36.4487 66.9481C36.7847 66.9341 37.0017 66.7521 36.9877 66.5001C36.9597 65.7861 35.2517 66.1711 35.1957 64.9251C35.1677 64.2881 35.6087 63.8541 36.3087 63.8261C36.7357 63.8051 37.1837 63.9591 37.4217 64.1411Z" fill="black"/>
<path d="M41.2859 63.2588L40.4809 67.0458L39.7949 67.1648L40.4879 64.0218L39.0669 64.2738L38.9619 63.6718L41.2929 63.2588H41.2859Z" fill="black"/>
<path d="M41.7549 64.9943C41.4609 63.9513 41.8529 63.0343 42.6789 62.8033C43.5119 62.5723 44.3239 63.1533 44.6179 64.1893C44.9119 65.2323 44.5199 66.1563 43.6869 66.3943C42.8609 66.6253 42.0489 66.0373 41.7549 64.9943ZM43.5189 65.8063C43.9809 65.6733 44.1699 65.0783 43.9739 64.3783C43.7779 63.6853 43.3089 63.2653 42.8399 63.3983C42.3849 63.5243 42.2029 64.1263 42.3989 64.8193C42.5949 65.5263 43.0639 65.9393 43.5189 65.8063Z" fill="black"/>
<path d="M45.6888 61.8936L46.8018 61.3826C47.4248 61.0956 48.0548 61.2706 48.3278 61.8796C48.5308 62.3206 48.4188 62.7546 48.0828 63.0626L49.7978 63.9586L49.0628 64.2946L47.4318 63.4406L47.1868 63.5526L47.7888 64.8756L47.1658 65.1556L45.6748 61.8936H45.6888ZM47.4388 62.7826C47.6908 62.6706 47.8308 62.4116 47.7188 62.1526C47.5928 61.8796 47.2988 61.8026 47.0468 61.9146L46.5498 62.1386L46.9418 62.9996L47.4388 62.7756V62.7826Z" fill="black"/>
<path d="M49.455 62.6707C49.063 61.9917 49.2519 61.2287 49.8959 60.8507C50.5469 60.4727 51.3029 60.6827 51.6949 61.3547C51.7159 61.3967 51.758 61.4597 51.786 61.5157L50.1199 62.4887C50.3649 62.7827 50.7219 62.8737 51.0229 62.6987C51.2469 62.5657 51.394 62.3207 51.387 62.0827L52.01 62.1037C51.975 62.5027 51.6809 62.9437 51.2749 63.1817C50.6169 63.5667 49.854 63.3567 49.455 62.6707ZM50.9669 61.4667C50.7289 61.2357 50.4209 61.1727 50.1689 61.3197C49.9169 61.4667 49.826 61.7677 49.91 62.0827L50.9669 61.4667Z" fill="black"/>
<path d="M53.3189 61.3826L54.1659 62.5516L53.6199 62.9506L51.4639 59.9896L52.0099 59.5906L52.2059 59.8636C52.2199 59.5416 52.3529 59.2476 52.6259 59.0516C53.1369 58.6806 53.8439 58.8556 54.3129 59.4996C54.7749 60.1366 54.7329 60.8646 54.2219 61.2356C53.9559 61.4316 53.6269 61.4736 53.3119 61.3826H53.3189ZM53.6829 60.9066C54.0049 60.6686 54.0539 60.2416 53.7879 59.8776C53.5289 59.5206 53.1019 59.4226 52.7799 59.6536C52.4509 59.8916 52.4089 60.3256 52.6749 60.6896C52.9409 61.0536 53.3679 61.1376 53.6829 60.9066Z" fill="black"/>
<path d="M54.6767 59.1989C54.1517 58.6179 54.1937 57.8199 54.7747 57.2949C55.3557 56.7699 56.1537 56.8189 56.6787 57.3999C57.2037 57.9809 57.1617 58.7789 56.5807 59.3039C55.9997 59.8219 55.2017 59.7799 54.6767 59.1919V59.1989ZM56.1887 58.8699C56.4827 58.6039 56.4897 58.1699 56.1887 57.8339C55.8877 57.5049 55.4537 57.4559 55.1597 57.7219C54.8657 57.9879 54.8657 58.4289 55.1597 58.7579C55.4607 59.0869 55.8877 59.1359 56.1887 58.8699Z" fill="black"/>
<path d="M56.1679 56.0766L56.6299 55.5866L56.9519 55.8946C56.8119 55.5306 56.8889 55.2016 57.1619 54.9146C57.1829 54.8936 57.2109 54.8726 57.2319 54.8516L57.6869 55.2786C57.5819 55.3346 57.4979 55.4046 57.4279 55.4816C57.1339 55.7966 57.2389 56.1676 57.6659 56.5666L58.4919 57.3436L58.0299 57.8336L56.1609 56.0766H56.1679Z" fill="black"/>
<path d="M57.3999 53.1299L58.1909 53.7809L58.5339 53.3609L58.9539 53.7039L58.6109 54.1239L60.1719 55.3979L59.7449 55.9229L58.1839 54.6489L57.8619 55.0409L57.4419 54.6979L57.7639 54.3059L56.9729 53.6549L57.3999 53.1299Z" fill="black"/>
<path d="M59.9548 51.7365L60.1788 52.1985C59.9898 52.2685 59.7728 52.4365 59.6678 52.5905C59.5768 52.7235 59.5698 52.8705 59.6678 52.9405C60.0318 53.1995 60.6058 52.0375 61.3268 52.5485C61.7188 52.8285 61.7678 53.3675 61.4388 53.8295C61.2218 54.1375 60.8578 54.3825 60.5148 54.4525L60.3048 53.9205C60.5708 53.8785 60.8438 53.7175 60.9768 53.5285C61.0958 53.3605 61.0958 53.1855 60.9908 53.1085C60.6408 52.8635 60.0318 53.9835 59.3248 53.4865C58.9538 53.2275 58.9118 52.7165 59.2268 52.2755C59.3878 52.0515 59.6608 51.8485 59.9618 51.7295L59.9548 51.7365Z" fill="black"/>
<path d="M2.12085 38.3948L5.57185 36.2598L5.62085 36.7148L4.58485 37.3518L4.74585 38.9128L5.89385 39.3258L5.94285 39.7808L2.12085 38.4018V38.3948ZM4.22085 37.5828L3.05885 38.3038L4.33985 38.7658L4.21385 37.5828H4.22085Z" fill="black"/>
<path d="M2.01587 35.4471L5.59987 35.3701V35.8041L2.02287 35.8811V35.4471H2.01587Z" fill="black"/>
<path d="M5.73279 32.9556C5.66279 34.0546 4.80179 34.7266 3.75879 34.6636C2.68779 34.5936 1.95979 33.7956 2.02979 32.7246C2.07179 32.0806 2.38679 31.5556 2.91179 31.2686L3.14279 31.6396C2.71579 31.8776 2.46379 32.2486 2.42879 32.7456C2.37979 33.5716 2.97479 34.1526 3.79379 34.2016C4.61279 34.2506 5.27779 33.7536 5.33379 32.9276C5.36879 32.4236 5.15179 32.0246 4.75979 31.7376L5.03279 31.4016C5.52279 31.7516 5.76779 32.3186 5.73279 32.9626V32.9556Z" fill="black"/>
<path d="M2.33081 30.3232L2.48481 29.4412C2.59681 28.7972 3.07981 28.4052 3.64681 28.5032C4.21381 28.6012 4.54981 29.1332 4.43781 29.7772L4.36081 30.2322L5.94281 30.5052L5.87281 30.9322L2.33781 30.3302L2.33081 30.3232ZM4.05281 29.7072C4.11581 29.3362 3.91281 29.0212 3.56981 28.9582C3.22681 28.9022 2.93281 29.1332 2.86981 29.5042L2.79281 29.9592L3.97581 30.1622L4.05281 29.7072Z" fill="black"/>
<path d="M3.06592 26.4386L7.05592 25.6826L6.93692 26.1236L5.73992 26.3476L5.33392 27.8596L6.25792 28.6506L6.13892 29.0916L3.06592 26.4386ZM5.31992 26.4246L3.97592 26.6766L5.01192 27.5656L5.31992 26.4176V26.4246Z" fill="black"/>
<path d="M5.48781 20.9854L5.60681 21.3984C5.39681 21.4894 5.17281 21.7274 5.06781 21.9654C4.93481 22.2734 5.03281 22.5814 5.31281 22.7004C6.07581 23.0294 6.48181 21.3354 7.60881 21.8254C8.15481 22.0634 8.36481 22.6724 8.10581 23.2814C7.92381 23.7014 7.48981 24.0724 7.07681 24.1564L6.97881 23.7364C7.30081 23.6524 7.62281 23.3864 7.74881 23.1064C7.90281 22.7564 7.78381 22.4064 7.46881 22.2734C6.57981 21.8814 6.22281 23.6174 5.12381 23.1344C4.64081 22.9244 4.47281 22.3504 4.72481 21.7764C4.88581 21.3984 5.20781 21.0694 5.49481 20.9924L5.48781 20.9854Z" fill="black"/>
<path d="M7.55279 21.2376C6.87379 20.8596 6.64979 20.1036 6.99979 19.4666C7.35679 18.8296 8.11279 18.6196 8.79179 18.9976C8.81979 19.0116 8.84779 19.0326 8.87579 19.0466L7.84679 20.9016C8.30879 21.1116 8.79179 20.9786 9.02979 20.5586C9.18379 20.2786 9.17679 19.9706 9.02979 19.7186L9.40779 19.5366C9.59679 19.9076 9.58979 20.3416 9.36579 20.7476C8.99479 21.4126 8.23879 21.6156 7.55979 21.2376H7.55279ZM8.31579 19.2636C7.91679 19.1586 7.52479 19.3056 7.33579 19.6486C7.14679 19.9916 7.22379 20.4046 7.52479 20.6846L8.31579 19.2636Z" fill="black"/>
<path d="M8.0918 17.751L8.3298 17.394L8.7288 17.66C8.5468 17.345 8.5048 17.023 8.7078 16.722C8.7358 16.673 8.7848 16.617 8.8268 16.582L9.1698 16.813C9.0928 16.883 9.0298 16.939 8.9738 17.023C8.7498 17.366 8.9878 17.842 9.3728 18.094L10.4648 18.822L10.2268 19.179L8.0918 17.758V17.751Z" fill="black"/>
<path d="M9.39393 15.8611L11.2069 16.2671L10.3809 14.6011L10.6609 14.2441L11.9559 16.8551L9.10693 16.2181L9.38693 15.8611H9.39393Z" fill="black"/>
<path d="M10.395 12.9141C10.507 12.7951 10.675 12.7881 10.801 12.9001C10.927 13.0121 10.941 13.1801 10.829 13.3061C10.717 13.4251 10.549 13.4321 10.423 13.3201C10.297 13.2081 10.276 13.0471 10.395 12.9141ZM11.074 13.8101L11.361 13.4881L13.272 15.1961L12.985 15.5181L11.074 13.8101Z" fill="black"/>
<path d="M13.0059 12.2492C12.6419 12.6062 12.6629 13.1522 13.0549 13.5512C13.4469 13.9502 13.9929 13.9852 14.3569 13.6282C14.5949 13.3972 14.6649 13.0892 14.5809 12.7952L15.0009 12.7252C15.0779 13.1382 14.9519 13.5652 14.6159 13.8942C14.0769 14.4262 13.2859 14.4052 12.7469 13.8452C12.2009 13.2852 12.2009 12.5012 12.7469 11.9692C13.0829 11.6402 13.5169 11.5212 13.9299 11.6192L13.8529 12.0322C13.5589 11.9482 13.2509 12.0112 13.0129 12.2422L13.0059 12.2492Z" fill="black"/>
<path d="M14.7628 11.8991C14.2728 11.2901 14.3498 10.5131 14.9168 10.0511C15.4908 9.58912 16.2678 9.68712 16.7578 10.2961C16.7788 10.3171 16.7998 10.3451 16.8138 10.3731L15.1618 11.7031C15.5118 12.0741 16.0088 12.1301 16.3798 11.8291C16.6248 11.6331 16.7368 11.3391 16.6878 11.0451L17.1078 11.0171C17.1428 11.4301 16.9748 11.8361 16.6178 12.1231C16.0298 12.5991 15.2458 12.5011 14.7558 11.8991H14.7628ZM16.2118 10.3591C15.8828 10.1141 15.4628 10.1001 15.1548 10.3451C14.8468 10.5901 14.7698 11.0031 14.9378 11.3811L16.2048 10.3591H16.2118Z" fill="black"/>
<path d="M17.8989 8.24503L17.8639 8.63003C17.6889 8.60203 17.4579 8.65103 17.3109 8.74903C17.1359 8.86803 17.0729 9.06403 17.1709 9.21103C17.4999 9.70103 18.3959 8.79803 18.8929 9.52603C19.1449 9.90403 19.0329 10.373 18.6269 10.653C18.3399 10.842 17.9269 10.905 17.6399 10.8L17.6889 10.422C17.9269 10.499 18.2349 10.464 18.4309 10.338C18.6269 10.205 18.6829 9.97403 18.5639 9.80603C18.2349 9.31603 17.3389 10.219 16.8419 9.49103C16.6109 9.14803 16.7229 8.70703 17.1149 8.44103C17.3669 8.27303 17.6959 8.19603 17.9059 8.24503H17.8989Z" fill="black"/>
<path d="M19.7818 7.70603C19.3128 6.74003 19.6628 5.70403 20.6148 5.24903C21.5668 4.79403 22.5888 5.15803 23.0578 6.13103C23.5268 7.09703 23.1768 8.13303 22.2248 8.58803C21.2728 9.04303 20.2508 8.67903 19.7818 7.70603ZM22.0498 8.23103C22.7568 7.88803 23.0018 7.09703 22.6378 6.34103C22.2738 5.57803 21.4898 5.27003 20.7828 5.61303C20.0758 5.95603 19.8308 6.74703 20.1948 7.51003C20.5588 8.27303 21.3358 8.57403 22.0428 8.23103H22.0498Z" fill="black"/>
<path d="M23.5198 5.17213L23.9258 5.02513L24.0868 5.47313C24.1218 5.10913 24.2898 4.82913 24.6258 4.70313C24.6818 4.68213 24.7448 4.66113 24.8078 4.66113L24.9478 5.05313C24.8498 5.06013 24.7658 5.07413 24.6678 5.10913C24.2828 5.24913 24.1988 5.77413 24.3528 6.20813L24.8008 7.44013L24.3948 7.58713L23.5198 5.17913V5.17213Z" fill="black"/>
<path d="M25.557 5.77493C25.34 4.97693 25.725 4.33993 26.362 4.17193C26.74 4.06693 27.097 4.16493 27.377 4.37493L27.272 3.98993L27.685 3.87793L28.308 6.15293C28.553 7.04193 28.147 7.68593 27.188 7.94493L27.083 7.56693C27.776 7.37793 28.07 6.90893 27.895 6.26493L27.839 6.06893C27.699 6.40493 27.412 6.67093 27.048 6.76893C26.404 6.94393 25.767 6.55193 25.557 5.78193V5.77493ZM27.062 6.36993C27.538 6.23693 27.818 5.76093 27.664 5.20793C27.517 4.66893 27.041 4.38193 26.544 4.51493C26.054 4.64793 25.823 5.13093 25.97 5.66993C26.117 6.20893 26.565 6.50293 27.055 6.36993H27.062Z" fill="black"/>
<path d="M30.5829 5.66903C30.4639 5.89303 30.24 6.05403 29.89 6.11703C29.316 6.21503 28.833 5.92103 28.749 5.41003C28.658 4.88503 29.0079 4.43003 29.5819 4.33203C29.9319 4.27603 30.198 4.33203 30.38 4.49303L30.352 4.31103C30.289 3.95403 30.0789 3.75103 29.6589 3.82103C29.4699 3.85603 29.309 3.92603 28.931 4.12903L28.763 3.79303C29.106 3.59003 29.3579 3.47803 29.7219 3.41503C30.3309 3.31003 30.66 3.59703 30.751 4.12203L31.0449 5.85103L30.618 5.92103L30.576 5.66203L30.5829 5.66903ZM29.848 5.73203C30.289 5.65503 30.569 5.36803 30.513 5.04603C30.464 4.76603 30.114 4.61903 29.673 4.69603C29.323 4.75203 29.106 5.01103 29.162 5.30503C29.211 5.60603 29.505 5.78803 29.848 5.73203Z" fill="black"/>
<path d="M31.5488 3.21269L31.9758 3.17769L32.0038 3.57669C32.2068 3.27569 32.5218 3.07269 32.8858 3.04469C33.3968 3.00969 33.7468 3.31769 33.7818 3.84969L33.9148 5.59969L33.4878 5.63469L33.3688 4.00369C33.3408 3.63969 33.1168 3.42969 32.7948 3.45069C32.3538 3.48569 32.0668 3.80769 32.0598 4.29769L32.1648 5.73969L31.7378 5.77469L31.5488 3.21969V3.21269Z" fill="black"/>
<path d="M34.8669 1.93848C35.0279 1.93848 35.1469 2.05748 35.1469 2.23248C35.1469 2.40048 35.0279 2.52648 34.8669 2.52648C34.7059 2.52648 34.5869 2.40748 34.5869 2.23248C34.5869 2.06448 34.6919 1.93848 34.8669 1.93848ZM34.6569 3.03748H35.0839L35.0979 5.59948H34.6709L34.6569 3.03748Z" fill="black"/>
<path d="M37.828 3.14227L36.316 5.24227L37.709 5.31927L37.688 5.69727L35.574 5.57827L37.086 3.47827L35.84 3.40827L35.861 3.03027L37.835 3.13527L37.828 3.14227Z" fill="black"/>
<path d="M39.7739 5.71889C39.5919 5.89389 39.3259 5.97789 38.9759 5.92889C38.3949 5.84489 38.0309 5.41789 38.1009 4.90689C38.1779 4.38189 38.6469 4.05289 39.2279 4.13689C39.5779 4.18589 39.8159 4.33289 39.9419 4.53589L39.9699 4.35389C40.0189 3.99689 39.8789 3.73789 39.4589 3.67489C39.2699 3.64689 39.0949 3.67489 38.6749 3.75189L38.6189 3.38089C39.0109 3.28989 39.2839 3.26189 39.6479 3.31789C40.2639 3.40889 40.4879 3.77989 40.4109 4.30489L40.1659 6.04089L39.7389 5.97789L39.7739 5.71889ZM39.0599 5.55789C39.5079 5.62089 39.8579 5.43189 39.9069 5.10989C39.9489 4.82989 39.6549 4.58489 39.2139 4.52189C38.8639 4.47289 38.5769 4.64789 38.5349 4.94889C38.4929 5.24989 38.7099 5.51589 39.0599 5.56489V5.55789Z" fill="black"/>
<path d="M42.2309 2.81366L42.0139 3.81466L42.4619 3.91266L42.3849 4.27666L41.9369 4.17866L41.4679 6.31366L41.0479 6.22266L41.5169 4.08766L41.0689 3.98966L41.1459 3.62566L41.5939 3.72366L41.8109 2.72266L42.2309 2.81366Z" fill="black"/>
<path d="M43.0639 4.06606L43.4769 4.17806L42.8119 6.64906L42.3989 6.53706L43.0639 4.06606ZM43.5539 3.05806C43.7149 3.10006 43.7919 3.24706 43.7499 3.41506C43.7079 3.57606 43.5609 3.66706 43.3999 3.62506C43.2389 3.58306 43.1619 3.43606 43.2039 3.26806C43.2459 3.10706 43.3859 3.01606 43.5539 3.05806Z" fill="black"/>
<path d="M43.7849 5.5719C44.0369 4.8369 44.7439 4.4869 45.4579 4.7319C46.1719 4.9769 46.5079 5.6909 46.2559 6.4259C46.0039 7.1609 45.2969 7.5109 44.5829 7.2659C43.8689 7.0209 43.5329 6.3069 43.7849 5.5719ZM44.7089 6.9089C45.1849 7.0769 45.6679 6.8109 45.8499 6.2859C46.0319 5.7609 45.8149 5.2569 45.3389 5.0889C44.8629 4.9209 44.3799 5.1869 44.1979 5.7119C44.0159 6.2369 44.2329 6.7409 44.7089 6.9089Z" fill="black"/>
<path d="M47.4248 5.53613L47.8168 5.71813L47.6488 6.08213C47.9708 5.92113 48.3418 5.90013 48.6778 6.05413C49.1398 6.27113 49.2938 6.71213 49.0698 7.19513L48.3348 8.78413L47.9428 8.60213L48.6358 7.11813C48.7898 6.78913 48.6988 6.49513 48.4048 6.35513C47.9988 6.16613 47.5928 6.31313 47.3548 6.73313L46.7458 8.04213L46.3538 7.86013L47.4318 5.53613H47.4248Z" fill="black"/>
<path d="M51.3238 10.6255C50.4068 10.0165 50.2528 8.93852 50.8268 8.06352C51.4218 7.17452 52.4788 6.94352 53.3678 7.53152C53.9068 7.88852 54.2008 8.42052 54.1868 9.02252L53.7528 9.03652C53.7598 8.55352 53.5638 8.14052 53.1508 7.86752C52.4648 7.41252 51.6598 7.63652 51.2048 8.32252C50.7498 9.00152 50.8548 9.83452 51.5408 10.2895C51.9608 10.5695 52.4158 10.5835 52.8568 10.3875L53.0108 10.7935C52.4648 11.0455 51.8488 10.9755 51.3098 10.6185L51.3238 10.6255Z" fill="black"/>
<path d="M53.6969 10.6465C54.1939 10.0515 54.9779 9.96747 55.5589 10.4575C56.1399 10.9405 56.2029 11.7245 55.6989 12.3265C55.2019 12.9215 54.4179 13.0055 53.8369 12.5155C53.2559 12.0325 53.1929 11.2485 53.6969 10.6465ZM54.0819 12.2215C54.4739 12.5435 55.0129 12.4735 55.3699 12.0465C55.7269 11.6195 55.7059 11.0735 55.3139 10.7445C54.9219 10.4155 54.3829 10.4925 54.0259 10.9195C53.6689 11.3465 53.6899 11.8925 54.0819 12.2215Z" fill="black"/>
<path d="M57.1198 11.8996L57.4208 12.2076L57.1338 12.4876C57.4908 12.4526 57.8478 12.5646 58.1068 12.8236C58.4638 13.1876 58.4498 13.6566 58.0648 14.0276L56.8118 15.2526L56.5108 14.9446L57.6798 13.7966C57.9388 13.5446 57.9598 13.2366 57.7358 12.9986C57.4278 12.6766 56.9938 12.6696 56.6158 12.9846L55.5798 13.9926L55.2788 13.6846L57.1128 11.8926L57.1198 11.8996Z" fill="black"/>
<path d="M60.4169 13.9716L59.6329 14.6296L59.9269 14.9796L59.6399 15.2176L59.3459 14.8676L57.6729 16.2746L57.3999 15.9456L59.0729 14.5386L58.7789 14.1886L59.0659 13.9506L59.3599 14.3006L60.1439 13.6426L60.4169 13.9716Z" fill="black"/>
<path d="M60.326 15.4834L60.585 15.8264L60.2 16.1134C60.557 16.0434 60.879 16.1204 61.089 16.4074C61.124 16.4494 61.159 16.5124 61.18 16.5684L60.844 16.8134C60.809 16.7224 60.774 16.6454 60.711 16.5614C60.466 16.2324 59.934 16.3024 59.57 16.5754L58.52 17.3594L58.261 17.0164L60.319 15.4904L60.326 15.4834Z" fill="black"/>
<path d="M60.312 17.6119C60.97 17.1989 61.74 17.3669 62.139 18.0109C62.538 18.6549 62.356 19.4179 61.691 19.8309C61.033 20.2439 60.263 20.0759 59.864 19.4319C59.465 18.7879 59.647 18.0249 60.312 17.6119ZM60.193 19.2289C60.459 19.6559 60.998 19.7539 61.474 19.4599C61.95 19.1659 62.097 18.6339 61.824 18.2069C61.558 17.7799 61.019 17.6819 60.543 17.9759C60.067 18.2699 59.92 18.8019 60.193 19.2289Z" fill="black"/>
<path d="M64.4208 19.6348L61.0748 21.4058L60.8718 21.0278L64.2178 19.2568L64.4208 19.6348Z" fill="black"/>
<path d="M65.268 21.8468L65.597 22.6798C65.835 23.2818 65.618 23.8768 65.065 24.0938C64.603 24.2758 64.12 24.1078 63.84 23.6878L62.825 25.4168L62.636 24.9338L63.63 23.2398L63.532 22.9948L62.09 23.5688L61.929 23.1628L65.261 21.8398L65.268 21.8468ZM64.064 23.2818C64.204 23.6318 64.554 23.7928 64.89 23.6598C65.226 23.5268 65.366 23.1698 65.226 22.8198L65.058 22.3928L63.889 22.8548L64.057 23.2818H64.064Z" fill="black"/>
<path d="M64.0919 25.1858C64.8409 24.9688 65.5339 25.3398 65.7369 26.0398C65.9399 26.7398 65.5549 27.4258 64.8059 27.6428C64.7779 27.6498 64.7429 27.6638 64.7079 27.6638L64.1129 25.6268C63.6369 25.8088 63.3919 26.2498 63.5249 26.7048C63.6159 27.0128 63.8399 27.2228 64.1269 27.2928L63.9939 27.6918C63.6019 27.5658 63.2939 27.2578 63.1609 26.8168C62.9509 26.0888 63.3359 25.4028 64.0849 25.1858H64.0919ZM64.9599 27.1178C65.3169 26.9078 65.4849 26.5298 65.3799 26.1518C65.2679 25.7738 64.9179 25.5428 64.5049 25.5568L64.9599 27.1178Z" fill="black"/>
<path d="M64.1759 28.8745L62.7689 29.1335L62.6919 28.7135L66.2199 28.0625L66.2969 28.4825L65.9049 28.5525C66.2129 28.7135 66.4579 29.0005 66.5279 29.3785C66.6469 30.0225 66.2409 30.6525 65.4289 30.7995C64.6449 30.9465 64.0079 30.5405 63.8889 29.8825C63.8189 29.5115 63.9309 29.1405 64.1759 28.8675V28.8745ZM64.2389 29.7075C64.3299 30.2045 64.7919 30.4775 65.3449 30.3795C65.8909 30.2815 66.2269 29.8615 66.1359 29.3645C66.0449 28.8605 65.5759 28.5595 65.0299 28.6575C64.4629 28.7625 64.1549 29.2175 64.2459 29.7075H64.2389Z" fill="black"/>
<path d="M65.4849 31.31C66.2619 31.247 66.8639 31.751 66.9269 32.507C66.9829 33.263 66.4649 33.851 65.6949 33.914C64.9179 33.977 64.3159 33.473 64.2529 32.717C64.1969 31.961 64.7149 31.373 65.4849 31.31ZM64.6239 32.689C64.6659 33.193 65.0929 33.529 65.6529 33.487C66.2129 33.445 66.5839 33.046 66.5419 32.535C66.4999 32.031 66.0729 31.695 65.5129 31.737C64.9529 31.779 64.5819 32.178 64.6239 32.689Z" fill="black"/>
<path d="M66.962 34.5939V35.0209H66.486C66.815 35.1819 67.025 35.4339 67.018 35.7909C67.018 35.8469 67.018 35.9169 66.997 35.9729H66.584C66.612 35.8749 66.633 35.7909 66.633 35.6929C66.633 35.2799 66.171 35.0209 65.716 35.0209H64.407V34.5869H66.969L66.962 34.5939Z" fill="black"/>
<path d="M67.8998 37.4147L66.8778 37.3447L66.8498 37.8067L66.4788 37.7787L66.5068 37.3167L64.3228 37.1697L64.3508 36.7427L66.5348 36.8897L66.5628 36.4277L66.9338 36.4557L66.9058 36.9177L67.9278 36.9877L67.8998 37.4147Z" fill="black"/>
<path d="M66.374 39.8999L66.108 39.6199C66.241 39.5079 66.36 39.3049 66.381 39.1229C66.409 38.9129 66.304 38.7379 66.129 38.7099C65.548 38.6329 65.625 39.9069 64.757 39.7879C64.302 39.7319 64.029 39.3329 64.092 38.8429C64.134 38.4999 64.365 38.1499 64.638 38.0029L64.89 38.2899C64.68 38.4159 64.491 38.6749 64.463 38.8989C64.435 39.1299 64.568 39.3259 64.778 39.3539C65.359 39.4309 65.282 38.1569 66.157 38.2759C66.57 38.3319 66.822 38.7099 66.766 39.1789C66.724 39.4799 66.57 39.7809 66.388 39.8999H66.374Z" fill="black"/>
<path d="M63.8749 63.084H63.4619V64.365H63.1679V63.084H62.7549V62.832H63.8749V63.084Z" fill="white"/>
<path d="M64.0708 62.79L64.8548 63.819L65.6388 62.79V64.365H65.3448V63.644L64.8548 64.302L64.3648 63.644V64.365H64.0708V62.79Z" fill="white"/>
</g>
<path d="M113.765 65.226C113.576 65.317 113.408 65.38 113.261 65.422C113.114 65.464 112.925 65.485 112.68 65.485C112.022 65.485 111.483 65.303 111.063 64.939C110.643 64.575 110.433 64.113 110.433 63.546C110.433 62.895 110.685 62.363 111.196 61.95C111.707 61.537 112.365 61.334 113.184 61.334C113.94 61.334 114.535 61.523 114.969 61.894C115.403 62.265 115.718 62.685 115.9 63.14C116.082 63.595 116.173 64.078 116.173 64.589C116.173 65.31 116.012 65.926 115.683 66.451C115.354 66.976 114.899 67.375 114.311 67.655C113.723 67.928 113.128 68.068 112.526 68.068C111.924 68.068 111.406 67.956 111.049 67.725C110.692 67.494 110.51 67.193 110.51 66.808C110.51 66.549 110.601 66.332 110.783 66.157C110.965 65.982 111.189 65.898 111.462 65.898C111.714 65.898 111.931 65.982 112.099 66.164C112.267 66.346 112.351 66.563 112.351 66.822C112.351 67.221 112.162 67.487 111.791 67.627C111.994 67.739 112.26 67.788 112.582 67.788C112.848 67.788 113.079 67.746 113.275 67.662C113.471 67.578 113.604 67.473 113.667 67.354C113.73 67.235 113.758 67.06 113.758 66.829V65.24L113.765 65.226ZM113.765 64.953V62.223C113.765 61.789 113.618 61.579 113.324 61.579C113.219 61.579 113.121 61.621 113.023 61.698C112.925 61.775 112.876 61.971 112.876 62.279V64.526C112.876 64.953 112.988 65.17 113.219 65.17C113.401 65.17 113.583 65.1 113.772 64.953H113.765Z" fill="white"/>
<path d="M121.094 61.3273C121.913 61.3273 122.606 61.6493 123.166 62.2933C123.726 62.9373 124.013 63.7353 124.013 64.6733C124.013 65.6813 123.74 66.4933 123.194 67.1163C122.648 67.7393 121.941 68.0543 121.073 68.0543C120.247 68.0543 119.561 67.7393 119.008 67.1023C118.455 66.4653 118.175 65.6743 118.175 64.7223C118.175 63.7703 118.455 62.9653 119.022 62.3073C119.589 61.6493 120.275 61.3203 121.087 61.3203L121.094 61.3273ZM121.556 67.2003V62.1883C121.556 61.9713 121.521 61.8103 121.451 61.7193C121.381 61.6283 121.269 61.5793 121.101 61.5793C120.933 61.5793 120.821 61.6283 120.751 61.7263C120.681 61.8243 120.653 61.9853 120.653 62.2163V67.2003C120.653 67.4243 120.681 67.5853 120.744 67.6833C120.807 67.7813 120.919 67.8303 121.073 67.8303C121.255 67.8303 121.381 67.7883 121.451 67.6973C121.521 67.6063 121.549 67.4453 121.549 67.2073L121.556 67.2003Z" fill="white"/>
<path d="M128.892 61.3273C129.711 61.3273 130.404 61.6493 130.964 62.2933C131.524 62.9373 131.811 63.7353 131.811 64.6733C131.811 65.6813 131.538 66.4933 130.992 67.1163C130.446 67.7393 129.739 68.0543 128.871 68.0543C128.003 68.0543 127.359 67.7393 126.806 67.1023C126.253 66.4653 125.973 65.6743 125.973 64.7223C125.973 63.7703 126.253 62.9653 126.82 62.3073C127.387 61.6493 128.073 61.3203 128.885 61.3203L128.892 61.3273ZM129.354 67.2003V62.1883C129.354 61.9713 129.319 61.8103 129.249 61.7193C129.179 61.6283 129.067 61.5793 128.899 61.5793C128.731 61.5793 128.619 61.6283 128.549 61.7263C128.479 61.8243 128.451 61.9853 128.451 62.2163V67.2003C128.451 67.4243 128.479 67.5853 128.542 67.6833C128.605 67.7813 128.717 67.8303 128.871 67.8303C129.053 67.8303 129.179 67.7883 129.249 67.6973C129.319 67.6063 129.347 67.4453 129.347 67.2073L129.354 67.2003Z" fill="white"/>
<path d="M138.685 67.9002H134.905V67.6762H135.689V62.0272H134.905V61.8032H135.563C135.878 61.8032 136.235 61.7752 136.641 61.7262C137.04 61.6772 137.474 61.5302 137.929 61.2852V67.6762H138.692V67.9002H138.685Z" fill="white"/>
<path d="M93.899 42.0283L93.738 41.4613L97.616 40.3623L97.777 40.9293L93.899 42.0213V42.0283Z" fill="white"/>
<path d="M96.2999 40.047L96.0899 39.473C96.5519 39.263 96.7549 38.787 96.6499 38.269C96.5589 37.793 96.2509 37.429 95.8449 37.506C95.5649 37.562 95.4529 37.793 95.4249 38.101L95.3199 39.179C95.2779 39.599 95.1379 40.117 94.4939 40.236C93.7589 40.376 93.2339 39.837 93.0869 39.039C92.9399 38.227 93.2549 37.576 93.9479 37.275L94.1789 37.87C93.7449 38.038 93.5559 38.479 93.6329 38.941C93.7099 39.382 94.0179 39.697 94.3539 39.634C94.6829 39.571 94.7319 39.214 94.7599 38.92L94.8299 38.15C94.8579 37.772 94.9279 37.065 95.7049 36.918C96.4959 36.764 97.0489 37.387 97.2099 38.206C97.3709 39.06 97.0349 39.788 96.3069 40.061L96.2999 40.047Z" fill="white"/>
<path d="M94.7671 36.5612C93.5211 36.6312 92.6321 35.9802 92.5621 34.7762C92.4921 33.5652 93.3041 32.8232 94.5501 32.7532C95.7961 32.6832 96.6851 33.3342 96.7551 34.5382C96.8251 35.7422 96.0131 36.4842 94.7671 36.5612ZM94.5921 33.3762C93.6681 33.4252 93.0871 33.8942 93.1221 34.7482C93.1641 35.6022 93.8151 35.9872 94.7391 35.9452C95.6631 35.8962 96.2511 35.4342 96.2091 34.5802C96.1671 33.7262 95.5161 33.3272 94.5921 33.3832V33.3762Z" fill="white"/>
<path d="M93.3391 31.8015L93.3671 31.1855L93.9901 31.2135L93.9621 31.8295L93.3391 31.8015ZM95.2921 31.8925L95.3201 31.2695L95.9431 31.2975L95.9151 31.9205L95.2921 31.8925Z" fill="white"/>
<path d="M94.4101 27.3984L95.6841 27.5664C96.5521 27.6854 97.0631 28.3504 96.9511 29.1904C96.8951 29.6104 96.6851 29.9744 96.3351 30.2054L95.9921 29.7224C96.2091 29.5964 96.3701 29.3724 96.4051 29.1204C96.4751 28.6234 96.1181 28.2314 95.6771 28.1684L95.2081 28.1054C95.3971 28.3644 95.4951 28.6864 95.4461 29.0084C95.3481 29.7574 94.7041 30.2334 93.9551 30.1284C93.2131 30.0304 92.7021 29.3234 92.8001 28.5744C92.9051 27.8044 93.5841 27.2864 94.4101 27.3914V27.3984ZM94.2421 27.9794C93.8221 27.9234 93.4161 28.2174 93.3601 28.6514C93.3041 29.0854 93.5981 29.4844 94.0321 29.5404C94.4661 29.5964 94.8651 29.2954 94.9211 28.8614C94.9771 28.4274 94.6691 28.0284 94.2351 27.9724L94.2421 27.9794Z" fill="white"/>
<path d="M95.9082 26.7615L94.5642 26.4115C93.7662 26.2015 93.3462 25.4945 93.5562 24.6965C93.7662 23.8985 94.4732 23.4785 95.2712 23.6885L96.6152 24.0385C97.4132 24.2485 97.8332 24.9555 97.6232 25.7535C97.4202 26.5515 96.7062 26.9715 95.9082 26.7615ZM96.5032 24.6265L95.0822 24.2555C94.6412 24.1435 94.2072 24.3955 94.0952 24.8295C93.9832 25.2635 94.2422 25.6975 94.6762 25.8165L96.0972 26.1875C96.5312 26.2995 96.9722 26.0405 97.0842 25.6065C97.1962 25.1725 96.9372 24.7385 96.5032 24.6195V24.6265Z" fill="white"/>
<path d="M96.8671 23.2612L95.5721 22.7502C94.8091 22.4492 94.4801 21.6932 94.7811 20.9232C95.0821 20.1602 95.8381 19.8312 96.6081 20.1322L97.8961 20.6432C98.6661 20.9442 98.9881 21.7002 98.6871 22.4702C98.3861 23.2332 97.6301 23.5622 96.8601 23.2612H96.8671ZM97.7211 21.2172L96.3561 20.6782C95.9361 20.5102 95.4671 20.7132 95.3061 21.1262C95.1381 21.5462 95.3411 22.0082 95.7681 22.1762L97.1331 22.7152C97.5531 22.8832 98.0151 22.6802 98.1831 22.2602C98.3511 21.8402 98.1481 21.3782 97.7281 21.2102L97.7211 21.2172Z" fill="white"/>
<path d="M96.7691 18.3262L96.8251 19.2082L96.2511 18.9072L96.1951 18.0252L96.4681 17.4932L100.045 19.3552L99.7651 19.8872L96.7551 18.3192L96.7691 18.3262Z" fill="white"/>
<path d="M102.425 14.6299L102.894 14.5599L102.978 15.0779L102.509 15.1549C102.509 15.5189 102.376 15.9039 102.11 16.2679C101.403 17.2409 100.304 17.3039 99.296 16.5689C98.288 15.8339 98.015 14.7699 98.722 13.7969C99.436 12.8169 100.535 12.7539 101.543 13.4889C101.991 13.8179 102.292 14.2099 102.432 14.6299H102.425ZM101.928 15.2459L101.41 15.3299L101.326 14.8049L101.809 14.7279C101.69 14.4689 101.466 14.2169 101.165 13.9929C100.416 13.4469 99.674 13.4399 99.156 14.1259C98.645 14.8119 98.904 15.5259 99.646 16.0719C100.388 16.6179 101.137 16.6319 101.648 15.9459C101.823 15.7079 101.907 15.4769 101.914 15.2459H101.928Z" fill="white"/>
<path d="M102.376 13.3837L100.521 11.6477L100.92 11.2137L102.761 12.9357C103.258 13.4047 103.874 13.2717 104.217 12.9077C104.567 12.5367 104.644 11.9207 104.147 11.4587L102.306 9.73673L102.712 9.30273L104.574 11.0457C105.26 11.6897 105.267 12.5997 104.616 13.2927C103.972 13.9857 103.069 14.0417 102.376 13.3907V13.3837Z" fill="white"/>
<path d="M107.269 9.57625L105.981 10.6193L106.324 11.5083L105.855 11.8862L104.336 7.93125L104.987 7.40625L108.536 9.71625L108.067 10.0942L107.269 9.57625ZM106.779 9.26825L105.022 8.13425L105.771 10.0802L106.779 9.26125V9.26825Z" fill="white"/>
<path d="M106.758 6.09039L107.255 5.77539L109.124 8.71539L110.664 7.73539L110.965 8.20439L108.928 9.49939L106.765 6.09739L106.758 6.09039Z" fill="white"/>
<path d="M109.481 4.44504L109.999 4.16504L111.896 7.72104L111.378 8.00104L109.481 4.44504Z" fill="white"/>
<path d="M112.099 3.76619L110.867 4.29819L110.65 3.78719L113.646 2.49219L113.863 3.00319L112.631 3.53519L114.01 6.72719L113.471 6.95819L112.092 3.76619H112.099Z" fill="white"/>
<path d="M116.187 4.17875L114.206 2.28875L114.864 2.09275L116.285 3.44375L116.74 1.53975L117.398 1.34375L116.761 4.00375L117.23 5.59975L116.663 5.76775L116.194 4.17175L116.187 4.17875Z" fill="white"/>
<path d="M119.169 0.96607L119.694 0.90307L121.5 3.74507L122.585 0.56007L123.11 0.49707L123.586 4.49407L123.04 4.55707L122.711 1.82007L121.745 4.71107L121.479 4.74607L119.862 2.16307L120.191 4.90007L119.638 4.96307L119.162 0.96607H119.169Z" fill="white"/>
<path d="M126.547 3.64707L124.888 3.60507L124.566 4.50807L123.964 4.49407L125.371 0.49707L126.211 0.51807L127.422 4.58507L126.82 4.57107L126.547 3.65407V3.64707ZM126.379 3.09407L125.77 1.09207L125.077 3.06607L126.379 3.10107V3.09407Z" fill="white"/>
<path d="M128.409 0.636719L128.997 0.727719L130.502 3.98972L130.957 1.02872L131.545 1.11972L130.929 5.10272L130.341 5.01172L128.836 1.74972L128.381 4.71072L127.793 4.61972L128.409 0.636719Z" fill="white"/>
<path d="M134.023 5.02569L132.434 4.56369L131.895 5.34769L131.314 5.17969L133.701 1.67969L134.506 1.91769L134.632 6.15269L134.051 5.98469L134.023 5.03269V5.02569ZM134.002 4.44469L133.932 2.35169L132.756 4.08069L134.002 4.44469Z" fill="white"/>
<path d="M135.479 4.30485C136.004 3.10785 137.019 2.68785 138.034 3.12885C138.902 3.50685 139.231 4.16485 139.112 4.96285L138.517 4.82285C138.559 4.31885 138.349 3.88485 137.838 3.66085C137.054 3.31085 136.424 3.71685 136.046 4.55685C135.668 5.40385 135.822 6.13185 136.606 6.48185C137.243 6.76185 137.768 6.55185 138.146 5.89385L137.425 5.57885L137.614 5.14485L138.902 5.70485C138.881 5.76785 138.832 5.90085 138.818 5.92185C138.37 6.95085 137.432 7.43385 136.354 6.96485C135.367 6.53085 134.954 5.50185 135.479 4.29085V4.30485Z" fill="white"/>
<path d="M140.526 4.42399L142.738 5.73999L142.458 6.21599L140.75 5.20099L140.176 6.16699L141.597 7.01399L141.31 7.48999L139.889 6.64299L139.252 7.70699L140.96 8.72199L140.673 9.19799L138.461 7.88199L140.519 4.41699L140.526 4.42399Z" fill="white"/>
<path d="M143.662 6.32812L144.075 6.65713L143.319 9.94012L146.35 8.47712L146.763 8.81313L144.243 11.9631L143.816 11.6201L145.538 9.46413L142.794 10.8081L142.584 10.6401L143.291 7.67212L141.569 9.82812L141.135 9.48513L143.655 6.33513L143.662 6.32812Z" fill="white"/>
<path d="M147.617 9.66016L149.395 11.5292L148.996 11.9142L147.624 10.4722L146.805 11.2492L147.946 12.4462L147.547 12.8312L146.406 11.6342L145.503 12.4952L146.875 13.9372L146.476 14.3222L144.698 12.4532L147.617 9.67416V9.66016Z" fill="white"/>
<path d="M150.081 12.3135L150.438 12.7895L149.22 16.1705L151.621 14.3855L151.978 14.8615L148.744 17.2695L148.387 16.7935L149.605 13.4125L147.204 15.1975L146.847 14.7215L150.081 12.3135Z" fill="white"/>
<path d="M152.608 16.9957L151.95 15.8267L152.433 15.5537L154.043 18.3957L153.56 18.6687L152.902 17.5067L149.871 19.2217L149.584 18.7107L152.615 16.9957H152.608Z" fill="white"/>
<path d="M152.055 20.9438L152.356 21.4758C151.936 21.7628 151.824 22.2668 152.006 22.7568C152.181 23.2118 152.545 23.5198 152.93 23.3728C153.196 23.2748 153.266 23.0228 153.245 22.7148L153.168 21.6368C153.133 21.2168 153.182 20.6848 153.798 20.4538C154.498 20.1878 155.107 20.6288 155.387 21.3918C155.674 22.1618 155.478 22.8618 154.841 23.2748L154.512 22.7288C154.911 22.4908 155.023 22.0218 154.869 21.5808C154.715 21.1608 154.358 20.9018 154.043 21.0208C153.728 21.1398 153.742 21.5038 153.77 21.7978L153.833 22.5678C153.868 22.9458 153.917 23.6528 153.182 23.9328C152.426 24.2198 151.782 23.7018 151.481 22.9248C151.173 22.1128 151.383 21.3358 152.055 20.9508V20.9438Z" fill="white"/>
<path d="M154.036 25.1796L155.996 23.2686L156.164 23.9336L154.764 25.2986L156.647 25.8236L156.815 26.4886L154.183 25.7536L152.573 26.1666L152.426 25.5926L154.036 25.1866V25.1796Z" fill="white"/>
<path d="M154.036 27.272L154.211 27.86C153.742 28.049 153.518 28.511 153.588 29.029C153.651 29.512 153.945 29.89 154.351 29.834C154.631 29.792 154.757 29.568 154.806 29.267L154.967 28.196C155.03 27.783 155.198 27.272 155.842 27.181C156.577 27.083 157.074 27.643 157.179 28.448C157.284 29.267 156.934 29.897 156.227 30.163L156.031 29.554C156.472 29.407 156.689 28.98 156.633 28.518C156.577 28.07 156.29 27.741 155.954 27.79C155.618 27.832 155.548 28.189 155.513 28.483L155.401 29.253C155.352 29.631 155.24 30.331 154.463 30.436C153.665 30.548 153.147 29.897 153.035 29.071C152.916 28.21 153.294 27.503 154.036 27.272Z" fill="white"/>
<path d="M156.836 32.0043L156.808 30.6673L157.361 30.6533L157.424 33.9153L156.871 33.9293L156.843 32.5923L153.371 32.6553L153.357 32.0673L156.829 32.0043H156.836Z" fill="white"/>
<path d="M157.382 34.7266L157.137 37.2886L156.584 37.2396L156.773 35.2586L155.653 35.1536L155.499 36.7986L154.946 36.7426L155.1 35.0976L153.861 34.9786L153.672 36.9596L153.119 36.9106L153.364 34.3486L157.382 34.7266Z" fill="white"/>
<path d="M157.004 38.3602L156.885 38.8782L153.602 39.6062L156.227 41.7132L156.108 42.2312L152.181 41.3142L152.307 40.7822L154.995 41.4122L152.601 39.5152L152.664 39.2562L155.646 38.6192L152.958 37.9892L153.084 37.4502L157.011 38.3672L157.004 38.3602Z" fill="white"/>
<path d="M143.564 14.3356C143.193 13.9576 142.801 13.6006 142.402 13.2506C137.768 9.14158 131.678 6.64258 125 6.64258C118.322 6.64258 112.232 9.14158 107.598 13.2506C107.199 13.6006 106.814 13.9576 106.436 14.3356C101.683 19.0886 98.75 25.6476 98.75 32.8996C98.75 40.1516 101.613 46.5286 106.247 51.2606C106.618 51.6386 106.996 52.0096 107.388 52.3596C112.043 56.5736 118.224 59.1426 125 59.1426C131.776 59.1426 137.95 56.5736 142.612 52.3596C143.004 52.0026 143.382 51.6386 143.753 51.2606C148.387 46.5286 151.25 40.0466 151.25 32.8996C151.25 25.7526 148.31 19.0886 143.564 14.3356ZM141.233 14.3356C139.567 15.7916 137.712 17.0306 135.703 18.0036C134.31 13.8736 132.392 10.6956 130.166 8.76358C134.345 9.65958 138.125 11.6126 141.233 14.3286V14.3356ZM125 8.22458C128.682 8.22458 132.105 12.2286 134.247 18.6476C131.391 19.8096 128.269 20.4536 125 20.4536C121.731 20.4536 118.609 19.8096 115.753 18.6476C117.895 12.2286 121.318 8.22458 125 8.22458ZM119.834 8.77058C117.608 10.7026 115.69 13.8806 114.297 18.0106C112.288 17.0376 110.433 15.7986 108.767 14.3426C111.868 11.6266 115.655 9.66658 119.834 8.77758V8.77058ZM108.536 51.2606C110.223 49.7416 112.127 48.4606 114.185 47.4456C115.585 51.7366 117.545 55.0406 119.834 57.0216C115.557 56.1046 111.686 54.0816 108.536 51.2606ZM125 57.5746C121.255 57.5746 117.769 53.4236 115.634 46.8016C118.525 45.6116 121.682 44.9536 125 44.9536C128.318 44.9536 131.475 45.6116 134.366 46.8016C132.231 53.4236 128.752 57.5746 125 57.5746ZM130.166 57.0286C132.455 55.0476 134.408 51.7436 135.815 47.4526C137.873 48.4606 139.77 49.7486 141.464 51.2676C138.321 54.0886 134.45 56.1186 130.166 57.0286ZM142.612 50.1616C140.729 48.4606 138.601 47.0256 136.284 45.9196C136.704 44.4356 137.061 42.8466 137.341 41.1596L135.787 40.8936C135.528 42.4406 135.199 43.9036 134.821 45.2756C131.79 44.0506 128.472 43.3716 125 43.3716C121.528 43.3716 118.217 44.0506 115.179 45.2756C114.801 43.8966 114.472 42.4336 114.213 40.8866L112.659 41.1526C112.946 42.8326 113.296 44.4286 113.716 45.9126C111.399 47.0186 109.264 48.4536 107.388 50.1546C103.02 45.7026 100.325 39.6056 100.325 32.8926C100.325 26.1796 103.111 19.8866 107.598 15.4136C109.46 17.0586 111.553 18.4516 113.821 19.5226C113.359 21.1116 112.967 22.8266 112.659 24.6466L114.213 24.9056C114.5 23.2256 114.857 21.6366 115.284 20.1526C118.287 21.3496 121.57 22.0216 125 22.0216C128.43 22.0216 131.713 21.3566 134.716 20.1526C135.143 21.6366 135.507 23.2326 135.787 24.9266L137.341 24.6676C137.033 22.8406 136.641 21.1186 136.172 19.5226C138.447 18.4516 140.54 17.0656 142.395 15.4136C146.882 19.8866 149.668 26.0676 149.668 32.8926C149.668 39.7176 146.966 45.7026 142.605 50.1546L142.612 50.1616Z" fill="white"/>
<path d="M114.255 38.8005H106.401V38.3875H107.752V27.5165H106.401V27.1035H114.255V27.5165H112.841V38.3875H114.255V38.8005Z" fill="white"/>
<path d="M127.016 30.8413C127.002 29.6933 126.554 28.8043 125.672 28.1813C124.797 27.5583 123.894 27.2503 122.977 27.2503C122.543 27.2503 122.186 27.3693 121.92 27.6073C121.654 27.8453 121.514 28.1533 121.514 28.5313C121.514 28.8253 121.598 29.0633 121.773 29.2453C121.941 29.4343 122.277 29.6583 122.76 29.9243C124.489 30.8833 125.623 31.5693 126.183 31.9893C126.736 32.4093 127.121 32.8503 127.338 33.3263C127.555 33.8023 127.66 34.3413 127.66 34.9643C127.66 35.9163 127.408 36.7073 126.904 37.3443C126.4 37.9813 125.714 38.4363 124.846 38.7233C123.978 39.0103 123.194 39.1573 122.487 39.1573C121.395 39.1573 120.373 38.7863 119.421 38.0513L117.853 39.2833V34.3623H118.301V34.4113C118.301 35.2163 118.455 35.9023 118.756 36.4553C119.064 37.0083 119.54 37.5053 120.184 37.9463C120.835 38.3873 121.493 38.6043 122.165 38.6043C122.774 38.6043 123.271 38.4783 123.642 38.2263C124.02 37.9743 124.202 37.6453 124.202 37.2393C124.202 37.0013 124.125 36.7773 123.971 36.5743C123.817 36.3643 123.607 36.1823 123.348 36.0073C123.089 35.8393 122.48 35.5033 121.535 35.0063C119.351 33.8583 118.259 32.4723 118.259 30.8693C118.259 29.7073 118.686 28.7413 119.54 27.9643C120.394 27.1873 121.458 26.8023 122.739 26.8023C123.166 26.8023 123.621 26.8513 124.104 26.9563C124.587 27.0613 125.168 27.3203 125.84 27.7403L127.443 26.5293V30.8553H127.016V30.8413Z" fill="white"/>
<path d="M137.803 26.7393C139.833 26.7393 141.429 27.2993 142.598 28.4123C143.767 29.5253 144.355 31.0513 144.355 32.9763C144.355 34.9013 143.781 36.2873 142.626 37.4353C141.478 38.5833 139.903 39.1573 137.901 39.1573C135.899 39.1573 134.296 38.5903 133.092 37.4633C131.881 36.3363 131.279 34.8103 131.279 32.8923C131.279 30.9743 131.867 29.5253 133.05 28.4123C134.233 27.2993 135.815 26.7393 137.796 26.7393H137.803ZM138.783 37.4563V28.4263C138.783 27.6633 138.482 27.2853 137.887 27.2853C137.236 27.2853 136.914 27.6843 136.914 28.4823V37.5193C136.914 37.9113 136.991 38.1983 137.138 38.3663C137.285 38.5413 137.537 38.6253 137.894 38.6253C138.489 38.6253 138.79 38.2333 138.79 37.4563H138.783Z" fill="white"/>
<path d="M202.295 65.6733C202.134 66.0723 201.903 66.5063 201.609 66.9543C201.315 67.4093 201.014 67.6963 200.713 67.8223C200.412 67.9413 200.146 68.0043 199.922 68.0043C199.81 68.0043 199.593 67.9763 199.264 67.9203C198.466 67.7873 197.934 67.7243 197.668 67.7243C197.297 67.7243 196.975 67.8433 196.709 68.0813L196.513 67.9623C196.611 67.5633 196.786 67.2133 197.045 66.9053C197.304 66.5973 197.542 66.3663 197.773 66.2053C198.291 65.8343 198.627 65.5823 198.788 65.4423C198.949 65.3023 199.096 65.1413 199.229 64.9453C199.362 64.7493 199.467 64.5183 199.53 64.2523C199.6 63.9863 199.628 63.6503 199.628 63.2373C199.628 62.8243 199.586 62.5093 199.509 62.3063C199.425 62.1033 199.285 61.9423 199.089 61.8163C198.893 61.6903 198.662 61.6273 198.417 61.6273C198.235 61.6273 198.032 61.6763 197.815 61.7673C197.598 61.8583 197.423 61.9773 197.283 62.1103L197.304 62.1313C197.423 62.0893 197.549 62.0683 197.675 62.0683C197.955 62.0683 198.179 62.1523 198.347 62.3203C198.515 62.4883 198.599 62.7123 198.599 62.9853C198.599 63.2583 198.508 63.5103 198.319 63.7063C198.13 63.9023 197.899 63.9933 197.619 63.9933C197.339 63.9933 197.101 63.8953 196.891 63.6923C196.681 63.4893 196.583 63.2583 196.583 62.9853C196.583 62.5303 196.814 62.1383 197.269 61.8093C197.724 61.4803 198.319 61.3193 199.054 61.3193C199.985 61.3193 200.713 61.5153 201.252 61.9073C201.791 62.2993 202.064 62.8243 202.064 63.4893C202.064 63.9443 201.931 64.3153 201.665 64.6023C201.399 64.8893 201.063 65.1203 200.643 65.2953C200.23 65.4703 199.817 65.5963 199.404 65.6873C199.117 65.7503 198.907 65.8063 198.767 65.8483C198.627 65.8903 198.487 65.9673 198.361 66.0653L198.382 66.0863C198.55 65.9953 198.753 65.9463 198.991 65.9463C199.145 65.9463 199.453 65.9673 199.901 66.0093C200.363 66.0443 200.671 66.0653 200.832 66.0653C201.196 66.0653 201.462 66.0373 201.63 65.9883C201.798 65.9393 201.952 65.7853 202.085 65.5333L202.302 65.6593L202.295 65.6733Z" fill="white"/>
<path d="M210.149 61.5507C209.743 61.8867 209.379 62.4327 209.057 63.1957C208.735 63.9587 208.574 64.8547 208.574 65.8767V66.0027C208.574 66.4157 208.539 66.7657 208.469 67.0597C208.399 67.3537 208.259 67.5917 208.035 67.7737C207.818 67.9557 207.531 68.0467 207.174 68.0467C206.817 68.0467 206.516 67.9347 206.285 67.7107C206.054 67.4867 205.935 67.2067 205.935 66.8567C205.935 66.4227 206.054 65.9887 206.299 65.5477C206.544 65.1067 206.992 64.5747 207.657 63.9377C208.14 63.4897 208.469 63.1677 208.651 62.9717C208.826 62.7757 209.015 62.5447 209.218 62.2647L209.197 62.2437C208.945 62.5377 208.588 62.7547 208.119 62.9087C207.65 63.0557 207.139 63.1327 206.579 63.1327L205.634 63.0977C205.34 63.0977 205.137 63.1467 205.018 63.2517C204.906 63.3567 204.794 63.5247 204.696 63.7627H204.458C204.724 63.0627 204.857 62.3767 204.857 61.7047C204.857 61.5437 204.857 61.4107 204.836 61.3057H205.039C205.053 61.4177 205.06 61.5367 205.06 61.6487V61.7327C205.501 61.4597 206.068 61.3197 206.768 61.3197C207.118 61.3197 207.552 61.3617 208.07 61.4457C208.574 61.5297 208.903 61.5717 209.071 61.5717C209.505 61.5717 209.827 61.5017 210.03 61.3687L210.135 61.5437L210.149 61.5507Z" fill="white"/>
<path d="M214.993 61.3263C215.812 61.3263 216.505 61.6483 217.065 62.2923C217.625 62.9363 217.912 63.7343 217.912 64.6723C217.912 65.6803 217.639 66.4923 217.093 67.1153C216.547 67.7383 215.84 68.0533 214.972 68.0533C214.146 68.0533 213.46 67.7383 212.907 67.1013C212.354 66.4643 212.074 65.6733 212.074 64.7213C212.074 63.7693 212.354 62.9643 212.921 62.3063C213.488 61.6483 214.174 61.3193 214.986 61.3193L214.993 61.3263ZM215.455 67.1993V62.1873C215.455 61.9703 215.42 61.8093 215.35 61.7183C215.28 61.6273 215.168 61.5783 215 61.5783C214.832 61.5783 214.72 61.6273 214.65 61.7253C214.58 61.8233 214.552 61.9843 214.552 62.2153V67.1993C214.552 67.4233 214.58 67.5843 214.643 67.6823C214.706 67.7803 214.818 67.8293 214.972 67.8293C215.154 67.8293 215.28 67.7873 215.35 67.6963C215.42 67.6053 215.448 67.4443 215.448 67.2063L215.455 67.1993Z" fill="white"/>
<path d="M222.791 61.3263C223.61 61.3263 224.303 61.6483 224.863 62.2923C225.423 62.9363 225.71 63.7343 225.71 64.6723C225.71 65.6803 225.437 66.4923 224.891 67.1153C224.345 67.7383 223.638 68.0533 222.77 68.0533C221.902 68.0533 221.258 67.7383 220.705 67.1013C220.152 66.4643 219.872 65.6733 219.872 64.7213C219.872 63.7693 220.152 62.9643 220.719 62.3063C221.286 61.6483 221.972 61.3193 222.784 61.3193L222.791 61.3263ZM223.253 67.1993V62.1873C223.253 61.9703 223.218 61.8093 223.148 61.7183C223.078 61.6273 222.966 61.5783 222.798 61.5783C222.63 61.5783 222.518 61.6273 222.448 61.7253C222.378 61.8233 222.35 61.9843 222.35 62.2153V67.1993C222.35 67.4233 222.378 67.5843 222.441 67.6823C222.504 67.7803 222.616 67.8293 222.77 67.8293C222.952 67.8293 223.078 67.7873 223.148 67.6963C223.218 67.6053 223.246 67.4443 223.246 67.2063L223.253 67.1993Z" fill="white"/>
<path d="M233.487 65.6733C233.326 66.0723 233.095 66.5063 232.801 66.9543C232.507 67.4093 232.206 67.6963 231.905 67.8223C231.604 67.9413 231.338 68.0043 231.114 68.0043C231.002 68.0043 230.785 67.9763 230.456 67.9203C229.658 67.7873 229.126 67.7243 228.86 67.7243C228.489 67.7243 228.167 67.8433 227.901 68.0813L227.705 67.9623C227.803 67.5633 227.978 67.2133 228.237 66.9053C228.496 66.5973 228.734 66.3663 228.965 66.2053C229.483 65.8343 229.819 65.5823 229.98 65.4423C230.141 65.3023 230.288 65.1413 230.421 64.9453C230.554 64.7493 230.659 64.5183 230.722 64.2523C230.792 63.9863 230.82 63.6503 230.82 63.2373C230.82 62.8243 230.778 62.5093 230.701 62.3063C230.617 62.1033 230.477 61.9423 230.281 61.8163C230.085 61.6903 229.854 61.6273 229.609 61.6273C229.427 61.6273 229.224 61.6763 229.007 61.7673C228.79 61.8583 228.615 61.9773 228.482 62.1103L228.503 62.1313C228.622 62.0893 228.748 62.0683 228.874 62.0683C229.154 62.0683 229.378 62.1523 229.546 62.3203C229.714 62.4883 229.798 62.7123 229.798 62.9853C229.798 63.2583 229.707 63.5103 229.518 63.7063C229.329 63.9023 229.098 63.9933 228.818 63.9933C228.538 63.9933 228.3 63.8953 228.09 63.6923C227.88 63.4893 227.782 63.2583 227.782 62.9853C227.782 62.5303 228.013 62.1383 228.468 61.8093C228.923 61.4803 229.518 61.3193 230.253 61.3193C231.184 61.3193 231.912 61.5153 232.451 61.9073C232.99 62.2993 233.263 62.8243 233.263 63.4893C233.263 63.9443 233.13 64.3153 232.864 64.6023C232.598 64.8893 232.255 65.1203 231.842 65.2953C231.422 65.4703 231.016 65.5963 230.603 65.6873C230.316 65.7503 230.106 65.8063 229.966 65.8483C229.826 65.8903 229.686 65.9673 229.56 66.0653L229.581 66.0863C229.749 65.9953 229.952 65.9463 230.19 65.9463C230.344 65.9463 230.652 65.9673 231.1 66.0093C231.562 66.0443 231.87 66.0653 232.031 66.0653C232.395 66.0653 232.661 66.0373 232.829 65.9883C232.997 65.9393 233.151 65.7853 233.284 65.5333L233.501 65.6593L233.487 65.6733Z" fill="white"/>
<path d="M182.597 33.2013V32.6133H186.629V33.2013H182.597Z" fill="white"/>
<path d="M185.446 31.9337L185.404 31.3247C185.901 31.2477 186.223 30.8487 186.272 30.3237C186.314 29.8407 186.118 29.4067 185.712 29.3717C185.425 29.3437 185.257 29.5397 185.145 29.8267L184.746 30.8347C184.592 31.2267 184.319 31.6887 183.668 31.6257C182.926 31.5627 182.569 30.8977 182.646 30.0927C182.723 29.2737 183.199 28.7277 183.955 28.6367L184.011 29.2737C183.549 29.3157 183.248 29.6937 183.192 30.1487C183.15 30.5967 183.353 30.9817 183.696 31.0097C184.032 31.0377 184.179 30.7087 184.277 30.4287L184.55 29.7077C184.683 29.3507 184.942 28.6927 185.726 28.7557C186.531 28.8257 186.895 29.5677 186.818 30.4007C186.741 31.2617 186.216 31.8707 185.446 31.9337Z" fill="white"/>
<path d="M184.914 28.175C183.696 27.902 183.017 27.034 183.276 25.858C183.542 24.675 184.522 24.178 185.74 24.451C186.958 24.724 187.637 25.585 187.378 26.768C187.119 27.944 186.132 28.441 184.914 28.175ZM185.607 25.06C184.704 24.857 184.018 25.151 183.822 25.984C183.633 26.817 184.151 27.363 185.054 27.573C185.957 27.776 186.643 27.489 186.839 26.656C187.028 25.823 186.51 25.263 185.607 25.067V25.06Z" fill="white"/>
<path d="M184.837 23.205L185.033 22.624L185.621 22.82L185.425 23.401L184.837 23.205ZM186.692 23.828L186.888 23.24L187.476 23.436L187.28 24.024L186.692 23.828Z" fill="white"/>
<path d="M188.253 21.8404L188.974 20.1674L189.485 20.3844L188.4 22.8904L187.924 22.6874L187.175 20.4474C187.056 20.0904 186.881 19.9224 186.678 19.8314C186.279 19.6564 185.845 19.8174 185.677 20.2094C185.495 20.6294 185.698 21.0704 186.076 21.2174L185.838 21.7704C185.117 21.4624 184.858 20.7204 185.18 19.9784C185.481 19.2784 186.223 18.9774 186.93 19.2784C187.441 19.4954 187.581 19.7964 187.763 20.3494L188.26 21.8334L188.253 21.8404Z" fill="white"/>
<path d="M187.539 16.7508L186.65 18.3188L186.16 18.0388L187.357 15.9248L187.847 16.2048L190.171 19.1518L189.856 19.7048L187.532 16.7508H187.539Z" fill="white"/>
<path d="M190.087 16.6742L188.96 15.8622C188.295 15.3792 188.162 14.5672 188.645 13.9022C189.128 13.2372 189.94 13.1042 190.605 13.5872L191.732 14.3992C192.397 14.8822 192.53 15.6942 192.047 16.3592C191.564 17.0242 190.752 17.1572 190.087 16.6742ZM191.417 14.9032L190.227 14.0422C189.856 13.7762 189.359 13.8532 189.093 14.2172C188.834 14.5812 188.911 15.0782 189.282 15.3442L190.472 16.2052C190.836 16.4712 191.333 16.3872 191.599 16.0232C191.858 15.6592 191.781 15.1622 191.417 14.8962V14.9032Z" fill="white"/>
<path d="M192.257 13.7549L191.235 12.8099C190.633 12.2499 190.598 11.4309 191.158 10.8219C191.718 10.2199 192.537 10.1849 193.146 10.7449L194.168 11.6899C194.77 12.2499 194.805 13.0689 194.245 13.6779C193.685 14.2799 192.866 14.3149 192.257 13.7549ZM193.79 12.1589L192.712 11.1649C192.376 10.8569 191.872 10.8779 191.571 11.2069C191.27 11.5359 191.284 12.0399 191.62 12.3479L192.698 13.3419C193.027 13.6429 193.531 13.6289 193.839 13.2999C194.14 12.9709 194.126 12.4669 193.797 12.1589H193.79Z" fill="white"/>
<path d="M195.883 11.1788L197.269 9.99581L197.633 10.4158L195.561 12.1868L195.225 11.7948L195.54 9.45681C195.589 9.08581 195.512 8.85481 195.365 8.68681C195.078 8.35781 194.63 8.30881 194.301 8.58881C193.958 8.88281 193.944 9.36581 194.21 9.66681L193.748 10.0588C193.237 9.46381 193.335 8.68681 193.944 8.16181C194.525 7.66481 195.323 7.72081 195.82 8.30181C196.184 8.72181 196.177 9.05081 196.093 9.63181L195.883 11.1788Z" fill="white"/>
<path d="M196.807 6.07607L197.297 5.74707L199.53 9.10007L199.04 9.42207L196.807 6.06907V6.07607Z" fill="white"/>
<path d="M198.228 5.1173L198.753 4.8373L201.931 6.5313L200.51 3.8923L201.035 3.6123L202.953 7.1613L202.428 7.44131L199.25 5.7473L200.678 8.3863L200.153 8.66631L198.235 5.1173H198.228Z" fill="white"/>
<path d="M202.085 3.15723L204.311 2.28223L204.528 2.82823L202.855 3.49323L203.275 4.55023L204.64 4.01123L204.857 4.55023L203.492 5.08923L204.122 6.69223L203.576 6.90923L202.099 3.16423L202.085 3.15723Z" fill="white"/>
<path d="M205.41 3.99668C205.095 2.79268 205.55 1.79168 206.719 1.48368C207.888 1.17568 208.784 1.81968 209.099 3.03068C209.414 4.23468 208.959 5.23568 207.783 5.54368C206.621 5.85168 205.725 5.20768 205.41 3.99668ZM208.497 3.18468C208.259 2.28868 207.692 1.81268 206.859 2.01568C206.026 2.22568 205.781 2.93968 206.012 3.83568C206.243 4.73168 206.817 5.20768 207.643 5.00468C208.469 4.79468 208.728 4.07368 208.497 3.18468Z" fill="white"/>
<path d="M212.396 4.63382L211.514 3.28282L210.457 3.41582L210.639 4.85782L210.058 4.92782L209.561 0.930822L211.178 0.727822C211.255 0.720822 211.381 0.706822 211.486 0.713822C212.172 0.734822 212.571 1.19682 212.648 1.84782C212.718 2.37982 212.543 2.84882 212.109 3.10082L213.061 4.55682L212.403 4.64082L212.396 4.63382ZM210.387 2.86982L211.395 2.74382C211.465 2.73682 211.563 2.71582 211.64 2.68782C211.99 2.56182 212.081 2.21182 212.046 1.91782C212.011 1.62382 211.836 1.30882 211.465 1.26682C211.388 1.25982 211.283 1.26682 211.213 1.27382L210.205 1.39982L210.387 2.86982Z" fill="white"/>
<path d="M213.614 0.462078H214.146L215.546 3.53508L217.058 0.525078H217.59L217.513 4.56408H216.967L217.023 1.79208L215.665 4.52908H215.399L214.153 1.73608L214.097 4.49408H213.544L213.621 0.455078L213.614 0.462078Z" fill="white"/>
<path d="M220.537 4.12984L218.899 3.86384L218.458 4.71084L217.863 4.61284L219.802 0.839844L220.635 0.972844L221.279 5.16584L220.684 5.06784L220.537 4.12284V4.12984ZM220.453 3.56284L220.124 1.49784L219.165 3.35984L220.446 3.56984L220.453 3.56284Z" fill="white"/>
<path d="M223.253 2.12826L221.965 1.77126L222.112 1.23926L225.255 2.11426L225.108 2.64626L223.82 2.28926L222.889 5.64226L222.322 5.48826L223.253 2.13526V2.12826Z" fill="white"/>
<path d="M225.955 2.39453L226.508 2.59753L225.108 6.37753L224.555 6.17453L225.955 2.39453Z" fill="white"/>
<path d="M226.487 4.69009C227.033 3.56309 228.034 3.10109 229.112 3.62609C230.204 4.15109 230.463 5.22209 229.917 6.34909C229.371 7.47609 228.37 7.93809 227.285 7.41309C226.2 6.88809 225.941 5.81709 226.487 4.69709V4.69009ZM229.357 6.07609C229.756 5.24309 229.637 4.50809 228.867 4.12309C228.097 3.74509 227.446 4.12309 227.04 4.95609C226.634 5.78909 226.753 6.52409 227.523 6.90209C228.293 7.28009 228.951 6.90209 229.357 6.06909V6.07609Z" fill="white"/>
<path d="M231.653 5.04688L232.15 5.37587L232.136 8.97387L233.802 6.48188L234.299 6.81087L232.059 10.1639L231.562 9.83488L231.576 6.23687L229.91 8.72888L229.413 8.39987L231.653 5.04688Z" fill="white"/>
<path d="M234.068 10.3037L234.572 10.6467C234.327 11.0877 234.439 11.5917 234.824 11.9487C235.181 12.2847 235.643 12.3897 235.923 12.0957C236.119 11.8857 236.07 11.6337 235.916 11.3677L235.37 10.4367C235.153 10.0727 234.964 9.57572 235.412 9.09972C235.923 8.55372 236.658 8.67972 237.253 9.23972C237.848 9.80672 237.981 10.5207 237.596 11.1717L237.064 10.8287C237.316 10.4367 237.211 9.96772 236.875 9.64572C236.553 9.33772 236.119 9.26072 235.881 9.51272C235.65 9.75772 235.825 10.0797 235.979 10.3317L236.378 10.9967C236.581 11.3257 236.938 11.9347 236.399 12.5087C235.846 13.0967 235.041 12.9217 234.432 12.3547C233.795 11.7597 233.641 10.9757 234.075 10.3247L234.068 10.3037Z" fill="white"/>
<path d="M238.996 11.0811L240.662 13.0481L240.235 13.4051L238.954 11.8861L238.093 12.6141L239.157 13.8741L238.73 14.2311L237.666 12.9711L236.714 13.7761L238.002 15.2951L237.575 15.6521L235.909 13.6851L238.989 11.0811H238.996Z" fill="white"/>
<path d="M239.409 14.6929C240.452 14.0069 241.551 14.1259 242.209 15.1339C242.72 15.9109 242.643 16.7089 242.104 17.3459L241.642 16.9399C242.02 16.4989 242.09 15.9739 241.74 15.4349C241.271 14.7209 240.515 14.6999 239.745 15.2039C238.975 15.7079 238.688 16.4079 239.157 17.1289C239.507 17.6679 240.018 17.8079 240.571 17.6399L240.76 18.2279C239.962 18.4589 239.199 18.2139 238.688 17.4369C238.03 16.4289 238.359 15.3789 239.402 14.6929H239.409Z" fill="white"/>
<path d="M241.32 18.6905L243.623 17.6055L243.882 18.1375L241.6 19.2085C240.984 19.5025 240.879 20.1185 241.089 20.5665C241.306 21.0285 241.852 21.3295 242.461 21.0425L244.743 19.9715L244.995 20.5105L242.692 21.5955C241.838 22.0015 240.991 21.6655 240.592 20.8115C240.193 19.9575 240.466 19.0965 241.327 18.6905H241.32Z" fill="white"/>
<path d="M242.3 25.0884L243.469 23.9754L243.147 22.9604L241.768 23.4014L241.586 22.8414L245.429 21.6094L245.926 23.1634C245.947 23.2404 245.982 23.3594 245.996 23.4644C246.101 24.1434 245.716 24.6194 245.093 24.8154C244.582 24.9764 244.092 24.8994 243.763 24.5214L242.51 25.7254L242.307 25.0884H242.3ZM243.665 22.7924L243.973 23.7654C243.994 23.8354 244.029 23.9264 244.078 23.9964C244.267 24.3184 244.624 24.3464 244.904 24.2554C245.191 24.1644 245.457 23.9334 245.436 23.5624C245.429 23.4854 245.401 23.3874 245.38 23.3174L245.072 22.3444L243.665 22.7994V22.7924Z" fill="white"/>
<path d="M246.535 25.417L246.668 25.991L242.734 26.887L242.601 26.313L246.535 25.417Z" fill="white"/>
<path d="M246.493 28.1266L246.304 26.8036L246.85 26.7266L247.305 29.9536L246.759 30.0306L246.57 28.7076L243.133 29.1976L243.049 28.6166L246.486 28.1266H246.493Z" fill="white"/>
<path d="M245.023 31.9687L247.361 30.5547L247.375 31.2407L245.702 32.2557L247.417 33.1937L247.431 33.8797L245.037 32.5707L243.378 32.6057L243.364 32.0107L245.023 31.9757V31.9687Z" fill="white"/>
<path d="M233.564 14.3356C233.193 13.9576 232.801 13.6006 232.402 13.2506C227.768 9.14158 221.678 6.64258 215 6.64258C208.322 6.64258 202.232 9.14158 197.598 13.2506C197.199 13.6006 196.814 13.9576 196.436 14.3356C191.683 19.0886 188.75 25.6476 188.75 32.8996C188.75 40.1516 191.613 46.5286 196.247 51.2606C196.618 51.6386 196.996 52.0096 197.388 52.3596C202.043 56.5736 208.224 59.1426 215 59.1426C221.776 59.1426 227.95 56.5736 232.612 52.3596C233.004 52.0026 233.382 51.6386 233.753 51.2606C238.387 46.5286 241.25 40.0466 241.25 32.8996C241.25 25.7526 238.31 19.0886 233.564 14.3356ZM231.233 14.3356C229.567 15.7916 227.712 17.0306 225.703 18.0036C224.31 13.8736 222.392 10.6956 220.166 8.76358C224.345 9.65958 228.125 11.6126 231.233 14.3286V14.3356ZM215 8.22458C218.682 8.22458 222.105 12.2286 224.247 18.6476C221.391 19.8096 218.269 20.4536 215 20.4536C211.731 20.4536 208.609 19.8096 205.753 18.6476C207.895 12.2286 211.318 8.22458 215 8.22458ZM209.834 8.77058C207.608 10.7026 205.69 13.8806 204.297 18.0106C202.288 17.0376 200.433 15.7986 198.767 14.3426C201.868 11.6266 205.655 9.66658 209.834 8.77758V8.77058ZM198.536 51.2606C200.223 49.7416 202.127 48.4606 204.185 47.4456C205.585 51.7366 207.545 55.0406 209.834 57.0216C205.557 56.1046 201.686 54.0816 198.536 51.2606ZM215 57.5746C211.255 57.5746 207.769 53.4236 205.634 46.8016C208.525 45.6116 211.682 44.9536 215 44.9536C218.318 44.9536 221.475 45.6116 224.366 46.8016C222.231 53.4236 218.752 57.5746 215 57.5746ZM220.166 57.0286C222.455 55.0476 224.408 51.7436 225.815 47.4526C227.873 48.4606 229.77 49.7486 231.464 51.2676C228.321 54.0886 224.45 56.1186 220.166 57.0286ZM232.612 50.1616C230.729 48.4606 228.601 47.0256 226.284 45.9196C226.704 44.4356 227.061 42.8466 227.341 41.1596L225.787 40.8936C225.528 42.4406 225.199 43.9036 224.821 45.2756C221.79 44.0506 218.472 43.3716 215 43.3716C211.528 43.3716 208.217 44.0506 205.179 45.2756C204.801 43.8966 204.472 42.4336 204.213 40.8866L202.659 41.1526C202.946 42.8326 203.296 44.4286 203.716 45.9126C201.399 47.0186 199.264 48.4536 197.388 50.1546C193.02 45.7026 190.325 39.6056 190.325 32.8926C190.325 26.1796 193.111 19.8866 197.598 15.4136C199.46 17.0586 201.553 18.4516 203.821 19.5226C203.359 21.1116 202.967 22.8266 202.659 24.6466L204.213 24.9056C204.5 23.2256 204.857 21.6366 205.284 20.1526C208.287 21.3496 211.57 22.0216 215 22.0216C218.43 22.0216 221.713 21.3566 224.716 20.1526C225.143 21.6366 225.507 23.2326 225.787 24.9266L227.341 24.6676C227.033 22.8406 226.641 21.1186 226.172 19.5226C228.447 18.4516 230.54 17.0656 232.395 15.4136C236.882 19.8866 239.668 26.0676 239.668 32.8926C239.668 39.7176 236.966 45.7026 232.605 50.1546L232.612 50.1616Z" fill="white"/>
<path d="M204.255 38.8005H196.401V38.3875H197.752V27.5165H196.401V27.1035H204.255V27.5165H202.841V38.3875H204.255V38.8005Z" fill="white"/>
<path d="M217.016 30.8413C217.002 29.6933 216.554 28.8043 215.672 28.1813C214.797 27.5583 213.894 27.2503 212.977 27.2503C212.543 27.2503 212.186 27.3693 211.92 27.6073C211.654 27.8453 211.514 28.1533 211.514 28.5313C211.514 28.8253 211.598 29.0633 211.773 29.2453C211.941 29.4343 212.277 29.6583 212.76 29.9243C214.489 30.8833 215.623 31.5693 216.183 31.9893C216.736 32.4093 217.121 32.8503 217.338 33.3263C217.555 33.8023 217.66 34.3413 217.66 34.9643C217.66 35.9163 217.408 36.7073 216.904 37.3443C216.4 37.9813 215.714 38.4363 214.846 38.7233C213.978 39.0103 213.194 39.1573 212.487 39.1573C211.395 39.1573 210.373 38.7863 209.421 38.0513L207.853 39.2833V34.3623H208.301V34.4113C208.301 35.2163 208.455 35.9023 208.756 36.4553C209.064 37.0083 209.54 37.5053 210.184 37.9463C210.835 38.3873 211.493 38.6043 212.165 38.6043C212.774 38.6043 213.271 38.4783 213.642 38.2263C214.02 37.9743 214.202 37.6453 214.202 37.2393C214.202 37.0013 214.125 36.7773 213.971 36.5743C213.817 36.3643 213.607 36.1823 213.348 36.0073C213.089 35.8393 212.48 35.5033 211.535 35.0063C209.351 33.8583 208.259 32.4723 208.259 30.8693C208.259 29.7073 208.686 28.7413 209.54 27.9643C210.394 27.1873 211.458 26.8023 212.739 26.8023C213.166 26.8023 213.621 26.8513 214.104 26.9563C214.587 27.0613 215.168 27.3203 215.84 27.7403L217.443 26.5293V30.8553H217.016V30.8413Z" fill="white"/>
<path d="M227.803 26.7393C229.833 26.7393 231.429 27.2993 232.598 28.4123C233.767 29.5253 234.355 31.0513 234.355 32.9763C234.355 34.9013 233.781 36.2873 232.626 37.4353C231.478 38.5833 229.903 39.1573 227.901 39.1573C225.899 39.1573 224.296 38.5903 223.092 37.4633C221.881 36.3363 221.279 34.8103 221.279 32.8923C221.279 30.9743 221.867 29.5253 223.05 28.4123C224.233 27.2993 225.815 26.7393 227.796 26.7393H227.803ZM228.783 37.4563V28.4263C228.783 27.6633 228.482 27.2853 227.887 27.2853C227.236 27.2853 226.914 27.6843 226.914 28.4823V37.5193C226.914 37.9113 226.991 38.1983 227.138 38.3663C227.285 38.5413 227.537 38.6253 227.894 38.6253C228.489 38.6253 228.79 38.2333 228.79 37.4563H228.783Z" fill="white"/>
<path d="M292.295 65.6743C292.134 66.0733 291.903 66.5073 291.609 66.9553C291.315 67.4103 291.014 67.6973 290.713 67.8233C290.412 67.9423 290.146 68.0053 289.922 68.0053C289.81 68.0053 289.593 67.9773 289.264 67.9213C288.466 67.7883 287.934 67.7253 287.668 67.7253C287.297 67.7253 286.975 67.8443 286.709 68.0823L286.513 67.9633C286.611 67.5643 286.786 67.2143 287.045 66.9063C287.304 66.5983 287.542 66.3673 287.773 66.2063C288.291 65.8353 288.627 65.5833 288.788 65.4433C288.949 65.3033 289.096 65.1423 289.229 64.9463C289.362 64.7503 289.467 64.5193 289.53 64.2533C289.6 63.9873 289.628 63.6513 289.628 63.2383C289.628 62.8253 289.586 62.5103 289.509 62.3073C289.425 62.1043 289.285 61.9433 289.089 61.8173C288.893 61.6913 288.662 61.6283 288.417 61.6283C288.235 61.6283 288.032 61.6773 287.815 61.7683C287.598 61.8593 287.423 61.9783 287.283 62.1113L287.304 62.1323C287.423 62.0903 287.549 62.0693 287.675 62.0693C287.955 62.0693 288.179 62.1533 288.347 62.3213C288.515 62.4893 288.599 62.7133 288.599 62.9863C288.599 63.2593 288.508 63.5113 288.319 63.7073C288.13 63.9033 287.899 63.9943 287.619 63.9943C287.339 63.9943 287.101 63.8963 286.891 63.6933C286.681 63.4903 286.583 63.2593 286.583 62.9863C286.583 62.5313 286.814 62.1393 287.269 61.8103C287.724 61.4813 288.319 61.3203 289.054 61.3203C289.985 61.3203 290.713 61.5163 291.252 61.9083C291.791 62.3003 292.064 62.8253 292.064 63.4903C292.064 63.9453 291.931 64.3163 291.665 64.6033C291.399 64.8903 291.063 65.1213 290.643 65.2963C290.23 65.4713 289.817 65.5973 289.404 65.6883C289.117 65.7513 288.907 65.8073 288.767 65.8493C288.627 65.8913 288.487 65.9683 288.361 66.0663L288.382 66.0873C288.55 65.9963 288.753 65.9473 288.991 65.9473C289.145 65.9473 289.453 65.9683 289.901 66.0103C290.363 66.0453 290.671 66.0663 290.832 66.0663C291.196 66.0663 291.462 66.0383 291.63 65.9893C291.798 65.9403 291.952 65.7863 292.085 65.5343L292.302 65.6603L292.295 65.6743Z" fill="white"/>
<path d="M300.149 61.5516C299.743 61.8876 299.379 62.4336 299.057 63.1966C298.735 63.9596 298.574 64.8556 298.574 65.8776V66.0036C298.574 66.4166 298.539 66.7666 298.469 67.0606C298.399 67.3546 298.259 67.5926 298.035 67.7746C297.818 67.9566 297.531 68.0476 297.174 68.0476C296.817 68.0476 296.516 67.9356 296.285 67.7116C296.054 67.4876 295.935 67.2076 295.935 66.8576C295.935 66.4236 296.054 65.9896 296.299 65.5486C296.544 65.1076 296.992 64.5756 297.657 63.9386C298.14 63.4906 298.469 63.1686 298.651 62.9726C298.826 62.7766 299.015 62.5456 299.218 62.2656L299.197 62.2446C298.945 62.5386 298.588 62.7556 298.119 62.9096C297.65 63.0566 297.139 63.1336 296.579 63.1336L295.634 63.0986C295.34 63.0986 295.137 63.1476 295.018 63.2526C294.906 63.3576 294.794 63.5256 294.696 63.7636H294.458C294.724 63.0636 294.857 62.3776 294.857 61.7056C294.857 61.5446 294.857 61.4116 294.836 61.3066H295.039C295.053 61.4186 295.06 61.5376 295.06 61.6496V61.7336C295.501 61.4606 296.068 61.3206 296.768 61.3206C297.118 61.3206 297.552 61.3626 298.07 61.4466C298.574 61.5306 298.903 61.5726 299.071 61.5726C299.505 61.5726 299.827 61.5026 300.03 61.3696L300.135 61.5446L300.149 61.5516Z" fill="white"/>
<path d="M304.993 61.3273C305.812 61.3273 306.505 61.6493 307.065 62.2933C307.625 62.9373 307.912 63.7353 307.912 64.6733C307.912 65.6813 307.639 66.4933 307.093 67.1163C306.547 67.7393 305.84 68.0543 304.972 68.0543C304.146 68.0543 303.46 67.7393 302.907 67.1023C302.354 66.4653 302.074 65.6743 302.074 64.7223C302.074 63.7703 302.354 62.9653 302.921 62.3073C303.488 61.6493 304.174 61.3203 304.986 61.3203L304.993 61.3273ZM305.455 67.2003V62.1883C305.455 61.9713 305.42 61.8103 305.35 61.7193C305.28 61.6283 305.168 61.5793 305 61.5793C304.832 61.5793 304.72 61.6283 304.65 61.7263C304.58 61.8243 304.552 61.9853 304.552 62.2163V67.2003C304.552 67.4243 304.58 67.5853 304.643 67.6833C304.706 67.7813 304.818 67.8303 304.972 67.8303C305.154 67.8303 305.28 67.7883 305.35 67.6973C305.42 67.6063 305.448 67.4453 305.448 67.2073L305.455 67.2003Z" fill="white"/>
<path d="M314.786 67.9002H311.006V67.6762H311.79V62.0272H311.006V61.8032H311.664C311.979 61.8032 312.336 61.7752 312.742 61.7262C313.141 61.6772 313.575 61.5302 314.03 61.2852V67.6762H314.793V67.9002H314.786Z" fill="white"/>
<path d="M321.702 64.197C322.934 64.337 323.557 64.904 323.557 65.912C323.557 66.598 323.256 67.13 322.654 67.501C322.052 67.872 321.338 68.061 320.512 68.061C319.987 68.061 319.483 67.984 319 67.823C318.51 67.662 318.167 67.424 317.957 67.116C317.747 66.801 317.642 66.451 317.642 66.066C317.642 65.079 318.223 64.47 319.392 64.246V64.225C318.461 63.98 317.992 63.532 317.992 62.874C317.992 62.426 318.195 62.062 318.594 61.768C318.993 61.481 319.637 61.334 320.505 61.334C322.276 61.334 323.158 61.831 323.158 62.825C323.158 63.532 322.675 63.987 321.709 64.19V64.211L321.702 64.197ZM321.009 63.539V62.048C321.009 61.88 320.981 61.761 320.918 61.691C320.855 61.621 320.757 61.579 320.61 61.579C320.449 61.579 320.337 61.621 320.274 61.705C320.211 61.789 320.176 61.929 320.176 62.132V63.574C320.176 63.896 320.309 64.064 320.575 64.064C320.736 64.064 320.848 64.029 320.911 63.952C320.974 63.875 321.002 63.742 321.002 63.546L321.009 63.539ZM321.009 67.305V64.806C321.009 64.603 320.974 64.463 320.911 64.386C320.848 64.309 320.736 64.267 320.582 64.267C320.428 64.267 320.316 64.309 320.26 64.386C320.204 64.463 320.176 64.603 320.176 64.806V67.249C320.176 67.452 320.204 67.592 320.267 67.669C320.33 67.746 320.442 67.781 320.61 67.781C320.757 67.781 320.855 67.746 320.918 67.676C320.981 67.606 321.009 67.48 321.009 67.305Z" fill="white"/>
<path d="M273.01 38.0865L272.919 37.5055L276.909 36.8965L277 37.4775L273.01 38.0865Z" fill="white"/>
<path d="M275.635 36.4209L275.502 35.8259C275.985 35.6719 276.244 35.2309 276.209 34.6989C276.181 34.2089 275.915 33.8169 275.509 33.8379C275.222 33.8589 275.089 34.0759 275.012 34.3769L274.774 35.4339C274.683 35.8469 274.48 36.3369 273.822 36.3859C273.08 36.4349 272.625 35.8329 272.576 35.0209C272.527 34.2019 272.919 33.5929 273.647 33.3829L273.801 33.9989C273.346 34.1109 273.108 34.5239 273.122 34.9929C273.143 35.4409 273.409 35.7909 273.752 35.7699C274.088 35.7489 274.186 35.3989 274.242 35.1119L274.41 34.3559C274.487 33.9779 274.641 33.2919 275.432 33.2359C276.237 33.1869 276.706 33.8659 276.762 34.6989C276.818 35.5669 276.391 36.2459 275.635 36.4209Z" fill="white"/>
<path d="M274.55 32.7597C273.304 32.6757 272.499 31.9197 272.583 30.7157C272.667 29.5047 273.563 28.8677 274.809 28.9517C276.055 29.0357 276.86 29.7917 276.776 31.0027C276.692 32.2067 275.796 32.8437 274.55 32.7597ZM274.767 29.5747C273.843 29.5117 273.206 29.9037 273.136 30.7577C273.073 31.6117 273.668 32.0737 274.592 32.1437C275.516 32.2137 276.153 31.8217 276.223 30.9677C276.286 30.1137 275.691 29.6377 274.767 29.5747Z" fill="white"/>
<path d="M273.717 27.8736L273.822 27.2646L274.438 27.3696L274.333 27.9786L273.717 27.8736ZM275.642 28.2096L275.747 27.5936L276.363 27.6986L276.258 28.3146L275.642 28.2096Z" fill="white"/>
<path d="M276.888 26.0122L277.35 24.2482L277.889 24.3882L277.203 27.0272L276.706 26.8942L275.628 24.7942C275.453 24.4582 275.264 24.3182 275.047 24.2622C274.627 24.1502 274.228 24.3742 274.116 24.7872C274.004 25.2282 274.263 25.6342 274.662 25.7252L274.508 26.3132C273.752 26.1172 273.381 25.4242 273.584 24.6402C273.773 23.9052 274.466 23.4922 275.208 23.6882C275.747 23.8282 275.929 24.1012 276.188 24.6192L276.902 26.0122H276.888Z" fill="white"/>
<path d="M275.411 21.0906L274.774 22.7706L274.249 22.5746L275.11 20.3066L275.635 20.5026L278.379 23.0576L278.155 23.6526L275.411 21.0906Z" fill="white"/>
<path d="M277.917 20.6218L276.678 19.9848C275.943 19.6068 275.691 18.8228 276.069 18.0948C276.447 17.3598 277.231 17.1078 277.959 17.4858L279.198 18.1228C279.933 18.5008 280.185 19.2848 279.807 20.0128C279.429 20.7408 278.645 20.9998 277.917 20.6218ZM278.96 18.6688L277.651 17.9968C277.245 17.7868 276.762 17.9478 276.559 18.3468C276.356 18.7458 276.51 19.2288 276.916 19.4388L278.225 20.1108C278.624 20.3138 279.107 20.1598 279.31 19.7608C279.513 19.3618 279.359 18.8788 278.96 18.6758V18.6688Z" fill="white"/>
<path d="M278.281 15.7077L278.253 16.5897L277.707 16.2327L277.742 15.3507L278.071 14.8467L281.452 17.0447L281.123 17.5487L278.281 15.7007V15.7077Z" fill="white"/>
<path d="M282.733 13.4327C283.314 13.8947 283.363 14.6577 282.866 15.2737C282.376 15.8897 281.627 16.0087 281.046 15.5397C280.731 15.2877 280.556 14.9307 280.577 14.5387C280.255 14.6087 279.94 14.5387 279.681 14.3217C279.149 13.8947 279.128 13.2227 279.583 12.6487C280.038 12.0817 280.703 11.9487 281.235 12.3757C281.501 12.5857 281.641 12.8657 281.648 13.2017C282.026 13.0967 282.418 13.1807 282.733 13.4327ZM280.073 13.8387C280.374 14.0767 280.675 13.9927 280.906 13.7057C281.137 13.4187 281.151 13.1037 280.857 12.8657C280.563 12.6347 280.262 12.7187 280.031 13.0057C279.8 13.2927 279.786 13.6077 280.08 13.8387H280.073ZM282.348 13.9227C281.991 13.6427 281.613 13.7197 281.34 14.0557C281.067 14.3987 281.081 14.7767 281.438 15.0567C281.795 15.3367 282.166 15.2667 282.439 14.9307C282.712 14.5877 282.705 14.2027 282.348 13.9227Z" fill="white"/>
<path d="M282.047 10.0234L282.467 9.61035L285.295 12.4804L284.875 12.8934L282.047 10.0234Z" fill="white"/>
<path d="M283.272 8.7992L283.734 8.4212L287.171 9.4782L285.274 7.1612L285.736 6.7832L288.291 9.9052L287.829 10.2832L284.392 9.2262L286.289 11.5432L285.827 11.9212L283.272 8.7992Z" fill="white"/>
<path d="M286.674 6.14542L288.69 4.85742L289.005 5.35442L287.486 6.32742L288.095 7.28642L289.334 6.49542L289.649 6.98542L288.41 7.77642L289.341 9.23242L288.844 9.54742L286.674 6.14542Z" fill="white"/>
<path d="M290.111 6.3276C289.572 5.2006 289.831 4.1296 290.916 3.6046C292.008 3.0796 293.009 3.5416 293.548 4.6686C294.087 5.7956 293.828 6.8666 292.736 7.3916C291.651 7.9166 290.65 7.4476 290.111 6.3276ZM292.988 4.9416C292.589 4.1086 291.931 3.7446 291.154 4.1086C290.377 4.4726 290.272 5.2216 290.671 6.0616C291.07 6.8946 291.721 7.2586 292.498 6.9016C293.275 6.5376 293.387 5.7816 292.988 4.9486V4.9416Z" fill="white"/>
<path d="M297.09 5.62726L295.97 4.46526L294.955 4.79426L295.403 6.17326L294.843 6.35526L293.597 2.51926L295.144 2.01526C295.221 1.99426 295.34 1.95926 295.445 1.93826C296.124 1.82626 296.6 2.21126 296.803 2.83426C296.971 3.34526 296.887 3.83526 296.509 4.16426L297.72 5.41726L297.083 5.62026L297.09 5.62726ZM294.787 4.27626L295.76 3.96126C295.83 3.94026 295.921 3.90526 295.991 3.85626C296.313 3.66726 296.334 3.31026 296.243 3.02326C296.152 2.74326 295.921 2.47026 295.55 2.49826C295.473 2.50526 295.375 2.53326 295.305 2.55426L294.332 2.86926L294.787 4.27626Z" fill="white"/>
<path d="M297.475 1.31572L298 1.22472L299.953 3.96172L300.87 0.727719L301.395 0.636719L302.081 4.60572L301.542 4.69672L301.073 1.98072L300.261 4.92072L299.995 4.96972L298.245 2.47772L298.714 5.19372L298.168 5.29172L297.482 1.32272L297.475 1.31572Z" fill="white"/>
<path d="M304.993 3.60507L303.334 3.65407L303.061 4.57107L302.459 4.58507L303.656 0.51807L304.496 0.49707L305.924 4.49407L305.322 4.50807L305 3.61207L304.993 3.60507ZM304.797 3.06607L304.083 1.09907L303.495 3.10807L304.797 3.07307V3.06607Z" fill="white"/>
<path d="M307.254 1.12675L305.917 1.02175L305.959 0.46875L309.214 0.72775L309.172 1.28075L307.835 1.17575L307.555 4.64075L306.967 4.59175L307.247 1.12675H307.254Z" fill="white"/>
<path d="M309.956 0.868164L310.537 0.966164L309.886 4.94916L309.305 4.85816L309.956 0.875164V0.868164Z" fill="white"/>
<path d="M310.943 3.03068C311.265 1.81968 312.154 1.17568 313.323 1.48368C314.492 1.79168 314.954 2.79268 314.632 4.00368C314.31 5.21468 313.421 5.85868 312.245 5.55068C311.083 5.24268 310.621 4.24168 310.943 3.03068ZM314.03 3.84968C314.268 2.95368 314.002 2.25368 313.176 2.02268C312.35 1.79868 311.783 2.29568 311.538 3.19168C311.293 4.08768 311.559 4.78768 312.385 5.01168C313.211 5.23568 313.792 4.73868 314.023 3.84268L314.03 3.84968Z" fill="white"/>
<path d="M316.074 2.39355L316.62 2.62455L317.292 6.15955L318.454 3.39455L319 3.62555L317.439 7.34255L316.893 7.11155L316.221 3.57655L315.059 6.34155L314.513 6.11055L316.074 2.39355Z" fill="white"/>
<path d="M321.681 5.75331L320.547 5.03931L320.841 4.57031L323.606 6.30631L323.312 6.77531L322.178 6.06131L320.33 9.00831L319.833 8.69331L321.681 5.74631V5.75331Z" fill="white"/>
<path d="M324.236 6.79004L326.245 8.40004L325.895 8.83404L324.341 7.59504L323.641 8.47704L324.929 9.50604L324.586 9.94004L323.298 8.91104L322.521 9.88404L324.075 11.123L323.732 11.557L321.716 9.94704L324.236 6.79704V6.79004Z" fill="white"/>
<path d="M325.328 10.2339C326.217 9.35886 327.316 9.26086 328.163 10.1149C328.814 10.7799 328.898 11.5779 328.499 12.3059L327.967 11.9979C328.254 11.4869 328.219 10.9619 327.771 10.5069C327.169 9.89786 326.427 10.0309 325.769 10.6749C325.111 11.3259 324.971 12.0679 325.573 12.6769C326.028 13.1389 326.553 13.1739 327.064 12.9009L327.365 13.4399C326.63 13.8249 325.832 13.7339 325.181 13.0689C324.334 12.2149 324.453 11.1159 325.342 10.2409L325.328 10.2339Z" fill="white"/>
<path d="M330.032 12.25L330.382 12.719L328.989 13.762L330.2 15.379L331.593 14.336L331.943 14.805L328.709 17.22L328.359 16.751L329.752 15.708L328.541 14.091L327.141 15.134L326.791 14.665L330.025 12.25H330.032Z" fill="white"/>
<path d="M332.587 15.8125L332.874 16.3305L331.222 19.5225L333.84 18.0735L334.127 18.5915L330.606 20.5445L330.319 20.0265L331.971 16.8345L329.353 18.2835L329.066 17.7655L332.587 15.8125Z" fill="white"/>
<path d="M332.685 20.202C333.847 19.754 334.897 20.104 335.324 21.224C335.758 22.351 335.212 23.3099 334.05 23.7579C332.888 24.2059 331.838 23.856 331.404 22.729C330.97 21.609 331.516 20.65 332.678 20.202H332.685ZM333.826 23.177C334.687 22.848 335.1 22.225 334.806 21.42C334.505 20.622 333.77 20.454 332.902 20.776C332.041 21.105 331.621 21.721 331.922 22.526C332.223 23.324 332.965 23.5059 333.826 23.1699V23.177Z" fill="white"/>
<path d="M336.178 24.0029L336.325 24.5699L332.951 25.4169L333.392 27.1879L332.853 27.3209L332.265 24.9829L336.171 24.0029H336.178Z" fill="white"/>
<path d="M334.897 27.0898C336.136 26.9288 337.074 27.5098 337.228 28.7068C337.382 29.9038 336.633 30.7088 335.394 30.8698C334.155 31.0308 333.224 30.4498 333.063 29.2458C332.909 28.0488 333.658 27.2438 334.897 27.0828V27.0898ZM335.31 30.2608C336.227 30.1418 336.773 29.6378 336.675 28.7838C336.57 27.9368 335.891 27.6008 334.974 27.7128C334.057 27.8248 333.504 28.3358 333.609 29.1828C333.714 30.0368 334.393 30.3798 335.31 30.2608Z" fill="white"/>
<path d="M335.408 31.3597C336.71 31.3737 337.501 32.1507 337.487 33.2497C337.48 34.1947 336.997 34.7547 336.22 34.9577L336.122 34.3557C336.605 34.2017 336.92 33.8307 336.927 33.2777C336.948 32.4237 336.325 31.9967 335.401 31.9757C334.477 31.9617 333.861 32.3817 333.84 33.2427C333.826 33.9357 334.232 34.3417 334.981 34.4327V33.6487H335.457L335.443 35.0557C335.373 35.0557 335.233 35.0627 335.205 35.0627C334.078 35.0487 333.273 34.3767 333.28 33.2007C333.294 32.1227 334.078 31.3387 335.401 31.3527L335.408 31.3597Z" fill="white"/>
<path d="M334.82 36.5119L337.347 35.4619L337.256 36.1409L335.45 36.8899L337.004 38.0729L336.913 38.7519L334.743 37.0929L333.091 36.8759L333.168 36.2879L334.82 36.5049V36.5119Z" fill="white"/>
<path d="M323.564 14.3356C323.193 13.9576 322.801 13.6006 322.402 13.2506C317.768 9.14158 311.678 6.64258 305 6.64258C298.322 6.64258 292.232 9.14158 287.598 13.2506C287.199 13.6006 286.814 13.9576 286.436 14.3356C281.683 19.0886 278.75 25.6476 278.75 32.8996C278.75 40.1516 281.613 46.5286 286.247 51.2606C286.618 51.6386 286.996 52.0096 287.388 52.3596C292.043 56.5736 298.224 59.1426 305 59.1426C311.776 59.1426 317.95 56.5736 322.612 52.3596C323.004 52.0026 323.382 51.6386 323.753 51.2606C328.387 46.5286 331.25 40.0466 331.25 32.8996C331.25 25.7526 328.31 19.0886 323.564 14.3356ZM321.233 14.3356C319.567 15.7916 317.712 17.0306 315.703 18.0036C314.31 13.8736 312.392 10.6956 310.166 8.76358C314.345 9.65958 318.125 11.6126 321.233 14.3286V14.3356ZM305 8.22458C308.682 8.22458 312.105 12.2286 314.247 18.6476C311.391 19.8096 308.269 20.4536 305 20.4536C301.731 20.4536 298.609 19.8096 295.753 18.6476C297.895 12.2286 301.318 8.22458 305 8.22458ZM299.834 8.77058C297.608 10.7026 295.69 13.8806 294.297 18.0106C292.288 17.0376 290.433 15.7986 288.767 14.3426C291.868 11.6266 295.655 9.66658 299.834 8.77758V8.77058ZM288.536 51.2606C290.223 49.7416 292.127 48.4606 294.185 47.4456C295.585 51.7366 297.545 55.0406 299.834 57.0216C295.557 56.1046 291.686 54.0816 288.536 51.2606ZM305 57.5746C301.255 57.5746 297.769 53.4236 295.634 46.8016C298.525 45.6116 301.682 44.9536 305 44.9536C308.318 44.9536 311.475 45.6116 314.366 46.8016C312.231 53.4236 308.752 57.5746 305 57.5746ZM310.166 57.0286C312.455 55.0476 314.408 51.7436 315.815 47.4526C317.873 48.4606 319.77 49.7486 321.464 51.2676C318.321 54.0886 314.45 56.1186 310.166 57.0286ZM322.612 50.1616C320.729 48.4606 318.601 47.0256 316.284 45.9196C316.704 44.4356 317.061 42.8466 317.341 41.1596L315.787 40.8936C315.528 42.4406 315.199 43.9036 314.821 45.2756C311.79 44.0506 308.472 43.3716 305 43.3716C301.528 43.3716 298.217 44.0506 295.179 45.2756C294.801 43.8966 294.472 42.4336 294.213 40.8866L292.659 41.1526C292.946 42.8326 293.296 44.4286 293.716 45.9126C291.399 47.0186 289.264 48.4536 287.388 50.1546C283.02 45.7026 280.325 39.6056 280.325 32.8926C280.325 26.1796 283.111 19.8866 287.598 15.4136C289.46 17.0586 291.553 18.4516 293.821 19.5226C293.359 21.1116 292.967 22.8266 292.659 24.6466L294.213 24.9056C294.5 23.2256 294.857 21.6366 295.284 20.1526C298.287 21.3496 301.57 22.0216 305 22.0216C308.43 22.0216 311.713 21.3566 314.716 20.1526C315.143 21.6366 315.507 23.2326 315.787 24.9266L317.341 24.6676C317.033 22.8406 316.641 21.1186 316.172 19.5226C318.447 18.4516 320.54 17.0656 322.395 15.4136C326.882 19.8866 329.668 26.0676 329.668 32.8926C329.668 39.7176 326.966 45.7026 322.605 50.1546L322.612 50.1616Z" fill="white"/>
<path d="M294.255 38.8005H286.401V38.3875H287.752V27.5165H286.401V27.1035H294.255V27.5165H292.841V38.3875H294.255V38.8005Z" fill="white"/>
<path d="M307.016 30.8413C307.002 29.6933 306.554 28.8043 305.672 28.1813C304.797 27.5583 303.894 27.2503 302.977 27.2503C302.543 27.2503 302.186 27.3693 301.92 27.6073C301.654 27.8453 301.514 28.1533 301.514 28.5313C301.514 28.8253 301.598 29.0633 301.773 29.2453C301.941 29.4343 302.277 29.6583 302.76 29.9243C304.489 30.8833 305.623 31.5693 306.183 31.9893C306.736 32.4093 307.121 32.8503 307.338 33.3263C307.555 33.8023 307.66 34.3413 307.66 34.9643C307.66 35.9163 307.408 36.7073 306.904 37.3443C306.4 37.9813 305.714 38.4363 304.846 38.7233C303.978 39.0103 303.194 39.1573 302.487 39.1573C301.395 39.1573 300.373 38.7863 299.421 38.0513L297.853 39.2833V34.3623H298.301V34.4113C298.301 35.2163 298.455 35.9023 298.756 36.4553C299.064 37.0083 299.54 37.5053 300.184 37.9463C300.835 38.3873 301.493 38.6043 302.165 38.6043C302.774 38.6043 303.271 38.4783 303.642 38.2263C304.02 37.9743 304.202 37.6453 304.202 37.2393C304.202 37.0013 304.125 36.7773 303.971 36.5743C303.817 36.3643 303.607 36.1823 303.348 36.0073C303.089 35.8393 302.48 35.5033 301.535 35.0063C299.351 33.8583 298.259 32.4723 298.259 30.8693C298.259 29.7073 298.686 28.7413 299.54 27.9643C300.394 27.1873 301.458 26.8023 302.739 26.8023C303.166 26.8023 303.621 26.8513 304.104 26.9563C304.587 27.0613 305.168 27.3203 305.84 27.7403L307.443 26.5293V30.8553H307.016V30.8413Z" fill="white"/>
<path d="M317.803 26.7393C319.833 26.7393 321.429 27.2993 322.598 28.4123C323.767 29.5253 324.355 31.0513 324.355 32.9763C324.355 34.9013 323.781 36.2873 322.626 37.4353C321.478 38.5833 319.903 39.1573 317.901 39.1573C315.899 39.1573 314.296 38.5903 313.092 37.4633C311.881 36.3363 311.279 34.8103 311.279 32.8923C311.279 30.9743 311.867 29.5253 313.05 28.4123C314.233 27.2993 315.815 26.7393 317.796 26.7393H317.803ZM318.783 37.4563V28.4263C318.783 27.6633 318.482 27.2853 317.887 27.2853C317.236 27.2853 316.914 27.6843 316.914 28.4823V37.5193C316.914 37.9113 316.991 38.1983 317.138 38.3663C317.285 38.5413 317.537 38.6253 317.894 38.6253C318.489 38.6253 318.79 38.2333 318.79 37.4563H318.783Z" fill="white"/>
<defs>
<clipPath id="clip0_6175_4498">
<rect width="70" height="70" fill="white"/>
</clipPath>
</defs>
</svg>
