<svg width="35" height="33" viewBox="0 0 35 33" fill="none" xmlns="http://www.w3.org/2000/svg">
<path fill-rule="evenodd" clip-rule="evenodd" d="M28.4119 7.44121C28.6659 7.11558 28.8887 6.818 29.1239 6.52977C29.233 6.39423 29.2237 6.2914 29.1177 6.14962C28.0972 4.80818 28.0006 3.31872 28.588 1.80745C29.0289 0.670109 30.0042 0.13727 31.1961 0.023536C31.9393 -0.0465743 32.6684 0.0297681 33.3446 0.391226C34.2327 0.866418 34.7499 1.59089 34.9182 2.59113C35.0522 3.38883 35.0272 4.16783 34.8013 4.94061C34.4009 6.30854 33.4178 7.01743 32.0701 7.1966C30.9515 7.34617 29.8173 7.36486 28.6893 7.44121C28.602 7.44744 28.5132 7.44121 28.4119 7.44121Z" fill="#027AFF"/>
<path fill-rule="evenodd" clip-rule="evenodd" d="M25.6479 1.3125H18.908L13.5718 13.4805H6.02793V1.36547H0V32.7157H6.02949V19.5085H16.6613C17.5594 19.5084 18.4388 19.2518 19.1959 18.7687C19.9531 18.2857 20.5564 17.5964 20.9349 16.782V32.7157H26.9644V19.5085C26.9645 17.9853 26.3882 16.5186 25.3512 15.403C24.3142 14.2874 22.8934 13.6055 21.3743 13.4946V13.479H18.0635C18.8613 13.2064 19.5943 12.7725 20.217 12.2043C20.8397 11.636 21.3386 10.9456 21.6828 10.176L25.6479 1.3125Z" fill="black"/>
</svg>
