<svg width="17" height="17" viewBox="0 0 17 17" fill="white" xmlns="http://www.w3.org/2000/svg">
<path d="M0.591726 3.29397C0.196533 2.92716 0 2.47311 0 1.93287C0 1.39264 0.197584 0.918613 0.591726 0.550747C0.986919 0.183932 1.49563 0 2.1189 0C2.74217 0 3.23091 0.183932 3.62505 0.550747C4.02025 0.917562 4.21678 1.37897 4.21678 1.93287C4.21678 2.48678 4.0192 2.92716 3.62505 3.29397C3.22986 3.66079 2.7285 3.84472 2.1189 3.84472C1.50929 3.84472 0.986919 3.66079 0.591726 3.29397ZM3.88466 5.39817V16.6444H0.331069V5.39817H3.88466Z" fill="#FEFFFC"/>
<path d="M15.7141 6.5093C16.4887 7.35014 16.8755 8.50419 16.8755 9.97356V16.4459H13.5006V10.4297C13.5006 9.68872 13.3083 9.11274 12.9246 8.70283C12.541 8.29292 12.0239 8.08692 11.3765 8.08692C10.729 8.08692 10.2119 8.29187 9.82825 8.70283C9.44462 9.11274 9.25228 9.68872 9.25228 10.4297V16.4459H5.85742V5.36682H9.25228V6.83617C9.59597 6.34639 10.0595 5.95961 10.6418 5.67478C11.2241 5.38994 11.8789 5.24805 12.6072 5.24805C13.9042 5.24805 14.9405 5.66846 15.7141 6.50825V6.5093Z" fill="#FEFFFC"/>
</svg>
