<svg width="35" height="35" viewBox="0 0 35 35" fill="none" xmlns="http://www.w3.org/2000/svg">
<g clip-path="url(#clip0_6475_2929)">
<path d="M31.5949 7.17855C31.5436 7.10919 31.4645 7.06635 31.3799 7.05956C31.2948 7.05256 31.2112 7.08416 31.1495 7.14419L29.7592 8.52963C29.6576 8.63122 29.6453 8.79178 29.727 8.90865C31.5199 11.4433 32.4701 14.4135 32.4701 17.5017C32.4701 25.7537 25.7446 32.4696 17.4777 32.4696C16.9044 32.4696 16.3076 32.4279 15.6032 32.3405C15.5595 32.3341 15.3716 32.3053 15.2534 32.2862C14.6636 32.1956 14.1191 32.0828 13.5897 31.9419C13.5897 31.9419 13.5059 31.9207 13.4881 31.9146C13.4824 31.9137 13.4784 31.912 13.4728 31.9097C12.8039 31.7216 12.1521 31.4893 11.5332 31.2178C10.9151 30.9508 10.2949 30.625 9.68536 30.2462L27.8934 20.617C28.472 20.311 28.8243 19.7716 28.8347 19.1745C28.8467 18.5783 28.5165 18.0254 27.9489 17.6968L21.6958 14.078L30.9487 4.82487C31.614 4.16099 31.561 3.5635 31.4011 3.18236C31.2098 2.71128 30.7128 2.3821 30.1936 2.3821C29.9145 2.3821 29.6551 2.45697 29.3269 2.63281L7.11322 14.3798C6.53185 14.6858 6.17849 15.2269 6.16768 15.8291C6.15898 16.4278 6.49389 16.9784 7.0621 17.3017L13.3265 20.9059L6.55646 27.674C6.17976 27.2657 5.82322 26.8388 5.49553 26.3974C4.11263 24.5324 3.20357 22.4714 2.79506 20.273C2.78891 20.2418 2.78361 20.2096 2.78022 20.1782C2.77894 20.1723 2.77852 20.1661 2.77703 20.1583L2.76791 20.1127C2.7064 19.7506 2.63896 19.3294 2.59908 18.9096C2.58975 18.8123 2.58657 18.7085 2.58466 18.6101C2.58466 18.6076 2.58466 18.6059 2.58339 18.6033L2.56175 18.2224C2.54712 18.0073 2.53121 17.7639 2.53121 17.5157C2.53121 16.4932 2.63281 15.4772 2.83494 14.4971C2.92975 14.0381 3.04555 13.5857 3.18109 13.1526C3.18618 13.1375 3.18936 13.1258 3.19212 13.1102C3.1936 13.1021 3.19572 13.0868 3.19911 13.0762C3.19911 13.0762 3.19912 13.0754 3.19933 13.0747C5.15765 6.76898 10.9054 2.53206 17.5015 2.53206C18.4084 2.53206 19.3389 2.63705 20.4295 2.86336L20.5619 2.89136C20.9036 2.96305 21.2847 3.06146 21.7242 3.18999C21.9579 3.25808 22.1919 3.34249 22.3983 3.41631L22.593 3.48609C22.7715 3.54781 22.9593 3.61292 23.1289 3.68355C23.1315 3.68419 23.1338 3.68631 23.1376 3.68695C23.1618 3.69649 23.1828 3.70646 23.2081 3.71749L23.2176 3.72237C23.3003 3.76076 23.3968 3.75821 23.4781 3.71452L25.6684 2.55496C25.7641 2.5047 25.8239 2.40458 25.825 2.29493C25.825 2.18612 25.7641 2.08707 25.6684 2.03617C23.1597 0.70375 20.3347 0 17.5017 0C7.85069 0 0 7.85027 0 17.5015C0 21.4116 1.28406 25.1244 3.71367 28.238C4.03437 28.6486 4.38815 29.0584 4.76739 29.4629L4.05346 30.1777C3.39128 30.8356 3.44006 31.4314 3.5985 31.8151C3.79448 32.2879 4.29271 32.6179 4.81044 32.6179C5.08405 32.6179 5.35024 32.5413 5.67391 32.3697L7.15882 31.5818C7.64814 31.9417 8.14191 32.2698 8.62847 32.5579C11.3328 34.1561 14.4006 35.0015 17.5017 35.0015C27.1497 35.0015 35 27.1508 35 17.5008C34.9998 13.7706 33.8237 10.201 31.5949 7.17855Z" fill="#75D1DF"/>
<path d="M4.8097 31.5581C4.72316 31.5581 4.60863 31.4868 4.57724 31.4122C4.55263 31.3523 4.50109 31.2268 4.79973 30.9303L14.3466 21.3853C14.5139 21.2184 14.5958 20.9772 14.5646 20.7429C14.5335 20.5093 14.3922 20.2979 14.1875 20.181L7.59097 16.3853C7.36 16.2527 7.22404 16.0503 7.22722 15.844C7.23062 15.6389 7.37315 15.4418 7.60815 15.3177L29.8219 3.56992C30.0336 3.45751 30.1315 3.44287 30.1952 3.44287C30.2826 3.44287 30.389 3.51032 30.4198 3.58371C30.4493 3.65306 30.5014 3.77672 30.2013 4.07557L20.6748 13.6021C20.5075 13.7681 20.4267 14.0074 20.457 14.2422C20.4878 14.4768 20.6286 14.6872 20.832 14.8047L27.4177 18.6153C27.6447 18.7468 27.7787 18.9476 27.7738 19.1519C27.7702 19.3606 27.6288 19.5583 27.3969 19.6826L5.17875 31.4338C4.96899 31.5462 4.87142 31.5581 4.8097 31.5581Z" fill="#FFD633"/>
</g>
<defs>
<clipPath id="clip0_6475_2929">
<rect width="35" height="35" fill="white"/>
</clipPath>
</defs>
</svg>
