<svg width="150" height="30" viewBox="0 0 150 30" fill="none" xmlns="http://www.w3.org/2000/svg">
<path d="M48.0137 22.6754C47.8329 22.6754 47.6864 22.5288 47.6864 22.348V15.8687C47.6864 13.0602 46.3759 12.7001 45.234 12.7001C43.593 12.7001 42.6132 13.8769 42.6132 15.8478V22.348C42.6132 22.5288 42.4667 22.6754 42.286 22.6754H39.8507C39.67 22.6754 39.5234 22.5288 39.5234 22.348V10.4418C39.5234 10.261 39.67 10.1144 39.8507 10.1144H42.1387C42.3194 10.1144 42.4659 10.261 42.4659 10.4418V10.7529C43.268 10.1191 44.2725 9.79883 45.4654 9.79883C48.6915 9.79883 50.7762 11.9336 50.7762 15.2375V22.348C50.7762 22.5288 50.6297 22.6754 50.4489 22.6754H48.0137Z" fill="black"/>
<path d="M72.5017 9.79883C68.9574 9.79883 66.1797 12.742 66.1797 16.4993C66.1797 16.9391 66.2292 17.3721 66.3217 17.7939C66.3736 18.0397 66.4435 18.2832 66.5269 18.5223C67.4062 21.0482 69.8525 22.9698 72.5648 22.9698C76.729 22.9698 78.1401 20.0713 78.5293 18.9542C78.603 18.7426 78.443 18.5223 78.2191 18.5223H75.6467C75.5382 18.5223 75.4396 18.5782 75.3773 18.667C74.764 19.5397 73.7498 20.0694 72.6483 20.0694C71.4893 20.0694 70.4725 19.4898 69.8276 18.5223C69.6788 18.299 69.5503 18.0555 69.4421 17.7939H78.5858C78.748 17.7939 78.8869 17.6758 78.9095 17.5152C78.9461 17.2552 78.9906 16.8212 78.9906 16.2467C78.9906 12.6315 76.1407 9.79883 72.5017 9.79883ZM69.3474 15.207C69.7285 13.6463 71.2346 12.6991 72.5648 12.6991C74.1205 12.6991 75.4643 13.7681 75.8205 15.207H69.3474Z" fill="black"/>
<path d="M83.8988 22.4687L79.1719 10.5624C79.0865 10.3475 79.2448 10.1143 79.476 10.1143H82.0799C82.2172 10.1143 82.3399 10.2 82.3872 10.3291L85.061 17.6332L87.6787 10.3311C87.7253 10.201 87.8486 10.1143 87.9868 10.1143H90.5906C90.8213 10.1143 90.9796 10.3467 90.8951 10.5615L86.2114 22.4677C86.1621 22.5929 86.0413 22.6752 85.9068 22.6752H84.203C84.0688 22.6752 83.9483 22.5933 83.8988 22.4687Z" fill="black"/>
<path d="M97.2072 22.9698C93.6639 22.9698 90.7812 20.0675 90.7812 16.5002C90.7812 12.6798 93.5348 9.79883 97.1861 9.79883C100.105 9.79883 102.654 11.6572 103.385 14.3182L103.428 14.4748C103.486 14.6832 103.329 14.8889 103.113 14.8889H100.247L100.124 14.6321C99.5046 13.332 98.5642 12.7001 97.2493 12.7001C95.2602 12.7001 93.871 14.2108 93.871 16.3738C93.871 18.4802 95.3053 20.0686 97.2072 20.0686C98.5036 20.0686 99.5579 19.3827 100.1 18.187L100.22 17.9221H103.125C103.351 17.9221 103.509 18.1452 103.434 18.3581L103.376 18.5229C102.411 21.2658 100.047 22.9698 97.2072 22.9698Z" fill="black"/>
<path d="M107.583 6.2002H105.148C104.967 6.2002 104.82 6.34676 104.82 6.52755V22.3482C104.82 22.529 104.967 22.6755 105.148 22.6755H107.583C107.764 22.6755 107.91 22.529 107.91 22.3482V6.52755C107.91 6.34676 107.764 6.2002 107.583 6.2002Z" fill="black"/>
<path d="M116.102 22.9698C112.556 22.9698 109.445 19.917 109.445 16.437C109.445 12.6525 112.38 9.79883 116.271 9.79883C118.059 9.79883 119.805 10.5276 121.061 11.7984C122.285 13.0375 122.948 14.7015 122.928 16.4841C122.906 18.1381 122.199 19.7787 120.989 20.9863C119.707 22.2653 117.972 22.9698 116.102 22.9698ZM116.166 12.7001C114.198 12.7001 112.535 14.3825 112.535 16.3738C112.535 18.3767 114.179 20.0686 116.124 20.0686C118.207 20.0686 119.838 18.4363 119.838 16.3528C119.838 14.3387 118.191 12.7001 116.166 12.7001Z" fill="black"/>
<path d="M129.467 22.9697C127.87 22.9697 124.156 22.3946 124.156 17.068V10.4416C124.156 10.2608 124.303 10.1143 124.484 10.1143H126.919C127.1 10.1143 127.246 10.2608 127.246 10.4416V16.8997C127.246 19.1207 127.979 20.0684 129.698 20.0684C131.847 20.0684 132.298 18.3223 132.298 16.8577V10.4416C132.298 10.2608 132.445 10.1143 132.625 10.1143H135.061C135.241 10.1143 135.388 10.2608 135.388 10.4416V22.3478C135.388 22.5286 135.241 22.6752 135.061 22.6752H132.815C132.634 22.6752 132.487 22.5286 132.487 22.3478V22.0812C131.739 22.6494 130.68 22.9697 129.467 22.9697Z" fill="black"/>
<path d="M143.362 22.97C139.711 22.97 136.852 20.1374 136.852 16.5213C136.852 12.689 139.623 9.79898 143.299 9.79898C144.688 9.79898 145.953 10.2148 146.908 10.9643V6.52755C146.908 6.34676 147.055 6.2002 147.235 6.2002H149.671C149.852 6.2002 149.998 6.34676 149.998 6.52755V22.3482C149.998 22.529 149.852 22.6755 149.671 22.6755H147.404C147.223 22.6755 147.077 22.529 147.077 22.3482V21.6721C146.108 22.5068 144.806 22.97 143.362 22.97ZM143.467 12.7002C141.523 12.7002 139.942 14.367 139.942 16.416C139.942 18.396 141.556 20.0687 143.467 20.0687C145.423 20.0687 147.077 18.4345 147.077 16.5003C147.077 14.2629 145.592 12.7002 143.467 12.7002Z" fill="black"/>
<path d="M58.4392 9.79883C54.8949 9.79883 52.1172 12.742 52.1172 16.4993C52.1172 16.9391 52.1667 17.3721 52.2592 17.7939C52.3111 18.0397 52.381 18.2832 52.4644 18.5223C53.3437 21.0482 55.79 22.9698 58.5023 22.9698C62.6665 22.9698 64.0776 20.0713 64.4668 18.9542C64.5405 18.7426 64.3805 18.5223 64.1566 18.5223H61.5842C61.4757 18.5223 61.3771 18.5782 61.3148 18.667C60.7015 19.5397 59.6873 20.0694 58.5858 20.0694C57.4268 20.0694 56.41 19.4898 55.7651 18.5223C55.6163 18.299 55.4878 18.0555 55.3796 17.7939H64.5233C64.6855 17.7939 64.8244 17.6758 64.847 17.5152C64.8836 17.2552 64.9281 16.8212 64.9281 16.2467C64.9281 12.6315 62.0782 9.79883 58.4392 9.79883ZM55.2849 15.207C55.666 13.6463 57.1721 12.6991 58.5023 12.6991C60.058 12.6991 61.4018 13.7681 61.758 15.207H55.2849Z" fill="black"/>
<path d="M20.7041 5.46753V0.427723C20.7041 0.191497 20.5127 0 20.2765 0H9.13509C8.89894 0 8.70749 0.191497 8.70749 0.427723V8.26167C8.70749 8.46975 8.56181 8.6494 8.35826 8.69232L0.339394 10.3644C0.14158 10.4061 0 10.5807 0 10.7829V28.9909C0 29.2271 0.191442 29.4186 0.4276 29.4186H8.28713C8.52329 29.4186 8.71473 29.2271 8.71473 28.9909V9.03177C8.71473 8.82369 8.8604 8.64405 9.06395 8.60112L20.1647 6.25993C20.4382 6.20225 20.6955 6.41098 20.6955 6.69058V28.9909C20.6955 29.2272 20.8869 29.4187 21.1231 29.4187H28.9826C29.2187 29.4187 29.4102 29.2272 29.4102 28.9909V4.72013C29.4102 4.44841 29.1602 4.24556 28.8944 4.30161L21.2349 5.89818C20.9614 5.95586 20.7041 5.74712 20.7041 5.46753Z" fill="black"/>
</svg>
