<svg width="150" height="30" viewBox="0 0 150 30" fill="none" xmlns="http://www.w3.org/2000/svg">
<path d="M48.0117 22.6754C47.831 22.6754 47.6845 22.5288 47.6845 22.348V15.8687C47.6845 13.0602 46.3739 12.7001 45.2321 12.7001C43.5911 12.7001 42.6113 13.8769 42.6113 15.8478V22.348C42.6113 22.5288 42.4648 22.6754 42.284 22.6754H39.8487C39.668 22.6754 39.5215 22.5288 39.5215 22.348V10.4418C39.5215 10.261 39.668 10.1144 39.8487 10.1144H42.1367C42.3175 10.1144 42.464 10.261 42.464 10.4418V10.7529C43.2661 10.1191 44.2706 9.79883 45.4635 9.79883C48.6896 9.79883 50.7742 11.9336 50.7742 15.2375V22.348C50.7742 22.5288 50.6277 22.6754 50.447 22.6754H48.0117Z" fill="white"/>
<path d="M72.5003 9.79883C68.9559 9.79883 66.1782 12.742 66.1782 16.4993C66.1782 16.9391 66.2278 17.3721 66.3202 17.7939C66.3721 18.0397 66.442 18.2832 66.5254 18.5223C67.4047 21.0482 69.8511 22.9698 72.5633 22.9698C76.7275 22.9698 78.1386 20.0713 78.5278 18.9542C78.6015 18.7426 78.4416 18.5223 78.2176 18.5223H75.6452C75.5367 18.5223 75.4382 18.5782 75.3758 18.667C74.7625 19.5397 73.7483 20.0694 72.6468 20.0694C71.4879 20.0694 70.4711 19.4898 69.8262 18.5223C69.6773 18.299 69.5489 18.0555 69.4406 17.7939H78.5843C78.7465 17.7939 78.8854 17.6758 78.908 17.5152C78.9446 17.2552 78.9891 16.8212 78.9891 16.2467C78.9891 12.6315 76.1392 9.79883 72.5003 9.79883ZM69.346 15.207C69.727 13.6463 71.2331 12.6991 72.5633 12.6991C74.119 12.6991 75.4628 13.7681 75.819 15.207H69.346Z" fill="white"/>
<path d="M83.8939 22.4687L79.167 10.5624C79.0817 10.3475 79.24 10.1143 79.4711 10.1143H82.075C82.2123 10.1143 82.335 10.2 82.3823 10.3291L85.0561 17.6332L87.6738 10.3311C87.7205 10.201 87.8437 10.1143 87.9819 10.1143H90.5857C90.8164 10.1143 90.9747 10.3467 90.8902 10.5615L86.2065 22.4677C86.1572 22.5929 86.0365 22.6752 85.902 22.6752H84.1981C84.064 22.6752 83.9434 22.5933 83.8939 22.4687Z" fill="white"/>
<path d="M97.207 22.9698C93.6636 22.9698 90.781 20.0675 90.781 16.5002C90.781 12.6798 93.5346 9.79883 97.1858 9.79883C100.105 9.79883 102.654 11.6572 103.385 14.3182L103.428 14.4748C103.485 14.6832 103.329 14.8889 103.113 14.8889H100.247L100.124 14.6321C99.5043 13.332 98.5639 12.7001 97.249 12.7001C95.2599 12.7001 93.8708 14.2108 93.8708 16.3738C93.8708 18.4802 95.3051 20.0686 97.207 20.0686C98.5034 20.0686 99.5576 19.3827 100.099 18.187L100.219 17.9221H103.125C103.351 17.9221 103.509 18.1452 103.434 18.3581L103.376 18.5229C102.411 21.2658 100.047 22.9698 97.207 22.9698Z" fill="white"/>
<path d="M107.58 6.2002H105.145C104.964 6.2002 104.817 6.34676 104.817 6.52755V22.3482C104.817 22.529 104.964 22.6755 105.145 22.6755H107.58C107.761 22.6755 107.907 22.529 107.907 22.3482V6.52755C107.907 6.34676 107.761 6.2002 107.58 6.2002Z" fill="white"/>
<path d="M116.102 22.9698C112.556 22.9698 109.445 19.917 109.445 16.437C109.445 12.6525 112.379 9.79883 116.27 9.79883C118.058 9.79883 119.804 10.5276 121.06 11.7984C122.284 13.0375 122.948 14.7015 122.927 16.4841C122.905 18.1381 122.198 19.7787 120.988 20.9863C119.707 22.2653 117.971 22.9698 116.102 22.9698ZM116.165 12.7001C114.197 12.7001 112.534 14.3825 112.534 16.3738C112.534 18.3767 114.178 20.0686 116.123 20.0686C118.206 20.0686 119.838 18.4363 119.838 16.3528C119.838 14.3387 118.19 12.7001 116.165 12.7001Z" fill="white"/>
<path d="M129.466 22.9697C127.869 22.9697 124.155 22.3946 124.155 17.068V10.4416C124.155 10.2608 124.302 10.1143 124.482 10.1143H126.918C127.098 10.1143 127.245 10.2608 127.245 10.4416V16.8997C127.245 19.1207 127.978 20.0684 129.697 20.0684C131.846 20.0684 132.297 18.3223 132.297 16.8577V10.4416C132.297 10.2608 132.443 10.1143 132.624 10.1143H135.059C135.24 10.1143 135.387 10.2608 135.387 10.4416V22.3478C135.387 22.5286 135.24 22.6752 135.059 22.6752H132.813C132.633 22.6752 132.486 22.5286 132.486 22.3478V22.0812C131.737 22.6494 130.679 22.9697 129.466 22.9697Z" fill="white"/>
<path d="M143.364 22.97C139.713 22.97 136.854 20.1374 136.854 16.5213C136.854 12.689 139.625 9.79898 143.301 9.79898C144.69 9.79898 145.955 10.2148 146.91 10.9643V6.52755C146.91 6.34676 147.057 6.2002 147.237 6.2002H149.673C149.854 6.2002 150 6.34676 150 6.52755V22.3482C150 22.529 149.854 22.6755 149.673 22.6755H147.406C147.225 22.6755 147.078 22.529 147.078 22.3482V21.6721C146.11 22.5068 144.808 22.97 143.364 22.97ZM143.469 12.7002C141.525 12.7002 139.944 14.367 139.944 16.416C139.944 18.396 141.558 20.0687 143.469 20.0687C145.425 20.0687 147.078 18.4345 147.078 16.5003C147.078 14.2629 145.594 12.7002 143.469 12.7002Z" fill="white"/>
<path d="M58.4409 9.79883C54.8966 9.79883 52.1189 12.742 52.1189 16.4993C52.1189 16.9391 52.1684 17.3721 52.2609 17.7939C52.3128 18.0397 52.3827 18.2832 52.4661 18.5223C53.3454 21.0482 55.7917 22.9698 58.504 22.9698C62.6682 22.9698 64.0793 20.0713 64.4685 18.9542C64.5422 18.7426 64.3822 18.5223 64.1583 18.5223H61.5859C61.4774 18.5223 61.3789 18.5782 61.3165 18.667C60.7032 19.5397 59.689 20.0694 58.5875 20.0694C57.4286 20.0694 56.4118 19.4898 55.7669 18.5223C55.618 18.299 55.4895 18.0555 55.3813 17.7939H64.525C64.6872 17.7939 64.8261 17.6758 64.8487 17.5152C64.8853 17.2552 64.9298 16.8212 64.9298 16.2467C64.9298 12.6315 62.0799 9.79883 58.4409 9.79883ZM55.2866 15.207C55.6677 13.6463 57.1738 12.6991 58.504 12.6991C60.0597 12.6991 61.4035 13.7681 61.7597 15.207H55.2866Z" fill="white"/>
<path d="M20.7041 5.46753V0.427723C20.7041 0.191497 20.5127 0 20.2765 0H9.13509C8.89894 0 8.70749 0.191497 8.70749 0.427723V8.26167C8.70749 8.46975 8.56181 8.6494 8.35826 8.69232L0.339394 10.3644C0.14158 10.4061 0 10.5807 0 10.7829V28.9909C0 29.2271 0.191442 29.4186 0.4276 29.4186H8.28713C8.52329 29.4186 8.71473 29.2271 8.71473 28.9909V9.03177C8.71473 8.82369 8.8604 8.64405 9.06395 8.60112L20.1647 6.25993C20.4382 6.20225 20.6955 6.41098 20.6955 6.69058V28.9909C20.6955 29.2272 20.8869 29.4187 21.1231 29.4187H28.9826C29.2187 29.4187 29.4102 29.2272 29.4102 28.9909V4.72013C29.4102 4.44841 29.1602 4.24556 28.8944 4.30161L21.2349 5.89818C20.9614 5.95586 20.7041 5.74712 20.7041 5.46753Z" fill="white"/>
</svg>
