<svg width="35" height="35" viewBox="0 0 35 35" fill="none" xmlns="http://www.w3.org/2000/svg">
<path d="M34.8395 6.06855C34.7442 5.98837 34.6232 5.94636 34.4995 5.95047C34.1618 5.95047 33.7251 6.18664 33.4911 6.30472C33.4503 6.32716 33.4189 6.34369 33.3968 6.35314C33.0039 6.54924 32.5754 6.661 32.138 6.68141C31.6886 6.69558 31.3008 6.72274 30.7989 6.77588C27.8087 7.09116 26.4824 9.4056 25.2004 11.6492C24.5017 12.8678 23.7821 14.1289 22.7935 15.1067C22.5891 15.3077 22.3716 15.4947 22.1426 15.6664C21.1203 16.4387 19.8359 16.9854 18.8322 17.3751C17.8704 17.747 16.8201 18.0836 15.8047 18.4071C14.8731 18.7035 13.9987 18.9845 13.1917 19.288C12.8273 19.425 12.5175 19.5242 12.2451 19.6222C11.5103 19.8702 10.9793 20.0497 10.2062 20.5869C9.90457 20.7959 9.60182 21.0227 9.39106 21.1939C8.77788 21.6915 8.23521 22.2725 7.77833 22.9203C7.38652 23.5179 6.93379 24.072 6.4276 24.5734C6.26459 24.7352 5.97464 24.8096 5.54032 24.8096C5.03146 24.8096 4.41432 24.7033 3.76108 24.5912C3.08921 24.4731 2.39289 24.355 1.7967 24.355C1.31114 24.355 0.940852 24.4341 0.662556 24.5982C0.662556 24.5982 0.196787 24.8746 0 25.2312L0.193294 25.3197C0.492606 25.4832 0.77038 25.6844 1.02003 25.9184C1.27876 26.1614 1.56717 26.3698 1.87821 26.5384C1.97758 26.5785 2.0676 26.6392 2.14253 26.7167C2.06103 26.8347 1.94109 26.9942 1.8165 27.1607C1.12716 28.0746 0.725434 28.6521 0.95599 28.9662C1.06341 29.024 1.18371 29.0529 1.30532 29.05C2.80742 29.05 3.6132 28.6532 4.6344 28.1526C4.93016 28.0073 5.23524 27.8573 5.58456 27.7038C6.18075 27.4417 6.82351 27.0237 7.50353 26.5797C8.40479 25.9893 9.33633 25.3859 10.2388 25.0918C10.9823 24.8621 11.7567 24.7517 12.5338 24.7647C13.4921 24.7647 14.4935 24.8946 15.4623 25.021C16.1855 25.1143 16.933 25.2111 17.6666 25.2571C17.9519 25.2749 18.2162 25.2831 18.4724 25.2831C18.8159 25.2846 19.1592 25.266 19.5006 25.2276L19.5821 25.1993C20.0967 24.8781 20.3378 24.1897 20.5718 23.5249C20.722 23.0962 20.8478 22.7113 21.0434 22.4621C21.0557 22.45 21.069 22.439 21.083 22.429C21.0924 22.4237 21.1034 22.4218 21.114 22.4238C21.1246 22.4257 21.1342 22.4313 21.1412 22.4397C21.1412 22.4397 21.1412 22.4456 21.1412 22.4574C21.0178 25.0623 19.9885 26.7143 18.9428 28.1833L18.2441 28.9425C18.2441 28.9425 19.2211 28.9425 19.7765 28.7253C21.8049 28.1101 23.3373 26.7544 24.4517 24.5923C24.7264 24.0375 24.972 23.4683 25.1876 22.8872C25.2062 22.8388 25.3832 22.7491 25.3657 22.9994C25.3657 23.0738 25.3553 23.1553 25.3494 23.2356C25.3494 23.2863 25.3425 23.3383 25.3401 23.3902C25.311 23.7445 25.2237 24.5203 25.2237 24.5203L25.8501 24.1802C27.3639 23.2096 28.5283 21.2588 29.4086 18.2205C29.7766 16.9547 30.0456 15.6971 30.2831 14.5883C30.5672 13.2622 30.8129 12.1168 31.0982 11.674C31.5383 10.9785 32.2102 10.5085 32.86 10.0527L33.1255 9.86612C33.9405 9.28397 34.7556 8.61208 34.935 7.36039V7.33205C35.0747 6.4169 34.9641 6.17837 34.8395 6.06855Z" fill="#003545"/>
</svg>
