<svg width="20" height="20" viewBox="0 0 20 20" fill="none" xmlns="http://www.w3.org/2000/svg">
<path d="M20.0002 16.0899L12.1357 10.4724L20.0002 4.85498V16.0899ZM14.9192 10.4724L18.3821 12.9454V7.9987L14.9192 10.4724Z" fill="#022C3C"/>
<path d="M12.1356 6.42712C12.1356 5.9803 11.7734 5.61808 11.3265 5.61808H2.42712C1.9803 5.61808 1.61808 5.9803 1.61808 6.42712V14.5175C1.61808 14.9643 1.9803 15.3265 2.42712 15.3265H11.3265C11.7734 15.3265 12.1356 14.9643 12.1356 14.5175V6.42712ZM13.7537 14.5175C13.7537 15.858 12.667 16.9446 11.3265 16.9446H2.42712C1.08666 16.9446 0 15.858 0 14.5175V6.42712C0 5.08666 1.08666 4 2.42712 4H11.3265C12.667 4 13.7537 5.08666 13.7537 6.42712V14.5175Z" fill="#022C3C"/>
</svg>
