<svg width="35" height="35" viewBox="0 0 35 35" fill="none" xmlns="http://www.w3.org/2000/svg">
<path d="M3.78041 21.331C3.78041 22.6674 4.07374 23.6935 4.45714 24.3142C4.95982 25.1272 5.70957 25.4717 6.47393 25.4717C7.45981 25.4717 8.3617 25.227 10.0998 22.8232C11.4922 20.8965 13.1329 18.192 14.2368 16.4966L16.1063 13.6241C17.405 11.6292 18.9082 9.41162 20.6316 7.90846C22.0386 6.68159 23.5564 6 25.0839 6C27.6484 6 30.0912 7.48612 31.9607 10.2734C34.0067 13.3259 34.9999 17.1708 34.9999 21.1387C34.9999 23.4975 34.5349 25.2307 33.7438 26.6C32.9794 27.9242 31.4897 29.2472 28.9836 29.2472V25.4717C31.1294 25.4717 31.6649 23.4999 31.6649 21.2434C31.6649 18.0277 30.9152 14.4591 29.2635 11.9092C28.0914 10.1005 26.5724 8.99536 24.9013 8.99536C23.0939 8.99536 21.6394 10.3586 20.0048 12.7892C19.1358 14.0805 18.2436 15.6543 17.2419 17.4301L16.1392 19.3836C13.924 23.3113 13.3629 24.2059 12.2553 25.6823C10.314 28.2674 8.65625 29.2472 6.47393 29.2472C3.88509 29.2472 2.24804 28.1263 1.23417 26.4369C0.406522 25.0603 0 23.2541 0 21.1959L3.78041 21.331Z" fill="#0081FB"/>
<path d="M2.97778 10.5399C4.71098 7.8683 7.21219 6 10.081 6C11.7424 6 13.394 6.49172 15.1187 7.89994C17.0052 9.43962 19.0159 11.9749 21.5245 16.1533L22.4239 17.6528C24.5953 21.2701 25.8307 23.1311 26.5536 24.0087C27.4835 25.1358 28.1347 25.4717 28.9806 25.4717C31.1264 25.4717 31.662 23.4999 31.662 21.2434L34.9969 21.1387C34.9969 23.4975 34.532 25.2307 33.7408 26.6C32.9765 27.9242 31.4867 29.2472 28.9806 29.2472C27.4227 29.2472 26.0424 28.9089 24.5162 27.469C23.3428 26.3638 21.9711 24.4006 20.9159 22.6358L17.7769 17.3924C16.2019 14.7609 14.7572 12.7989 13.921 11.9104C13.0216 10.9549 11.8653 9.80111 10.0201 9.80111C8.52669 9.80111 7.25844 10.8491 6.1971 12.452L2.97778 10.5399Z" fill="url(#paint0_linear_6685_20986)"/>
<path d="M10.0231 9.80111C8.52967 9.80111 7.26142 10.8491 6.20008 12.452C4.69935 14.7171 3.78041 18.091 3.78041 21.331C3.78041 22.6674 4.07374 23.6935 4.45714 24.3142L1.23417 26.4369C0.406522 25.0603 0 23.2541 0 21.1959C0 17.4532 1.02726 13.5523 2.98076 10.5399C4.71396 7.8683 7.21516 6 10.0839 6L10.0231 9.80111Z" fill="url(#paint1_linear_6685_20986)"/>
<defs>
<linearGradient id="paint0_linear_6685_20986" x1="7.42154" y1="20.2405" x2="31.5208" y2="21.4576" gradientUnits="userSpaceOnUse">
<stop stop-color="#0064E1"/>
<stop offset="0.4" stop-color="#0064E1"/>
<stop offset="0.83" stop-color="#0073EE"/>
<stop offset="1" stop-color="#0082FB"/>
</linearGradient>
<linearGradient id="paint1_linear_6685_20986" x1="5.4771" y1="22.9181" x2="5.4771" y2="14.0331" gradientUnits="userSpaceOnUse">
<stop stop-color="#0082FB"/>
<stop offset="1" stop-color="#0064E0"/>
</linearGradient>
</defs>
</svg>
