<svg width="35" height="35" viewBox="0 0 35 35" fill="none" xmlns="http://www.w3.org/2000/svg">
<path d="M23.7388 3C25.4246 3 26.791 4.3905 26.791 6.105V24.8565C26.8027 25.1438 26.9224 25.4152 27.1248 25.6135C27.3272 25.8119 27.5965 25.9218 27.876 25.92C28.1553 25.9214 28.4243 25.8114 28.6264 25.613C28.8284 25.4147 28.9479 25.1435 28.9596 24.8565V13.6485C28.9617 13.2427 29.0415 12.8413 29.1944 12.4672C29.3473 12.0932 29.5704 11.7537 29.8508 11.4683C30.1313 11.1829 30.4636 10.9572 30.8289 10.8039C31.1942 10.6506 31.5853 10.5728 31.9798 10.575C32.3744 10.5728 32.7656 10.6506 33.131 10.804C33.4964 10.9574 33.8288 11.1833 34.1093 11.4689C34.3898 11.7544 34.6128 12.094 34.7656 12.4683C34.9184 12.8425 34.9981 13.2441 35 13.65V23.4915C34.9985 23.7494 34.8975 23.9962 34.7192 24.1776C34.5409 24.359 34.2999 24.4602 34.0492 24.459C33.9249 24.4598 33.8017 24.4354 33.6865 24.3872C33.5714 24.339 33.4666 24.2679 33.3782 24.1781C33.2898 24.0882 33.2194 23.9814 33.1712 23.8636C33.1229 23.7457 33.0976 23.6193 33.0969 23.4915V13.65C33.0961 13.4999 33.0666 13.3514 33.0101 13.213C32.9535 13.0747 32.871 12.9491 32.7673 12.8435C32.6635 12.7379 32.5406 12.6544 32.4055 12.5977C32.2704 12.541 32.1257 12.5122 31.9798 12.513C31.8339 12.5122 31.6892 12.541 31.5541 12.5977C31.419 12.6544 31.296 12.7379 31.1923 12.8435C31.0886 12.9491 31.0061 13.0747 30.9495 13.213C30.893 13.3514 30.8635 13.4999 30.8627 13.65V24.858C30.8606 25.2592 30.7817 25.6561 30.6305 26.026C30.4792 26.3959 30.2586 26.7315 29.9813 27.0137C29.704 27.2959 29.3753 27.5192 29.0141 27.6707C28.6529 27.8223 28.2662 27.8991 27.876 27.897C27.4859 27.8991 27.0992 27.8223 26.738 27.6707C26.3768 27.5192 26.0481 27.2959 25.7708 27.0137C25.4934 26.7315 25.2729 26.3959 25.1216 26.026C24.9704 25.6561 24.8915 25.2592 24.8894 24.858V6.108C24.8773 5.80332 24.7508 5.51534 24.5364 5.30467C24.3221 5.09401 24.0367 4.97708 23.7402 4.9785C23.4437 4.97667 23.1581 5.09322 22.9435 5.30361C22.7289 5.514 22.602 5.80182 22.5896 6.1065L22.5881 29.9625C22.5835 30.7726 22.2663 31.5476 21.7062 32.1172C21.1461 32.6868 20.3891 33.0043 19.6015 33C19.2113 33.0021 18.8246 32.9252 18.4634 32.7737C18.1022 32.6221 17.7735 32.3989 17.4962 32.1167C17.2189 31.8345 16.9983 31.4989 16.847 31.129C16.6958 30.7591 16.6169 30.3622 16.6148 29.961V27.06C16.6148 26.526 17.0406 26.0925 17.5656 26.0925C18.0906 26.0925 18.5165 26.526 18.5165 27.06V29.961C18.5165 30.3555 18.7235 30.72 19.059 30.918C19.3944 31.1145 19.8085 31.1145 20.144 30.918C20.3085 30.822 20.4455 30.6829 20.5408 30.5148C20.636 30.3466 20.6863 30.1556 20.6865 29.961V6.105C20.6865 4.3905 22.0529 3 23.7388 3ZM15.4642 3C17.15 3 18.5165 4.3905 18.5165 6.105V23.3895C18.5159 23.5172 18.4908 23.6436 18.4427 23.7614C18.3946 23.8792 18.3244 23.9861 18.2361 24.076C18.1478 24.1659 18.0431 24.2369 17.928 24.2851C17.813 24.3333 17.6898 24.3578 17.5656 24.357C17.4414 24.3578 17.3182 24.3333 17.2032 24.2851C17.0882 24.2369 16.9835 24.1659 16.8952 24.076C16.8069 23.9861 16.7366 23.8792 16.6885 23.7614C16.6404 23.6436 16.6154 23.5172 16.6148 23.3895V6.105C16.6129 5.79296 16.4906 5.49448 16.2749 5.2751C16.0591 5.05573 15.7675 4.9334 15.4642 4.935C15.1608 4.9334 14.8692 5.05573 14.6535 5.2751C14.4377 5.49448 14.3155 5.79296 14.3135 6.105V27.1245C14.3089 27.9435 13.9884 28.7271 13.4223 29.3031C12.8563 29.8791 12.091 30.2004 11.2948 30.1965C10.4983 30.2008 9.73269 29.8797 9.16633 29.3036C8.59997 28.7276 8.27921 27.9437 8.27458 27.1245V13.65C8.27382 13.4999 8.24432 13.3514 8.18777 13.213C8.13121 13.0747 8.04872 12.9491 7.94499 12.8435C7.84125 12.7379 7.71832 12.6544 7.5832 12.5977C7.44809 12.541 7.30343 12.5122 7.1575 12.513C7.01157 12.5122 6.86691 12.541 6.7318 12.5977C6.59668 12.6544 6.47375 12.7379 6.37001 12.8435C6.26628 12.9491 6.18379 13.0747 6.12723 13.213C6.07068 13.3514 6.04118 13.4999 6.04042 13.65V19.35C6.03832 19.7558 5.95853 20.1571 5.80561 20.5312C5.65269 20.9053 5.42964 21.2447 5.14919 21.5301C4.86873 21.8155 4.53637 22.0413 4.17108 22.1946C3.80579 22.3479 3.41472 22.4256 3.02021 22.4235C2.62569 22.4256 2.23463 22.3479 1.86934 22.1946C1.50404 22.0413 1.17168 21.8155 0.891231 21.5301C0.610777 21.2447 0.387724 20.9053 0.234806 20.5312C0.0818882 20.1571 0.00210101 19.7558 0 19.35L0 17.283C0 16.7475 0.425833 16.314 0.950833 16.314C1.47583 16.314 1.90312 16.749 1.90312 17.283V19.35C1.90312 19.977 2.40333 20.4855 3.02021 20.4855C3.63708 20.4855 4.13729 19.977 4.13729 19.35V13.6485C4.14192 12.8295 4.46248 12.0459 5.02852 11.4698C5.59456 10.8938 6.35979 10.5725 7.15604 10.5765C7.95255 10.5721 8.71815 10.8932 9.28451 11.4693C9.85087 12.0454 10.1716 12.8292 10.1763 13.6485V27.1245C10.1763 27.753 10.6765 28.2615 11.2948 28.2615C11.9117 28.2615 12.4119 27.753 12.4119 27.1245V6.105C12.4119 4.3905 13.7783 3 15.4642 3Z" fill="url(#paint0_linear_6685_21094)"/>
<defs>
<linearGradient id="paint0_linear_6685_21094" x1="0" y1="18.0171" x2="35.0637" y2="18.0171" gradientUnits="userSpaceOnUse">
<stop stop-color="#E2167E"/>
<stop offset="1" stop-color="#FE603C"/>
</linearGradient>
</defs>
</svg>
