<svg width="20" height="20" viewBox="0 0 20 20" fill="none" xmlns="http://www.w3.org/2000/svg">
<path d="M14.8117 6.63004C15.1667 6.27501 15.7422 6.27501 16.0972 6.63004C16.4522 6.98506 16.4522 7.56053 16.0972 7.91555L10.6427 13.3701C10.2877 13.7251 9.71219 13.7251 9.35716 13.3701L3.90262 7.91555C3.5476 7.56053 3.5476 6.98506 3.90262 6.63004C4.25764 6.27501 4.83311 6.27501 5.18813 6.63004L9.99992 11.4418L14.8117 6.63004Z" fill="#022C3C"/>
<path d="M18.1818 10C18.1818 5.48131 14.5187 1.81818 10 1.81818C5.48131 1.81818 1.81818 5.48131 1.81818 10C1.81818 14.5187 5.48131 18.1818 10 18.1818C14.5187 18.1818 18.1818 14.5187 18.1818 10ZM20 10C20 15.5228 15.5228 20 10 20C4.47715 20 0 15.5228 0 10C0 4.47715 4.47715 0 10 0C15.5228 0 20 4.47715 20 10Z" fill="#022C3C"/>
</svg>
