<svg width="35" height="35" viewBox="0 0 35 35" fill="none" xmlns="http://www.w3.org/2000/svg">
<path d="M2.24871 26.2566C2.4086 26.5391 2.63954 26.751 2.92378 26.9098L16.6029 34.7484C17.1714 35.0839 17.8642 35.0839 18.4149 34.7484L32.094 26.9098C32.6625 26.5921 33 25.9918 33 25.3386V9.66142C33 9.00818 32.6625 8.40793 32.094 8.09018L18.4149 0.251576C17.8464 -0.0838586 17.1536 -0.0838586 16.6029 0.251576L2.92378 8.09018C2.33753 8.40793 2 9.00818 2 9.66142V25.3562C2 25.674 2.07106 25.9741 2.24871 26.2566Z" fill="#009639"/>
<path d="M13.2392 23.3602C13.2392 24.311 12.4786 25.0716 11.5278 25.0716C10.577 25.0716 9.81641 24.311 9.81641 23.3602V11.6226C9.81641 10.7064 10.6289 9.96308 11.7525 9.96308C12.565 9.96308 13.5158 10.2915 14.0862 11.0003L14.6048 11.6226L21.7615 20.1795V11.6572C21.7615 10.7064 22.5221 9.9458 23.4729 9.9458C24.4237 9.9458 25.1843 10.7064 25.1843 11.6572V23.3948C25.1843 24.311 24.3718 25.0544 23.2482 25.0544C22.4357 25.0544 21.4849 24.7259 20.9145 24.0171L13.2392 14.8552V23.3602Z" fill="white"/>
</svg>
