<svg width="35" height="35" viewBox="0 0 35 35" fill="none" xmlns="http://www.w3.org/2000/svg">
<path d="M18.1104 0.291469C17.5948 -0.00015109 16.9827 -0.00015109 16.4673 0.291469L2.90496 8.16843C2.38955 8.46019 2.09961 9.01116 2.09961 9.59475V25.3807C2.09961 25.9643 2.42175 26.5152 2.90496 26.8071L16.4673 34.6839C16.9827 34.9756 17.5948 34.9756 18.1104 34.6839L31.6726 26.8071C32.1881 26.5152 32.4779 25.9643 32.4779 25.3807V9.59475C32.4779 9.01116 32.1559 8.46019 31.6726 8.16843L18.1104 0.291469Z" fill="url(#paint0_linear_6475_2934)"/>
<mask id="mask0_6475_2934" style="mask-type:luminance" maskUnits="userSpaceOnUse" x="2" y="0" width="31" height="35">
<path d="M18.1104 0.291469C17.5948 -0.00015109 16.9827 -0.00015109 16.4673 0.291469L2.90496 8.16843C2.38955 8.46019 2.09961 9.01116 2.09961 9.59475V25.3807C2.09961 25.9643 2.42175 26.5152 2.90496 26.8071L16.4673 34.6839C16.9827 34.9756 17.5948 34.9756 18.1104 34.6839L31.6726 26.8071C32.1881 26.5152 32.4779 25.9643 32.4779 25.3807V9.59475C32.4779 9.01116 32.1559 8.46019 31.6726 8.16843L18.1104 0.291469Z" fill="white"/>
</mask>
<g mask="url(#mask0_6475_2934)">
<path d="M17.2893 -0.73291L32.3438 8.3635L17.2893 35.7506L2.20703 26.6383L17.2893 -0.73291Z" fill="url(#paint1_linear_6475_2934)"/>
</g>
<mask id="mask1_6475_2934" style="mask-type:luminance" maskUnits="userSpaceOnUse" x="2" y="0" width="31" height="35">
<path d="M18.1104 0.291469C17.5948 -0.00015109 16.9827 -0.00015109 16.4673 0.291469L2.90496 8.16843C2.38955 8.46019 2.09961 9.01116 2.09961 9.59475V25.3807C2.09961 25.9643 2.42175 26.5152 2.90496 26.8071L16.4673 34.6839C16.9827 34.9756 17.5948 34.9756 18.1104 34.6839L31.6726 26.8071C32.1881 26.5152 32.4779 25.9643 32.4779 25.3807V9.59475C32.4779 9.01116 32.1559 8.46019 31.6726 8.16843L18.1104 0.291469Z" fill="white"/>
</mask>
<g mask="url(#mask1_6475_2934)">
<path d="M17.2893 -0.73291L2.20703 8.3635L17.2893 35.7506L32.3438 26.6383L17.2893 -0.73291Z" fill="url(#paint2_linear_6475_2934)"/>
</g>
<defs>
<linearGradient id="paint0_linear_6475_2934" x1="23.3306" y1="5.99185" x2="12.5296" y2="31.2898" gradientUnits="userSpaceOnUse">
<stop stop-color="#3F8B3D"/>
<stop offset="0.64" stop-color="#3F873F"/>
<stop offset="0.93" stop-color="#3DA92E"/>
<stop offset="1" stop-color="#3DAE2B"/>
</linearGradient>
<linearGradient id="paint1_linear_6475_2934" x1="15.2601" y1="18.7597" x2="49.7001" y2="0.279726" gradientUnits="userSpaceOnUse">
<stop offset="0.14" stop-color="#3F873F"/>
<stop offset="0.4" stop-color="#52A044"/>
<stop offset="0.71" stop-color="#64B749"/>
<stop offset="0.91" stop-color="#6ABF4B"/>
</linearGradient>
<linearGradient id="paint2_linear_6475_2934" x1="2.27509" y1="17.1497" x2="32.9001" y2="17.1497" gradientUnits="userSpaceOnUse">
<stop offset="0.09" stop-color="#6ABF4B"/>
<stop offset="0.29" stop-color="#64B749"/>
<stop offset="0.6" stop-color="#52A044"/>
<stop offset="0.86" stop-color="#3F873F"/>
</linearGradient>
</defs>
</svg>
