<svg width="20" height="20" viewBox="0 0 20 20" fill="none" xmlns="http://www.w3.org/2000/svg">
<path d="M17.9971 3.62216C17.9936 3.61198 17.9848 3.5923 17.9648 3.56268C17.9224 3.49986 17.8358 3.40533 17.6738 3.28924C17.3437 3.05269 16.8039 2.79925 16.0479 2.57014C14.5461 2.11506 12.4077 1.81818 10 1.81818C7.59229 1.81818 5.45391 2.11506 3.95215 2.57014C3.19606 2.79925 2.65634 3.05269 2.32617 3.28924C2.16419 3.40533 2.07758 3.49986 2.03516 3.56268C2.01518 3.5923 2.00637 3.61198 2.00293 3.62216C1.99978 3.63157 2 3.6357 2 3.63636C2 3.63703 1.99978 3.64116 2.00293 3.65057C2.00637 3.66075 2.01518 3.68043 2.03516 3.71005C2.07758 3.77287 2.16419 3.8674 2.32617 3.98349C2.65634 4.22004 3.19606 4.47347 3.95215 4.70259C5.45391 5.15767 7.59229 5.45455 10 5.45455C12.4077 5.45455 14.5461 5.15767 16.0479 4.70259C16.8039 4.47347 17.3437 4.22004 17.6738 3.98349C17.8358 3.8674 17.9224 3.77287 17.9648 3.71005C17.9848 3.68043 17.9936 3.66075 17.9971 3.65057C18.0002 3.64116 18 3.63703 18 3.63636C18 3.6357 18.0002 3.63157 17.9971 3.62216ZM20 3.63636C20 4.41074 19.4814 5.004 18.9121 5.41193C18.3315 5.8279 17.5531 6.16316 16.6807 6.42756C14.9251 6.95956 12.5629 7.27273 10 7.27273C7.43715 7.27273 5.07494 6.95956 3.31934 6.42756C2.4469 6.16316 1.66849 5.8279 1.08789 5.41193C0.518594 5.004 0 4.41074 0 3.63636C0 2.86198 0.518594 2.26873 1.08789 1.8608C1.66849 1.44483 2.4469 1.10957 3.31934 0.84517C5.07494 0.31317 7.43715 0 10 0C12.5629 0 14.9251 0.31317 16.6807 0.84517C17.5531 1.10957 18.3315 1.44483 18.9121 1.8608C19.4814 2.26873 20 2.86198 20 3.63636Z" fill="#022C3C"/>
<path d="M0 16.3635V3.63623H2V16.3653C2.00023 16.3666 2.00065 16.3692 2.00195 16.3733C2.00494 16.3824 2.01333 16.4014 2.03223 16.4301C2.072 16.4904 2.15487 16.5838 2.3125 16.6991C2.63361 16.9339 3.1703 17.1928 3.95215 17.4297C5.50989 17.9018 7.68623 18.1817 10 18.1817C12.3138 18.1817 14.4901 17.9018 16.0479 17.4297C16.8297 17.1928 17.3664 16.9339 17.6875 16.6991C17.8451 16.5838 17.928 16.4904 17.9678 16.4301C17.9867 16.4014 17.9951 16.3824 17.998 16.3733C17.9994 16.3692 17.9998 16.3666 18 16.3653V3.63623H20V16.3635C20 17.1137 19.5072 17.7012 18.9414 18.1151C18.3665 18.5357 17.5861 18.8803 16.6807 19.1547C14.8628 19.7056 12.4601 19.9999 10 19.9999C7.53987 19.9999 5.13725 19.7056 3.31934 19.1547C2.41387 18.8803 1.6335 18.5357 1.05859 18.1151C0.492844 17.7012 5.96046e-08 17.1137 0 16.3635Z" fill="#022C3C"/>
</svg>
