<svg width="20" height="20" viewBox="0 0 20 20" fill="none" xmlns="http://www.w3.org/2000/svg">
<path d="M18.1818 10C18.1818 5.48131 14.5187 1.81818 10 1.81818C5.48131 1.81818 1.81818 5.48131 1.81818 10C1.81818 14.5187 5.48131 18.1818 10 18.1818C14.5187 18.1818 18.1818 14.5187 18.1818 10ZM20 10C20 15.5228 15.5228 20 10 20C4.47715 20 0 15.5228 0 10C0 4.47715 4.47715 0 10 0C15.5228 0 20 4.47715 20 10Z" fill="#022C3C"/>
<path d="M10.6745 0.301758C12.857 2.74187 14.1456 5.84006 14.3491 9.08993H19.0881V10.9081H14.3491C14.1456 14.158 12.857 17.2562 10.6745 19.6963L9.31978 18.4836C11.2038 16.377 12.324 13.7101 12.5247 10.9081H0.90625V9.08993H12.5247C12.324 6.28796 11.2038 3.62103 9.31978 1.51447L10.6745 0.301758Z" fill="#022C3C"/>
</svg>
