<svg width="35" height="35" viewBox="0 0 35 35" fill="none" xmlns="http://www.w3.org/2000/svg">
<path d="M11.6605 5.00001C11.63 5.00068 11.5671 5.03378 11.4671 5.09271C10.0313 5.93867 8.85161 8.9044 8.8028 11.7911L8.79006 12.5437L8.68011 12.5528C8.35991 12.5791 7.78871 12.6763 7.44325 12.7631C7.22817 12.8172 7.02771 12.8615 6.99777 12.8615C6.89283 12.8615 6.41551 11.7742 6.21527 11.0791C5.83907 9.77312 5.70357 8.03949 5.90581 7.11992L5.96578 6.84718L5.89313 6.8948C5.72422 7.00548 5.35827 7.57665 5.2098 7.96129C4.69791 9.28741 4.86871 11.4829 5.61124 13.1205C5.72875 13.3796 5.73936 13.3572 5.41741 13.5303C2.24978 15.2331 1.31789 18.8 3.53817 20.7235L3.74278 20.9007L3.54274 20.9915C2.87869 21.293 2.22533 21.9926 1.89751 22.7534C1.78535 23.0136 1.76231 23.0442 1.64338 23.0908C-0.708137 24.012 -0.488544 28.2084 1.99766 29.8613C3.90055 31.1264 7.72616 31.1834 7.0633 29.9368C7.01637 29.8485 6.99003 29.7657 7.00476 29.7527C7.0195 29.7397 7.13479 29.6579 7.26098 29.571L7.49042 29.413L7.46736 29.643C7.37079 30.6046 7.89784 31.0428 8.49269 30.4955C9.01035 30.0191 9.32306 29.8136 9.77045 29.6557L10.0612 29.5531L10.6202 29.8328C11.7652 30.406 12.7802 30.7301 13.6787 30.8095C13.8124 30.8213 14.0348 30.8422 14.1727 30.8559C15.6313 31.0003 17.2545 30.684 18.4151 30.0293C18.5868 29.9324 18.7375 29.8532 18.75 29.8532C18.8218 29.8532 19.8501 30.2837 20.2735 30.491C21.4706 31.0771 21.9226 30.3062 21.092 29.0946C20.9779 28.9281 20.9761 28.9166 21.0641 28.9166C21.448 28.9166 21.9338 28.5606 21.9315 28.2811C21.9251 27.5131 20.2602 26.0735 19.3783 26.0735C19.3503 26.0735 19.2626 26.0036 19.1834 25.9181C18.7435 25.4431 17.9536 25.1635 17.2069 25.2183C16.7517 25.2517 15.9789 24.7311 15.9789 24.391V24.391V24.3909C15.9815 24.3836 16.0896 24.3598 16.2214 24.3377C16.6135 24.2719 16.883 24.2082 17.1377 24.1212C17.2543 24.0813 17.3556 24.058 17.4723 24.0462C17.4525 24.0556 17.4621 24.0625 17.498 24.064C17.5333 24.0654 17.553 24.0575 17.5419 24.0464C17.5398 24.0443 17.537 24.0425 17.5337 24.0411C17.5742 24.0384 17.6169 24.0369 17.663 24.0364C18.4452 24.028 19.6189 23.6922 20.1246 23.3321L20.2221 23.2627L20.4752 23.3477C24.9395 24.8463 31.1065 22.9544 33.6139 19.317C36.525 15.0939 34.5395 12.678 30.5456 15.5836C30.4871 15.6262 30.4476 15.6261 30.2279 15.5821C29.315 15.3996 28.0345 15.7753 27.0703 16.5086L26.9063 16.6333L26.7423 16.5574C26.5238 16.4561 26.5278 16.4707 26.6623 16.2679C26.8195 16.0308 26.944 15.7174 26.9705 15.4913L26.9921 15.3076L27.1299 15.2851C28.5224 15.0584 29.7727 13.7438 29.964 12.3056L30.0047 12.0006L30.1842 11.944C31.9205 11.3967 33.5731 9.13771 33.156 7.88185C32.6225 6.27567 27.5697 6.98587 23.8895 9.1843C21.5271 10.5955 18.3456 13.5465 16.932 15.6377C16.6965 15.9861 16.7213 15.9815 16.5841 15.7016C15.7876 14.0772 13.0703 12.6989 10.3764 12.5528L10.2091 12.5437L10.182 12.2259C10.0109 10.2186 10.6262 7.16376 11.5852 5.25943C11.6771 5.07696 11.7082 4.99897 11.6605 5.00001Z" fill="#F70514"/>
<path d="M14.1728 30.8559C14.0348 30.8422 13.8125 30.8214 13.6787 30.8095C12.7803 30.7302 11.7652 30.406 10.6202 29.8329L10.0613 29.5531L9.77048 29.6557C9.32309 29.8136 9.01038 30.0191 8.49271 30.4955C7.89786 31.0428 7.37077 30.6046 7.46734 29.643L7.49044 29.413L7.261 29.571C7.13481 29.6579 7.0195 29.7397 7.00477 29.7527C6.99003 29.7657 7.01637 29.8485 7.0633 29.9368C7.72616 31.1835 3.90054 31.1265 1.99764 29.8614C-0.488559 28.2084 -0.708125 24.012 1.64339 23.0908C1.76232 23.0442 1.78536 23.0136 1.89751 22.7534C2.22534 21.9927 2.87872 21.293 3.54278 20.9915L3.74278 20.9008L3.5382 20.7235C1.31793 18.8001 2.24979 15.2331 5.41742 13.5303C5.73937 13.3573 5.72878 13.3796 5.61128 13.1205C4.86875 11.4829 4.69789 9.28744 5.20978 7.96131C5.35825 7.57668 5.72426 7.00547 5.89318 6.8948L5.96578 6.84722L5.9058 7.11996C5.70356 8.03952 5.83906 9.77313 6.21526 11.0791C6.4155 11.7742 6.89283 12.8615 6.99777 12.8615C7.02771 12.8615 7.22818 12.8172 7.44326 12.7631C7.78872 12.6763 8.35994 12.5791 8.68014 12.5528L8.79011 12.5437L8.80283 11.7911C8.85164 8.90443 10.0312 5.93871 11.4671 5.09275C11.7231 4.94189 11.736 4.96001 11.5852 5.25945C10.6262 7.16378 10.0109 10.2187 10.182 12.226L10.2091 12.5437L10.3764 12.5528C13.0704 12.6989 15.7876 14.0772 16.5841 15.7016C16.7213 15.9816 16.6965 15.9861 16.9321 15.6377C18.3456 13.5465 21.5271 10.5955 23.8895 9.18434C27.5697 6.9859 32.6225 6.2757 33.156 7.88187C33.5731 9.13774 31.9205 11.3967 30.1842 11.944L30.0046 12.0006L29.9641 12.3056C29.7727 13.7439 28.5224 15.0584 27.1299 15.2852L26.9921 15.3076L26.9705 15.4913C26.944 15.7174 26.8196 16.0309 26.6623 16.268C26.5278 16.4707 26.5238 16.4561 26.7424 16.5574L26.9063 16.6333L27.0703 16.5086C28.0345 15.7753 29.3151 15.3996 30.2279 15.5821C30.4476 15.6261 30.4871 15.6262 30.5457 15.5836C34.5395 12.6781 36.525 15.094 33.614 19.317C31.1066 22.9544 24.9396 24.8463 20.4752 23.3477L20.2221 23.2627L20.1246 23.3321C19.619 23.6922 18.4453 24.028 17.663 24.0365C17.4534 24.0387 17.3127 24.0614 17.1378 24.1212C16.883 24.2082 16.6135 24.2719 16.2215 24.3377C16.0881 24.3601 15.979 24.3841 15.979 24.3911C15.979 24.7312 16.7517 25.2518 17.2069 25.2183C17.9536 25.1635 18.7435 25.4431 19.1835 25.9181C19.2627 26.0036 19.3503 26.0735 19.3783 26.0735C20.2602 26.0735 21.9252 27.5131 21.9315 28.2811C21.9338 28.5607 21.448 28.9166 21.0641 28.9166C20.9761 28.9166 20.9779 28.9281 21.092 29.0946C21.9226 30.3062 21.4707 31.0771 20.2735 30.491C19.8501 30.2837 18.8218 29.8532 18.75 29.8532C18.7375 29.8532 18.5868 29.9324 18.4151 30.0293C17.2545 30.684 15.6313 31.0003 14.1728 30.8559ZM6.1389 30.2235C6.57189 30.1369 6.56812 30.1194 6.02811 29.7095C5.05185 28.9685 4.34053 27.9692 4.1369 27.0527C4.11132 26.9375 4.06086 26.851 3.95593 26.7425C3.74061 26.5197 3.43588 25.9533 3.43588 25.7758C3.43588 25.76 3.55253 25.8626 3.6951 26.0037C3.96986 26.2756 4.26298 26.4663 4.67346 26.6402C5.02774 26.7902 5.42482 27.0117 5.72261 27.2253C5.95455 27.3918 5.97815 27.4018 5.9802 27.3347C5.98144 27.2942 5.98922 27.1449 5.9975 27.0031C6.0914 25.3945 4.72515 24.3501 3.18502 24.8531C3.14822 24.8651 3.22348 24.8058 3.35226 24.7212C3.48103 24.6366 3.69176 24.5355 3.82053 24.4966C4.14011 24.4001 4.13984 24.4012 3.89853 24.1617C2.11202 22.388 -0.0764926 24.591 0.828551 27.2519C1.5028 29.2343 4.02577 30.6461 6.1389 30.2235ZM20.8457 29.9839C20.8457 29.507 20.5213 29.017 20.2056 29.017C19.9473 29.017 19.2844 28.9219 18.7905 28.8141C18.5431 28.7601 18.3325 28.7159 18.3225 28.7159C18.27 28.7159 20.3146 30.0084 20.6447 30.1838C20.8295 30.282 20.8457 30.266 20.8457 29.9839ZM8.50963 29.8255C8.72908 29.6057 8.99758 29.3731 9.11371 29.3023C9.39742 29.1292 9.39688 29.127 8.97655 28.7527C8.4208 28.2579 7.69425 29.2936 8.03128 30.1003C8.09651 30.2564 8.0563 30.2795 8.50963 29.8255ZM15.2417 30.0541C17.1123 29.7888 17.8298 28.392 16.4518 27.6981L16.2121 27.5774L15.9032 27.8249C14.7685 28.7344 13.3474 29.2809 11.9489 29.3458L11.4467 29.3691L11.7 29.4935C12.7728 30.0206 14.0511 30.2229 15.2417 30.0541ZM18.1251 29.6587C18.2478 29.567 18.2762 29.5294 18.2483 29.4958C18.2168 29.4578 17.7517 29.8121 17.7517 29.8742C17.7517 29.9011 17.9662 29.7773 18.1251 29.6587ZM6.66363 29.4555C6.71882 29.4209 6.89436 29.2719 7.05373 29.1243C7.32911 28.8693 7.80119 28.5002 8.11027 28.2982C8.28602 28.1834 8.28673 28.1496 8.1173 27.9658C7.81195 27.6345 7.48835 27.6533 7.05859 28.0272C6.51786 28.4977 6.16687 29.767 6.66363 29.4555ZM12.9085 28.9033C13.8949 28.6937 14.8421 28.2597 15.6021 27.6693L15.9443 27.4034L15.7024 27.2119C15.4096 26.9802 15.0355 26.5902 14.8393 26.312C14.665 26.0648 14.7183 26.0651 14.3376 26.3094C12.645 27.3958 10.1592 28.0122 9.09699 27.6089C8.98307 27.5657 9.0022 27.5995 9.24534 27.8712C10.1558 28.8885 11.3693 29.2304 12.9085 28.9033ZM6.04484 28.8308C6.04484 28.4829 6.61365 27.7703 7.13507 27.4651L7.38722 27.3175L6.97525 27.0984L6.56329 26.8793L6.5247 27.137C6.398 27.9832 6.18839 28.2437 5.85509 27.9691C5.24844 27.4693 5.11332 27.49 5.39419 28.0395C5.6245 28.4901 6.04484 29.0013 6.04484 28.8308ZM20.8709 28.4839C21.3092 28.3718 21.3427 28.3444 21.3218 28.1143C21.27 27.5429 20.432 26.8258 19.5578 26.6047C18.7197 26.3927 17.7003 26.7318 17.4622 27.3018L17.4124 27.4208L17.557 27.5699C18.0254 28.0532 18.9343 28.4446 19.859 28.5611C20.0836 28.5895 20.6176 28.5487 20.8709 28.4839ZM10.8948 27.229C12.0104 27.0788 13.1682 26.6426 14.0564 26.038C14.4884 25.744 14.4654 25.7947 14.3073 25.4855C14.1658 25.2088 14.036 24.841 13.9691 24.5274C13.9298 24.3428 13.9212 24.3317 13.7304 24.218C13.4898 24.0747 13.511 24.0749 13.2954 24.2127C11.3691 25.4441 8.2406 25.8798 7.03835 25.0842C6.86025 24.9663 6.86005 24.9821 7.03533 25.3233C7.83004 26.8703 9.05766 27.4765 10.8948 27.229ZM17.1838 26.9794C17.4559 26.5916 17.9721 26.2638 18.4845 26.1538C18.8192 26.0818 18.819 26.0748 18.4792 25.9072C17.3474 25.3487 15.5816 26.0184 16.3489 26.7151C16.9008 27.2163 16.9965 27.2466 17.1838 26.9794ZM7.78415 26.9296C7.78415 26.9222 7.71972 26.8783 7.64097 26.8322C7.4302 26.7087 6.96921 26.2968 6.35057 25.6793C5.75624 25.0861 5.67367 25.0288 5.96059 25.4088C6.06301 25.5444 6.19762 25.7619 6.25971 25.8921C6.43218 26.2537 6.72546 26.4829 7.41622 26.7956C7.72695 26.9363 7.78415 26.9571 7.78415 26.9296ZM15.8966 25.9382C15.9879 25.8454 16.1416 25.715 16.2382 25.6484C16.5782 25.4138 15.9892 25.3022 15.5068 25.5098C15.3084 25.5951 15.3073 25.5637 15.519 25.8601C15.7282 26.1529 15.6927 26.1455 15.8966 25.9382ZM9.72759 25.0378C10.9142 24.8693 12.5525 24.209 13.0996 23.6787C13.1073 23.6713 13.066 23.606 13.0078 23.5336C12.6753 23.1199 12.5231 22.6075 12.5196 21.8903L12.5171 21.3696L12.2303 21.494C11.1574 21.9593 10.0088 22.1589 8.97267 22.0601C8.53392 22.0183 8.28891 21.9659 8.51201 21.9615C9.07488 21.9506 10.5819 21.5386 11.5112 21.1417C13.7049 20.2048 15.162 18.6686 15.4309 17.0094C15.7412 15.0957 13.3624 13.2285 10.6153 13.2295L10.4098 13.2295L10.409 13.6225C10.4073 14.4227 10.1417 14.6406 9.97318 13.98C9.36708 11.6045 9.74366 8.37029 10.905 5.9769C11.1511 5.46987 11.1472 5.43288 10.8863 5.79554C9.45325 7.78728 8.88583 11.8599 9.70642 14.2642C9.80207 14.5445 9.78753 14.5815 9.59292 14.553C9.31908 14.5129 9.05866 14.123 8.91438 13.5371L8.83777 13.226L8.67052 13.2478C8.42876 13.2794 7.9088 13.3872 7.60754 13.4683C7.30436 13.5499 7.30877 13.5157 7.54162 13.9776C7.9715 14.8303 7.71864 14.9805 7.18832 14.1874C5.96476 12.3576 5.21142 9.18927 5.6205 7.59366C5.68312 7.34943 5.67046 7.32201 5.58466 7.51598C4.98615 8.86901 5.21655 10.9855 6.19206 13.0956C6.5883 13.9527 7.06868 14.767 7.28592 14.9498C7.37849 15.0277 7.37873 15.0289 7.30593 15.0484C6.99457 15.1319 6.65837 14.9121 6.263 14.3666C6.17633 14.2471 6.10029 14.1439 6.09403 14.1375C6.07375 14.1165 5.54386 14.3992 5.26376 14.5804C2.9293 16.0904 2.65112 18.9024 4.68652 20.4155C5.52041 21.0354 6.7833 21.6186 7.78415 21.846L7.90122 21.8726L7.73397 21.8963C7.09732 21.9867 6.16005 21.8716 5.48969 21.6208C5.25451 21.5328 5.26332 21.5008 5.37617 22.0332C5.86588 24.3432 7.35912 25.3743 9.72759 25.0378ZM7.33259 19.6383C7.16703 19.6141 6.92458 19.562 6.79382 19.5226C6.52774 19.4422 6.37334 19.433 6.21536 19.4881C6.07876 19.5357 6.06323 19.5175 6.12238 19.3791C6.19218 19.2159 6.34081 19.0913 6.55631 19.0156C6.87253 18.9044 6.94747 18.9283 6.79586 19.0918L6.71067 19.1837L6.80298 19.2188C7.77605 19.5887 10.5012 18.9818 11.7953 18.1068C12.0542 17.9318 12.075 17.8898 11.9171 17.8602C11.7548 17.8297 11.7651 17.8107 12.007 17.6947C12.3854 17.5131 12.8508 17.5708 13.2392 17.8474C13.4651 18.0082 13.1466 18.0682 12.7178 17.9456C12.5891 17.9088 12.4815 17.8787 12.4785 17.8787C12.4756 17.8787 12.4355 17.9432 12.3893 18.022C11.8124 19.0064 9.05042 19.8892 7.33259 19.6383ZM5.28681 18.1045C4.91465 17.762 4.77348 17.2897 4.84945 16.6411L4.87491 16.4237L4.67142 16.3325C4.45009 16.2332 4.44216 16.1938 4.63286 16.1408C5.11308 16.0075 5.97038 16.213 7.0104 16.7107C7.58565 16.986 7.80751 16.9565 8.02514 16.5754C8.12385 16.4025 8.14104 16.4059 8.16818 16.6031C8.22425 17.0108 7.9116 17.4104 7.53659 17.4104C7.47039 17.4104 7.41627 17.4142 7.41634 17.4188C7.4164 17.4234 7.4615 17.5476 7.51656 17.6947C7.66261 18.0852 7.66712 18.0758 7.35768 18.0251C6.80753 17.9349 6.27563 17.9762 5.77328 18.148C5.41982 18.2689 5.47043 18.2735 5.28681 18.1045ZM6.84607 17.2283C6.99022 17.0546 6.63096 16.7919 6.41057 16.9099C6.31324 16.962 6.32587 17.1223 6.434 17.2073C6.53891 17.2898 6.78462 17.3024 6.84607 17.2283ZM11.1664 17.3234C11.0347 17.1738 10.8948 16.8734 10.8948 16.7402C10.8948 16.663 10.8735 16.6605 10.761 16.7247C10.5273 16.8584 10.2012 16.7195 10.0641 16.4278C9.9692 16.226 9.96889 16.2265 10.1339 16.3125C10.3094 16.404 10.5926 16.412 10.7611 16.3303C10.8874 16.269 11.0416 16.1453 11.5333 15.7107C12.2866 15.045 12.8786 14.8047 13.2832 15.0006C13.487 15.0993 13.4786 15.1185 13.2028 15.1861C12.9498 15.2481 12.9369 15.2639 13.0302 15.3984C13.2263 15.6811 13.4613 16.535 13.3779 16.6618C13.3643 16.6823 13.2479 16.7099 13.1191 16.7231C12.7221 16.7638 12.1047 17.0114 11.5302 17.3604C11.2942 17.5037 11.3282 17.5072 11.1664 17.3234ZM12.5475 16.1034C12.726 15.8913 12.6222 15.5746 12.3895 15.6212C12.0369 15.6917 11.9892 16.2063 12.3353 16.2063C12.4345 16.2063 12.4792 16.1847 12.5475 16.1034ZM4.5675 23.8743C5.13914 21.7145 3.75521 20.751 2.65268 22.5413C2.42023 22.9187 2.41735 22.9063 2.7519 22.9695C3.26439 23.0662 3.74409 23.3602 4.20826 23.862C4.51046 24.1887 4.48453 24.1878 4.5675 23.8743ZM14.8629 23.7959C14.5968 23.7099 13.9765 23.2478 14.0413 23.1837C14.0492 23.1758 14.161 23.2053 14.2898 23.2492C14.4592 23.307 14.5979 23.3291 14.7915 23.3294C15.1756 23.3299 15.1863 23.3132 14.9676 23.0554C14.3168 22.2883 13.9683 20.996 14.2356 20.3409C14.302 20.178 14.2616 20.205 13.88 20.5785C13.3126 21.1338 13.2028 21.3525 13.2028 21.9267C13.2028 22.8959 14.0574 23.875 14.8919 23.8619L15.0591 23.8593L14.8629 23.7959ZM17.9859 23.2682C18.1946 23.2012 18.7429 22.906 18.7135 22.8766C18.7057 22.8687 18.6102 22.893 18.5014 22.9305C17.1765 23.3871 15.9933 22.937 15.3815 21.7437C15.2072 21.4036 15.222 21.3974 15.5234 21.6836C15.7 21.8514 15.8562 21.9613 16.0651 22.0648L16.3586 22.2103L16.7625 22.2102C17.0859 22.2101 17.188 22.1983 17.2751 22.1508C17.4112 22.0765 17.4173 22.0998 17.1961 21.852C16.4685 21.0369 15.9698 19.136 16.2699 18.3219C16.3225 18.1791 16.3194 18.1802 15.9946 18.4146C13.6178 20.1305 15.2638 24.1425 17.9859 23.2682ZM25.0434 22.6609C28.0185 22.3995 30.9104 20.9055 32.6495 18.7316C33.7381 17.3708 34.4834 15.6617 34.2166 15.1383C33.8958 14.5092 32.0612 15.0912 30.8066 16.2202L30.6327 16.3767L30.4982 16.308C29.6712 15.8861 28.2883 16.2758 27.1486 17.2519L26.8957 17.4685L26.7791 17.4087C26.2234 17.1236 25.6068 17.2042 24.7591 17.6727C23.3676 18.4418 22.169 18.6556 21.0594 18.3328C20.6036 18.2001 20.1938 17.9989 20.5456 18.0805C20.9003 18.1627 21.8635 18.0753 22.5678 17.8971C24.0423 17.5238 25.1783 16.6708 25.6768 15.5625C25.8416 15.196 25.842 15.2029 25.6561 15.2028C25.3506 15.2026 23.9153 14.963 23.4881 14.8408C23.4219 14.8219 23.6721 14.8055 24.2239 14.7925C26.7412 14.7333 28.2396 13.9482 29.0545 12.2612C29.2267 11.9048 29.2265 11.8916 29.0489 11.8912C28.9242 11.8909 28.385 11.8341 27.8196 11.7617C27.5996 11.7335 27.6393 11.7156 28.0872 11.6405C29.758 11.3604 31.1805 10.4138 32.0851 8.98014C32.8364 7.78956 32.4363 7.40045 30.602 7.53761C26.8779 7.8161 22.7084 10.1864 19.4424 13.8816C17.8157 15.7222 17.3276 17.2585 17.8845 18.7846C17.9766 19.037 18.0464 19.1772 18.2573 19.5344L18.3363 19.6682L18.1573 19.5177C17.4231 18.9003 17.0011 17.636 17.1916 16.6244L17.2168 16.4906L17.1367 16.6411C15.5628 19.5985 20.1499 23.0909 25.0434 22.6609ZM27.2695 17.6517C27.7871 17.1689 28.6382 16.7557 29.3941 16.6203C29.6695 16.5709 30.3147 16.5189 30.0941 16.5638C29.9849 16.5861 29.207 16.9043 28.7395 17.118C28.5371 17.2105 28.1458 17.3752 27.8698 17.4842C27.5939 17.5931 27.3183 17.7114 27.2575 17.747C27.0835 17.8489 27.0869 17.8219 27.2695 17.6517ZM30.6007 16.9226C30.999 16.2361 32.2836 15.4744 33.0402 15.4761C33.3814 15.4768 33.3856 15.4778 33.2382 15.5202C32.7083 15.673 31.6232 16.2578 30.9208 16.7693C30.4842 17.0873 30.5132 17.0734 30.6007 16.9226ZM21.6986 13.7228C21.2259 13.4001 21.3919 13.0591 22.6153 11.8403C24.42 10.0422 27.0904 8.60331 29.221 8.28093C29.3571 8.26034 29.4836 8.23412 29.5021 8.22267C29.5207 8.21121 29.5259 8.21794 29.5137 8.23763C29.5015 8.25731 29.3901 8.30607 29.266 8.34598C26.9986 9.07551 25.2373 10.3613 23.5808 12.4964C22.7522 13.5644 22.0944 13.993 21.6986 13.7228ZM20.1934 22.6483C20.1934 22.6408 20.1127 22.5892 20.0139 22.5334C19.2036 22.0761 18.3128 21.267 17.7743 20.4992C17.5592 20.1924 17.4048 20.0506 17.0541 19.8379C16.99 19.799 17.0241 19.898 17.2153 20.3056C17.6181 21.1645 18.2962 21.8621 19.1438 22.2895C19.4993 22.4687 20.1934 22.706 20.1934 22.6483Z" fill="#020101"/>
<path d="M20.6416 30.1831C20.6848 30.2061 20.7189 30.2224 20.7459 30.2314C20.7192 30.223 20.685 30.2062 20.6416 30.1831Z" fill="white"/>
<path d="M2.74707 29.5132C2.88886 29.6008 3.03772 29.6807 3.19052 29.7557C3.03868 29.6806 2.89081 29.602 2.74707 29.5132Z" fill="white"/>
<path d="M11.6992 29.4927C11.9671 29.6243 12.268 29.742 12.5761 29.8382C12.2732 29.7457 11.9793 29.6303 11.6992 29.4927Z" fill="white"/>
<path d="M19.8272 28.9873C19.9839 29.0057 20.1167 29.0164 20.2036 29.0164C20.5192 29.0164 20.8437 29.5065 20.8437 29.9834C20.8437 29.9967 20.8436 30.0095 20.8435 30.0217C20.7803 29.7961 20.4567 29.4196 20.0827 29.1522C19.9953 29.0897 19.9238 29.028 19.9238 29.0151C19.9238 29.0075 19.8858 28.9971 19.8272 28.9873Z" fill="white"/>
<path d="M18.752 28.8066C18.7706 28.8107 18.7691 28.8101 18.7883 28.8143C18.8018 28.8172 18.8156 28.8202 18.8294 28.8231C18.8021 28.8176 18.779 28.8122 18.752 28.8066Z" fill="white"/>
<path d="M14.7255 28.2241C14.4563 28.3694 14.1763 28.4973 13.8857 28.6063C14.1744 28.4984 14.4552 28.3676 14.7255 28.2241Z" fill="white"/>
<path d="M6.9317 28.1548C6.79447 28.3157 6.66611 28.5321 6.57227 28.7442C6.66207 28.5343 6.78739 28.3207 6.9317 28.1548Z" fill="white"/>
<path d="M15.1029 28.0103C15.0234 28.0603 14.9426 28.1075 14.8604 28.1544C14.9429 28.1081 15.0233 28.0596 15.1029 28.0103Z" fill="white"/>
<path d="M9.24805 27.873C9.453 28.1015 9.68527 28.3036 9.93178 28.4715C9.68736 28.3083 9.45953 28.1089 9.24805 27.873Z" fill="white"/>
<path d="M16.4492 27.6968C16.5333 27.7391 16.6078 27.7846 16.6765 27.8317C16.606 27.7858 16.5349 27.7399 16.4492 27.6968Z" fill="white"/>
<path d="M11.4253 27.1245C11.2476 27.1622 11.0697 27.2049 10.8929 27.2287C10.8186 27.2387 10.7452 27.2474 10.6729 27.2546C10.918 27.228 11.1715 27.1797 11.4253 27.1245Z" fill="white"/>
<path d="M2.97407 27.0337C3.00465 27.0332 3.08103 27.0788 3.22101 27.1568C3.65963 27.4012 3.66947 27.4101 3.77722 27.6579C4.08729 28.3712 4.80386 29.2632 5.40618 29.6857C5.51818 29.7643 5.60981 29.8339 5.60981 29.8404C5.60981 29.8719 5.53281 29.8372 5.20726 29.6589C4.25491 29.1373 3.42516 28.2298 3.04547 27.2946C2.97111 27.1115 2.93474 27.0344 2.97407 27.0337Z" fill="white"/>
<path d="M7.74609 26.8979C7.76904 26.9138 7.78307 26.9252 7.78307 26.9287C7.78307 26.9304 7.78287 26.9319 7.78235 26.9332C7.78166 26.9264 7.7697 26.9148 7.74609 26.8979Z" fill="white"/>
<path d="M6.56124 26.8789L6.9732 27.098L7.38516 27.3171L7.13299 27.4647C6.61157 27.7699 6.04279 28.4825 6.04279 28.8305C6.04279 29.0009 5.62242 28.4897 5.39212 28.0391C5.11124 27.4896 5.24636 27.469 5.85301 27.9687C6.18632 28.2433 6.39593 27.9828 6.52263 27.1366L6.56124 26.8789Z" fill="white"/>
<path d="M18.994 26.5413C19.1838 26.5385 19.3749 26.5585 19.5573 26.6046C20.4316 26.8257 21.2695 27.5429 21.3213 28.1143C21.3253 28.1585 21.3273 28.1951 21.3249 28.2264C21.2728 28.1046 20.851 27.6872 20.5535 27.4689C19.4394 26.6517 18.0944 26.5108 17.5908 27.0934C17.8676 26.7635 18.4248 26.5497 18.994 26.5413Z" fill="white"/>
<path d="M13.2767 26.4878C12.7455 26.7528 12.1653 26.9578 11.5771 27.0953C12.1581 26.957 12.7439 26.7502 13.2767 26.4878Z" fill="white"/>
<path d="M14.6652 26.1265C14.7213 26.1268 14.7515 26.1885 14.8386 26.3121C14.8526 26.3318 14.8674 26.3522 14.8831 26.373C14.8625 26.3521 14.8507 26.3586 14.8347 26.3871C14.7324 26.57 13.7965 27.0615 13.1445 27.2747C12.568 27.4633 11.6648 27.6219 11.4649 27.5696C11.4321 27.5611 11.279 27.5829 11.1246 27.6182C10.9813 27.6509 10.791 27.6744 10.583 27.6888C11.7544 27.5398 13.2188 27.0272 14.3369 26.3095C14.5272 26.1874 14.6091 26.1262 14.6652 26.1265Z" fill="white"/>
<path d="M14.0465 26.0439C13.8095 26.2047 13.5515 26.3509 13.2822 26.4855C13.5533 26.3517 13.8106 26.2038 14.0465 26.0439Z" fill="white"/>
<path d="M17.3572 25.704C17.7301 25.6801 18.1339 25.7362 18.4787 25.9063C18.8185 26.074 18.8187 26.081 18.484 26.1529C18.4722 26.1555 18.4604 26.1581 18.4486 26.1608L18.2807 26.1C17.7054 25.8915 17.7228 25.8949 17.1834 25.8869L16.6657 25.8793L16.5144 25.9807C16.3219 26.1098 16.2034 26.2217 16.1631 26.3332C16.1993 26.006 16.7355 25.7438 17.3572 25.704Z" fill="white"/>
<path d="M4.5936 25.3403C4.63478 25.3397 4.686 25.3557 4.74164 25.394C4.85129 25.4696 4.90562 25.5415 4.90692 25.613C4.90881 25.7169 4.68725 25.6901 4.56923 25.5721C4.44878 25.4516 4.48837 25.3419 4.5936 25.3403Z" fill="white"/>
<path d="M4.0249 24.7261C5.18654 24.7608 6.07412 25.6953 5.99783 27.0023C5.99251 27.0933 5.98742 27.1874 5.98411 27.2539C5.97642 26.8699 5.7378 26.2599 5.42849 25.8484C4.99071 25.2661 4.21283 24.897 3.3464 24.8605L3.18066 24.8536C3.18196 24.8533 3.18351 24.8529 3.18537 24.8523C3.47414 24.758 3.75683 24.7181 4.0249 24.7261Z" fill="white"/>
<path d="M13.915 24.3594C13.9386 24.3965 13.95 24.444 13.967 24.5237C13.9505 24.4463 13.9359 24.3961 13.915 24.3594Z" fill="white"/>
<path d="M13.5007 24.1094C13.5503 24.1095 13.6049 24.1437 13.7148 24.2094L13.6072 24.3376C13.0144 25.0437 11.1503 25.659 9.97319 25.5372C9.78923 25.5182 9.32262 25.4982 8.9363 25.4928C8.43364 25.4857 8.1673 25.4674 7.99975 25.4282C7.97429 25.4223 7.94829 25.4159 7.92188 25.4092C9.39789 25.6822 11.7378 25.2067 13.2936 24.2122C13.4007 24.1437 13.4493 24.1092 13.5007 24.1094Z" fill="white"/>
<path d="M2.83766 24.0062C2.89313 24.0088 2.95077 24.0176 3.00921 24.0338C3.23437 24.0963 3.3178 24.3451 3.15038 24.4548C3.01294 24.5448 2.61013 24.5549 2.47802 24.4716C2.16825 24.2762 2.44936 23.9881 2.83766 24.0062Z" fill="white"/>
<path d="M3.29408 23.7124C3.49748 23.8161 3.70074 23.964 3.89902 24.1608C4.14033 24.4004 4.1406 24.3993 3.82102 24.4958C3.69224 24.5347 3.48152 24.6358 3.35274 24.7204C3.24464 24.7914 3.17427 24.8446 3.17622 24.8528C3.17623 24.8528 3.17629 24.8529 3.17629 24.853V24.853C3.17631 24.8531 3.17639 24.8532 3.17642 24.8532L3.17649 24.8533L3.17656 24.8534L3.17662 24.8534L3.13965 24.8519L3.34654 24.7189C3.46033 24.6458 3.65128 24.5521 3.77085 24.5107C3.89043 24.4694 3.95687 24.4351 3.9185 24.4346C3.86085 24.4339 3.50111 24.0227 3.34132 23.7748C3.32701 23.7526 3.3112 23.7318 3.29408 23.7124Z" fill="white"/>
<path d="M18.7079 22.874C18.711 22.8741 18.713 22.8746 18.7139 22.8755C18.7273 22.8888 18.622 22.9567 18.4834 23.0332C18.6719 22.922 18.7383 22.8716 18.6841 22.8768C18.6946 22.8749 18.7027 22.8739 18.7079 22.874Z" fill="white"/>
<path d="M20.1162 22.5938C20.1625 22.6224 20.193 22.6436 20.193 22.6482C20.193 22.6494 20.1926 22.6504 20.1921 22.6514C20.1852 22.6402 20.1597 22.621 20.1162 22.5938Z" fill="white"/>
<path d="M26.3212 22.4624C26.0745 22.5135 25.8267 22.555 25.5771 22.5893C25.8265 22.5549 26.0747 22.5135 26.3212 22.4624Z" fill="white"/>
<path d="M27.3367 22.2041C27.0886 22.2794 26.8388 22.3462 26.5859 22.4048C26.8384 22.3462 27.0889 22.2795 27.3367 22.2041Z" fill="white"/>
<path d="M18.7549 22.0649C18.973 22.2041 19.2062 22.326 19.4541 22.4287C19.3396 22.3823 19.2301 22.3341 19.1416 22.2895C19.0078 22.222 18.8799 22.1455 18.7549 22.0649Z" fill="white"/>
<path d="M18.4688 21.8628C18.5464 21.9218 18.6259 21.9789 18.7082 22.0328C18.6264 21.9786 18.5463 21.9224 18.4688 21.8628Z" fill="white"/>
<path d="M28.336 21.8501C28.0826 21.9529 27.8263 22.0476 27.5654 22.1327C27.8259 22.0476 28.0828 21.953 28.336 21.8501Z" fill="white"/>
<path d="M18.2061 21.6445C18.2528 21.6866 18.3005 21.7278 18.3493 21.7678C18.3007 21.7276 18.2528 21.6868 18.2061 21.6445Z" fill="white"/>
<path d="M17.96 21.4019C17.9904 21.4342 18.0208 21.4665 18.0522 21.4978C18.0208 21.4664 17.9903 21.4342 17.96 21.4019Z" fill="white"/>
<path d="M29.3166 21.3989C29.054 21.535 28.7866 21.6619 28.5127 21.7783C28.7861 21.662 29.0541 21.535 29.3166 21.3989Z" fill="white"/>
<path d="M17.7266 21.1289C17.7514 21.1604 17.7757 21.1924 17.8014 21.2231C17.7756 21.1924 17.7514 21.1604 17.7266 21.1289Z" fill="white"/>
<path d="M30.2655 20.8486C29.9933 21.025 29.7121 21.1896 29.4229 21.3434C29.7116 21.1899 29.993 21.0249 30.2655 20.8486Z" fill="white"/>
<path d="M17.4951 20.8022C17.524 20.8473 17.5521 20.893 17.5825 20.9366C17.5519 20.8929 17.5241 20.8472 17.4951 20.8022Z" fill="white"/>
<path d="M17.2148 20.3057C17.268 20.4189 17.3263 20.5281 17.3878 20.6347C17.3258 20.5278 17.2677 20.4183 17.2148 20.3057Z" fill="white"/>
<path d="M31.891 19.5659C31.4121 20.0338 30.8732 20.4551 30.2959 20.8317C30.8715 20.4567 31.4076 20.0327 31.891 19.5659Z" fill="white"/>
<path d="M10.2758 19.291C10.1619 19.3278 10.0488 19.3603 9.93066 19.3929C10.0473 19.3611 10.1623 19.3271 10.2758 19.291Z" fill="white"/>
<path d="M17.8682 18.7363C17.8918 18.8013 17.911 18.8652 17.9404 18.9321C17.9214 18.8856 17.9028 18.8372 17.8833 18.7837C17.8776 18.7679 17.8737 18.7521 17.8682 18.7363Z" fill="white"/>
<path d="M17.6689 17.5659C17.6689 17.6767 17.674 17.7876 17.684 17.8986C17.6732 17.7882 17.6688 17.6772 17.6689 17.5659Z" fill="white"/>
<path d="M26.0225 17.2444C26.2259 17.235 26.4158 17.2637 26.5977 17.3297C26.4157 17.2637 26.2258 17.235 26.0225 17.2444Z" fill="white"/>
<path d="M17.6867 17.2134C17.6757 17.3239 17.6697 17.4342 17.6689 17.5445C17.6698 17.4346 17.6751 17.3243 17.6867 17.2134Z" fill="white"/>
<path d="M27.3056 17.1284C27.2395 17.18 27.1763 17.2278 27.0985 17.2949L26.8969 17.4686L26.8945 17.4673L27.1475 17.2507C27.199 17.2066 27.2531 17.1701 27.3056 17.1284Z" fill="white"/>
<path d="M6.54502 16.8801C6.74805 16.8868 6.96331 17.0866 6.84619 17.2277C6.78474 17.3018 6.539 17.2893 6.43409 17.2068C6.32596 17.1217 6.31331 16.9614 6.41064 16.9093C6.45196 16.8872 6.49817 16.8785 6.54502 16.8801Z" fill="white"/>
<path d="M17.7408 16.8525C17.7206 16.9536 17.706 17.0543 17.6943 17.1548C17.7065 17.0544 17.7198 16.9539 17.7408 16.8525Z" fill="white"/>
<path d="M13.374 16.6646C13.373 16.6671 13.3718 16.6694 13.3706 16.6717C13.342 16.725 13.3609 16.7332 13.5539 16.7512C14.2505 16.8163 14.1473 17.007 13.4151 17.0077C12.7521 17.0084 11.804 17.1933 11.4927 17.3826C11.3693 17.4577 11.3357 17.4866 11.2852 17.4497C11.3377 17.4862 11.3776 17.4519 11.5297 17.3595C12.1043 17.0105 12.7216 16.7629 13.1187 16.7222C13.24 16.7098 13.3504 16.6846 13.374 16.6646Z" fill="white"/>
<path d="M30.7304 16.2876C30.7176 16.3011 30.7033 16.3139 30.6885 16.3253L30.7304 16.2876Z" fill="white"/>
<path d="M29.786 16.1396C30.0498 16.1471 30.2913 16.2018 30.498 16.3073L30.6153 16.3672C30.6049 16.3708 30.5955 16.3729 30.5876 16.3729C30.5528 16.3729 30.4764 16.4089 30.4178 16.4529C30.3592 16.4969 30.2436 16.5438 30.1608 16.5571C30.0628 16.5728 29.7802 16.6751 29.439 16.8145C29.7535 16.6841 30.0318 16.5758 30.0939 16.5632C30.2974 16.5217 29.7638 16.5628 29.4637 16.6082C29.6111 16.5808 29.765 16.5577 29.9267 16.5385C30.0668 16.5219 29.9121 16.5164 29.4918 16.5232C28.9222 16.5324 28.7951 16.5448 28.4884 16.6212C27.9517 16.755 27.7066 16.8404 27.4355 17.0291C28.2198 16.4425 29.0813 16.1194 29.786 16.1396Z" fill="white"/>
<path d="M34.1821 15.9292C34.1117 16.1929 34.0046 16.4892 33.8525 16.8123C33.9961 16.4908 34.1119 16.1766 34.1821 15.9292Z" fill="white"/>
<path d="M12.4302 15.6157C12.6327 15.6129 12.7135 15.9037 12.5462 16.1026C12.4778 16.1839 12.4332 16.2055 12.334 16.2055C11.9879 16.2055 12.0355 15.6909 12.3881 15.6204C12.4027 15.6175 12.4167 15.6159 12.4302 15.6157Z" fill="white"/>
<path d="M33.5773 15.542C33.6272 15.5429 33.5769 15.7191 33.4162 16.0607C33.2254 16.4664 32.8789 16.8858 32.5758 17.078C32.2887 17.2601 32.3353 17.1441 32.7959 16.5304C32.9494 16.3257 33.155 16.0449 33.2526 15.9063C33.4257 15.6608 33.5359 15.5413 33.5773 15.542Z" fill="white"/>
<path d="M13.1064 15.5347C13.1993 15.7208 13.2866 15.9805 13.3387 16.2094C13.2842 15.9813 13.1961 15.7182 13.1064 15.5347Z" fill="white"/>
<path d="M33.5602 14.8805C33.8789 14.8664 34.1165 14.9457 34.2141 15.137C34.2964 15.2985 34.274 15.5799 34.1834 15.9219C34.2527 15.6758 34.2761 15.4969 34.2343 15.4466C34.0044 15.1695 32.9739 15.2705 31.7507 15.6901C31.5649 15.7538 31.3876 15.8102 31.3566 15.8152C31.3113 15.8226 31.081 15.9875 30.9057 16.1298C30.8331 16.1887 30.7721 16.2425 30.7354 16.2809L30.8041 16.2189C30.8376 16.1889 30.8714 16.1591 30.9057 16.1298C31.7649 15.3942 32.8589 14.9114 33.5602 14.8805Z" fill="white"/>
<path d="M23.8262 14.8037C23.5533 14.8144 23.4378 14.8267 23.4853 14.8403C23.8922 14.9566 25.3565 15.1861 25.2819 15.1716C25.203 15.1564 25.1458 15.1513 25.1549 15.1604C25.1847 15.1902 24.9845 15.5478 24.7681 15.8516C24.2035 16.6441 23.3934 17.2556 22.4854 17.5745C22.0952 17.7116 22.0957 17.6924 22.4887 17.4489C23.1284 17.0525 23.6789 16.5382 24.1125 15.9319C24.3481 15.6025 24.349 15.6267 24.0958 15.5002C23.7809 15.3429 23.345 15.0081 23.2658 14.8629C23.24 14.8155 23.2901 14.8081 23.8262 14.8037Z" fill="white"/>
<path d="M24.4573 14.7778C24.3775 14.7813 24.3056 14.7905 24.2236 14.7925C24.1547 14.7941 24.1083 14.796 24.0488 14.7977C24.1913 14.7954 24.3212 14.7845 24.4573 14.7778Z" fill="white"/>
<path d="M6.09277 14.1362C6.09903 14.1427 6.17511 14.2458 6.26178 14.3654C6.36062 14.5018 6.45574 14.6178 6.54772 14.7138C6.45574 14.6178 6.36056 14.5018 6.26171 14.3654C6.17504 14.2458 6.09903 14.1427 6.09277 14.1362Z" fill="white"/>
<path d="M10.6148 13.229C12.7468 13.2283 14.6569 14.3527 15.2604 15.7508C15.2322 15.7243 15.2258 15.8301 15.2258 16.0705C15.2258 16.5593 15.1702 16.6956 15.1106 16.3529C14.8524 14.8671 13.162 13.7977 10.6232 13.5139L10.4358 13.4929L10.4176 13.758C10.4056 13.9342 10.3802 14.0733 10.3467 14.1727C10.3842 14.0456 10.4079 13.8594 10.4084 13.622L10.4093 13.2291L10.6148 13.229Z" fill="white"/>
<path d="M27.6984 11.7192C27.6651 11.7359 27.7106 11.7472 27.8179 11.7609C28.3832 11.8333 28.9224 11.8901 29.0471 11.8904C29.1509 11.8906 29.1941 11.8953 29.1777 11.9703C29.1938 11.8935 29.1455 11.8907 29.028 11.8907H28.8668L28.6748 12.1733C28.2395 12.8142 27.5857 13.3903 26.9213 13.7185C26.6231 13.8658 26.4148 13.9349 26.5162 13.8529C26.5238 13.8467 26.6495 13.7542 26.7954 13.6475C27.5 13.1318 28.2357 12.2566 28.0486 12.1565C27.7594 12.0017 27.4555 11.7268 27.5754 11.7284C27.6058 11.7289 27.6476 11.7256 27.6984 11.7192Z" fill="white"/>
<path d="M8.79805 11.3335C8.79339 11.334 8.79019 11.3462 8.78923 11.3693C8.78778 11.4046 8.79569 11.4243 8.80681 11.4132C8.81792 11.4021 8.81915 11.3733 8.80949 11.3491C8.80515 11.3383 8.80124 11.3332 8.79805 11.3335Z" fill="white"/>
<path d="M28.8934 9.05086C28.9981 9.04914 29.0747 9.0765 29.0837 9.1397C29.0992 9.2493 28.9845 9.38951 28.7947 9.4928C28.3576 9.73072 27.9965 9.56188 28.3191 9.27043C28.4664 9.13734 28.7189 9.05372 28.8934 9.05086Z" fill="white"/>
<path d="M28.5447 8.41504C28.3144 8.47141 28.0799 8.53891 27.8428 8.61664C28.0796 8.53889 28.3141 8.47147 28.5447 8.41504Z" fill="white"/>
<path d="M31.1636 7.98063C31.2709 7.98743 31.2234 8.04908 31.0298 8.25606C30.7047 8.6036 30.2723 8.87933 29.847 9.01041C29.3424 9.16591 28.9971 9.02404 29.2652 8.77137C29.6711 8.38881 30.4438 8.04114 31.0045 7.9888C31.0749 7.98222 31.1279 7.97837 31.1636 7.98063Z" fill="white"/>
<path d="M31.3587 7.51232C32.0129 7.52854 32.36 7.67054 32.4294 7.96694L32.1736 7.90083C31.5783 7.7469 29.9938 7.79826 28.7887 8.01058C28.5955 8.04461 28.2493 8.10444 28.0194 8.14353C27.6145 8.21235 27.1777 8.33635 26.7188 8.50897C28.029 7.96514 29.3406 7.63121 30.6011 7.53695C30.8885 7.51546 31.1406 7.50691 31.3587 7.51232Z" fill="white"/>
</svg>
