<svg width="35" height="35" viewBox="0 0 35 35" fill="none" xmlns="http://www.w3.org/2000/svg">
<path d="M32.692 14.3253C33.4968 11.942 33.2197 9.33114 31.9327 7.16328C29.9974 3.83821 26.1066 2.12755 22.3068 2.93257C20.6164 1.05347 18.1878 -0.0151505 15.6416 0.000162341C11.7575 -0.00858785 8.31131 2.45896 7.11638 6.10561C4.62122 6.60984 2.46747 8.15096 1.20714 10.3352C-0.742651 13.6515 -0.298155 17.8319 2.30674 20.6758C1.502 23.0591 1.77911 25.6699 3.06604 27.8378C5.00143 31.1629 8.89215 32.8735 12.692 32.0685C14.3813 33.9476 16.811 35.0162 19.3572 34.9998C23.2435 35.0097 26.6908 32.5399 27.8857 28.89C30.3809 28.3858 32.5346 26.8446 33.795 24.6604C35.7425 21.3441 35.2969 17.1669 32.6931 14.3231L32.692 14.3253ZM19.3594 32.7127C17.8042 32.7149 16.2978 32.1779 15.104 31.1946C15.1583 31.1661 15.2525 31.1147 15.3135 31.0775L22.3766 27.0525C22.738 26.8501 22.9597 26.4706 22.9575 26.0604V16.235L25.9426 17.9359C25.9747 17.9512 25.9958 17.9818 26.0002 18.0168V26.1534C25.9958 29.7716 23.0262 32.7051 19.3594 32.7127ZM5.07791 26.6937C4.29866 25.3659 4.01822 23.8094 4.28536 22.2989C4.33745 22.3295 4.42946 22.3853 4.49486 22.4225L11.558 26.4476C11.916 26.6543 12.3594 26.6543 12.7186 26.4476L21.3413 21.5344V24.936C21.3436 24.971 21.3269 25.0049 21.2992 25.0268L14.1596 29.0945C10.9794 30.9014 6.91797 29.8274 5.07902 26.6937H5.07791ZM3.21901 11.4804C3.99494 10.1504 5.21979 9.13317 6.67854 8.60488C6.67854 8.66504 6.67521 8.77113 6.67521 8.84551V16.8968C6.67299 17.3058 6.89469 17.6854 7.25494 17.8877L15.8777 22.7999L12.8926 24.5007C12.8627 24.5204 12.825 24.5237 12.7917 24.5094L5.65099 20.4384C2.47745 18.6249 1.38893 14.6184 3.2179 11.4815L3.21901 11.4804ZM27.745 17.1122L19.1222 12.199L22.1073 10.4993C22.1372 10.4796 22.1749 10.4763 22.2082 10.4905L29.3489 14.5583C32.528 16.3707 33.6176 20.3837 31.7809 23.5207C31.0038 24.8485 29.7801 25.8657 28.3225 26.3951V18.1032C28.3258 17.6941 28.1052 17.3157 27.7461 17.1122H27.745ZM30.7156 12.7C30.6635 12.6682 30.5715 12.6136 30.5061 12.5764L23.443 8.55128C23.085 8.34456 22.6416 8.34456 22.2824 8.55128L13.6597 13.4645V10.0629C13.6574 10.0279 13.6741 9.99397 13.7018 9.97209L20.8414 5.90763C24.0216 4.09744 28.0875 5.1748 29.9209 8.31393C30.6957 9.63959 30.9761 11.1917 30.7134 12.7H30.7156ZM12.0369 18.7628L9.05066 17.0619C9.01851 17.0466 8.99745 17.016 8.99302 16.981V8.84441C8.99523 5.22184 11.9737 2.28615 15.6449 2.28834C17.1979 2.28834 18.701 2.82647 19.8948 3.80649C19.8405 3.83493 19.7474 3.88634 19.6853 3.92353L12.6221 7.94861C12.2608 8.15096 12.0391 8.52941 12.0413 8.93957L12.0369 18.7606V18.7628ZM13.6586 15.313L17.4994 13.1243L21.3402 15.3119V19.6881L17.4994 21.8756L13.6586 19.6881V15.313Z" fill="black"/>
</svg>
