<svg width="35" height="35" viewBox="0 0 35 35" fill="none" xmlns="http://www.w3.org/2000/svg">
<circle cx="17.5" cy="17.5" r="17.5" fill="#73BA25"/>
<mask id="mask0_6475_2350" style="mask-type:alpha" maskUnits="userSpaceOnUse" x="0" y="0" width="35" height="35">
<circle cx="17.5" cy="17.5" r="17.5" fill="#73BA25"/>
</mask>
<g mask="url(#mask0_6475_2350)">
<path d="M16.5298 15.8677C16.5792 14.5313 17.139 13.291 18.116 12.3812C19.0936 11.4683 20.3692 10.9968 21.707 11.0392C24.4649 11.1378 26.6317 13.4659 26.5384 16.2209C26.4864 17.5573 25.927 18.7977 24.9523 19.7046C23.9747 20.6229 22.7021 21.0947 21.3584 21.0495C18.6039 20.9481 16.4394 18.6253 16.5326 15.8677H16.5298ZM29.908 20.7952C30.1354 20.6449 30.3024 20.5206 30.3727 20.4929L30.4487 20.3745C30.2563 19.1652 28.454 13.3026 27.0922 11.8927C26.7167 11.5085 26.4158 11.1299 25.8069 10.7736C20.8738 7.90018 9.17675 6.1654 8.62863 6.08629L8.53539 6.112L8.50036 6.19676C8.50036 6.19676 8.45515 8.62093 8.44837 8.89189C7.25352 8.4904 -1.43198 5.68508 -9.57472 5.40254C-16.4799 5.15984 -26.5355 4.26674 -39.8628 12.4603L-40.2569 12.7056C-46.5264 16.6159 -50.8549 21.4388 -53.118 27.0416C-53.8278 28.8046 -54.7822 32.7827 -53.8363 36.5264C-53.4288 38.1625 -52.6691 39.8066 -51.6449 41.2786C-49.3298 44.6041 -45.446 46.8107 -41.2616 47.1837C-35.3566 47.712 -30.884 45.0593 -29.2933 40.092C-28.1996 36.6648 -29.2933 31.6356 -33.4862 29.0702C-36.8964 26.9819 -40.5638 27.4566 -42.6913 28.8639C-44.5368 30.0876 -45.5816 31.9888 -45.5647 34.0767C-45.522 37.7808 -42.3324 39.7501 -40.0382 39.7558C-39.3717 39.7558 -38.7024 39.6399 -37.9477 39.3941C-37.679 39.3122 -37.4265 39.2107 -37.1479 39.0384L-37.0606 38.9873L-37.0058 38.9505L-37.0241 38.9615C-36.5011 38.6053 -36.1867 38.0258 -36.1867 37.4045C-36.1867 37.235 -36.2104 37.0632 -36.259 36.8903C-36.53 35.9522 -37.4567 35.3846 -38.417 35.5595L-38.5467 35.5903L-38.7222 35.644L-38.9767 35.7316C-39.5051 35.8615 -39.9006 35.8728 -39.9851 35.8757C-40.2538 35.8584 -41.5744 35.4629 -41.5744 34.0166V33.9968C-41.5744 33.4656 -41.3614 33.093 -41.2438 32.8892C-40.833 32.2451 -39.7082 31.6127 -38.1896 31.745C-36.1952 31.9176 -34.7568 32.9404 -33.8046 34.8698C-32.9205 36.6637 -33.1519 38.8706 -34.4008 40.4867C-35.6411 42.0884 -37.8477 42.769 -40.7861 42.4529C-43.7471 42.1254 -46.2504 40.4214 -47.6518 37.7684C-49.0238 35.1753 -49.0987 32.1007 -47.8453 29.7387C-44.8476 24.0794 -39.1855 24.1388 -36.0804 24.6756C-31.4864 25.4726 -26.2594 29.7104 -24.406 34.604C-24.1065 35.3841 -23.9539 36.0022 -23.8206 36.5679L-23.6205 37.4127L-18.4303 39.9468L-18.3625 39.9979L-18.2365 39.9863L-18.2136 39.8368C-18.2458 39.7207 -18.3212 39.6139 -18.441 38.1614C-18.5396 36.8725 -18.7405 33.3441 -16.9639 31.5952C-16.2743 30.9118 -15.2232 30.3018 -14.3931 30.1065C-10.9914 29.2756 -7.00193 29.8489 -3.23005 34.2146C-1.27743 36.4696 -0.325562 37.4977 0.151928 37.9583L0.318626 38.1086L0.514706 38.2552C0.671234 38.3402 7.00178 41.2558 7.00178 41.2558L7.13203 41.2247L7.13457 41.0893C7.09247 41.0413 3.12254 35.9104 3.82888 31.6865C4.3852 28.3215 7.06394 28.6266 10.768 29.0448C11.9773 29.186 13.3538 29.3442 14.78 29.3759C18.7582 29.401 23.0443 28.6664 25.686 27.5109C27.3951 26.7678 28.4857 26.2733 29.1697 25.652C29.4155 25.4483 29.5426 25.1178 29.6757 24.762L29.7687 24.5273C29.8792 24.2388 30.0419 23.6313 30.1131 23.2982C30.1419 23.1516 30.1589 22.9965 30.054 22.9142L29.6884 22.9821C28.5283 23.6802 25.6284 25.0022 22.9188 25.0587C19.5538 25.1268 12.7757 21.6739 12.0694 21.3066L12.0013 21.2278C11.8349 20.8209 10.8175 18.4168 10.5999 17.908C15.4793 21.1232 19.5253 22.9004 22.6247 23.1745C26.0745 23.4816 28.7614 21.5996 29.9114 20.7949H29.9111L29.908 20.7952ZM22.2371 16.3311C21.3807 16.3311 20.689 15.8677 20.689 15.2998C20.689 14.7266 21.3807 14.2658 22.2371 14.2658C23.0934 14.2658 23.7871 14.7266 23.7871 15.2998C23.7865 15.8677 23.0929 16.3311 22.2371 16.3311ZM21.6661 12.514C20.7306 12.4804 19.8437 12.811 19.1656 13.4467C18.4878 14.0824 18.088 14.9436 18.0597 15.8762C17.9948 17.8034 19.5038 19.4249 21.4276 19.4955C22.3625 19.5238 23.2539 19.1932 23.936 18.5575C24.6166 17.9187 25.0082 17.0569 25.0379 16.128C25.1028 14.2013 23.5944 12.5821 21.6672 12.5143L21.6661 12.514Z" fill="white"/>
</g>
</svg>
