<svg width="35" height="35" viewBox="0 0 35 35" fill="none" xmlns="http://www.w3.org/2000/svg">
<path d="M11.3551 28.1329H24.2185C30.3261 27.9765 35.1527 22.8892 34.9963 16.7815C34.8399 10.8973 30.1101 6.16012 24.2185 6.0037H11.3551C5.23993 5.84729 0.160113 10.6664 0.00369689 16.7815C-0.15272 22.8892 4.67385 27.9765 10.7815 28.1329C10.9752 28.1329 11.1614 28.1329 11.3551 28.1329ZM23.928 24.2374H11.6381C7.683 24.1108 4.57702 20.8037 4.71109 16.8411C4.83026 13.0648 7.86921 10.0333 11.6381 9.91411H23.928C27.8831 9.78749 31.1902 12.886 31.3242 16.8411C31.4583 20.7962 28.3523 24.1033 24.3972 24.2374C24.2408 24.2374 24.0918 24.2374 23.9354 24.2374" fill="#C74634"/>
</svg>
