<svg width="242" height="87" viewBox="0 0 242 87" fill="none" xmlns="http://www.w3.org/2000/svg">
<mask id="mask0_6469_1135" style="mask-type:luminance" maskUnits="userSpaceOnUse" x="0" y="0" width="242" height="87">
<path d="M242 0H0V86.7876H242V0Z" fill="white"/>
</mask>
<g mask="url(#mask0_6469_1135)">
<path d="M55.9129 -44.5625H85.1141C88.5257 -44.5624 91.2908 -41.7964 91.2908 -38.3848V10.0137C91.2908 13.4253 88.5257 16.1913 85.1141 16.1914H55.9129C52.5013 16.1914 49.7352 13.4253 49.7352 10.0137V-38.3848C49.7352 -41.6898 52.3307 -44.3892 55.5945 -44.5547L55.9129 -44.5625Z" fill="url(#paint0_linear_6469_1135)" stroke="#00A78A"/>
<path d="M85.1218 -44.6484H55.9144C52.4587 -44.6484 49.6574 -41.8471 49.6574 -38.3914V10.0134C49.6574 13.469 52.4587 16.2704 55.9144 16.2704H85.1218C88.5775 16.2704 91.3788 13.469 91.3788 10.0134V-38.3914C91.3788 -41.8471 88.5775 -44.6484 85.1218 -44.6484Z" stroke="#00A78A"/>
<mask id="mask1_6469_1135" style="mask-type:luminance" maskUnits="userSpaceOnUse" x="49" y="23" width="43" height="49">
<path d="M85.1147 23.3613H55.9133C52.2255 23.3613 49.236 26.3509 49.236 30.0387V65.0828C49.236 68.7706 52.2255 71.7601 55.9133 71.7601H85.1147C88.8025 71.7601 91.7921 68.7706 91.7921 65.0828V30.0387C91.7921 26.3509 88.8025 23.3613 85.1147 23.3613Z" fill="white"/>
</mask>
<g mask="url(#mask1_6469_1135)">
<path d="M85.1151 23.3608H55.9137C52.2259 23.3608 49.2364 26.3504 49.2364 30.0382V65.0823C49.2364 68.7701 52.2259 71.7596 55.9137 71.7596H85.1151C88.8029 71.7596 91.7925 68.7701 91.7925 65.0823V30.0382C91.7925 26.3504 88.8029 23.3608 85.1151 23.3608Z" fill="white"/>
<g opacity="0.1">
<path d="M62.5894 88.1722L93.4662 70.2959V36.7109L62.5894 54.5873V88.1722Z" fill="url(#paint1_linear_6469_1135)"/>
<path fill-rule="evenodd" clip-rule="evenodd" d="M93.4662 67.0473V68.1281L62.5894 86.0045V84.9176L93.4662 67.0413V67.0473ZM93.4662 65.9664L62.5894 83.8427V82.7619L93.4662 64.8855V65.9664ZM62.5894 80.5881V81.669L93.4662 63.7927V62.7118L62.5894 80.5881ZM62.5894 79.5072V78.4264L93.4662 60.55V61.6309L62.5894 79.5072ZM62.5894 76.2586V77.3395L93.4662 59.4632V58.3823L62.5894 76.2586ZM62.5894 75.1718V74.0909L93.4662 56.2146V57.2954L62.5894 75.1718ZM62.5894 71.9232V73.004L93.4662 55.1277V54.0468L62.5894 71.9232ZM62.5894 70.8423V69.7614L93.4662 51.8851V52.966L62.5894 70.8423ZM62.5894 67.5877V68.6686L93.4662 50.7922V49.7114L62.5894 67.5877ZM62.5894 66.5068V65.426L93.4662 47.5496V48.6305L62.5894 66.5068ZM62.5894 63.2582V64.3391L93.4662 46.4628V45.3819L62.5894 63.2582ZM62.5894 62.1714V61.0905L93.4662 43.2142V44.295L62.5894 62.1714ZM62.5894 58.9227V60.0036L93.4662 42.1273V41.0464L62.5894 58.9227ZM62.5894 57.8419V56.761L93.4662 38.8847V39.9655L62.5894 57.8419ZM62.5894 54.5873V55.6681L93.4662 37.7918V36.7109L62.5894 54.5873ZM93.4662 70.2959V69.215L62.5894 87.0913V88.1722L93.4662 70.2959Z" fill="url(#paint2_linear_6469_1135)"/>
<path d="M62.5894 54.5869L93.4662 72.4632V106.048L62.5894 88.1718V54.5869Z" fill="url(#paint3_linear_6469_1135)"/>
<path fill-rule="evenodd" clip-rule="evenodd" d="M93.4662 75.7118V74.631L62.5894 56.7547V57.8355L93.4662 75.7118ZM93.4662 76.7987L62.5894 58.9224V60.0033L93.4662 77.8796V76.7987ZM62.5894 62.171V61.0901L93.4662 78.9665V80.0473L62.5894 62.171ZM62.5894 63.2579V64.3387L93.4662 82.2151V81.1342L62.5894 63.2579ZM62.5894 66.5065V65.4256L93.4662 83.3019V84.3828L62.5894 66.5065ZM62.5894 67.5873V68.6682L93.4662 86.5445V85.4637L62.5894 67.5873ZM62.5894 70.8359V69.7551L93.4662 87.6314V88.7183L62.5894 70.8419V70.8359ZM62.5894 71.9228V73.0037L93.4662 90.88V89.7991L62.5894 71.9228ZM62.5894 75.1714V74.0905L93.4662 91.9669V93.0538L62.5894 75.1774V75.1714ZM62.5894 76.2583V77.3392L93.4662 95.2155V94.1346L62.5894 76.2583ZM62.5894 79.5069V78.426L93.4662 96.3023V97.3892L62.5894 79.5129V79.5069ZM62.5894 80.5878V81.6686L93.4662 99.545V98.4641L62.5894 80.5878ZM62.5894 83.8424V82.7615L93.4662 100.638V101.725L62.5894 83.8484V83.8424ZM62.5894 84.9232V86.0041L93.4662 103.88V102.8L62.5894 84.9232ZM62.5894 88.1718V87.085L93.4662 104.961V106.048L62.5894 88.1718ZM93.4662 72.4632V73.5441L62.5894 55.6678V54.5869L93.4662 72.4632Z" fill="#00A78B"/>
</g>
</g>
<path d="M85.1218 23.7764H55.9144C52.4587 23.7764 49.6574 26.5777 49.6574 30.0334V65.0835C49.6574 68.5391 52.4587 71.3405 55.9144 71.3405H85.1218C88.5775 71.3405 91.3788 68.5391 91.3788 65.0835V30.0334C91.3788 26.5777 88.5775 23.7764 85.1218 23.7764Z" stroke="#EAF4F4"/>
<mask id="mask2_6469_1135" style="mask-type:luminance" maskUnits="userSpaceOnUse" x="49" y="76" width="43" height="50">
<path d="M85.1147 76.7676H55.9133C52.2255 76.7676 49.236 79.7571 49.236 83.4449V118.489C49.236 122.177 52.2255 125.166 55.9133 125.166H85.1147C88.8025 125.166 91.7921 122.177 91.7921 118.489V83.4449C91.7921 79.7571 88.8025 76.7676 85.1147 76.7676Z" fill="white"/>
</mask>
<g mask="url(#mask2_6469_1135)">
<path d="M85.1147 76.7676H55.9133C52.2255 76.7676 49.236 79.7571 49.236 83.4449V118.489C49.236 122.177 52.2255 125.166 55.9133 125.166H85.1147C88.8025 125.166 91.7921 122.177 91.7921 118.489V83.4449C91.7921 79.7571 88.8025 76.7676 85.1147 76.7676Z" fill="white"/>
</g>
<path d="M85.1218 77.1836H55.9144C52.4587 77.1836 49.6574 79.985 49.6574 83.4406V118.491C49.6574 121.946 52.4587 124.748 55.9144 124.748H85.1218C88.5775 124.748 91.3788 121.946 91.3788 118.491V83.4406C91.3788 79.985 88.5775 77.1836 85.1218 77.1836Z" stroke="#EAF4F4"/>
<mask id="mask3_6469_1135" style="mask-type:luminance" maskUnits="userSpaceOnUse" x="98" y="-9" width="44" height="56">
<path d="M134.346 -8.34766H105.145C101.457 -8.34766 98.4673 -5.35811 98.4673 -1.67031V40.0511C98.4673 43.7389 101.457 46.7285 105.145 46.7285H134.346C138.034 46.7285 141.023 43.7389 141.023 40.0511V-1.67031C141.023 -5.35811 138.034 -8.34766 134.346 -8.34766Z" fill="white"/>
</mask>
<g mask="url(#mask3_6469_1135)">
<path d="M134.344 -8.34766H105.142C101.455 -8.34766 98.465 -5.35811 98.465 -1.67031V40.0511C98.465 43.7389 101.455 46.7285 105.142 46.7285H134.344C138.032 46.7285 141.021 43.7389 141.021 40.0511V-1.67031C141.021 -5.35811 138.032 -8.34766 134.344 -8.34766Z" fill="white"/>
<g opacity="0.3">
<path d="M170.019 21.6928C170.019 25.722 166.752 29.421 161.336 32.1292C155.932 34.8313 148.456 36.5067 140.187 36.5067C131.918 36.5067 124.442 34.8313 119.038 32.1292C113.622 29.421 110.355 25.722 110.355 21.6928C110.355 17.6636 113.622 13.9646 119.038 11.2564C124.442 8.55425 131.918 6.87891 140.187 6.87891C148.456 6.87891 155.932 8.55425 161.336 11.2564C166.752 13.9646 170.019 17.6636 170.019 21.6928Z" stroke="url(#paint4_linear_6469_1135)" stroke-width="0.5"/>
<path d="M170.019 23.3617C170.019 27.391 166.752 31.0899 161.336 33.7981C155.932 36.5003 148.456 38.1756 140.187 38.1756C131.918 38.1756 124.442 36.5003 119.038 33.7981C113.622 31.0899 110.355 27.391 110.355 23.3617C110.355 19.3325 113.622 15.6335 119.038 12.9254C124.442 10.2232 131.918 8.54785 140.187 8.54785C148.456 8.54785 155.932 10.2232 161.336 12.9254C166.752 15.6335 170.019 19.3325 170.019 23.3617Z" stroke="url(#paint5_linear_6469_1135)" stroke-width="0.5"/>
<path d="M170.019 25.0321C170.019 29.0614 166.752 32.7603 161.336 35.4685C155.932 38.1707 148.456 39.846 140.187 39.846C131.918 39.846 124.442 38.1707 119.038 35.4685C113.622 32.7603 110.355 29.0614 110.355 25.0321C110.355 21.0029 113.622 17.3039 119.038 14.5958C124.442 11.8936 131.918 10.2183 140.187 10.2183C148.456 10.2183 155.932 11.8936 161.336 14.5958C166.752 17.3039 170.019 21.0029 170.019 25.0321Z" stroke="url(#paint6_linear_6469_1135)" stroke-width="0.5"/>
<path d="M170.019 26.7011C170.019 30.7303 166.752 34.4293 161.336 37.1375C155.932 39.8396 148.456 41.515 140.187 41.515C131.918 41.515 124.442 39.8396 119.038 37.1375C113.622 34.4293 110.355 30.7303 110.355 26.7011C110.355 22.6719 113.622 18.9729 119.038 16.2647C124.442 13.5625 131.918 11.8872 140.187 11.8872C148.456 11.8872 155.932 13.5625 161.336 16.2647C166.752 18.9729 170.019 22.6719 170.019 26.7011Z" stroke="url(#paint7_linear_6469_1135)" stroke-width="0.5"/>
<path d="M170.019 28.37C170.019 32.3993 166.752 36.0982 161.336 38.8064C155.932 41.5086 148.456 43.1839 140.187 43.1839C131.918 43.1839 124.442 41.5086 119.038 38.8064C113.622 36.0982 110.355 32.3993 110.355 28.37C110.355 24.3408 113.622 20.6418 119.038 17.9337C124.442 15.2315 131.918 13.5562 140.187 13.5562C148.456 13.5562 155.932 15.2315 161.336 17.9337C166.752 20.6418 170.019 24.3408 170.019 28.37Z" stroke="url(#paint8_linear_6469_1135)" stroke-width="0.5"/>
<path d="M170.019 30.0399C170.019 34.0692 166.752 37.7681 161.336 40.4763C155.932 43.1785 148.456 44.8538 140.187 44.8538C131.918 44.8538 124.442 43.1785 119.038 40.4763C113.622 37.7681 110.355 34.0692 110.355 30.0399C110.355 26.0107 113.622 22.3118 119.038 19.6036C124.442 16.9014 131.918 15.2261 140.187 15.2261C148.456 15.2261 155.932 16.9014 161.336 19.6036C166.752 22.3118 170.019 26.0107 170.019 30.0399Z" stroke="url(#paint9_linear_6469_1135)" stroke-width="0.5"/>
<path d="M170.019 31.7089C170.019 35.7381 166.752 39.4371 161.336 42.1453C155.932 44.8474 148.456 46.5228 140.187 46.5228C131.918 46.5228 124.442 44.8474 119.038 42.1453C113.622 39.4371 110.355 35.7381 110.355 31.7089C110.355 27.6797 113.622 23.9807 119.038 21.2725C124.442 18.5704 131.918 16.895 140.187 16.895C148.456 16.895 155.932 18.5704 161.336 21.2725C166.752 23.9807 170.019 27.6797 170.019 31.7089Z" stroke="url(#paint10_linear_6469_1135)" stroke-width="0.5"/>
<path d="M170.019 33.3788C170.019 37.408 166.752 41.107 161.336 43.8152C155.932 46.5174 148.456 48.1927 140.187 48.1927C131.918 48.1927 124.442 46.5174 119.038 43.8152C113.622 41.107 110.355 37.408 110.355 33.3788C110.355 29.3496 113.622 25.6506 119.038 22.9425C124.442 20.2403 131.918 18.5649 140.187 18.5649C148.456 18.5649 155.932 20.2403 161.336 22.9425C166.752 25.6506 170.019 29.3496 170.019 33.3788Z" stroke="url(#paint11_linear_6469_1135)" stroke-width="0.5"/>
<path d="M170.019 35.0419C170.019 39.0711 166.752 42.7701 161.336 45.4783C155.932 48.1804 148.456 49.8558 140.187 49.8558C131.918 49.8558 124.442 48.1804 119.038 45.4783C113.622 42.7701 110.355 39.0711 110.355 35.0419C110.355 31.0127 113.622 27.3137 119.038 24.6055C124.442 21.9034 131.918 20.228 140.187 20.228C148.456 20.228 155.932 21.9034 161.336 24.6055C166.752 27.3137 170.019 31.0127 170.019 35.0419Z" stroke="url(#paint12_linear_6469_1135)" stroke-width="0.5"/>
<path d="M170.019 36.7108C170.019 40.7401 166.752 44.439 161.336 47.1472C155.932 49.8494 148.456 51.5247 140.187 51.5247C131.918 51.5247 124.442 49.8494 119.038 47.1472C113.622 44.439 110.355 40.7401 110.355 36.7108C110.355 32.6816 113.622 28.9827 119.038 26.2745C124.442 23.5723 131.918 21.897 140.187 21.897C148.456 21.897 155.932 23.5723 161.336 26.2745C166.752 28.9827 170.019 32.6816 170.019 36.7108Z" stroke="url(#paint13_linear_6469_1135)" stroke-width="0.5"/>
<path d="M170.019 38.3798C170.019 42.409 166.752 46.108 161.336 48.8162C155.932 51.5183 148.456 53.1937 140.187 53.1937C131.918 53.1937 124.442 51.5183 119.038 48.8162C113.622 46.108 110.355 42.409 110.355 38.3798C110.355 34.3506 113.622 30.6516 119.038 27.9434C124.442 25.2413 131.918 23.5659 140.187 23.5659C148.456 23.5659 155.932 25.2413 161.336 27.9434C166.752 30.6516 170.019 34.3506 170.019 38.3798Z" stroke="url(#paint14_linear_6469_1135)" stroke-width="0.5"/>
<path d="M170.019 40.0497C170.019 44.0789 166.752 47.7779 161.336 50.4861C155.932 53.1883 148.456 54.8636 140.187 54.8636C131.918 54.8636 124.442 53.1883 119.038 50.4861C113.622 47.7779 110.355 44.0789 110.355 40.0497C110.355 36.0205 113.622 32.3215 119.038 29.6134C124.442 26.9112 131.918 25.2358 140.187 25.2358C148.456 25.2358 155.932 26.9112 161.336 29.6134C166.752 32.3215 170.019 36.0205 170.019 40.0497Z" stroke="url(#paint15_linear_6469_1135)" stroke-width="0.5"/>
<path d="M170.019 41.7187C170.019 45.7479 166.752 49.4469 161.336 52.155C155.932 54.8572 148.456 56.5325 140.187 56.5325C131.918 56.5325 124.442 54.8572 119.038 52.155C113.622 49.4469 110.355 45.7479 110.355 41.7187C110.355 37.6894 113.622 33.9905 119.038 31.2823C124.442 28.5801 131.918 26.9048 140.187 26.9048C148.456 26.9048 155.932 28.5801 161.336 31.2823C166.752 33.9905 170.019 37.6894 170.019 41.7187Z" stroke="url(#paint16_linear_6469_1135)" stroke-width="0.5"/>
<path d="M170.019 43.3891C170.019 47.4183 166.752 51.1173 161.336 53.8254C155.932 56.5276 148.456 58.203 140.187 58.203C131.918 58.203 124.442 56.5276 119.038 53.8254C113.622 51.1173 110.355 47.4183 110.355 43.3891C110.355 39.3598 113.622 35.6609 119.038 32.9527C124.442 30.2505 131.918 28.5752 140.187 28.5752C148.456 28.5752 155.932 30.2505 161.336 32.9527C166.752 35.6609 170.019 39.3598 170.019 43.3891Z" stroke="url(#paint17_linear_6469_1135)" stroke-width="0.5"/>
<path d="M170.019 45.058C170.019 49.0872 166.752 52.7862 161.336 55.4944C155.932 58.1965 148.456 59.8719 140.187 59.8719C131.918 59.8719 124.442 58.1965 119.038 55.4944C113.622 52.7862 110.355 49.0872 110.355 45.058C110.355 41.0288 113.622 37.3298 119.038 34.6216C124.442 31.9195 131.918 30.2441 140.187 30.2441C148.456 30.2441 155.932 31.9195 161.336 34.6216C166.752 37.3298 170.019 41.0288 170.019 45.058Z" stroke="url(#paint18_linear_6469_1135)" stroke-width="0.5"/>
</g>
</g>
<path d="M134.349 -7.92773H105.142C101.686 -7.92773 98.8848 -5.12637 98.8848 -1.67072V40.0567C98.8848 43.5124 101.686 46.3137 105.142 46.3137H134.349C137.805 46.3137 140.606 43.5124 140.606 40.0567V-1.67072C140.606 -5.12637 137.805 -7.92773 134.349 -7.92773Z" stroke="#EAF4F4"/>
<mask id="mask4_6469_1135" style="mask-type:luminance" maskUnits="userSpaceOnUse" x="98" y="53" width="44" height="56">
<path d="M134.346 53.4043H105.145C101.457 53.4043 98.4673 56.3938 98.4673 60.0816V101.803C98.4673 105.491 101.457 108.48 105.145 108.48H134.346C138.034 108.48 141.023 105.491 141.023 101.803V60.0816C141.023 56.3938 138.034 53.4043 134.346 53.4043Z" fill="white"/>
</mask>
<g mask="url(#mask4_6469_1135)">
<path d="M134.344 53.4038H105.142C101.455 53.4038 98.465 56.3934 98.465 60.0812V101.803C98.465 105.49 101.455 108.48 105.142 108.48H134.344C138.032 108.48 141.021 105.49 141.021 101.803V60.0812C141.021 56.3934 138.032 53.4038 134.344 53.4038Z" fill="white"/>
<g opacity="0.3">
<path d="M170.019 83.4457C170.019 87.475 166.752 91.1739 161.336 93.8821C155.932 96.5842 148.456 98.2596 140.187 98.2596C131.918 98.2596 124.442 96.5842 119.038 93.8821C113.622 91.1739 110.355 87.475 110.355 83.4457C110.355 79.4165 113.622 75.7175 119.038 73.0093C124.442 70.3072 131.918 68.6318 140.187 68.6318C148.456 68.6318 155.932 70.3072 161.336 73.0093C166.752 75.7175 170.019 79.4165 170.019 83.4457Z" stroke="url(#paint19_linear_6469_1135)" stroke-width="0.5"/>
<path d="M170.019 85.1147C170.019 89.1439 166.752 92.8428 161.336 95.551C155.932 98.2532 148.456 99.9285 140.187 99.9285C131.918 99.9285 124.442 98.2532 119.038 95.551C113.622 92.8428 110.355 89.1439 110.355 85.1147C110.355 81.0854 113.622 77.3865 119.038 74.6783C124.442 71.9761 131.918 70.3008 140.187 70.3008C148.456 70.3008 155.932 71.9761 161.336 74.6783C166.752 77.3865 170.019 81.0854 170.019 85.1147Z" stroke="url(#paint20_linear_6469_1135)" stroke-width="0.5"/>
<path d="M170.019 86.7851C170.019 90.8143 166.752 94.5133 161.336 97.2214C155.932 99.9236 148.456 101.599 140.187 101.599C131.918 101.599 124.442 99.9236 119.038 97.2214C113.622 94.5133 110.355 90.8143 110.355 86.7851C110.355 82.7558 113.622 79.0569 119.038 76.3487C124.442 73.6465 131.918 71.9712 140.187 71.9712C148.456 71.9712 155.932 73.6465 161.336 76.3487C166.752 79.0569 170.019 82.7558 170.019 86.7851Z" stroke="url(#paint21_linear_6469_1135)" stroke-width="0.5"/>
<path d="M170.019 88.4482C170.019 92.4774 166.752 96.1764 161.336 98.8845C155.932 101.587 148.456 103.262 140.187 103.262C131.918 103.262 124.442 101.587 119.038 98.8845C113.622 96.1764 110.355 92.4774 110.355 88.4482C110.355 84.4189 113.622 80.72 119.038 78.0118C124.442 75.3096 131.918 73.6343 140.187 73.6343C148.456 73.6343 155.932 75.3096 161.336 78.0118C166.752 80.72 170.019 84.4189 170.019 88.4482Z" stroke="url(#paint22_linear_6469_1135)" stroke-width="0.5"/>
<path d="M170.019 90.1171C170.019 94.1463 166.752 97.8453 161.336 100.553C155.932 103.256 148.456 104.931 140.187 104.931C131.918 104.931 124.442 103.256 119.038 100.553C113.622 97.8453 110.355 94.1463 110.355 90.1171C110.355 86.0879 113.622 82.3889 119.038 79.6807C124.442 76.9786 131.918 75.3032 140.187 75.3032C148.456 75.3032 155.932 76.9786 161.336 79.6807C166.752 82.3889 170.019 86.0879 170.019 90.1171Z" stroke="url(#paint23_linear_6469_1135)" stroke-width="0.5"/>
<path d="M170.019 91.787C170.019 95.8162 166.752 99.5152 161.336 102.223C155.932 104.926 148.456 106.601 140.187 106.601C131.918 106.601 124.442 104.926 119.038 102.223C113.622 99.5152 110.355 95.8162 110.355 91.787C110.355 87.7578 113.622 84.0588 119.038 81.3506C124.442 78.6485 131.918 76.9731 140.187 76.9731C148.456 76.9731 155.932 78.6485 161.336 81.3506C166.752 84.0588 170.019 87.7578 170.019 91.787Z" stroke="url(#paint24_linear_6469_1135)" stroke-width="0.5"/>
<path d="M170.019 93.456C170.019 97.4852 166.752 101.184 161.336 103.892C155.932 106.595 148.456 108.27 140.187 108.27C131.918 108.27 124.442 106.595 119.038 103.892C113.622 101.184 110.355 97.4852 110.355 93.456C110.355 89.4267 113.622 85.7278 119.038 83.0196C124.442 80.3174 131.918 78.6421 140.187 78.6421C148.456 78.6421 155.932 80.3174 161.336 83.0196C166.752 85.7278 170.019 89.4267 170.019 93.456Z" stroke="url(#paint25_linear_6469_1135)" stroke-width="0.5"/>
<path d="M170.019 95.1249C170.019 99.1541 166.752 102.853 161.336 105.561C155.932 108.263 148.456 109.939 140.187 109.939C131.918 109.939 124.442 108.263 119.038 105.561C113.622 102.853 110.355 99.1541 110.355 95.1249C110.355 91.0957 113.622 87.3967 119.038 84.6885C124.442 81.9864 131.918 80.311 140.187 80.311C148.456 80.311 155.932 81.9864 161.336 84.6885C166.752 87.3967 170.019 91.0957 170.019 95.1249Z" stroke="url(#paint26_linear_6469_1135)" stroke-width="0.5"/>
<path d="M170.019 96.7948C170.019 100.824 166.752 104.523 161.336 107.231C155.932 109.933 148.456 111.609 140.187 111.609C131.918 111.609 124.442 109.933 119.038 107.231C113.622 104.523 110.355 100.824 110.355 96.7948C110.355 92.7656 113.622 89.0666 119.038 86.3585C124.442 83.6563 131.918 81.981 140.187 81.981C148.456 81.981 155.932 83.6563 161.336 86.3585C166.752 89.0666 170.019 92.7656 170.019 96.7948Z" stroke="url(#paint27_linear_6469_1135)" stroke-width="0.5"/>
<path d="M170.019 98.4638C170.019 102.493 166.752 106.192 161.336 108.9C155.932 111.602 148.456 113.278 140.187 113.278C131.918 113.278 124.442 111.602 119.038 108.9C113.622 106.192 110.355 102.493 110.355 98.4638C110.355 94.4345 113.622 90.7356 119.038 88.0274C124.442 85.3252 131.918 83.6499 140.187 83.6499C148.456 83.6499 155.932 85.3252 161.336 88.0274C166.752 90.7356 170.019 94.4345 170.019 98.4638Z" stroke="url(#paint28_linear_6469_1135)" stroke-width="0.5"/>
<path d="M170.019 100.133C170.019 104.162 166.752 107.861 161.336 110.569C155.932 113.271 148.456 114.947 140.187 114.947C131.918 114.947 124.442 113.271 119.038 110.569C113.622 107.861 110.355 104.162 110.355 100.133C110.355 96.1035 113.622 92.4045 119.038 89.6963C124.442 86.9942 131.918 85.3188 140.187 85.3188C148.456 85.3188 155.932 86.9942 161.336 89.6963C166.752 92.4045 170.019 96.1035 170.019 100.133Z" stroke="url(#paint29_linear_6469_1135)" stroke-width="0.5"/>
</g>
</g>
<path d="M134.349 53.8193H105.142C101.686 53.8193 98.8848 56.6207 98.8848 60.0764V101.804C98.8848 105.259 101.686 108.061 105.142 108.061H134.349C137.805 108.061 140.606 105.259 140.606 101.804V60.0764C140.606 56.6207 137.805 53.8193 134.349 53.8193Z" stroke="#EAF4F4"/>
<mask id="mask5_6469_1135" style="mask-type:luminance" maskUnits="userSpaceOnUse" x="147" y="12" width="44" height="49">
<path d="M183.587 12.5117H154.385C150.698 12.5117 147.708 15.5013 147.708 19.1891V54.2332C147.708 57.921 150.698 60.9105 154.385 60.9105H183.587C187.275 60.9105 190.264 57.921 190.264 54.2332V19.1891C190.264 15.5013 187.275 12.5117 183.587 12.5117Z" fill="white"/>
</mask>
<g mask="url(#mask5_6469_1135)">
<path d="M183.588 12.5112H154.387C150.699 12.5112 147.709 15.5008 147.709 19.1886V54.2327C147.709 57.9205 150.699 60.91 154.387 60.91H183.588C187.276 60.91 190.265 57.9205 190.265 54.2327V19.1886C190.265 15.5008 187.276 12.5112 183.588 12.5112Z" fill="white"/>
<g opacity="0.1">
<path fill-rule="evenodd" clip-rule="evenodd" d="M187.346 51.9023L191.502 53.4095L193.711 57.2346L192.943 61.5821L189.556 64.4224H185.137L181.75 61.5821L180.981 57.2346L183.191 53.4095L187.346 51.9023ZM183.744 54.0701L187.346 52.761L190.949 54.0701L192.865 57.3847L192.198 61.1558L189.262 63.6177H185.431L182.495 61.1558L181.828 57.3847L183.744 54.0701Z" fill="url(#paint30_radial_6469_1135)"/>
<path fill-rule="evenodd" clip-rule="evenodd" d="M193.574 50.9352L187.347 48.6714L181.12 50.9352L177.805 56.6698L178.958 63.191L184.038 67.4484H190.668L195.748 63.191L196.901 56.6698L193.586 50.9352H193.574ZM187.347 49.5301L181.672 51.5957L178.652 56.8199L179.703 62.7647L184.333 66.6438H190.373L195.003 62.7647L196.054 56.8199L193.034 51.5957L187.359 49.5301H187.347Z" fill="url(#paint31_radial_6469_1135)"/>
<path fill-rule="evenodd" clip-rule="evenodd" d="M187.347 45.4473L195.651 48.4677L200.071 56.1118L198.534 64.8068L191.76 70.4813H182.921L176.148 64.8068L174.611 56.1118L179.03 48.4677L187.335 45.4473H187.347ZM179.589 49.1222L187.341 46.306L195.093 49.1222L199.218 56.2619L197.783 64.3804L191.46 69.6767H183.209L176.886 64.3804L175.451 56.2619L179.577 49.1222H179.589Z" fill="url(#paint32_radial_6469_1135)"/>
<path fill-rule="evenodd" clip-rule="evenodd" d="M197.728 45.9933L187.346 42.2163L176.964 45.9933L171.439 55.553L173.361 66.4217L181.828 73.5134H192.876L201.343 66.4217L203.259 55.553L197.734 45.9933H197.728ZM187.346 43.081L177.516 46.6539L172.286 55.7031L174.105 65.9954L182.122 72.7087H192.582L200.599 65.9954L202.418 55.7031L197.188 46.6539L187.358 43.081H187.346Z" fill="url(#paint33_radial_6469_1135)"/>
<path fill-rule="evenodd" clip-rule="evenodd" d="M187.348 38.9922L199.808 43.5198L206.437 54.989L204.137 68.0315L193.977 76.5463H180.719L170.558 68.0315L168.259 54.989L174.888 43.5198L187.348 38.9922ZM175.44 44.1803L187.348 39.8509L199.255 44.1803L205.591 55.1391L203.393 67.6051L193.689 75.7416H181.019L171.315 67.6051L169.117 55.1391L175.452 44.1803H175.44Z" fill="url(#paint34_radial_6469_1135)"/>
<path fill-rule="evenodd" clip-rule="evenodd" d="M201.878 41.0523L187.34 35.7681L172.803 41.0523L165.069 54.431L167.753 69.6472L179.6 79.5792H195.069L206.916 69.6472L209.6 54.431L201.866 41.0523H201.878ZM187.346 36.6268L173.361 41.7128L165.921 54.5872L168.503 69.2269L179.9 78.7805H194.78L206.178 69.2269L208.76 54.5872L201.32 41.7128L187.334 36.6268H187.346Z" fill="url(#paint35_radial_6469_1135)"/>
<path fill-rule="evenodd" clip-rule="evenodd" d="M203.955 38.578L187.346 32.5371L170.736 38.578L161.897 53.8722L164.966 71.2622L178.507 82.6112H196.185L209.726 71.2622L212.794 53.8722L203.955 38.578ZM187.346 33.4018L171.289 39.2385L162.744 54.0223L165.71 70.8298L178.801 81.8006H195.891L208.981 70.8298L211.947 54.0223L203.403 39.2385L187.346 33.4018Z" fill="url(#paint36_radial_6469_1135)"/>
</g>
</g>
<path d="M183.583 12.9326H154.375C150.92 12.9326 148.118 15.734 148.118 19.1896V54.2397C148.118 57.6954 150.92 60.4967 154.375 60.4967H183.583C187.038 60.4967 189.84 57.6954 189.84 54.2397V19.1896C189.84 15.734 187.038 12.9326 183.583 12.9326Z" stroke="#EAF4F4"/>
<mask id="mask6_6469_1135" style="mask-type:luminance" maskUnits="userSpaceOnUse" x="147" y="65" width="44" height="50">
<path d="M154.386 66.418H183.587C186.999 66.418 189.764 69.1841 189.764 72.5957V107.64C189.764 111.051 186.998 113.816 183.587 113.816H154.386C150.974 113.816 148.208 111.051 148.208 107.64V72.5957C148.208 69.2907 150.803 66.5913 154.067 66.4258L154.386 66.418Z" fill="white" stroke="white"/>
</mask>
<g mask="url(#mask6_6469_1135)">
<path d="M154.387 66.4175H183.588C187 66.4176 189.765 69.1836 189.765 72.5952V107.639C189.765 111.051 187 113.816 183.588 113.816H154.387C150.975 113.816 148.209 111.051 148.209 107.639V72.5952C148.209 69.2902 150.805 66.5908 154.069 66.4253L154.387 66.4175Z" fill="white" stroke="#EAF4F4"/>
<g opacity="0.1">
<mask id="path-58-inside-1_6469_1135" fill="white">
<path fill-rule="evenodd" clip-rule="evenodd" d="M203.955 91.9842L187.346 85.9434L170.736 91.9842L161.897 107.272L164.966 124.662L178.507 136.011H196.185L209.726 124.662L212.794 107.272L203.955 91.9842ZM187.346 86.8081L171.289 92.6447L162.744 107.429L165.71 124.242L178.801 135.213H195.891L208.981 124.242L211.947 107.429L203.403 92.6447L187.346 86.8081Z"/>
</mask>
<path fill-rule="evenodd" clip-rule="evenodd" d="M203.955 91.9842L187.346 85.9434L170.736 91.9842L161.897 107.272L164.966 124.662L178.507 136.011H196.185L209.726 124.662L212.794 107.272L203.955 91.9842ZM187.346 86.8081L171.289 92.6447L162.744 107.429L165.71 124.242L178.801 135.213H195.891L208.981 124.242L211.947 107.429L203.403 92.6447L187.346 86.8081Z" fill="url(#paint37_radial_6469_1135)"/>
<path d="M203.955 91.9842L204.821 91.4837L204.639 91.1688L204.297 91.0444L203.955 91.9842ZM187.346 85.9434L187.687 85.0036L187.346 84.8793L187.004 85.0036L187.346 85.9434ZM170.736 91.9842L170.395 91.0444L170.053 91.1688L169.871 91.4837L170.736 91.9842ZM161.897 107.272L161.032 106.772L160.849 107.087L160.912 107.446L161.897 107.272ZM164.966 124.662L163.981 124.836L164.044 125.195L164.323 125.429L164.966 124.662ZM178.507 136.011L177.864 136.778L178.143 137.011H178.507V136.011ZM196.185 136.011V137.011H196.548L196.827 136.778L196.185 136.011ZM209.726 124.662L210.368 125.429L210.647 125.195L210.71 124.836L209.726 124.662ZM212.794 107.272L213.779 107.446L213.842 107.087L213.66 106.772L212.794 107.272ZM187.346 86.8081L187.687 85.8682L187.346 85.744L187.004 85.8682L187.346 86.8081ZM171.289 92.6447L170.947 91.7049L170.605 91.8292L170.423 92.1443L171.289 92.6447ZM162.744 107.429L161.878 106.928L161.696 107.244L161.759 107.602L162.744 107.429ZM165.71 124.242L164.726 124.416L164.789 124.775L165.068 125.008L165.71 124.242ZM178.801 135.213L178.159 135.979L178.437 136.213H178.801V135.213ZM195.891 135.213V136.213H196.254L196.533 135.979L195.891 135.213ZM208.981 124.242L209.623 125.008L209.903 124.775L209.966 124.416L208.981 124.242ZM211.947 107.429L212.932 107.602L212.995 107.244L212.813 106.928L211.947 107.429ZM203.403 92.6447L204.268 92.1443L204.086 91.8292L203.744 91.7049L203.403 92.6447ZM203.955 91.9842L204.297 91.0444L187.687 85.0036L187.346 85.9434L187.004 86.8831L203.613 92.924L203.955 91.9842ZM187.346 85.9434L187.004 85.0036L170.395 91.0444L170.736 91.9842L171.078 92.924L187.687 86.8831L187.346 85.9434ZM170.736 91.9842L169.871 91.4837L161.032 106.772L161.897 107.272L162.763 107.773L171.602 92.4847L170.736 91.9842ZM161.897 107.272L160.912 107.446L163.981 124.836L164.966 124.662L165.951 124.489L162.882 107.099L161.897 107.272ZM164.966 124.662L164.323 125.429L177.864 136.778L178.507 136.011L179.149 135.245L165.608 123.896L164.966 124.662ZM178.507 136.011V137.011H196.185V136.011V135.011H178.507V136.011ZM196.185 136.011L196.827 136.778L210.368 125.429L209.726 124.662L209.083 123.896L195.542 135.245L196.185 136.011ZM209.726 124.662L210.71 124.836L213.779 107.446L212.794 107.272L211.809 107.099L208.741 124.489L209.726 124.662ZM212.794 107.272L213.66 106.772L204.821 91.4837L203.955 91.9842L203.089 92.4847L211.928 107.773L212.794 107.272ZM187.346 86.8081L187.004 85.8682L170.947 91.7049L171.289 92.6447L171.63 93.5846L187.687 87.7479L187.346 86.8081ZM171.289 92.6447L170.423 92.1443L161.878 106.928L162.744 107.429L163.61 107.929L172.155 93.1451L171.289 92.6447ZM162.744 107.429L161.759 107.602L164.726 124.416L165.71 124.242L166.695 124.068L163.729 107.255L162.744 107.429ZM165.71 124.242L165.068 125.008L178.159 135.979L178.801 135.213L179.443 134.446L166.353 123.476L165.71 124.242ZM178.801 135.213V136.213H195.891V135.213V134.213H178.801V135.213ZM195.891 135.213L196.533 135.979L209.623 125.008L208.981 124.242L208.339 123.476L195.248 134.446L195.891 135.213ZM208.981 124.242L209.966 124.416L212.932 107.602L211.947 107.429L210.963 107.255L207.996 124.068L208.981 124.242ZM211.947 107.429L212.813 106.928L204.268 92.1443L203.403 92.6447L202.537 93.1451L211.082 107.929L211.947 107.429ZM203.403 92.6447L203.744 91.7049L187.687 85.8682L187.346 86.8081L187.004 87.7479L203.061 93.5846L203.403 92.6447Z" fill="#EAF4F4" mask="url(#path-58-inside-1_6469_1135)"/>
</g>
</g>
<path d="M183.583 66.3389H154.375C150.92 66.3389 148.118 69.1402 148.118 72.5959V107.646C148.118 111.102 150.92 113.903 154.375 113.903H183.583C187.038 113.903 189.84 111.102 189.84 107.646V72.5959C189.84 69.1402 187.038 66.3389 183.583 66.3389Z" stroke="#EAF4F4"/>
<path d="M183.584 -35.8867H154.383C150.695 -35.8867 147.706 -32.8972 147.706 -29.2094V-0.842621C147.706 2.84518 150.695 5.83472 154.383 5.83472H183.584C187.272 5.83472 190.262 2.84518 190.262 -0.842621V-29.2094C190.262 -32.8972 187.272 -35.8867 183.584 -35.8867Z" fill="url(#paint38_linear_6469_1135)"/>
<path d="M183.583 -35.4668H154.375C150.92 -35.4668 148.118 -32.6654 148.118 -29.2098V-0.83704C148.118 2.61861 150.92 5.41998 154.375 5.41998H183.583C187.038 5.41998 189.84 2.61861 189.84 -0.83704V-29.2098C189.84 -32.6654 187.038 -35.4668 183.583 -35.4668Z" stroke="#00A78A"/>
<mask id="mask7_6469_1135" style="mask-type:luminance" maskUnits="userSpaceOnUse" x="196" y="-22" width="44" height="52">
<path d="M232.823 -21.6953H203.621C199.934 -21.6953 196.944 -18.7058 196.944 -15.018V22.5301C196.944 26.2179 199.934 29.2075 203.621 29.2075H232.823C236.511 29.2075 239.5 26.2179 239.5 22.5301V-15.018C239.5 -18.7058 236.511 -21.6953 232.823 -21.6953Z" fill="white"/>
</mask>
<g mask="url(#mask7_6469_1135)">
<path d="M232.824 -21.6948H203.623C199.935 -21.6948 196.946 -18.7053 196.946 -15.0175V22.5306C196.946 26.2184 199.935 29.208 203.623 29.208H232.824C236.512 29.208 239.502 26.2184 239.502 22.5306V-15.0175C239.502 -18.7053 236.512 -21.6948 232.824 -21.6948Z" fill="white"/>
<g opacity="0.1">
<path d="M210.919 4.7626C210.919 0.403107 214.083 -3.15774 218.052 -3.33188C217.95 -3.33188 217.848 -3.33789 217.74 -3.33789C213.633 -3.33789 210.3 0.289016 210.3 4.7626C210.3 9.23619 213.633 12.8631 217.74 12.8631C217.842 12.8631 217.95 12.8631 218.052 12.8571C214.083 12.683 210.919 9.1221 210.919 4.7626Z" fill="url(#paint39_linear_6469_1135)"/>
<path d="M212.157 4.7626C212.157 0.403107 215.321 -3.15774 219.291 -3.33188C219.189 -3.33188 219.086 -3.33789 218.978 -3.33789C214.865 -3.33789 211.538 0.289016 211.538 4.7626C211.538 9.23619 214.871 12.8631 218.978 12.8631C219.08 12.8631 219.183 12.8631 219.291 12.8571C215.321 12.683 212.157 9.1221 212.157 4.7626Z" fill="url(#paint40_linear_6469_1135)"/>
<path d="M220.524 -3.33188C216.555 -3.15774 213.391 0.403107 213.391 4.7626C213.391 9.1221 216.555 12.683 220.524 12.8571C220.422 12.8571 220.32 12.8631 220.212 12.8631C216.105 12.8631 212.772 9.23619 212.772 4.7626C212.772 0.289016 216.105 -3.33789 220.212 -3.33789C220.314 -3.33789 220.422 -3.33789 220.524 -3.33188Z" fill="url(#paint41_linear_6469_1135)"/>
<path d="M214.634 4.7626C214.634 0.403107 217.798 -3.15774 221.768 -3.33188C221.666 -3.33188 221.564 -3.33789 221.455 -3.33789C217.342 -3.33789 214.015 0.289016 214.015 4.7626C214.015 9.23619 217.348 12.8631 221.455 12.8631C221.557 12.8631 221.66 12.8631 221.768 12.8571C217.798 12.683 214.634 9.1221 214.634 4.7626Z" fill="url(#paint42_linear_6469_1135)"/>
<path d="M223.011 -3.33188C219.042 -3.15774 215.877 0.403107 215.877 4.7626C215.877 9.1221 219.042 12.683 223.011 12.8571C222.909 12.8571 222.807 12.8631 222.699 12.8631C218.591 12.8631 215.259 9.23619 215.259 4.7626C215.259 0.289016 218.591 -3.33789 222.699 -3.33789C222.801 -3.33789 222.903 -3.33789 223.011 -3.33188Z" fill="url(#paint43_linear_6469_1135)"/>
<path d="M217.116 4.7626C217.116 0.403107 220.28 -3.15774 224.249 -3.33188C224.147 -3.33188 224.045 -3.33789 223.937 -3.33789C219.824 -3.33789 216.497 0.289016 216.497 4.7626C216.497 9.23619 219.83 12.8631 223.937 12.8631C224.039 12.8631 224.141 12.8631 224.249 12.8571C220.28 12.683 217.116 9.1221 217.116 4.7626Z" fill="url(#paint44_linear_6469_1135)"/>
<path d="M225.493 -3.33188C221.523 -3.15774 218.359 0.403107 218.359 4.7626C218.359 9.1221 221.523 12.683 225.493 12.8571C225.39 12.8571 225.288 12.8631 225.18 12.8631C221.067 12.8631 217.74 9.23619 217.74 4.7626C217.74 0.289016 221.073 -3.33789 225.18 -3.33789C225.282 -3.33789 225.384 -3.33789 225.493 -3.33188Z" fill="url(#paint45_linear_6469_1135)"/>
<path d="M219.602 4.7626C219.602 0.403107 222.767 -3.15774 226.736 -3.33188C226.634 -3.33188 226.532 -3.33789 226.423 -3.33789C222.316 -3.33789 218.983 0.289016 218.983 4.7626C218.983 9.23619 222.316 12.8631 226.423 12.8631C226.526 12.8631 226.634 12.8631 226.736 12.8571C222.767 12.683 219.602 9.1221 219.602 4.7626Z" fill="url(#paint46_linear_6469_1135)"/>
<path d="M227.974 -3.33188C224.005 -3.15774 220.84 0.403107 220.84 4.7626C220.84 9.1221 224.005 12.683 227.974 12.8571C227.872 12.8571 227.77 12.8631 227.662 12.8631C223.549 12.8631 220.222 9.23619 220.222 4.7626C220.222 0.289016 223.555 -3.33789 227.662 -3.33789C227.764 -3.33789 227.866 -3.33789 227.974 -3.33188Z" fill="url(#paint47_linear_6469_1135)"/>
<path d="M222.084 4.7626C222.084 0.403107 225.248 -3.15774 229.217 -3.33188C229.115 -3.33188 229.013 -3.33789 228.905 -3.33789C224.798 -3.33789 221.465 0.289016 221.465 4.7626C221.465 9.23619 224.798 12.8631 228.905 12.8631C229.007 12.8631 229.115 12.8631 229.217 12.8571C225.248 12.683 222.084 9.1221 222.084 4.7626Z" fill="url(#paint48_linear_6469_1135)"/>
<path d="M230.451 -3.33188C226.482 -3.15774 223.317 0.403107 223.317 4.7626C223.317 9.1221 226.482 12.683 230.451 12.8571C230.349 12.8571 230.247 12.8631 230.139 12.8631C226.026 12.8631 222.699 9.23619 222.699 4.7626C222.699 0.289016 226.032 -3.33789 230.139 -3.33789C230.241 -3.33789 230.343 -3.33789 230.451 -3.33188Z" fill="url(#paint49_linear_6469_1135)"/>
<path d="M224.561 4.7626C224.561 0.403107 227.725 -3.15774 231.694 -3.33188C231.592 -3.33188 231.49 -3.33789 231.382 -3.33789C227.269 -3.33789 223.942 0.289016 223.942 4.7626C223.942 9.23619 227.275 12.8631 231.382 12.8631C231.484 12.8631 231.586 12.8631 231.694 12.8571C227.725 12.683 224.561 9.1221 224.561 4.7626Z" fill="url(#paint50_linear_6469_1135)"/>
<path d="M210.919 35.2909C210.919 30.9314 214.083 27.3706 218.052 27.1964C217.95 27.1964 217.848 27.1904 217.74 27.1904C213.633 27.1904 210.3 30.8173 210.3 35.2909C210.3 39.7645 213.633 43.3914 217.74 43.3914C217.842 43.3914 217.95 43.3914 218.052 43.3854C214.083 43.2113 210.919 39.6504 210.919 35.2909Z" fill="url(#paint51_linear_6469_1135)"/>
<path d="M212.157 35.2909C212.157 30.9314 215.321 27.3706 219.291 27.1964C219.189 27.1964 219.086 27.1904 218.978 27.1904C214.865 27.1904 211.538 30.8173 211.538 35.2909C211.538 39.7645 214.871 43.3914 218.978 43.3914C219.08 43.3914 219.183 43.3914 219.291 43.3854C215.321 43.2113 212.157 39.6504 212.157 35.2909Z" fill="url(#paint52_linear_6469_1135)"/>
<path d="M220.524 27.1964C216.555 27.3706 213.391 30.9314 213.391 35.2909C213.391 39.6504 216.555 43.2113 220.524 43.3854C220.422 43.3854 220.32 43.3914 220.212 43.3914C216.105 43.3914 212.772 39.7645 212.772 35.2909C212.772 30.8173 216.105 27.1904 220.212 27.1904C220.314 27.1904 220.422 27.1904 220.524 27.1964Z" fill="url(#paint53_linear_6469_1135)"/>
<path d="M214.634 35.2909C214.634 30.9314 217.798 27.3706 221.768 27.1964C221.666 27.1964 221.564 27.1904 221.455 27.1904C217.342 27.1904 214.015 30.8173 214.015 35.2909C214.015 39.7645 217.348 43.3914 221.455 43.3914C221.557 43.3914 221.66 43.3914 221.768 43.3854C217.798 43.2113 214.634 39.6504 214.634 35.2909Z" fill="url(#paint54_linear_6469_1135)"/>
<path d="M223.011 27.1964C219.042 27.3706 215.877 30.9314 215.877 35.2909C215.877 39.6504 219.042 43.2113 223.011 43.3854C222.909 43.3854 222.807 43.3914 222.699 43.3914C218.591 43.3914 215.259 39.7645 215.259 35.2909C215.259 30.8173 218.591 27.1904 222.699 27.1904C222.801 27.1904 222.903 27.1904 223.011 27.1964Z" fill="url(#paint55_linear_6469_1135)"/>
<path d="M217.116 35.2909C217.116 30.9314 220.28 27.3706 224.249 27.1964C224.147 27.1964 224.045 27.1904 223.937 27.1904C219.824 27.1904 216.497 30.8173 216.497 35.2909C216.497 39.7645 219.83 43.3914 223.937 43.3914C224.039 43.3914 224.141 43.3914 224.249 43.3854C220.28 43.2113 217.116 39.6504 217.116 35.2909Z" fill="url(#paint56_linear_6469_1135)"/>
<path d="M225.493 27.1964C221.523 27.3706 218.359 30.9314 218.359 35.2909C218.359 39.6504 221.523 43.2113 225.493 43.3854C225.39 43.3854 225.288 43.3914 225.18 43.3914C221.067 43.3914 217.74 39.7645 217.74 35.2909C217.74 30.8173 221.073 27.1904 225.18 27.1904C225.282 27.1904 225.384 27.1904 225.493 27.1964Z" fill="url(#paint57_linear_6469_1135)"/>
<path d="M219.602 35.2909C219.602 30.9314 222.767 27.3706 226.736 27.1964C226.634 27.1964 226.532 27.1904 226.423 27.1904C222.316 27.1904 218.983 30.8173 218.983 35.2909C218.983 39.7645 222.316 43.3914 226.423 43.3914C226.526 43.3914 226.634 43.3914 226.736 43.3854C222.767 43.2113 219.602 39.6504 219.602 35.2909Z" fill="url(#paint58_linear_6469_1135)"/>
<path d="M227.974 27.1964C224.005 27.3706 220.84 30.9314 220.84 35.2909C220.84 39.6504 224.005 43.2113 227.974 43.3854C227.872 43.3854 227.77 43.3914 227.662 43.3914C223.549 43.3914 220.222 39.7645 220.222 35.2909C220.222 30.8173 223.555 27.1904 227.662 27.1904C227.764 27.1904 227.866 27.1904 227.974 27.1964Z" fill="url(#paint59_linear_6469_1135)"/>
<path d="M222.084 35.2909C222.084 30.9314 225.248 27.3706 229.217 27.1964C229.115 27.1964 229.013 27.1904 228.905 27.1904C224.798 27.1904 221.465 30.8173 221.465 35.2909C221.465 39.7645 224.798 43.3914 228.905 43.3914C229.007 43.3914 229.115 43.3914 229.217 43.3854C225.248 43.2113 222.084 39.6504 222.084 35.2909Z" fill="url(#paint60_linear_6469_1135)"/>
<path d="M230.451 27.1964C226.482 27.3706 223.317 30.9314 223.317 35.2909C223.317 39.6504 226.482 43.2113 230.451 43.3854C230.349 43.3854 230.247 43.3914 230.139 43.3914C226.026 43.3914 222.699 39.7645 222.699 35.2909C222.699 30.8173 226.032 27.1904 230.139 27.1904C230.241 27.1904 230.343 27.1904 230.451 27.1964Z" fill="url(#paint61_linear_6469_1135)"/>
<path d="M224.561 35.2909C224.561 30.9314 227.725 27.3706 231.694 27.1964C231.592 27.1964 231.49 27.1904 231.382 27.1904C227.269 27.1904 223.942 30.8173 223.942 35.2909C223.942 39.7645 227.275 43.3914 231.382 43.3914C231.484 43.3914 231.586 43.3914 231.694 43.3854C227.725 43.2113 224.561 39.6504 224.561 35.2909Z" fill="url(#paint62_linear_6469_1135)"/>
<path d="M233.036 20.2968C233.036 15.9373 229.823 12.3764 225.8 12.2023C225.902 12.2023 226.01 12.1963 226.112 12.1963C230.285 12.1963 233.666 15.8232 233.666 20.2968C233.666 24.7704 230.285 28.3973 226.112 28.3973C226.004 28.3973 225.902 28.3973 225.8 28.3913C229.823 28.2171 233.036 24.6563 233.036 20.2968Z" fill="url(#paint63_linear_6469_1135)"/>
<path d="M231.774 20.2968C231.774 15.9373 228.561 12.3764 224.538 12.2023C224.64 12.2023 224.748 12.1963 224.85 12.1963C229.024 12.1963 232.404 15.8232 232.404 20.2968C232.404 24.7704 229.024 28.3973 224.85 28.3973C224.742 28.3973 224.64 28.3973 224.538 28.3913C228.561 28.2171 231.774 24.6563 231.774 20.2968Z" fill="url(#paint64_linear_6469_1135)"/>
<path d="M223.276 12.1964C227.299 12.3706 230.512 15.9314 230.512 20.2909C230.512 24.6504 227.299 28.2113 223.276 28.3854C223.378 28.3854 223.486 28.3914 223.588 28.3914C227.762 28.3914 231.142 24.7645 231.142 20.2909C231.142 15.8173 227.762 12.1904 223.588 12.1904C223.48 12.1904 223.378 12.1904 223.276 12.1964Z" fill="url(#paint65_linear_6469_1135)"/>
<path d="M229.259 20.2968C229.259 15.9373 226.047 12.3764 222.023 12.2023C222.132 12.2023 222.234 12.1963 222.342 12.1963C226.515 12.1963 229.896 15.8232 229.896 20.2968C229.896 24.7704 226.515 28.3973 222.342 28.3973C222.234 28.3973 222.132 28.3973 222.023 28.3913C226.047 28.2171 229.259 24.6563 229.259 20.2968Z" fill="url(#paint66_linear_6469_1135)"/>
<path d="M220.761 12.1964C224.785 12.3706 227.997 15.9314 227.997 20.2909C227.997 24.6504 224.785 28.2113 220.761 28.3854C220.864 28.3854 220.972 28.3914 221.074 28.3914C225.247 28.3914 228.628 24.7645 228.628 20.2909C228.628 15.8173 225.247 12.1904 221.074 12.1904C220.966 12.1904 220.864 12.1904 220.761 12.1964Z" fill="url(#paint67_linear_6469_1135)"/>
<path d="M226.74 20.2968C226.74 15.9373 223.527 12.3764 219.504 12.2023C219.606 12.2023 219.714 12.1963 219.816 12.1963C223.99 12.1963 227.371 15.8232 227.371 20.2968C227.371 24.7704 223.99 28.3973 219.816 28.3973C219.708 28.3973 219.606 28.3973 219.504 28.3913C223.527 28.2171 226.74 24.6563 226.74 20.2968Z" fill="url(#paint68_linear_6469_1135)"/>
<path d="M218.242 12.1964C222.265 12.3706 225.478 15.9314 225.478 20.2909C225.478 24.6504 222.265 28.2113 218.242 28.3854C218.344 28.3854 218.452 28.3914 218.554 28.3914C222.728 28.3914 226.109 24.7645 226.109 20.2909C226.109 15.8173 222.728 12.1904 218.554 12.1904C218.446 12.1904 218.344 12.1904 218.242 12.1964Z" fill="url(#paint69_linear_6469_1135)"/>
<path d="M224.221 20.2968C224.221 15.9373 221.008 12.3764 216.985 12.2023C217.087 12.2023 217.195 12.1963 217.297 12.1963C221.471 12.1963 224.851 15.8232 224.851 20.2968C224.851 24.7704 221.471 28.3973 217.297 28.3973C217.189 28.3973 217.087 28.3973 216.985 28.3913C221.008 28.2171 224.221 24.6563 224.221 20.2968Z" fill="url(#paint70_linear_6469_1135)"/>
<path d="M215.728 12.1964C219.751 12.3706 222.964 15.9314 222.964 20.2909C222.964 24.6504 219.751 28.2113 215.728 28.3854C215.83 28.3854 215.938 28.3914 216.04 28.3914C220.213 28.3914 223.594 24.7645 223.594 20.2909C223.594 15.8173 220.213 12.1904 216.04 12.1904C215.932 12.1904 215.83 12.1904 215.728 12.1964Z" fill="url(#paint71_linear_6469_1135)"/>
<path d="M221.702 20.2968C221.702 15.9373 218.489 12.3764 214.466 12.2023C214.568 12.2023 214.676 12.1963 214.778 12.1963C218.951 12.1963 222.332 15.8232 222.332 20.2968C222.332 24.7704 218.951 28.3973 214.778 28.3973C214.67 28.3973 214.568 28.3973 214.466 28.3913C218.489 28.2171 221.702 24.6563 221.702 20.2968Z" fill="url(#paint72_linear_6469_1135)"/>
<path d="M213.209 12.1964C217.232 12.3706 220.444 15.9314 220.444 20.2909C220.444 24.6504 217.232 28.2113 213.209 28.3854C213.311 28.3854 213.419 28.3914 213.521 28.3914C217.694 28.3914 221.075 24.7645 221.075 20.2909C221.075 15.8173 217.694 12.1904 213.521 12.1904C213.413 12.1904 213.311 12.1904 213.209 12.1964Z" fill="url(#paint73_linear_6469_1135)"/>
<path d="M219.187 20.2968C219.187 15.9373 215.975 12.3764 211.951 12.2023C212.053 12.2023 212.161 12.1963 212.264 12.1963C216.437 12.1963 219.818 15.8232 219.818 20.2968C219.818 24.7704 216.437 28.3973 212.264 28.3973C212.155 28.3973 212.053 28.3973 211.951 28.3913C215.975 28.2171 219.187 24.6563 219.187 20.2968Z" fill="url(#paint74_linear_6469_1135)"/>
</g>
<g opacity="0.1">
<path d="M227.604 4.7626C227.604 0.403107 230.769 -3.15774 234.738 -3.33188C234.636 -3.33188 234.534 -3.33789 234.426 -3.33789C230.319 -3.33789 226.986 0.289016 226.986 4.7626C226.986 9.23619 230.319 12.8631 234.426 12.8631C234.528 12.8631 234.636 12.8631 234.738 12.8571C230.769 12.683 227.604 9.1221 227.604 4.7626Z" fill="url(#paint75_linear_6469_1135)"/>
<path d="M228.848 4.7626C228.848 0.403107 232.012 -3.15774 235.981 -3.33188C235.879 -3.33188 235.777 -3.33789 235.669 -3.33789C231.556 -3.33789 228.229 0.289016 228.229 4.7626C228.229 9.23619 231.562 12.8631 235.669 12.8631C235.771 12.8631 235.873 12.8631 235.981 12.8571C232.012 12.683 228.848 9.1221 228.848 4.7626Z" fill="url(#paint76_linear_6469_1135)"/>
<path d="M237.22 -3.33188C233.251 -3.15774 230.086 0.403107 230.086 4.7626C230.086 9.1221 233.251 12.683 237.22 12.8571C237.118 12.8571 237.016 12.8631 236.908 12.8631C232.8 12.8631 229.468 9.23619 229.468 4.7626C229.468 0.289016 232.8 -3.33789 236.908 -3.33789C237.01 -3.33789 237.118 -3.33789 237.22 -3.33188Z" fill="url(#paint77_linear_6469_1135)"/>
<path d="M231.329 4.7626C231.329 0.403107 234.494 -3.15774 238.463 -3.33188C238.361 -3.33188 238.259 -3.33789 238.151 -3.33789C234.038 -3.33789 230.711 0.289016 230.711 4.7626C230.711 9.23619 234.044 12.8631 238.151 12.8631C238.253 12.8631 238.355 12.8631 238.463 12.8571C234.494 12.683 231.329 9.1221 231.329 4.7626Z" fill="url(#paint78_linear_6469_1135)"/>
<path d="M239.697 -3.33188C235.728 -3.15774 232.563 0.403107 232.563 4.7626C232.563 9.1221 235.728 12.683 239.697 12.8571C239.595 12.8571 239.493 12.8631 239.385 12.8631C235.277 12.8631 231.945 9.23619 231.945 4.7626C231.945 0.289016 235.277 -3.33789 239.385 -3.33789C239.487 -3.33789 239.589 -3.33789 239.697 -3.33188Z" fill="url(#paint79_linear_6469_1135)"/>
<path d="M233.806 4.7626C233.806 0.403107 236.971 -3.15774 240.94 -3.33188C240.838 -3.33188 240.736 -3.33789 240.628 -3.33789C236.515 -3.33789 233.188 0.289016 233.188 4.7626C233.188 9.23619 236.521 12.8631 240.628 12.8631C240.73 12.8631 240.832 12.8631 240.94 12.8571C236.971 12.683 233.806 9.1221 233.806 4.7626Z" fill="url(#paint80_linear_6469_1135)"/>
<path d="M242.179 -3.33188C238.209 -3.15774 235.045 0.403107 235.045 4.7626C235.045 9.1221 238.209 12.683 242.179 12.8571C242.077 12.8571 241.974 12.8631 241.866 12.8631C237.753 12.8631 234.426 9.23619 234.426 4.7626C234.426 0.289016 237.759 -3.33789 241.866 -3.33789C241.968 -3.33789 242.071 -3.33789 242.179 -3.33188Z" fill="url(#paint81_linear_6469_1135)"/>
<path d="M236.288 4.7626C236.288 0.403107 239.453 -3.15774 243.422 -3.33188C243.32 -3.33188 243.218 -3.33789 243.11 -3.33789C239.002 -3.33789 235.67 0.289016 235.67 4.7626C235.67 9.23619 239.002 12.8631 243.11 12.8631C243.212 12.8631 243.32 12.8631 243.422 12.8571C239.453 12.683 236.288 9.1221 236.288 4.7626Z" fill="url(#paint82_linear_6469_1135)"/>
<path d="M244.66 -3.33188C240.691 -3.15774 237.527 0.403107 237.527 4.7626C237.527 9.1221 240.691 12.683 244.66 12.8571C244.558 12.8571 244.456 12.8631 244.348 12.8631C240.235 12.8631 236.908 9.23619 236.908 4.7626C236.908 0.289016 240.241 -3.33789 244.348 -3.33789C244.45 -3.33789 244.552 -3.33789 244.66 -3.33188Z" fill="url(#paint83_linear_6469_1135)"/>
<path d="M238.77 4.7626C238.77 0.403107 241.934 -3.15774 245.903 -3.33188C245.801 -3.33188 245.699 -3.33789 245.591 -3.33789C241.484 -3.33789 238.151 0.289016 238.151 4.7626C238.151 9.23619 241.484 12.8631 245.591 12.8631C245.693 12.8631 245.801 12.8631 245.903 12.8571C241.934 12.683 238.77 9.1221 238.77 4.7626Z" fill="url(#paint84_linear_6469_1135)"/>
<path d="M247.137 -3.33188C243.168 -3.15774 240.004 0.403107 240.004 4.7626C240.004 9.1221 243.168 12.683 247.137 12.8571C247.035 12.8571 246.933 12.8631 246.825 12.8631C242.712 12.8631 239.385 9.23619 239.385 4.7626C239.385 0.289016 242.718 -3.33789 246.825 -3.33789C246.927 -3.33789 247.029 -3.33789 247.137 -3.33188Z" fill="url(#paint85_linear_6469_1135)"/>
<path d="M227.604 35.2909C227.604 30.9314 230.769 27.3706 234.738 27.1964C234.636 27.1964 234.534 27.1904 234.426 27.1904C230.319 27.1904 226.986 30.8173 226.986 35.2909C226.986 39.7645 230.319 43.3914 234.426 43.3914C234.528 43.3914 234.636 43.3914 234.738 43.3854C230.769 43.2113 227.604 39.6504 227.604 35.2909Z" fill="url(#paint86_linear_6469_1135)"/>
<path d="M228.848 35.2909C228.848 30.9314 232.012 27.3706 235.981 27.1964C235.879 27.1964 235.777 27.1904 235.669 27.1904C231.556 27.1904 228.229 30.8173 228.229 35.2909C228.229 39.7645 231.562 43.3914 235.669 43.3914C235.771 43.3914 235.873 43.3914 235.981 43.3854C232.012 43.2113 228.848 39.6504 228.848 35.2909Z" fill="url(#paint87_linear_6469_1135)"/>
<path d="M237.22 27.1964C233.251 27.3706 230.086 30.9314 230.086 35.2909C230.086 39.6504 233.251 43.2113 237.22 43.3854C237.118 43.3854 237.016 43.3914 236.908 43.3914C232.8 43.3914 229.468 39.7645 229.468 35.2909C229.468 30.8173 232.8 27.1904 236.908 27.1904C237.01 27.1904 237.118 27.1904 237.22 27.1964Z" fill="url(#paint88_linear_6469_1135)"/>
<path d="M231.329 35.2909C231.329 30.9314 234.494 27.3706 238.463 27.1964C238.361 27.1964 238.259 27.1904 238.151 27.1904C234.038 27.1904 230.711 30.8173 230.711 35.2909C230.711 39.7645 234.044 43.3914 238.151 43.3914C238.253 43.3914 238.355 43.3914 238.463 43.3854C234.494 43.2113 231.329 39.6504 231.329 35.2909Z" fill="url(#paint89_linear_6469_1135)"/>
<path d="M239.697 27.1964C235.728 27.3706 232.563 30.9314 232.563 35.2909C232.563 39.6504 235.728 43.2113 239.697 43.3854C239.595 43.3854 239.493 43.3914 239.385 43.3914C235.277 43.3914 231.945 39.7645 231.945 35.2909C231.945 30.8173 235.277 27.1904 239.385 27.1904C239.487 27.1904 239.589 27.1904 239.697 27.1964Z" fill="url(#paint90_linear_6469_1135)"/>
<path d="M233.806 35.2909C233.806 30.9314 236.971 27.3706 240.94 27.1964C240.838 27.1964 240.736 27.1904 240.628 27.1904C236.515 27.1904 233.188 30.8173 233.188 35.2909C233.188 39.7645 236.521 43.3914 240.628 43.3914C240.73 43.3914 240.832 43.3914 240.94 43.3854C236.971 43.2113 233.806 39.6504 233.806 35.2909Z" fill="url(#paint91_linear_6469_1135)"/>
<path d="M242.179 27.1964C238.209 27.3706 235.045 30.9314 235.045 35.2909C235.045 39.6504 238.209 43.2113 242.179 43.3854C242.077 43.3854 241.974 43.3914 241.866 43.3914C237.753 43.3914 234.426 39.7645 234.426 35.2909C234.426 30.8173 237.759 27.1904 241.866 27.1904C241.968 27.1904 242.071 27.1904 242.179 27.1964Z" fill="url(#paint92_linear_6469_1135)"/>
<path d="M236.288 35.2909C236.288 30.9314 239.453 27.3706 243.422 27.1964C243.32 27.1964 243.218 27.1904 243.11 27.1904C239.002 27.1904 235.67 30.8173 235.67 35.2909C235.67 39.7645 239.002 43.3914 243.11 43.3914C243.212 43.3914 243.32 43.3914 243.422 43.3854C239.453 43.2113 236.288 39.6504 236.288 35.2909Z" fill="url(#paint93_linear_6469_1135)"/>
<path d="M244.66 27.1964C240.691 27.3706 237.527 30.9314 237.527 35.2909C237.527 39.6504 240.691 43.2113 244.66 43.3854C244.558 43.3854 244.456 43.3914 244.348 43.3914C240.235 43.3914 236.908 39.7645 236.908 35.2909C236.908 30.8173 240.241 27.1904 244.348 27.1904C244.45 27.1904 244.552 27.1904 244.66 27.1964Z" fill="url(#paint94_linear_6469_1135)"/>
<path d="M238.77 35.2909C238.77 30.9314 241.934 27.3706 245.903 27.1964C245.801 27.1964 245.699 27.1904 245.591 27.1904C241.484 27.1904 238.151 30.8173 238.151 35.2909C238.151 39.7645 241.484 43.3914 245.591 43.3914C245.693 43.3914 245.801 43.3914 245.903 43.3854C241.934 43.2113 238.77 39.6504 238.77 35.2909Z" fill="url(#paint95_linear_6469_1135)"/>
<path d="M247.137 27.1964C243.168 27.3706 240.004 30.9314 240.004 35.2909C240.004 39.6504 243.168 43.2113 247.137 43.3854C247.035 43.3854 246.933 43.3914 246.825 43.3914C242.712 43.3914 239.385 39.7645 239.385 35.2909C239.385 30.8173 242.718 27.1904 246.825 27.1904C246.927 27.1904 247.029 27.1904 247.137 27.1964Z" fill="url(#paint96_linear_6469_1135)"/>
<path d="M245.945 20.2968C245.945 15.9373 242.733 12.3764 238.71 12.2023C238.818 12.2023 238.92 12.1963 239.028 12.1963C243.201 12.1963 246.582 15.8232 246.582 20.2968C246.582 24.7704 243.201 28.3973 239.028 28.3973C238.92 28.3973 238.818 28.3973 238.71 28.3913C242.733 28.2171 245.945 24.6563 245.945 20.2968Z" fill="url(#paint97_linear_6469_1135)"/>
<path d="M237.448 12.1964C241.471 12.3706 244.683 15.9314 244.683 20.2909C244.683 24.6504 241.471 28.2113 237.448 28.3854C237.55 28.3854 237.658 28.3914 237.76 28.3914C241.933 28.3914 245.314 24.7645 245.314 20.2909C245.314 15.8173 241.933 12.1904 237.76 12.1904C237.652 12.1904 237.55 12.1904 237.448 12.1964Z" fill="url(#paint98_linear_6469_1135)"/>
<path d="M243.426 20.2968C243.426 15.9373 240.214 12.3764 236.19 12.2023C236.292 12.2023 236.4 12.1963 236.503 12.1963C240.676 12.1963 244.057 15.8232 244.057 20.2968C244.057 24.7704 240.676 28.3973 236.503 28.3973C236.394 28.3973 236.292 28.3973 236.19 28.3913C240.214 28.2171 243.426 24.6563 243.426 20.2968Z" fill="url(#paint99_linear_6469_1135)"/>
<path d="M234.928 12.1964C238.952 12.3706 242.164 15.9314 242.164 20.2909C242.164 24.6504 238.952 28.2113 234.928 28.3854C235.03 28.3854 235.139 28.3914 235.241 28.3914C239.414 28.3914 242.795 24.7645 242.795 20.2909C242.795 15.8173 239.414 12.1904 235.241 12.1904C235.133 12.1904 235.03 12.1904 234.928 12.1964Z" fill="url(#paint100_linear_6469_1135)"/>
<path d="M240.912 20.2968C240.912 15.9373 237.699 12.3764 233.676 12.2023C233.778 12.2023 233.886 12.1963 233.988 12.1963C238.161 12.1963 241.542 15.8232 241.542 20.2968C241.542 24.7704 238.161 28.3973 233.988 28.3973C233.88 28.3973 233.778 28.3973 233.676 28.3913C237.699 28.2171 240.912 24.6563 240.912 20.2968Z" fill="url(#paint101_linear_6469_1135)"/>
<path d="M232.414 12.1964C236.437 12.3706 239.65 15.9314 239.65 20.2909C239.65 24.6504 236.437 28.2113 232.414 28.3854C232.516 28.3854 232.624 28.3914 232.726 28.3914C236.899 28.3914 240.28 24.7645 240.28 20.2909C240.28 15.8173 236.899 12.1904 232.726 12.1904C232.618 12.1904 232.516 12.1904 232.414 12.1964Z" fill="url(#paint102_linear_6469_1135)"/>
<path d="M238.397 20.2968C238.397 15.9373 235.184 12.3764 231.161 12.2023C231.263 12.2023 231.371 12.1963 231.473 12.1963C235.647 12.1963 239.028 15.8232 239.028 20.2968C239.028 24.7704 235.647 28.3973 231.473 28.3973C231.365 28.3973 231.263 28.3973 231.161 28.3913C235.184 28.2171 238.397 24.6563 238.397 20.2968Z" fill="url(#paint103_linear_6469_1135)"/>
<path d="M229.899 12.1964C233.923 12.3706 237.135 15.9314 237.135 20.2909C237.135 24.6504 233.923 28.2113 229.899 28.3854C230.001 28.3854 230.109 28.3914 230.212 28.3914C234.385 28.3914 237.766 24.7645 237.766 20.2909C237.766 15.8173 234.385 12.1904 230.212 12.1904C230.103 12.1904 230.001 12.1904 229.899 12.1964Z" fill="url(#paint104_linear_6469_1135)"/>
<path d="M235.873 20.2968C235.873 15.9373 232.661 12.3764 228.637 12.2023C228.739 12.2023 228.848 12.1963 228.95 12.1963C233.123 12.1963 236.504 15.8232 236.504 20.2968C236.504 24.7704 233.123 28.3973 228.95 28.3973C228.842 28.3973 228.739 28.3973 228.637 28.3913C232.661 28.2171 235.873 24.6563 235.873 20.2968Z" fill="url(#paint105_linear_6469_1135)"/>
</g>
</g>
<path d="M232.818 -21.2822H203.611C200.155 -21.2822 197.354 -18.4809 197.354 -15.0252V22.5289C197.354 25.9846 200.155 28.7859 203.611 28.7859H232.818C236.274 28.7859 239.075 25.9846 239.075 22.5289V-15.0252C239.075 -18.4809 236.274 -21.2822 232.818 -21.2822Z" stroke="#EAF4F4"/>
<path d="M232.819 35.877H203.618C199.93 35.877 196.941 38.8665 196.941 42.5543V80.1024C196.941 83.7902 199.93 86.7798 203.618 86.7798H232.819C236.507 86.7798 239.497 83.7902 239.497 80.1024V42.5543C239.497 38.8665 236.507 35.877 232.819 35.877Z" fill="url(#paint106_linear_6469_1135)"/>
<path d="M232.818 36.2969H203.611C200.155 36.2969 197.354 39.0982 197.354 42.5539V80.108C197.354 83.5637 200.155 86.365 203.611 86.365H232.818C236.274 86.365 239.075 83.5637 239.075 80.108V42.5539C239.075 39.0982 236.274 36.2969 232.818 36.2969Z" stroke="#00A78A"/>
<mask id="mask8_6469_1135" style="mask-type:luminance" maskUnits="userSpaceOnUse" x="211" y="51" width="15" height="15">
<path d="M224.812 52.2349V64.5835H212.463V52.2349H224.812Z" fill="white" stroke="white"/>
</mask>
<g mask="url(#mask8_6469_1135)">
<path d="M218.635 52.8467V55.0745" stroke="#00A78A" stroke-width="1.33" stroke-linecap="round" stroke-linejoin="round"/>
<path d="M218.635 61.7461V63.9739" stroke="#00A78A" stroke-width="1.33" stroke-linecap="round" stroke-linejoin="round"/>
<path d="M214.699 54.4805L216.273 56.0537" stroke="#00A78A" stroke-width="1.33" stroke-linecap="round" stroke-linejoin="round"/>
<path d="M220.995 60.7666L222.568 62.3399" stroke="#00A78A" stroke-width="1.33" stroke-linecap="round" stroke-linejoin="round"/>
<path d="M213.067 58.4131H215.295" stroke="#00A78A" stroke-width="1.33" stroke-linecap="round" stroke-linejoin="round"/>
<path d="M221.971 58.4131H224.199" stroke="#00A78A" stroke-width="1.33" stroke-linecap="round" stroke-linejoin="round"/>
<path d="M214.699 62.3457L216.273 60.7725" stroke="#00A78A" stroke-width="1.33" stroke-linecap="round" stroke-linejoin="round"/>
<path d="M220.995 56.0537L222.568 54.4805" stroke="#00A78A" stroke-width="1.33" stroke-linecap="round" stroke-linejoin="round"/>
</g>
<mask id="mask9_6469_1135" style="mask-type:luminance" maskUnits="userSpaceOnUse" x="0" y="-41" width="43" height="63">
<path d="M35.8788 -40.0625H6.67736C2.98956 -40.0625 0 -37.0729 0 -33.3851V15.0137C0 18.7015 2.98956 21.691 6.67736 21.691H35.8788C39.5666 21.691 42.5561 18.7015 42.5561 15.0137V-33.3851C42.5561 -37.0729 39.5666 -40.0625 35.8788 -40.0625Z" fill="white"/>
</mask>
<g mask="url(#mask9_6469_1135)">
<path d="M35.8788 -40.0635H6.67736C2.98956 -40.0635 0 -37.0739 0 -33.3861V15.0127C0 18.7005 2.98956 21.69 6.67736 21.69H35.8788C39.5666 21.69 42.5561 18.7005 42.5561 15.0127V-33.3861C42.5561 -37.0739 39.5666 -40.0635 35.8788 -40.0635Z" fill="white"/>
<g opacity="0.1">
<path d="M12.5185 12.6113L19.0577 16.3944V23.5041L12.5185 19.721V12.6113Z" fill="url(#paint107_linear_6469_1135)"/>
<path d="M19.0534 16.3944L25.5927 12.6113V19.721L19.0534 23.5041V16.3944Z" fill="url(#paint108_linear_6469_1135)"/>
<path d="M12.5185 12.5568L19.0577 8.77376V1.66406L12.5185 5.44709V12.5568Z" fill="url(#paint109_linear_6469_1135)"/>
<path d="M19.0534 8.77376L25.5927 12.5568V5.44709L19.0534 1.66406V8.77376Z" fill="url(#paint110_linear_6469_1135)"/>
<path d="M25.593 12.6113L32.1323 16.3944V23.5041L25.593 19.721V12.6113Z" fill="url(#paint111_linear_6469_1135)"/>
<path d="M32.128 16.3944L38.6672 12.6113V19.721L32.128 23.5041V16.3944Z" fill="url(#paint112_linear_6469_1135)"/>
<path d="M25.593 12.5568L32.1323 8.77376V1.66406L25.593 5.44709V12.5568Z" fill="url(#paint113_linear_6469_1135)"/>
<path d="M32.128 8.77376L38.6672 12.5568V5.44709L32.128 1.66406V8.77376Z" fill="url(#paint114_linear_6469_1135)"/>
<path d="M38.6629 12.6113L45.2022 16.3944V23.5041L38.6629 19.721V12.6113Z" fill="url(#paint115_linear_6469_1135)"/>
<path d="M38.6629 12.5568L45.2022 8.77376V1.66406L38.6629 5.44709V12.5568Z" fill="url(#paint116_linear_6469_1135)"/>
</g>
</g>
<path d="M35.8866 -39.6406H6.67923C3.22357 -39.6406 0.422211 -36.8393 0.422211 -33.3836V15.0212C0.422211 18.4768 3.22357 21.2782 6.67923 21.2782H35.8866C39.3423 21.2782 42.1437 18.4768 42.1437 15.0212V-33.3836C42.1437 -36.8393 39.3423 -39.6406 35.8866 -39.6406Z" stroke="#BDC9CC"/>
<path d="M35.8788 28.3701H6.67736C2.98956 28.3701 0 31.3597 0 35.0475V80.1076C0 83.7954 2.98956 86.785 6.67736 86.785H35.8788C39.5666 86.785 42.5561 83.7954 42.5561 80.1076V35.0475C42.5561 31.3597 39.5666 28.3701 35.8788 28.3701Z" fill="url(#paint117_linear_6469_1135)"/>
<path d="M35.8866 28.7842H6.67923C3.22357 28.7842 0.422211 31.5855 0.422211 35.0412V80.1073C0.422211 83.563 3.22357 86.3643 6.67923 86.3643H35.8866C39.3423 86.3643 42.1437 83.563 42.1437 80.1073V35.0412C42.1437 31.5855 39.3423 28.7842 35.8866 28.7842Z" stroke="#00A78A"/>
<mask id="mask10_6469_1135" style="mask-type:luminance" maskUnits="userSpaceOnUse" x="15" y="47" width="14" height="14">
<path d="M28.3802 47.562H15.0315V60.9107H28.3802V47.562Z" fill="white"/>
</mask>
<g mask="url(#mask10_6469_1135)">
<path d="M21.6944 48.6719V50.8997" stroke="#00A78B" stroke-width="1.33" stroke-linecap="round" stroke-linejoin="round"/>
<path d="M21.6944 57.5771V59.8049" stroke="#00A78B" stroke-width="1.33" stroke-linecap="round" stroke-linejoin="round"/>
<path d="M17.7631 50.3057L19.3364 51.8789" stroke="#00A78B" stroke-width="1.33" stroke-linecap="round" stroke-linejoin="round"/>
<path d="M24.0541 56.5977L25.6274 58.1709" stroke="#00A78B" stroke-width="1.33" stroke-linecap="round" stroke-linejoin="round"/>
<path d="M16.1353 54.2383H18.363" stroke="#00A78B" stroke-width="1.33" stroke-linecap="round" stroke-linejoin="round"/>
<path d="M25.0346 54.2383H27.2624" stroke="#00A78B" stroke-width="1.33" stroke-linecap="round" stroke-linejoin="round"/>
<path d="M17.7631 58.1709L19.3364 56.5977" stroke="#00A78B" stroke-width="1.33" stroke-linecap="round" stroke-linejoin="round"/>
<path d="M24.0541 51.8789L25.6274 50.3057" stroke="#00A78B" stroke-width="1.33" stroke-linecap="round" stroke-linejoin="round"/>
</g>
</g>
<defs>
<linearGradient id="paint0_linear_6469_1135" x1="70.5162" y1="-45.0625" x2="70.5162" y2="16.685" gradientUnits="userSpaceOnUse">
<stop stop-color="#00A78A" stop-opacity="0.42"/>
<stop offset="1" stop-color="#00A78A"/>
</linearGradient>
<linearGradient id="paint1_linear_6469_1135" x1="85.3116" y1="75.0577" x2="70.744" y2="49.8315" gradientUnits="userSpaceOnUse">
<stop stop-color="#384245"/>
<stop offset="1" stop-color="white"/>
</linearGradient>
<linearGradient id="paint2_linear_6469_1135" x1="91.1183" y1="75.2979" x2="62.9797" y2="47.6697" gradientUnits="userSpaceOnUse">
<stop/>
<stop offset="1" stop-color="#181818" stop-opacity="0"/>
</linearGradient>
<linearGradient id="paint3_linear_6469_1135" x1="82.7776" y1="61.2523" x2="72.3232" y2="103.202" gradientUnits="userSpaceOnUse">
<stop stop-color="white"/>
<stop offset="1" stop-color="#384245"/>
</linearGradient>
<linearGradient id="paint4_linear_6469_1135" x1="140.187" y1="6.72879" x2="140.187" y2="36.6568" gradientUnits="userSpaceOnUse">
<stop stop-color="white"/>
<stop offset="1" stop-color="#BDC9CC"/>
</linearGradient>
<linearGradient id="paint5_linear_6469_1135" x1="194.693" y1="8.39773" x2="195.293" y2="38.3257" gradientUnits="userSpaceOnUse">
<stop stop-color="white"/>
<stop offset="1" stop-color="#BDC9CC"/>
</linearGradient>
<linearGradient id="paint6_linear_6469_1135" x1="194.693" y1="10.0681" x2="195.293" y2="39.9961" gradientUnits="userSpaceOnUse">
<stop stop-color="white"/>
<stop offset="1" stop-color="#BDC9CC"/>
</linearGradient>
<linearGradient id="paint7_linear_6469_1135" x1="194.693" y1="11.7371" x2="195.293" y2="41.6591" gradientUnits="userSpaceOnUse">
<stop stop-color="white"/>
<stop offset="1" stop-color="#BDC9CC"/>
</linearGradient>
<linearGradient id="paint8_linear_6469_1135" x1="194.693" y1="13.406" x2="195.293" y2="43.328" gradientUnits="userSpaceOnUse">
<stop stop-color="white"/>
<stop offset="1" stop-color="#BDC9CC"/>
</linearGradient>
<linearGradient id="paint9_linear_6469_1135" x1="194.693" y1="15.076" x2="195.293" y2="44.9979" gradientUnits="userSpaceOnUse">
<stop stop-color="white"/>
<stop offset="1" stop-color="#BDC9CC"/>
</linearGradient>
<linearGradient id="paint10_linear_6469_1135" x1="194.693" y1="16.7449" x2="195.293" y2="46.6669" gradientUnits="userSpaceOnUse">
<stop stop-color="white"/>
<stop offset="1" stop-color="#BDC9CC"/>
</linearGradient>
<linearGradient id="paint11_linear_6469_1135" x1="194.693" y1="18.4148" x2="195.293" y2="48.3368" gradientUnits="userSpaceOnUse">
<stop stop-color="white"/>
<stop offset="1" stop-color="#BDC9CC"/>
</linearGradient>
<linearGradient id="paint12_linear_6469_1135" x1="194.693" y1="20.0839" x2="195.293" y2="50.0059" gradientUnits="userSpaceOnUse">
<stop stop-color="white"/>
<stop offset="1" stop-color="#BDC9CC"/>
</linearGradient>
<linearGradient id="paint13_linear_6469_1135" x1="194.693" y1="21.7529" x2="195.293" y2="51.6748" gradientUnits="userSpaceOnUse">
<stop stop-color="white"/>
<stop offset="1" stop-color="#BDC9CC"/>
</linearGradient>
<linearGradient id="paint14_linear_6469_1135" x1="194.693" y1="23.4218" x2="195.293" y2="53.3438" gradientUnits="userSpaceOnUse">
<stop stop-color="white"/>
<stop offset="1" stop-color="#BDC9CC"/>
</linearGradient>
<linearGradient id="paint15_linear_6469_1135" x1="194.693" y1="25.0917" x2="195.293" y2="55.0137" gradientUnits="userSpaceOnUse">
<stop stop-color="white"/>
<stop offset="1" stop-color="#BDC9CC"/>
</linearGradient>
<linearGradient id="paint16_linear_6469_1135" x1="194.693" y1="26.7607" x2="195.293" y2="56.6827" gradientUnits="userSpaceOnUse">
<stop stop-color="white"/>
<stop offset="1" stop-color="#BDC9CC"/>
</linearGradient>
<linearGradient id="paint17_linear_6469_1135" x1="194.693" y1="28.4251" x2="195.293" y2="58.3531" gradientUnits="userSpaceOnUse">
<stop stop-color="white"/>
<stop offset="1" stop-color="#BDC9CC"/>
</linearGradient>
<linearGradient id="paint18_linear_6469_1135" x1="194.693" y1="30.094" x2="195.293" y2="60.022" gradientUnits="userSpaceOnUse">
<stop stop-color="white"/>
<stop offset="1" stop-color="#BDC9CC"/>
</linearGradient>
<linearGradient id="paint19_linear_6469_1135" x1="194.693" y1="68.4817" x2="195.293" y2="98.4037" gradientUnits="userSpaceOnUse">
<stop stop-color="white"/>
<stop offset="1" stop-color="#A0ADB2"/>
</linearGradient>
<linearGradient id="paint20_linear_6469_1135" x1="194.693" y1="70.1507" x2="195.293" y2="100.073" gradientUnits="userSpaceOnUse">
<stop stop-color="white"/>
<stop offset="1" stop-color="#A0ADB2"/>
</linearGradient>
<linearGradient id="paint21_linear_6469_1135" x1="194.693" y1="71.8211" x2="195.293" y2="101.743" gradientUnits="userSpaceOnUse">
<stop stop-color="white"/>
<stop offset="1" stop-color="#A0ADB2"/>
</linearGradient>
<linearGradient id="paint22_linear_6469_1135" x1="194.693" y1="73.4902" x2="195.293" y2="103.412" gradientUnits="userSpaceOnUse">
<stop stop-color="white"/>
<stop offset="1" stop-color="#A0ADB2"/>
</linearGradient>
<linearGradient id="paint23_linear_6469_1135" x1="194.693" y1="75.1591" x2="195.293" y2="105.081" gradientUnits="userSpaceOnUse">
<stop stop-color="white"/>
<stop offset="1" stop-color="#A0ADB2"/>
</linearGradient>
<linearGradient id="paint24_linear_6469_1135" x1="194.693" y1="76.829" x2="195.293" y2="106.751" gradientUnits="userSpaceOnUse">
<stop stop-color="white"/>
<stop offset="1" stop-color="#A0ADB2"/>
</linearGradient>
<linearGradient id="paint25_linear_6469_1135" x1="194.693" y1="78.498" x2="195.293" y2="108.42" gradientUnits="userSpaceOnUse">
<stop stop-color="white"/>
<stop offset="1" stop-color="#A0ADB2"/>
</linearGradient>
<linearGradient id="paint26_linear_6469_1135" x1="194.693" y1="80.1669" x2="195.293" y2="110.089" gradientUnits="userSpaceOnUse">
<stop stop-color="white"/>
<stop offset="1" stop-color="#A0ADB2"/>
</linearGradient>
<linearGradient id="paint27_linear_6469_1135" x1="194.693" y1="81.8308" x2="195.293" y2="111.759" gradientUnits="userSpaceOnUse">
<stop stop-color="white"/>
<stop offset="1" stop-color="#A0ADB2"/>
</linearGradient>
<linearGradient id="paint28_linear_6469_1135" x1="194.693" y1="83.4998" x2="195.293" y2="113.428" gradientUnits="userSpaceOnUse">
<stop stop-color="white"/>
<stop offset="1" stop-color="#A0ADB2"/>
</linearGradient>
<linearGradient id="paint29_linear_6469_1135" x1="194.693" y1="85.1687" x2="195.293" y2="115.097" gradientUnits="userSpaceOnUse">
<stop stop-color="white"/>
<stop offset="1" stop-color="#A0ADB2"/>
</linearGradient>
<radialGradient id="paint30_radial_6469_1135" cx="0" cy="0" r="1" gradientTransform="matrix(9.29248 27.8369 28.1773 -9.40615 189.769 56.9538)" gradientUnits="userSpaceOnUse">
<stop/>
<stop offset="1" stop-opacity="0"/>
</radialGradient>
<radialGradient id="paint31_radial_6469_1135" cx="0" cy="0" r="1" gradientUnits="userSpaceOnUse" gradientTransform="translate(-21574.1 7416.54) rotate(71.54) scale(29.347 29.7059)">
<stop/>
<stop offset="1" stop-opacity="0"/>
</radialGradient>
<radialGradient id="paint32_radial_6469_1135" cx="0" cy="0" r="1" gradientUnits="userSpaceOnUse" gradientTransform="translate(189.77 56.9539) rotate(71.54) scale(29.347 29.7059)">
<stop/>
<stop offset="1" stop-opacity="0"/>
</radialGradient>
<radialGradient id="paint33_radial_6469_1135" cx="0" cy="0" r="1" gradientUnits="userSpaceOnUse" gradientTransform="translate(189.769 56.9535) rotate(71.54) scale(29.347 29.7059)">
<stop/>
<stop offset="1" stop-opacity="0"/>
</radialGradient>
<radialGradient id="paint34_radial_6469_1135" cx="0" cy="0" r="1" gradientUnits="userSpaceOnUse" gradientTransform="translate(-21602.5 7331.62) rotate(71.54) scale(29.347 29.7059)">
<stop/>
<stop offset="1" stop-opacity="0"/>
</radialGradient>
<radialGradient id="paint35_radial_6469_1135" cx="0" cy="0" r="1" gradientUnits="userSpaceOnUse" gradientTransform="translate(-21602.5 7331.62) rotate(71.54) scale(29.347 29.7059)">
<stop/>
<stop offset="1" stop-opacity="0"/>
</radialGradient>
<radialGradient id="paint36_radial_6469_1135" cx="0" cy="0" r="1" gradientUnits="userSpaceOnUse" gradientTransform="translate(189.768 56.9541) rotate(71.54) scale(29.347 29.7059)">
<stop/>
<stop offset="1" stop-opacity="0"/>
</radialGradient>
<radialGradient id="paint37_radial_6469_1135" cx="0" cy="0" r="1" gradientUnits="userSpaceOnUse" gradientTransform="translate(189.855 110.491) rotate(71.54) scale(29.347 29.7059)">
<stop/>
<stop offset="1" stop-opacity="0"/>
</radialGradient>
<linearGradient id="paint38_linear_6469_1135" x1="168.981" y1="-35.8867" x2="168.981" y2="5.84073" gradientUnits="userSpaceOnUse">
<stop stop-color="#00A78A" stop-opacity="0.42"/>
<stop offset="1" stop-color="#00A78A"/>
</linearGradient>
<linearGradient id="paint39_linear_6469_1135" x1="214.173" y1="-3.33789" x2="214.173" y2="13.8779" gradientUnits="userSpaceOnUse">
<stop stop-color="#2F2F2F"/>
<stop offset="0.49" stop-color="white"/>
<stop offset="1" stop-color="#2F2F2F" stop-opacity="0"/>
</linearGradient>
<linearGradient id="paint40_linear_6469_1135" x1="215.412" y1="723.611" x2="215.412" y2="723.611" gradientUnits="userSpaceOnUse">
<stop stop-color="#2F2F2F"/>
<stop offset="0.49" stop-color="white"/>
<stop offset="1" stop-color="#2F2F2F" stop-opacity="0"/>
</linearGradient>
<linearGradient id="paint41_linear_6469_1135" x1="216.651" y1="723.611" x2="216.651" y2="723.611" gradientUnits="userSpaceOnUse">
<stop stop-color="#2F2F2F"/>
<stop offset="0.49" stop-color="white"/>
<stop offset="1" stop-color="#2F2F2F" stop-opacity="0"/>
</linearGradient>
<linearGradient id="paint42_linear_6469_1135" x1="217.889" y1="723.611" x2="217.889" y2="723.611" gradientUnits="userSpaceOnUse">
<stop stop-color="#2F2F2F"/>
<stop offset="0.49" stop-color="white"/>
<stop offset="1" stop-color="#2F2F2F" stop-opacity="0"/>
</linearGradient>
<linearGradient id="paint43_linear_6469_1135" x1="219.132" y1="723.611" x2="219.132" y2="723.611" gradientUnits="userSpaceOnUse">
<stop stop-color="#2F2F2F"/>
<stop offset="0.49" stop-color="white"/>
<stop offset="1" stop-color="#2F2F2F" stop-opacity="0"/>
</linearGradient>
<linearGradient id="paint44_linear_6469_1135" x1="220.376" y1="723.611" x2="220.376" y2="723.611" gradientUnits="userSpaceOnUse">
<stop stop-color="#2F2F2F"/>
<stop offset="0.49" stop-color="white"/>
<stop offset="1" stop-color="#2F2F2F" stop-opacity="0"/>
</linearGradient>
<linearGradient id="paint45_linear_6469_1135" x1="221.613" y1="723.611" x2="221.613" y2="723.611" gradientUnits="userSpaceOnUse">
<stop stop-color="#2F2F2F"/>
<stop offset="0.49" stop-color="white"/>
<stop offset="1" stop-color="#2F2F2F" stop-opacity="0"/>
</linearGradient>
<linearGradient id="paint46_linear_6469_1135" x1="222.857" y1="723.611" x2="222.857" y2="723.611" gradientUnits="userSpaceOnUse">
<stop stop-color="#2F2F2F"/>
<stop offset="0.49" stop-color="white"/>
<stop offset="1" stop-color="#2F2F2F" stop-opacity="0"/>
</linearGradient>
<linearGradient id="paint47_linear_6469_1135" x1="224.095" y1="723.611" x2="224.095" y2="723.611" gradientUnits="userSpaceOnUse">
<stop stop-color="#2F2F2F"/>
<stop offset="0.49" stop-color="white"/>
<stop offset="1" stop-color="#2F2F2F" stop-opacity="0"/>
</linearGradient>
<linearGradient id="paint48_linear_6469_1135" x1="225.338" y1="723.611" x2="225.338" y2="723.611" gradientUnits="userSpaceOnUse">
<stop stop-color="#2F2F2F"/>
<stop offset="0.49" stop-color="white"/>
<stop offset="1" stop-color="#2F2F2F" stop-opacity="0"/>
</linearGradient>
<linearGradient id="paint49_linear_6469_1135" x1="226.572" y1="723.611" x2="226.572" y2="723.611" gradientUnits="userSpaceOnUse">
<stop stop-color="#2F2F2F"/>
<stop offset="0.49" stop-color="white"/>
<stop offset="1" stop-color="#2F2F2F" stop-opacity="0"/>
</linearGradient>
<linearGradient id="paint50_linear_6469_1135" x1="227.815" y1="723.611" x2="227.815" y2="723.611" gradientUnits="userSpaceOnUse">
<stop stop-color="#2F2F2F"/>
<stop offset="0.49" stop-color="white"/>
<stop offset="1" stop-color="#2F2F2F" stop-opacity="0"/>
</linearGradient>
<linearGradient id="paint51_linear_6469_1135" x1="194.705" y1="27.1844" x2="195.306" y2="44.4062" gradientUnits="userSpaceOnUse">
<stop stop-color="#2F2F2F"/>
<stop offset="0.49" stop-color="white"/>
<stop offset="1" stop-color="#2F2F2F" stop-opacity="0"/>
</linearGradient>
<linearGradient id="paint52_linear_6469_1135" x1="215.412" y1="27.1844" x2="215.412" y2="44.4062" gradientUnits="userSpaceOnUse">
<stop stop-color="#2F2F2F"/>
<stop offset="0.49" stop-color="white"/>
<stop offset="1" stop-color="#2F2F2F" stop-opacity="0"/>
</linearGradient>
<linearGradient id="paint53_linear_6469_1135" x1="216.651" y1="27.1844" x2="216.651" y2="44.4062" gradientUnits="userSpaceOnUse">
<stop stop-color="#2F2F2F"/>
<stop offset="0.49" stop-color="white"/>
<stop offset="1" stop-color="#2F2F2F" stop-opacity="0"/>
</linearGradient>
<linearGradient id="paint54_linear_6469_1135" x1="217.889" y1="27.1844" x2="217.889" y2="44.4062" gradientUnits="userSpaceOnUse">
<stop stop-color="#2F2F2F"/>
<stop offset="0.49" stop-color="white"/>
<stop offset="1" stop-color="#2F2F2F" stop-opacity="0"/>
</linearGradient>
<linearGradient id="paint55_linear_6469_1135" x1="219.132" y1="27.1844" x2="219.132" y2="44.4062" gradientUnits="userSpaceOnUse">
<stop stop-color="#2F2F2F"/>
<stop offset="0.49" stop-color="white"/>
<stop offset="1" stop-color="#2F2F2F" stop-opacity="0"/>
</linearGradient>
<linearGradient id="paint56_linear_6469_1135" x1="220.376" y1="27.1844" x2="220.376" y2="44.4062" gradientUnits="userSpaceOnUse">
<stop stop-color="#2F2F2F"/>
<stop offset="0.49" stop-color="white"/>
<stop offset="1" stop-color="#2F2F2F" stop-opacity="0"/>
</linearGradient>
<linearGradient id="paint57_linear_6469_1135" x1="221.613" y1="27.1844" x2="221.613" y2="44.4062" gradientUnits="userSpaceOnUse">
<stop stop-color="#2F2F2F"/>
<stop offset="0.49" stop-color="white"/>
<stop offset="1" stop-color="#2F2F2F" stop-opacity="0"/>
</linearGradient>
<linearGradient id="paint58_linear_6469_1135" x1="222.857" y1="27.1844" x2="222.857" y2="44.4062" gradientUnits="userSpaceOnUse">
<stop stop-color="#2F2F2F"/>
<stop offset="0.49" stop-color="white"/>
<stop offset="1" stop-color="#2F2F2F" stop-opacity="0"/>
</linearGradient>
<linearGradient id="paint59_linear_6469_1135" x1="224.095" y1="27.1844" x2="224.095" y2="44.4062" gradientUnits="userSpaceOnUse">
<stop stop-color="#2F2F2F"/>
<stop offset="0.49" stop-color="white"/>
<stop offset="1" stop-color="#2F2F2F" stop-opacity="0"/>
</linearGradient>
<linearGradient id="paint60_linear_6469_1135" x1="225.338" y1="27.1844" x2="225.338" y2="44.4062" gradientUnits="userSpaceOnUse">
<stop stop-color="#2F2F2F"/>
<stop offset="0.49" stop-color="white"/>
<stop offset="1" stop-color="#2F2F2F" stop-opacity="0"/>
</linearGradient>
<linearGradient id="paint61_linear_6469_1135" x1="226.572" y1="27.1844" x2="226.572" y2="44.4062" gradientUnits="userSpaceOnUse">
<stop stop-color="#2F2F2F"/>
<stop offset="0.49" stop-color="white"/>
<stop offset="1" stop-color="#2F2F2F" stop-opacity="0"/>
</linearGradient>
<linearGradient id="paint62_linear_6469_1135" x1="227.815" y1="27.1844" x2="227.815" y2="44.4062" gradientUnits="userSpaceOnUse">
<stop stop-color="#2F2F2F"/>
<stop offset="0.49" stop-color="white"/>
<stop offset="1" stop-color="#2F2F2F" stop-opacity="0"/>
</linearGradient>
<linearGradient id="paint63_linear_6469_1135" x1="229.727" y1="12.1903" x2="229.727" y2="28.3973" gradientUnits="userSpaceOnUse">
<stop stop-color="#2F2F2F" stop-opacity="0"/>
<stop offset="0.51" stop-color="white"/>
<stop offset="1" stop-color="#2F2F2F"/>
</linearGradient>
<linearGradient id="paint64_linear_6469_1135" x1="228.471" y1="723.611" x2="228.471" y2="723.611" gradientUnits="userSpaceOnUse">
<stop stop-color="#2F2F2F" stop-opacity="0"/>
<stop offset="0.51" stop-color="white"/>
<stop offset="1" stop-color="#2F2F2F"/>
</linearGradient>
<linearGradient id="paint65_linear_6469_1135" x1="227.209" y1="723.611" x2="227.209" y2="723.611" gradientUnits="userSpaceOnUse">
<stop stop-color="#2F2F2F" stop-opacity="0"/>
<stop offset="0.51" stop-color="white"/>
<stop offset="1" stop-color="#2F2F2F"/>
</linearGradient>
<linearGradient id="paint66_linear_6469_1135" x1="225.957" y1="723.611" x2="225.957" y2="723.611" gradientUnits="userSpaceOnUse">
<stop stop-color="#2F2F2F" stop-opacity="0"/>
<stop offset="0.51" stop-color="white"/>
<stop offset="1" stop-color="#2F2F2F"/>
</linearGradient>
<linearGradient id="paint67_linear_6469_1135" x1="224.695" y1="723.611" x2="224.695" y2="723.611" gradientUnits="userSpaceOnUse">
<stop stop-color="#2F2F2F" stop-opacity="0"/>
<stop offset="0.51" stop-color="white"/>
<stop offset="1" stop-color="#2F2F2F"/>
</linearGradient>
<linearGradient id="paint68_linear_6469_1135" x1="223.431" y1="723.611" x2="223.431" y2="723.611" gradientUnits="userSpaceOnUse">
<stop stop-color="#2F2F2F" stop-opacity="0"/>
<stop offset="0.51" stop-color="white"/>
<stop offset="1" stop-color="#2F2F2F"/>
</linearGradient>
<linearGradient id="paint69_linear_6469_1135" x1="222.175" y1="723.611" x2="222.175" y2="723.611" gradientUnits="userSpaceOnUse">
<stop stop-color="#2F2F2F" stop-opacity="0"/>
<stop offset="0.51" stop-color="white"/>
<stop offset="1" stop-color="#2F2F2F"/>
</linearGradient>
<linearGradient id="paint70_linear_6469_1135" x1="220.918" y1="723.611" x2="220.918" y2="723.611" gradientUnits="userSpaceOnUse">
<stop stop-color="#2F2F2F" stop-opacity="0"/>
<stop offset="0.51" stop-color="white"/>
<stop offset="1" stop-color="#2F2F2F"/>
</linearGradient>
<linearGradient id="paint71_linear_6469_1135" x1="219.661" y1="723.611" x2="219.661" y2="723.611" gradientUnits="userSpaceOnUse">
<stop stop-color="#2F2F2F" stop-opacity="0"/>
<stop offset="0.51" stop-color="white"/>
<stop offset="1" stop-color="#2F2F2F"/>
</linearGradient>
<linearGradient id="paint72_linear_6469_1135" x1="218.399" y1="723.611" x2="218.399" y2="723.611" gradientUnits="userSpaceOnUse">
<stop stop-color="#2F2F2F" stop-opacity="0"/>
<stop offset="0.51" stop-color="white"/>
<stop offset="1" stop-color="#2F2F2F"/>
</linearGradient>
<linearGradient id="paint73_linear_6469_1135" x1="217.142" y1="723.611" x2="217.142" y2="723.611" gradientUnits="userSpaceOnUse">
<stop stop-color="#2F2F2F" stop-opacity="0"/>
<stop offset="0.51" stop-color="white"/>
<stop offset="1" stop-color="#2F2F2F"/>
</linearGradient>
<linearGradient id="paint74_linear_6469_1135" x1="215.884" y1="723.611" x2="215.884" y2="723.611" gradientUnits="userSpaceOnUse">
<stop stop-color="#2F2F2F" stop-opacity="0"/>
<stop offset="0.51" stop-color="white"/>
<stop offset="1" stop-color="#2F2F2F"/>
</linearGradient>
<linearGradient id="paint75_linear_6469_1135" x1="230.859" y1="723.611" x2="230.859" y2="723.611" gradientUnits="userSpaceOnUse">
<stop stop-color="#2F2F2F"/>
<stop offset="0.49" stop-color="white"/>
<stop offset="1" stop-color="#2F2F2F" stop-opacity="0"/>
</linearGradient>
<linearGradient id="paint76_linear_6469_1135" x1="232.102" y1="723.611" x2="232.102" y2="723.611" gradientUnits="userSpaceOnUse">
<stop stop-color="#2F2F2F"/>
<stop offset="0.49" stop-color="white"/>
<stop offset="1" stop-color="#2F2F2F" stop-opacity="0"/>
</linearGradient>
<linearGradient id="paint77_linear_6469_1135" x1="233.341" y1="723.611" x2="233.341" y2="723.611" gradientUnits="userSpaceOnUse">
<stop stop-color="#2F2F2F"/>
<stop offset="0.49" stop-color="white"/>
<stop offset="1" stop-color="#2F2F2F" stop-opacity="0"/>
</linearGradient>
<linearGradient id="paint78_linear_6469_1135" x1="234.584" y1="723.611" x2="234.584" y2="723.611" gradientUnits="userSpaceOnUse">
<stop stop-color="#2F2F2F"/>
<stop offset="0.49" stop-color="white"/>
<stop offset="1" stop-color="#2F2F2F" stop-opacity="0"/>
</linearGradient>
<linearGradient id="paint79_linear_6469_1135" x1="235.818" y1="723.611" x2="235.818" y2="723.611" gradientUnits="userSpaceOnUse">
<stop stop-color="#2F2F2F"/>
<stop offset="0.49" stop-color="white"/>
<stop offset="1" stop-color="#2F2F2F" stop-opacity="0"/>
</linearGradient>
<linearGradient id="paint80_linear_6469_1135" x1="237.061" y1="723.611" x2="237.061" y2="723.611" gradientUnits="userSpaceOnUse">
<stop stop-color="#2F2F2F"/>
<stop offset="0.49" stop-color="white"/>
<stop offset="1" stop-color="#2F2F2F" stop-opacity="0"/>
</linearGradient>
<linearGradient id="paint81_linear_6469_1135" x1="238.305" y1="723.611" x2="238.305" y2="723.611" gradientUnits="userSpaceOnUse">
<stop stop-color="#2F2F2F"/>
<stop offset="0.49" stop-color="white"/>
<stop offset="1" stop-color="#2F2F2F" stop-opacity="0"/>
</linearGradient>
<linearGradient id="paint82_linear_6469_1135" x1="239.543" y1="723.611" x2="239.543" y2="723.611" gradientUnits="userSpaceOnUse">
<stop stop-color="#2F2F2F"/>
<stop offset="0.49" stop-color="white"/>
<stop offset="1" stop-color="#2F2F2F" stop-opacity="0"/>
</linearGradient>
<linearGradient id="paint83_linear_6469_1135" x1="240.787" y1="723.611" x2="240.787" y2="723.611" gradientUnits="userSpaceOnUse">
<stop stop-color="#2F2F2F"/>
<stop offset="0.49" stop-color="white"/>
<stop offset="1" stop-color="#2F2F2F" stop-opacity="0"/>
</linearGradient>
<linearGradient id="paint84_linear_6469_1135" x1="242.024" y1="723.611" x2="242.024" y2="723.611" gradientUnits="userSpaceOnUse">
<stop stop-color="#2F2F2F"/>
<stop offset="0.49" stop-color="white"/>
<stop offset="1" stop-color="#2F2F2F" stop-opacity="0"/>
</linearGradient>
<linearGradient id="paint85_linear_6469_1135" x1="243.264" y1="723.611" x2="243.264" y2="723.611" gradientUnits="userSpaceOnUse">
<stop stop-color="#2F2F2F"/>
<stop offset="0.49" stop-color="white"/>
<stop offset="1" stop-color="#2F2F2F" stop-opacity="0"/>
</linearGradient>
<linearGradient id="paint86_linear_6469_1135" x1="230.859" y1="27.1844" x2="230.859" y2="44.4062" gradientUnits="userSpaceOnUse">
<stop stop-color="#2F2F2F"/>
<stop offset="0.49" stop-color="white"/>
<stop offset="1" stop-color="#2F2F2F" stop-opacity="0"/>
</linearGradient>
<linearGradient id="paint87_linear_6469_1135" x1="232.102" y1="27.1844" x2="232.102" y2="44.4062" gradientUnits="userSpaceOnUse">
<stop stop-color="#2F2F2F"/>
<stop offset="0.49" stop-color="white"/>
<stop offset="1" stop-color="#2F2F2F" stop-opacity="0"/>
</linearGradient>
<linearGradient id="paint88_linear_6469_1135" x1="233.341" y1="27.1844" x2="233.341" y2="44.4062" gradientUnits="userSpaceOnUse">
<stop stop-color="#2F2F2F"/>
<stop offset="0.49" stop-color="white"/>
<stop offset="1" stop-color="#2F2F2F" stop-opacity="0"/>
</linearGradient>
<linearGradient id="paint89_linear_6469_1135" x1="234.584" y1="27.1844" x2="234.584" y2="44.4062" gradientUnits="userSpaceOnUse">
<stop stop-color="#2F2F2F"/>
<stop offset="0.49" stop-color="white"/>
<stop offset="1" stop-color="#2F2F2F" stop-opacity="0"/>
</linearGradient>
<linearGradient id="paint90_linear_6469_1135" x1="235.818" y1="27.1844" x2="235.818" y2="44.4062" gradientUnits="userSpaceOnUse">
<stop stop-color="#2F2F2F"/>
<stop offset="0.49" stop-color="white"/>
<stop offset="1" stop-color="#2F2F2F" stop-opacity="0"/>
</linearGradient>
<linearGradient id="paint91_linear_6469_1135" x1="237.061" y1="27.1844" x2="237.061" y2="44.4062" gradientUnits="userSpaceOnUse">
<stop stop-color="#2F2F2F"/>
<stop offset="0.49" stop-color="white"/>
<stop offset="1" stop-color="#2F2F2F" stop-opacity="0"/>
</linearGradient>
<linearGradient id="paint92_linear_6469_1135" x1="238.305" y1="27.1844" x2="238.305" y2="44.4062" gradientUnits="userSpaceOnUse">
<stop stop-color="#2F2F2F"/>
<stop offset="0.49" stop-color="white"/>
<stop offset="1" stop-color="#2F2F2F" stop-opacity="0"/>
</linearGradient>
<linearGradient id="paint93_linear_6469_1135" x1="239.543" y1="27.1844" x2="239.543" y2="44.4062" gradientUnits="userSpaceOnUse">
<stop stop-color="#2F2F2F"/>
<stop offset="0.49" stop-color="white"/>
<stop offset="1" stop-color="#2F2F2F" stop-opacity="0"/>
</linearGradient>
<linearGradient id="paint94_linear_6469_1135" x1="240.787" y1="27.1844" x2="240.787" y2="44.4062" gradientUnits="userSpaceOnUse">
<stop stop-color="#2F2F2F"/>
<stop offset="0.49" stop-color="white"/>
<stop offset="1" stop-color="#2F2F2F" stop-opacity="0"/>
</linearGradient>
<linearGradient id="paint95_linear_6469_1135" x1="242.024" y1="27.1844" x2="242.024" y2="44.4062" gradientUnits="userSpaceOnUse">
<stop stop-color="#2F2F2F"/>
<stop offset="0.49" stop-color="white"/>
<stop offset="1" stop-color="#2F2F2F" stop-opacity="0"/>
</linearGradient>
<linearGradient id="paint96_linear_6469_1135" x1="243.264" y1="27.1844" x2="243.264" y2="44.4062" gradientUnits="userSpaceOnUse">
<stop stop-color="#2F2F2F"/>
<stop offset="0.49" stop-color="white"/>
<stop offset="1" stop-color="#2F2F2F" stop-opacity="0"/>
</linearGradient>
<linearGradient id="paint97_linear_6469_1135" x1="242.643" y1="723.611" x2="242.643" y2="723.611" gradientUnits="userSpaceOnUse">
<stop stop-color="#2F2F2F" stop-opacity="0"/>
<stop offset="0.51" stop-color="white"/>
<stop offset="1" stop-color="#2F2F2F"/>
</linearGradient>
<linearGradient id="paint98_linear_6469_1135" x1="241.381" y1="723.611" x2="241.381" y2="723.611" gradientUnits="userSpaceOnUse">
<stop stop-color="#2F2F2F" stop-opacity="0"/>
<stop offset="0.51" stop-color="white"/>
<stop offset="1" stop-color="#2F2F2F"/>
</linearGradient>
<linearGradient id="paint99_linear_6469_1135" x1="240.123" y1="723.611" x2="240.123" y2="723.611" gradientUnits="userSpaceOnUse">
<stop stop-color="#2F2F2F" stop-opacity="0"/>
<stop offset="0.51" stop-color="white"/>
<stop offset="1" stop-color="#2F2F2F"/>
</linearGradient>
<linearGradient id="paint100_linear_6469_1135" x1="238.862" y1="723.611" x2="238.862" y2="723.611" gradientUnits="userSpaceOnUse">
<stop stop-color="#2F2F2F" stop-opacity="0"/>
<stop offset="0.51" stop-color="white"/>
<stop offset="1" stop-color="#2F2F2F"/>
</linearGradient>
<linearGradient id="paint101_linear_6469_1135" x1="237.609" y1="723.611" x2="237.609" y2="723.611" gradientUnits="userSpaceOnUse">
<stop stop-color="#2F2F2F" stop-opacity="0"/>
<stop offset="0.51" stop-color="white"/>
<stop offset="1" stop-color="#2F2F2F"/>
</linearGradient>
<linearGradient id="paint102_linear_6469_1135" x1="236.347" y1="723.611" x2="236.347" y2="723.611" gradientUnits="userSpaceOnUse">
<stop stop-color="#2F2F2F" stop-opacity="0"/>
<stop offset="0.51" stop-color="white"/>
<stop offset="1" stop-color="#2F2F2F"/>
</linearGradient>
<linearGradient id="paint103_linear_6469_1135" x1="235.088" y1="723.611" x2="235.088" y2="723.611" gradientUnits="userSpaceOnUse">
<stop stop-color="#2F2F2F" stop-opacity="0"/>
<stop offset="0.51" stop-color="white"/>
<stop offset="1" stop-color="#2F2F2F"/>
</linearGradient>
<linearGradient id="paint104_linear_6469_1135" x1="233.832" y1="723.611" x2="233.832" y2="723.611" gradientUnits="userSpaceOnUse">
<stop stop-color="#2F2F2F" stop-opacity="0"/>
<stop offset="0.51" stop-color="white"/>
<stop offset="1" stop-color="#2F2F2F"/>
</linearGradient>
<linearGradient id="paint105_linear_6469_1135" x1="232.571" y1="723.611" x2="232.571" y2="723.611" gradientUnits="userSpaceOnUse">
<stop stop-color="#2F2F2F" stop-opacity="0"/>
<stop offset="0.51" stop-color="white"/>
<stop offset="1" stop-color="#2F2F2F"/>
</linearGradient>
<linearGradient id="paint106_linear_6469_1135" x1="218.222" y1="35.877" x2="218.222" y2="86.7858" gradientUnits="userSpaceOnUse">
<stop stop-color="#00A78A" stop-opacity="0.42"/>
<stop offset="1" stop-color="#00A78A"/>
</linearGradient>
<linearGradient id="paint107_linear_6469_1135" x1="19.5441" y1="15.8719" x2="12.9929" y2="19.679" gradientUnits="userSpaceOnUse">
<stop stop-color="#384245"/>
<stop offset="1" stop-color="white"/>
</linearGradient>
<linearGradient id="paint108_linear_6469_1135" x1="21.005" y1="14.3767" x2="23.443" y2="21.1802" gradientUnits="userSpaceOnUse">
<stop stop-color="#515F66"/>
<stop offset="1" stop-color="white"/>
</linearGradient>
<linearGradient id="paint109_linear_6469_1135" x1="16.7939" y1="11.1457" x2="14.5781" y2="2.26454" gradientUnits="userSpaceOnUse">
<stop stop-color="white"/>
<stop offset="1" stop-color="#515F66"/>
</linearGradient>
<linearGradient id="paint110_linear_6469_1135" x1="19.8401" y1="7.64485" x2="25.1904" y2="6.49193" gradientUnits="userSpaceOnUse">
<stop stop-color="white"/>
<stop offset="1" stop-color="#515F66"/>
</linearGradient>
<linearGradient id="paint111_linear_6469_1135" x1="32.6187" y1="15.8719" x2="26.0674" y2="19.679" gradientUnits="userSpaceOnUse">
<stop stop-color="#384245"/>
<stop offset="1" stop-color="white"/>
</linearGradient>
<linearGradient id="paint112_linear_6469_1135" x1="34.0795" y1="14.3767" x2="36.5115" y2="21.1802" gradientUnits="userSpaceOnUse">
<stop stop-color="#515F66"/>
<stop offset="1" stop-color="white"/>
</linearGradient>
<linearGradient id="paint113_linear_6469_1135" x1="29.8685" y1="11.1457" x2="27.6527" y2="2.26454" gradientUnits="userSpaceOnUse">
<stop stop-color="white"/>
<stop offset="1" stop-color="#515F66"/>
</linearGradient>
<linearGradient id="paint114_linear_6469_1135" x1="32.9086" y1="7.64485" x2="38.2589" y2="6.49193" gradientUnits="userSpaceOnUse">
<stop stop-color="white"/>
<stop offset="1" stop-color="#515F66"/>
</linearGradient>
<linearGradient id="paint115_linear_6469_1135" x1="45.6885" y1="15.8719" x2="39.1373" y2="19.679" gradientUnits="userSpaceOnUse">
<stop stop-color="#384245"/>
<stop offset="1" stop-color="white"/>
</linearGradient>
<linearGradient id="paint116_linear_6469_1135" x1="42.9383" y1="11.1457" x2="40.7226" y2="2.26454" gradientUnits="userSpaceOnUse">
<stop stop-color="white"/>
<stop offset="1" stop-color="#515F66"/>
</linearGradient>
<linearGradient id="paint117_linear_6469_1135" x1="21.2811" y1="28.3701" x2="21.2811" y2="86.785" gradientUnits="userSpaceOnUse">
<stop stop-color="#00A78A" stop-opacity="0.4"/>
<stop offset="1" stop-color="#00A78A"/>
</linearGradient>
</defs>
</svg>
