<svg width="35" height="35" viewBox="0 0 35 35" fill="none" xmlns="http://www.w3.org/2000/svg">
<path d="M26.0587 25.4788C26.2813 23.6241 26.2146 23.3522 27.596 23.6526L27.9468 23.6834C29.009 23.7317 30.3985 23.5126 31.2148 23.1333C32.9721 22.3179 34.0141 20.9565 32.2813 21.3143C28.3288 22.1296 28.0571 20.7913 28.0571 20.7913C32.2307 14.5987 33.9754 6.73774 32.4695 4.81355C28.3619 -0.434963 21.2518 2.04694 21.1329 2.11138L21.095 2.11837C20.314 1.95633 19.44 1.85952 18.4582 1.84364C16.6696 1.81425 15.3123 2.31255 14.2828 3.09343C14.2828 3.09343 1.59883 -2.13221 2.18891 9.66521C2.31441 12.1748 5.78623 28.6553 9.92702 23.6774C11.4405 21.8572 12.9031 20.3181 12.9031 20.3181C13.6293 20.8006 14.4988 21.0468 15.4108 20.9584L15.4813 20.8982C15.4592 21.1242 15.469 21.3453 15.5095 21.607C14.443 22.7989 14.7564 23.0081 12.6237 23.4471C10.466 23.8918 11.7337 24.6835 12.5611 24.8904C13.5644 25.1413 15.8855 25.4968 17.4543 23.3012L17.3918 23.5517C17.8103 23.8865 17.782 25.9578 17.8413 27.4378C17.9007 28.9178 17.9998 30.2989 18.3015 31.1132C18.6032 31.9273 18.9592 34.0247 21.762 33.424C24.1045 32.9221 25.8955 32.1996 26.0587 25.4788Z" fill="black"/>
<path d="M25.3245 0.000972115C27.9011 0.0317429 31.2073 0.815054 33.628 3.90806C34.3328 4.80858 34.4909 6.10487 34.4729 7.27372C34.4536 8.52818 34.2213 10.0049 33.8172 11.5693C33.1315 14.2243 31.916 17.2653 30.2298 20.1059C30.6482 20.094 31.2195 20.0334 31.9857 19.8754C32.2662 19.8175 32.5643 19.7779 32.8568 19.7879C33.1166 19.7968 33.5711 19.8499 33.9833 20.1631C34.4994 20.5553 34.6821 21.1428 34.6328 21.6578C34.5925 22.079 34.4085 22.4064 34.2829 22.5959C34.0178 22.9957 33.6264 23.3496 33.2458 23.6332C32.8435 23.9329 32.3614 24.2219 31.8347 24.4663L31.8346 24.4662C30.7508 24.9696 29.1131 25.2073 27.8815 25.1513L27.8505 25.1499L27.5811 25.1262C27.5739 25.1871 27.5663 25.2511 27.5584 25.3193C27.5487 25.4025 27.5383 25.4911 27.5272 25.5843C27.4393 28.9601 26.9494 31.1787 25.9315 32.6281C24.8254 34.2028 23.2889 34.5999 22.0713 34.8608C21.1961 35.0484 20.3945 35.0505 19.6749 34.8426C18.9405 34.6304 18.3878 34.227 17.9844 33.761C17.2767 32.9436 16.9823 31.778 16.9252 31.6239C16.7107 31.0449 16.5952 30.3523 16.5216 29.6868C16.4458 29.002 16.4047 28.2452 16.3746 27.4968C16.3553 27.014 16.3458 26.5399 16.3309 26.0838C14.6512 26.8151 12.9562 26.5035 12.2061 26.316C11.8864 26.236 11.5336 26.1039 11.2144 25.9292C11.0116 25.8182 10.6752 25.6124 10.4013 25.2809C9.85721 25.7342 9.21597 26.0441 8.47459 26.0756C7.41899 26.1204 6.57083 25.5825 5.96606 24.9947C4.79724 23.8586 3.87926 21.903 3.17458 19.9862C2.44464 18.0007 1.85299 15.7943 1.43633 13.9348C1.02664 12.1063 0.760975 10.5008 0.722861 9.73874L0.716012 9.58961C0.585972 6.47098 1.31402 4.18391 2.7638 2.65161C4.22391 1.10839 6.17852 0.583743 7.93633 0.488243C9.69634 0.392625 11.4274 0.714602 12.68 1.039C13.2425 1.18468 13.7238 1.33497 14.0876 1.45795C15.2817 0.74995 16.7399 0.345972 18.4838 0.374627L18.4837 0.374685C19.3926 0.389395 20.2304 0.468331 21.0042 0.60491C21.0246 0.598695 21.0455 0.592246 21.0671 0.585801C21.3155 0.511722 21.6567 0.420133 22.0712 0.331575C22.8965 0.155209 24.0365 -0.0144073 25.3245 0.000972115ZM25.2894 2.93945C24.2715 2.92729 23.3549 3.0622 22.6853 3.2053C22.3522 3.27647 22.0864 3.34837 21.9071 3.40185C21.8357 3.42317 21.7796 3.44122 21.74 3.4544L21.6297 3.5142L21.08 3.61568L20.798 3.55714C20.1167 3.41579 19.3354 3.32741 18.4359 3.31287H18.4355C16.9543 3.28854 15.9231 3.6947 15.1722 4.26422L14.5022 4.77244L13.7254 4.45243C13.7254 4.45244 13.7256 4.45246 13.7256 4.45249C13.7252 4.45231 13.7246 4.4521 13.7238 4.45179C13.7206 4.45049 13.7144 4.44801 13.7054 4.44443C13.6874 4.43727 13.6581 4.42575 13.6182 4.41053C13.5383 4.38006 13.4166 4.33486 13.2591 4.28028C12.9435 4.17086 12.4885 4.02497 11.9433 3.88377C10.8361 3.59703 9.43297 3.34993 8.09576 3.42257C6.75633 3.49534 5.65057 3.87627 4.89839 4.67126C4.17045 5.44064 3.54252 6.84347 3.65207 9.46609L3.65788 9.59191L3.6607 9.64078C3.69613 10.1724 3.91062 11.537 4.30389 13.2923C4.70289 15.073 5.2615 17.1462 5.93279 18.9722C6.62936 20.867 7.3636 22.255 8.01426 22.8875C8.19807 23.0661 8.30871 23.1198 8.35165 23.1349C8.40607 23.1128 8.55687 23.0288 8.79886 22.7379C9.57288 21.807 10.3315 20.9508 10.8952 20.3287C11.1776 20.0171 11.4122 19.7629 11.5768 19.5861C11.6591 19.4976 11.724 19.4284 11.7687 19.381C11.791 19.3572 11.8083 19.3389 11.8202 19.3263C11.8262 19.32 11.8308 19.3152 11.834 19.3118C11.8356 19.3101 11.8369 19.3088 11.8378 19.3078C11.8382 19.3073 11.8386 19.3069 11.8389 19.3067C11.839 19.3065 11.8391 19.3064 11.8392 19.3063C11.8393 19.3063 11.8393 19.3062 11.8393 19.3061C11.8394 19.3061 11.845 19.3114 12.7806 20.2005L11.8394 19.3061L12.6896 18.4114L13.7176 19.0944C14.0664 19.3261 14.4544 19.466 14.859 19.4991L17.2991 17.4181L16.9451 21.0412C16.9373 21.1211 16.9373 21.2162 16.963 21.3821L17.0694 22.0689L16.6059 22.5869C16.6017 22.5916 16.5976 22.5963 16.5935 22.6009L17.7331 23.1269L18.3112 22.4044C18.6343 22.663 18.7985 22.984 18.8801 23.1736C18.9706 23.3841 19.0283 23.5985 19.0679 23.7818C19.1472 24.149 19.1905 24.5677 19.2184 24.9618C19.2727 25.7298 19.2843 26.7148 19.3109 27.379L19.3224 27.6506C19.3502 28.2776 19.3864 28.8568 19.4424 29.3637C19.5087 29.9624 19.5936 30.3675 19.6808 30.6029C19.7311 30.7386 19.7836 30.9041 19.8192 31.0121C19.8608 31.1388 19.8995 31.2518 19.9427 31.3609C20.0311 31.584 20.118 31.7358 20.2061 31.8376C20.2797 31.9226 20.3605 31.9818 20.4905 32.0194C20.6354 32.0612 20.9294 32.1002 21.4555 31.9874C22.5805 31.7464 23.1107 31.5313 23.5266 30.9391C24.0236 30.2315 24.511 28.7491 24.5913 25.4432L24.593 25.3733L24.6013 25.3038C24.6519 24.8825 24.6967 24.4536 24.7505 24.1288C24.7985 23.839 24.891 23.3425 25.191 22.9143C25.594 22.3394 26.1807 22.1181 26.7121 22.0841C26.8682 22.0742 27.0268 22.0798 27.182 22.0946C27.1161 22.0274 27.0557 21.958 27.0007 21.887C26.877 21.7271 26.79 21.5706 26.7295 21.4309C26.6995 21.3615 26.6762 21.2968 26.6582 21.2384C26.6492 21.2092 26.6416 21.1816 26.6351 21.1558C26.6318 21.1429 26.6288 21.1304 26.626 21.1184C26.6247 21.1124 26.6234 21.1065 26.6221 21.1007C26.6215 21.0979 26.6209 21.095 26.6203 21.0922C26.6201 21.0908 26.6196 21.0887 26.6195 21.088C26.6191 21.0859 26.6186 21.0837 28.0586 20.7914L26.6186 21.0838L26.4961 20.4806L26.8401 19.9702C28.8279 17.0209 30.2415 13.6626 30.9719 10.8344C31.3375 9.41898 31.5199 8.18264 31.5346 7.22848C31.5419 6.75183 31.5067 6.37939 31.4483 6.10705C31.4195 5.9729 31.3877 5.87571 31.3599 5.80914C31.3389 5.75903 31.3229 5.73276 31.3166 5.72333L31.3138 5.71924C29.6269 3.56378 27.3243 2.96375 25.2894 2.93945ZM13.7264 4.45283C13.7264 4.45281 13.7262 4.45279 13.7261 4.45272C13.726 4.45267 13.7258 4.45255 13.7256 4.45249C13.7261 4.45267 13.7263 4.45279 13.7264 4.45283Z" fill="black"/>
<path d="M32.1581 21.1878C28.2052 22.0031 27.9334 20.6648 27.9334 20.6648C32.1071 14.4718 33.8518 6.61068 32.3461 4.68672C28.2386 -0.561472 21.1282 1.92059 21.0095 1.98502L20.9713 1.99186C20.1904 1.82974 19.3164 1.73316 18.3341 1.71713C16.5454 1.68782 15.1887 2.18604 14.1592 2.96677C14.1592 2.96677 1.47495 -2.25864 2.06488 9.5387C2.19038 12.0485 5.66211 28.5289 9.80307 23.5511C11.3166 21.7308 12.7789 20.1918 12.7789 20.1918C13.5053 20.6743 14.3748 20.9204 15.2864 20.832L15.3572 20.7719C15.3352 20.9979 15.3452 21.219 15.3856 21.4806C14.3188 22.6725 14.6323 22.8818 12.4997 23.3207C10.3419 23.7654 11.6095 24.5572 12.4372 24.7641C13.4405 25.015 15.7618 25.3704 17.3303 23.1748L17.2677 23.4253C17.6857 23.7601 17.9792 25.603 17.93 27.2735C17.8808 28.9441 17.848 30.091 18.1773 30.9869C18.5067 31.8827 18.8349 33.8984 21.6383 33.2977C23.9808 32.7957 25.1947 31.4948 25.3635 29.3249C25.4834 27.7822 25.7546 28.0103 25.7717 26.6311L25.9892 25.9781C26.2401 23.8869 26.0291 23.2123 27.4722 23.5261L27.823 23.5569C28.8852 23.6052 30.2754 23.386 31.0913 23.0068C32.8483 22.1914 33.8903 20.83 32.1579 21.1878H32.1581Z" fill="#336791"/>
<path d="M17.6384 22.0236C17.9087 22.0312 18.1218 22.2565 18.1142 22.5269C18.0601 24.4635 18.067 26.404 18.1344 27.9751C18.1682 28.7611 18.2169 29.4492 18.2796 29.9954C18.3443 30.5582 18.4192 30.9222 18.4875 31.0929L18.524 31.1832C18.7111 31.6412 18.9711 32.1898 19.4398 32.5846C19.9099 32.9806 20.6546 33.273 21.93 32.9998L22.0343 32.9769C23.0991 32.7371 23.76 32.4046 24.2015 31.9458C24.6562 31.4731 24.9369 30.8053 25.1143 29.7767L25.1143 29.7766C25.3841 28.2138 25.9072 23.8467 25.9734 22.9644C25.9936 22.6947 26.2287 22.4924 26.4984 22.5126C26.7681 22.5329 26.9704 22.7679 26.9501 23.0377C26.8816 23.9514 26.3546 28.3497 26.0796 29.9432C25.8871 31.0595 25.5568 31.95 24.9074 32.6249C24.259 33.2989 23.3513 33.6969 22.1353 33.9576H22.1352C20.6071 34.285 19.5422 33.9517 18.8086 33.3337C18.1048 32.7408 17.7692 31.9346 17.578 31.4568L17.578 31.4567C17.4559 31.1513 17.371 30.6684 17.3065 30.1072C17.2401 29.5294 17.1901 28.8161 17.1558 28.0171C17.0872 26.4182 17.0804 24.454 17.1351 22.4995C17.1426 22.2291 17.368 22.0161 17.6384 22.0236Z" fill="white"/>
<path d="M7.96411 1.39838C9.58426 1.30548 11.2071 1.59756 12.4122 1.9058C13.0175 2.06063 13.5237 2.22125 13.8797 2.34351C14.0578 2.40468 14.1986 2.45636 14.2957 2.4931C14.3443 2.51148 14.382 2.52614 14.408 2.53639C14.421 2.5415 14.431 2.54553 14.4381 2.54836C14.4416 2.54977 14.4444 2.55088 14.4464 2.5517C14.4474 2.5521 14.4482 2.55242 14.4489 2.55267C14.4492 2.5528 14.4494 2.55296 14.4496 2.55302C14.4499 2.55313 14.4501 2.55319 14.2753 2.98089L14.4501 2.55319C14.7005 2.65553 14.8205 2.94151 14.7182 3.19189C14.6158 3.44221 14.33 3.56221 14.0797 3.45999H14.0796C14.0795 3.45993 14.0791 3.4598 14.0786 3.45959C14.0775 3.45916 14.0757 3.45843 14.0731 3.4574C14.068 3.45534 14.0599 3.45206 14.0489 3.44773C14.0269 3.43906 13.9933 3.42602 13.9491 3.40928C13.8606 3.3758 13.7293 3.32758 13.5615 3.26994C13.2256 3.15458 12.7448 3.00203 12.1694 2.85484C11.013 2.55904 9.49948 2.2915 8.02017 2.37632C6.54018 2.46119 5.1498 2.89437 4.16028 3.9426C3.17502 4.98631 2.5078 6.72446 2.65121 9.59169L2.65449 9.6489C2.69498 10.2662 2.92523 11.6967 3.31972 13.4574C3.72463 15.2645 4.29424 17.3822 4.98511 19.2615C5.68441 21.1637 6.4799 22.7409 7.30331 23.5412C7.70822 23.9348 8.05995 24.0825 8.36338 24.0696C8.66377 24.0568 9.05386 23.8806 9.52383 23.3156C10.2862 22.3984 11.0116 21.5808 11.5462 20.9926C11.8137 20.6984 12.0337 20.4612 12.1871 20.2974C12.2638 20.2155 12.3238 20.1519 12.3649 20.1086C12.3854 20.0869 12.4012 20.0704 12.4119 20.0591C12.4172 20.0535 12.4213 20.0492 12.4241 20.0463C12.4255 20.0449 12.4266 20.0437 12.4273 20.043C12.4277 20.0426 12.428 20.0423 12.4282 20.0421C12.4283 20.042 12.4283 20.0419 12.4284 20.0418L12.4285 20.0417C12.4285 20.0417 12.4294 20.0425 12.7821 20.3806L12.4285 20.0417C12.6157 19.8464 12.9258 19.8399 13.121 20.027C13.3102 20.2084 13.3223 20.505 13.1527 20.7008L13.1357 20.7195H13.1357C13.1356 20.7195 13.1356 20.7196 13.1355 20.7197C13.1354 20.7198 13.1352 20.72 13.1349 20.7203C13.1343 20.7209 13.1334 20.7219 13.1321 20.7232C13.1297 20.7258 13.1259 20.7298 13.1209 20.735C13.1108 20.7456 13.0956 20.7615 13.0758 20.7825C13.0361 20.8244 12.9774 20.8865 12.9021 20.9669C12.7516 21.1276 12.5349 21.3612 12.2711 21.6514C11.7432 22.2322 11.0278 23.0387 10.277 23.9419L10.2769 23.9421C9.71166 24.6216 9.08742 25.0193 8.40487 25.0482C7.72537 25.0771 7.12547 24.7343 6.62063 24.2437C5.6245 23.2755 4.76771 21.509 4.06571 19.5994C3.35529 17.667 2.77462 15.5049 2.36383 13.6716C1.95537 11.8485 1.70649 10.3129 1.67287 9.64061C1.52124 6.60918 2.21933 4.57175 3.44802 3.27017C4.67244 1.97312 6.34465 1.49125 7.96411 1.39838Z" fill="white"/>
<path d="M25.0154 0.930728C27.4561 0.908056 30.5717 1.57569 32.8303 4.46163V4.46169C33.3161 5.08253 33.4843 6.08264 33.4669 7.20844C33.4491 8.3628 33.2334 9.75944 32.8421 11.2742C32.0594 14.3047 30.5578 17.8699 28.438 21.0155C28.2869 21.2398 27.9825 21.2991 27.7582 21.1479C27.5339 20.9968 27.4746 20.6924 27.6257 20.4681C29.6795 17.4205 31.1371 13.9586 31.8937 11.0293C32.2721 9.56411 32.4712 8.24758 32.4875 7.19331C32.5042 6.1105 32.3258 5.40651 32.0588 5.06534V5.06528C30.0551 2.50498 27.2896 1.88918 25.0246 1.91022C23.8929 1.92073 22.9001 2.09107 22.2176 2.25061C21.8769 2.33025 21.616 2.40666 21.4567 2.45769C21.4078 2.47339 21.3698 2.48632 21.343 2.49574C21.3193 2.50771 21.2944 2.51804 21.2682 2.52624C21.2596 2.52896 21.2411 2.53469 21.2205 2.5396C21.2145 2.54102 21.2046 2.54332 21.1924 2.54553C21.1844 2.54699 21.1566 2.55199 21.1208 2.55324C21.1004 2.55353 21.0464 2.5502 21.013 2.54512C20.952 2.52956 20.7899 2.44011 20.706 2.35018C20.6331 2.20082 20.6328 1.92748 20.6749 1.82607C20.7046 1.77903 20.7605 1.71366 20.783 1.69294C20.82 1.66094 20.8538 1.64185 20.8603 1.63809C20.873 1.63078 20.8837 1.62542 20.8896 1.6225C20.9018 1.6165 20.9122 1.6119 20.9181 1.60937C20.9308 1.60393 20.9437 1.59888 20.9545 1.59475C20.9978 1.57814 21.0673 1.55389 21.1578 1.52488C21.3412 1.46609 21.6275 1.38262 21.9947 1.29679C22.728 1.12536 23.7943 0.942073 25.0154 0.930728Z" fill="white"/>
<path d="M13.7331 2.83491C14.8804 1.87964 16.4152 1.27083 18.4396 1.30403C22.4535 1.36984 25.1024 3.43362 26.6941 5.46851C27.4882 6.48377 28.0247 7.49745 28.345 8.26724C28.5048 8.65112 28.6144 8.98296 28.6747 9.23113C28.704 9.35156 28.7264 9.4713 28.732 9.5752C28.7345 9.62233 28.7359 9.70114 28.7155 9.78591C28.7039 9.83426 28.6293 10.1144 28.3186 10.1787L28.1419 10.1828C26.1313 9.86083 25.2095 10.2024 24.8094 10.6601C24.4022 11.1261 24.3472 11.9216 24.6131 12.9875C24.8711 14.022 25.3919 15.1496 25.8919 16.1092C26.1404 16.586 26.3797 17.0138 26.5745 17.3633C26.7602 17.6964 26.926 17.9932 26.9993 18.1709L27.0225 18.2264C27.2647 18.7938 27.5628 19.1983 27.8317 19.5379C27.9649 19.7061 28.1128 19.8848 28.226 20.0461C28.336 20.2028 28.4487 20.3907 28.5026 20.608C28.5057 20.6137 28.5119 20.6243 28.5228 20.6384C28.5543 20.6792 28.641 20.7707 28.8487 20.8566C29.2783 21.0344 30.2197 21.1848 32.1571 20.7849L32.2014 20.776C32.4216 20.7328 32.6213 20.7111 32.7964 20.7171C32.9722 20.7231 33.1868 20.7589 33.3637 20.8935C33.5752 21.0545 33.6518 21.2924 33.6304 21.515C33.612 21.7064 33.5249 21.8756 33.4391 22.005C33.2629 22.2708 32.9719 22.5457 32.6332 22.7981C32.2874 23.0559 31.8638 23.3109 31.3955 23.5284L31.3954 23.5284C30.5917 23.9015 29.3487 24.1181 28.3106 24.1295C27.7904 24.1352 27.2784 24.0903 26.8755 23.9651C26.5191 23.8544 26.0063 23.5974 25.9738 23.0281V23.028C25.9366 22.3747 26.0304 21.8731 26.2392 21.4904C26.4535 21.0977 26.7603 20.882 27.0446 20.754C27.1822 20.692 27.3144 20.6506 27.4209 20.6197C27.4239 20.6188 27.4269 20.618 27.4299 20.6171C27.428 20.6144 27.4262 20.6116 27.4242 20.6088C27.3327 20.4785 27.2188 20.3418 27.0637 20.146C26.7741 19.7802 26.4143 19.2966 26.1218 18.6114L26.0937 18.5445C26.0484 18.4347 25.922 18.2044 25.7189 17.8403C25.5251 17.4925 25.2791 17.0529 25.0232 16.5618C24.5144 15.5855 23.9495 14.3747 23.6626 13.2246C23.3836 12.1059 23.3245 10.8706 24.0719 10.0155C24.7418 9.24902 25.9138 8.9506 27.6234 9.12632C27.5761 8.98595 27.5156 8.82377 27.4406 8.6436C27.1499 7.94492 26.6559 7.00963 25.9225 6.07198C24.4591 4.20105 22.0641 2.34315 18.4235 2.28346C16.6215 2.25391 15.3178 2.7901 14.3598 3.58769C13.3926 4.39301 12.7471 5.4911 12.319 6.62527C11.8915 7.75833 11.6903 8.90274 11.5971 9.76928C11.5506 10.2012 11.5312 10.5607 11.5234 10.8107C11.5196 10.9356 11.5186 11.033 11.5186 11.0982C11.5186 11.1308 11.5188 11.1553 11.519 11.1711C11.5191 11.179 11.5192 11.1848 11.5193 11.1883C11.5193 11.1901 11.5193 11.1913 11.5194 11.192V11.1924C11.5263 11.4627 11.3129 11.6875 11.0426 11.6947C10.7722 11.7018 10.5473 11.4883 10.5402 11.2179L11.0298 11.205L10.6013 11.2162C10.5432 11.2176 10.5403 11.2176 10.5402 11.2175C10.5402 11.2173 10.5401 11.217 10.5401 11.2167C10.5401 11.2162 10.5401 11.2155 10.5401 11.2146C10.5401 11.213 10.54 11.2107 10.5399 11.2079C10.5398 11.2023 10.5397 11.1943 10.5395 11.1842C10.5393 11.164 10.539 11.135 10.5391 11.0978C10.5391 11.0233 10.5402 10.9159 10.5444 10.7803C10.5528 10.5093 10.5736 10.1247 10.6232 9.66447C10.7219 8.7468 10.9364 7.51485 11.4026 6.27942C11.8684 5.04508 12.5951 3.78243 13.7331 2.83491ZM27.9814 21.4747C27.889 21.507 27.7688 21.5387 27.6938 21.5604C27.6028 21.5868 27.5221 21.6133 27.4469 21.6472C27.3055 21.7108 27.1869 21.7986 27.0991 21.9596C27.0081 22.1264 26.9253 22.4181 26.9497 22.9327C26.9737 22.9521 27.0331 22.9883 27.1662 23.0297C27.4292 23.1115 27.8252 23.1552 28.2998 23.15C29.2513 23.1396 30.3452 22.936 30.983 22.6399C31.393 22.4495 31.7584 22.2285 32.0479 22.0127C32.1777 21.9159 32.2873 21.8239 32.3768 21.74C32.3697 21.7414 32.3625 21.7428 32.3552 21.7443H32.3552C30.3397 22.1603 29.1686 22.0493 28.474 21.7617C28.271 21.6777 28.1094 21.5787 27.9814 21.4747ZM28.5093 20.6353L28.5094 20.6357C28.5099 20.6381 28.5103 20.6404 28.5108 20.6428C28.5108 20.6425 28.5107 20.6419 28.5106 20.6415C28.5105 20.6407 28.5103 20.6398 28.5101 20.6389C28.5097 20.6372 28.5093 20.6356 28.509 20.634C28.5083 20.6309 28.5076 20.628 28.5069 20.6254C28.5068 20.6248 28.5066 20.6242 28.5064 20.6237C28.5074 20.6276 28.5084 20.6314 28.5093 20.6353Z" fill="white"/>
<path d="M16.1684 20.6356C16.5152 20.6053 16.8028 20.7285 16.9559 20.792L16.956 20.792C17.4402 20.9927 17.8053 21.4514 17.9824 21.9293C18.1612 22.4119 18.1883 23.0293 17.826 23.5366C16.0682 25.9979 13.4557 25.5771 12.4155 25.3168C12.1711 25.2557 11.8973 25.1528 11.6565 25.0211C11.4348 24.8998 11.1602 24.7109 11.0151 24.4418C10.9345 24.2924 10.8844 24.0989 10.9335 23.8861C10.9814 23.6782 11.1084 23.5192 11.2509 23.403C11.5189 23.1845 11.9434 23.0331 12.4981 22.9188H12.4982C13.5711 22.6978 13.9154 22.5521 14.1343 22.3776C14.2473 22.2876 14.3448 22.1756 14.498 21.9825C14.6473 21.7942 14.8389 21.5432 15.1179 21.2316C15.4493 20.8608 15.799 20.6678 16.1684 20.6356ZM16.5233 21.6735C16.3965 21.6234 16.3242 21.6052 16.2537 21.6114C16.1958 21.6164 16.0613 21.646 15.848 21.8847L15.8477 21.885C15.5932 22.1693 15.4239 22.3914 15.2654 22.5912C15.1106 22.7863 14.9533 22.9775 14.7447 23.1437C14.3207 23.4816 13.7555 23.6599 12.6958 23.8781L12.6958 23.8782C12.4432 23.9302 12.2536 23.9848 12.1146 24.0376C12.0704 24.0544 12.033 24.0705 12.0015 24.0853C12.0373 24.11 12.0791 24.1358 12.1267 24.1618C12.289 24.2506 12.4839 24.3242 12.6531 24.3665H12.6532C13.6199 24.6084 15.6498 24.8984 17.0288 22.9673L17.0394 22.9519C17.1456 22.7903 17.1665 22.5466 17.0638 22.2696C16.9561 21.9789 16.753 21.7682 16.5811 21.6969L16.5233 21.6735Z" fill="white"/>
<path d="M13.5249 9.38088C14.2424 9.21536 15.0525 9.16232 15.7593 9.43527C16.5038 9.72277 17.0601 10.3435 17.2785 11.3535H17.2786C17.7922 13.7286 17.7358 15.3294 17.4605 16.5429C17.3234 17.1471 17.1349 17.6423 16.9498 18.0734C16.7566 18.5233 16.5952 18.8451 16.4639 19.1982C16.2785 19.698 16.1137 20.1244 16.0045 20.517C15.8956 20.9085 15.8584 21.2137 15.8967 21.4635C15.9377 21.7309 15.7542 21.9808 15.4869 22.0218C15.2195 22.0628 14.9695 21.8794 14.9285 21.612C14.9185 21.547 14.9117 21.4818 14.9075 21.4164C12.1976 21.3501 10.043 18.722 10.4601 15.7392V15.7391C10.7655 13.5549 10.5356 11.7572 10.5392 11.2029V11.2028C10.5406 10.9903 10.6634 10.8364 10.7083 10.7819C10.774 10.7023 10.8555 10.6275 10.9381 10.5603C11.106 10.4237 11.3312 10.2762 11.5885 10.1329C12.1041 9.84583 12.7982 9.54851 13.5249 9.38088ZM15.4065 10.349C14.9616 10.1773 14.3762 10.1898 13.745 10.3354C13.123 10.4789 12.5148 10.7383 12.065 10.9887C11.8397 11.1142 11.6664 11.2307 11.5562 11.3202C11.5438 11.3304 11.5328 11.3397 11.523 11.3482C11.5527 11.9514 11.7186 13.8127 11.4302 15.8748C11.0803 18.3766 12.9082 20.431 15.0131 20.4375C15.028 20.3763 15.0439 20.3152 15.0608 20.2545C15.1841 19.8112 15.3691 19.333 15.5456 18.8573L15.5457 18.8571C15.6865 18.4784 15.8859 18.0683 16.0496 17.6869C16.2215 17.2868 16.386 16.8514 16.5052 16.3262C16.7423 15.2811 16.8115 13.8284 16.3211 11.5605L16.3059 11.4942C16.1433 10.8198 15.8009 10.5013 15.4065 10.349ZM11.4639 11.4053C11.4541 11.4171 11.4567 11.4162 11.4647 11.4043C11.4644 11.4046 11.4642 11.4049 11.4639 11.4053Z" fill="white"/>
<path d="M14.2199 11.1348C14.1973 11.295 14.5132 11.7226 14.9253 11.7797C15.3366 11.8371 15.6886 11.503 15.7109 11.3429C15.7333 11.1827 15.4177 11.0062 15.0055 10.9488C14.594 10.8914 14.2417 10.975 14.22 11.1348H14.2199Z" fill="white"/>
<path d="M26.7466 10.8096C26.7689 10.9698 26.4533 11.3974 26.0412 11.4545C25.6296 11.5119 25.2775 11.1777 25.255 11.0177C25.2332 10.8574 25.5489 10.6809 25.9606 10.6236C26.3723 10.5662 26.7242 10.6497 26.7466 10.8097V10.8096Z" fill="white"/>
<path d="M28.1935 9.21068C28.4636 9.19612 28.6943 9.40328 28.7089 9.67338C28.7456 10.3537 28.6714 10.9224 28.5889 11.4681C28.5057 12.0173 28.4162 12.5329 28.396 13.1662V13.1666C28.3815 13.6128 28.4273 14.0845 28.4878 14.6005C28.5472 15.1061 28.6214 15.6594 28.649 16.2198C28.7051 17.3582 28.5739 18.5896 27.7484 19.8226C27.5979 20.0474 27.2937 20.1075 27.0689 19.9571C26.8442 19.8066 26.7839 19.5024 26.9344 19.2776C27.6011 18.2819 27.7209 17.2859 27.6707 16.268C27.6451 15.7502 27.5769 15.243 27.5149 14.7147C27.4542 14.1967 27.3999 13.6609 27.417 13.1348C27.4394 12.4303 27.5405 11.849 27.6204 11.3215C27.7007 10.7904 27.7619 10.3027 27.7308 9.7261C27.7162 9.45601 27.9234 9.22526 28.1935 9.21068Z" fill="white"/>
</svg>
