<svg width="28" height="30" viewBox="0 0 28 30" fill="none" xmlns="http://www.w3.org/2000/svg">
<path d="M20.994 10.3617C20.5864 9.3965 20.0028 8.52944 19.2596 7.78466C18.5164 7.04005 17.6506 6.45479 16.6862 6.04516C15.6876 5.62094 14.6268 5.40472 13.5336 5.40237C12.4396 5.39969 11.3773 5.61121 10.3774 6.0299C9.41118 6.43449 8.54311 7.01505 7.79732 7.7553C7.05137 8.49572 6.4646 9.35943 6.05296 10.3224C5.62689 11.3193 5.40799 12.3798 5.40245 13.4742C5.39188 15.5587 6.17038 17.5438 7.59485 19.0637C8.90409 20.4608 9.62522 22.2733 9.62522 24.1673V25.2006H17.4078V24.1765C17.4078 22.2671 18.1221 20.4587 19.4191 19.084C20.8452 17.5726 21.6306 15.5953 21.6306 13.5164C21.6306 12.4228 21.4166 11.3614 20.9942 10.3617H20.994ZM18.297 18.0256C17.5179 18.8514 16.9106 19.8082 16.4923 20.8695C16.1395 21.7644 15.9342 22.7004 15.8799 23.6582H11.1532C11.0987 22.697 10.8898 21.756 10.5302 20.854C10.1097 19.7991 9.50058 18.842 8.72008 18.0091C7.56667 16.7782 6.93613 15.1706 6.94468 13.4822C6.96313 9.87457 9.90971 6.94494 13.5164 6.94494C13.5211 6.94494 13.5258 6.94494 13.5304 6.94494C17.1462 6.95265 20.0879 9.90057 20.0879 13.5166C20.0879 15.2003 19.4518 16.8017 18.2969 18.0256H18.297Z" fill="url(#paint0_linear_7304_513)"/>
<path d="M20.994 10.3617C20.5864 9.3965 20.0028 8.52944 19.2596 7.78466C18.5164 7.04005 17.6506 6.45479 16.6862 6.04516C15.6876 5.62094 14.6268 5.40472 13.5336 5.40237C12.4396 5.39969 11.3773 5.61121 10.3774 6.0299C9.41118 6.43449 8.54311 7.01505 7.79732 7.7553C7.05137 8.49572 6.4646 9.35943 6.05296 10.3224C5.62689 11.3193 5.40799 12.3798 5.40245 13.4742C5.39188 15.5587 6.17038 17.5438 7.59485 19.0637C8.90409 20.4608 9.62522 22.2733 9.62522 24.1673V25.2006H17.4078V24.1765C17.4078 22.2671 18.1221 20.4587 19.4191 19.084C20.8452 17.5726 21.6306 15.5953 21.6306 13.5164C21.6306 12.4228 21.4166 11.3614 20.9942 10.3617H20.994ZM18.297 18.0256C17.5179 18.8514 16.9106 19.8082 16.4923 20.8695C16.1395 21.7644 15.9342 22.7004 15.8799 23.6582H11.1532C11.0987 22.697 10.8898 21.756 10.5302 20.854C10.1097 19.7991 9.50058 18.842 8.72008 18.0091C7.56667 16.7782 6.93613 15.1706 6.94468 13.4822C6.96313 9.87457 9.90971 6.94494 13.5164 6.94494C13.5211 6.94494 13.5258 6.94494 13.5304 6.94494C17.1462 6.95265 20.0879 9.90057 20.0879 13.5166C20.0879 15.2003 19.4518 16.8017 18.2969 18.0256H18.297Z" fill="url(#paint1_linear_7304_513)"/>
<path d="M26.2611 12.7461H23.5291C23.1032 12.7461 22.7578 13.0913 22.7578 13.5174C22.7578 13.9434 23.103 14.2887 23.5291 14.2887H26.2611C26.687 14.2887 27.0324 13.9434 27.0324 13.5174C27.0324 13.0913 26.6872 12.7461 26.2611 12.7461Z" fill="white"/>
<path d="M26.2611 12.7461H23.5291C23.1032 12.7461 22.7578 13.0913 22.7578 13.5174C22.7578 13.9434 23.103 14.2887 23.5291 14.2887H26.2611C26.687 14.2887 27.0324 13.9434 27.0324 13.5174C27.0324 13.0913 26.6872 12.7461 26.2611 12.7461Z" fill="url(#paint2_linear_7304_513)"/>
<path d="M4.27443 13.5174C4.27443 13.0915 3.92922 12.7461 3.50315 12.7461H0.771283C0.345383 12.7461 0 13.0913 0 13.5174C0 13.9434 0.345216 14.2887 0.771283 14.2887H3.50332C3.92922 14.2887 4.2746 13.9434 4.2746 13.5174H4.27443Z" fill="white"/>
<path d="M4.27443 13.5174C4.27443 13.0915 3.92922 12.7461 3.50315 12.7461H0.771283C0.345383 12.7461 0 13.0913 0 13.5174C0 13.9434 0.345216 14.2887 0.771283 14.2887H3.50332C3.92922 14.2887 4.2746 13.9434 4.2746 13.5174H4.27443Z" fill="url(#paint3_linear_7304_513)"/>
<path d="M13.5135 4.27443C13.9394 4.27443 14.2848 3.92922 14.2848 3.50315V0.771283C14.2848 0.345383 13.9395 0 13.5135 0C13.0874 0 12.7422 0.345216 12.7422 0.771283V3.50332C12.7422 3.92922 13.0874 4.2746 13.5135 4.2746V4.27443Z" fill="white"/>
<path d="M13.5135 4.27443C13.9394 4.27443 14.2848 3.92922 14.2848 3.50315V0.771283C14.2848 0.345383 13.9395 0 13.5135 0C13.0874 0 12.7422 0.345216 12.7422 0.771283V3.50332C12.7422 3.92922 13.0874 4.2746 13.5135 4.2746V4.27443Z" fill="url(#paint4_linear_7304_513)"/>
<path d="M20.5917 7.20487C20.7891 7.20487 20.9864 7.12955 21.137 6.97892L23.0688 5.04702C23.37 4.74592 23.3699 4.25746 23.0688 3.95636C22.7677 3.65526 22.2794 3.65509 21.9781 3.95636L20.0462 5.88826C19.7449 6.18935 19.7451 6.67782 20.0462 6.97892C20.1968 7.12955 20.3941 7.20487 20.5915 7.20487H20.5917Z" fill="white"/>
<path d="M20.5917 7.20487C20.7891 7.20487 20.9864 7.12955 21.137 6.97892L23.0688 5.04702C23.37 4.74592 23.3699 4.25746 23.0688 3.95636C22.7677 3.65526 22.2794 3.65509 21.9781 3.95636L20.0462 5.88826C19.7449 6.18935 19.7451 6.67782 20.0462 6.97892C20.1968 7.12955 20.3941 7.20487 20.5915 7.20487H20.5917Z" fill="url(#paint5_linear_7304_513)"/>
<path d="M5.88832 20.0499L3.95642 21.9818C3.65515 22.283 3.65515 22.7713 3.95642 23.0724C4.10705 23.2231 4.30432 23.2984 4.50175 23.2984C4.69919 23.2984 4.89645 23.2231 5.04709 23.0724L6.97898 21.1407C7.28008 20.8394 7.28008 20.3511 6.97898 20.05C6.67772 19.7489 6.18942 19.7489 5.88832 20.05V20.0499Z" fill="white"/>
<path d="M5.88832 20.0499L3.95642 21.9818C3.65515 22.283 3.65515 22.7713 3.95642 23.0724C4.10705 23.2231 4.30432 23.2984 4.50175 23.2984C4.69919 23.2984 4.89645 23.2231 5.04709 23.0724L6.97898 21.1407C7.28008 20.8394 7.28008 20.3511 6.97898 20.05C6.67772 19.7489 6.18942 19.7489 5.88832 20.05V20.0499Z" fill="url(#paint6_linear_7304_513)"/>
<path d="M21.1369 20.0502C20.8357 19.7489 20.3474 19.7489 20.0463 20.0502C19.745 20.3514 19.745 20.8397 20.0463 21.1408L21.9782 23.0726C22.1288 23.2232 22.3261 23.2985 22.5235 23.2985C22.7209 23.2985 22.9182 23.2232 23.0688 23.0726C23.3701 22.7713 23.3701 22.283 23.0688 21.9819L21.1371 20.05L21.1369 20.0502Z" fill="white"/>
<path d="M21.1369 20.0502C20.8357 19.7489 20.3474 19.7489 20.0463 20.0502C19.745 20.3514 19.745 20.8397 20.0463 21.1408L21.9782 23.0726C22.1288 23.2232 22.3261 23.2985 22.5235 23.2985C22.7209 23.2985 22.9182 23.2232 23.0688 23.0726C23.3701 22.7713 23.3701 22.283 23.0688 21.9819L21.1371 20.05L21.1369 20.0502Z" fill="url(#paint7_linear_7304_513)"/>
<path d="M5.88819 6.97886C6.03883 7.12949 6.23609 7.20481 6.43352 7.20481C6.63096 7.20481 6.82822 7.12949 6.97886 6.97886C7.27996 6.67759 7.27996 6.18929 6.97886 5.88819L5.04696 3.95629C4.74586 3.65519 4.25739 3.65519 3.95629 3.95629C3.65519 4.25756 3.65519 4.74586 3.95629 5.04696L5.88819 6.97886Z" fill="white"/>
<path d="M5.88819 6.97886C6.03883 7.12949 6.23609 7.20481 6.43352 7.20481C6.63096 7.20481 6.82822 7.12949 6.97886 6.97886C7.27996 6.67759 7.27996 6.18929 6.97886 5.88819L5.04696 3.95629C4.74586 3.65519 4.25739 3.65519 3.95629 3.95629C3.65519 4.25756 3.65519 4.74586 3.95629 5.04696L5.88819 6.97886Z" fill="url(#paint8_linear_7304_513)"/>
<path d="M9.62143 26.9234C9.62143 28.042 10.5282 28.9489 11.6469 28.9489H11.7019V29.1426C11.7019 29.617 12.0864 30.0015 12.5608 30.0015H14.46C14.9344 30.0015 15.3188 29.617 15.3188 29.1426V28.9489H15.3738C16.4925 28.9489 17.3993 28.042 17.3993 26.9234V26.2266H9.62109V26.9234H9.62143Z" fill="white"/>
<path d="M9.62143 26.9234C9.62143 28.042 10.5282 28.9489 11.6469 28.9489H11.7019V29.1426C11.7019 29.617 12.0864 30.0015 12.5608 30.0015H14.46C14.9344 30.0015 15.3188 29.617 15.3188 29.1426V28.9489H15.3738C16.4925 28.9489 17.3993 28.042 17.3993 26.9234V26.2266H9.62109V26.9234H9.62143Z" fill="url(#paint9_linear_7304_513)"/>
<path d="M12.2596 8.44922C11.7901 8.44922 11.3345 8.54114 10.9052 8.72264C10.4907 8.89776 10.1188 9.14837 9.79962 9.46759C9.4804 9.7868 9.2298 10.1587 9.05467 10.5732C8.87334 11.0024 8.78125 11.4582 8.78125 11.9275C8.78125 12.3534 9.12647 12.6988 9.55253 12.6988C9.9786 12.6988 10.3238 12.3536 10.3238 11.9275C10.3238 10.8602 11.1922 9.99179 12.2596 9.99179C12.6855 9.99179 13.0309 9.64657 13.0309 9.2205C13.0309 8.79444 12.6856 8.44922 12.2596 8.44922Z" fill="white"/>
<path d="M12.2596 8.44922C11.7901 8.44922 11.3345 8.54114 10.9052 8.72264C10.4907 8.89776 10.1188 9.14837 9.79962 9.46759C9.4804 9.7868 9.2298 10.1587 9.05467 10.5732C8.87334 11.0024 8.78125 11.4582 8.78125 11.9275C8.78125 12.3534 9.12647 12.6988 9.55253 12.6988C9.9786 12.6988 10.3238 12.3536 10.3238 11.9275C10.3238 10.8602 11.1922 9.99179 12.2596 9.99179C12.6855 9.99179 13.0309 9.64657 13.0309 9.2205C13.0309 8.79444 12.6856 8.44922 12.2596 8.44922Z" fill="url(#paint10_linear_7304_513)"/>
<defs>
<linearGradient id="paint0_linear_7304_513" x1="13.5165" y1="5.40234" x2="13.5165" y2="25.2006" gradientUnits="userSpaceOnUse">
<stop stop-color="#58D7A7"/>
<stop offset="0.49" stop-color="#32D798"/>
<stop offset="1" stop-color="#58D7A7"/>
</linearGradient>
<linearGradient id="paint1_linear_7304_513" x1="5.40234" y1="5.40234" x2="15.5208" y2="12.1428" gradientUnits="userSpaceOnUse">
<stop stop-color="#FFFFFB"/>
<stop offset="1" stop-color="#FFFFFB" stop-opacity="0"/>
</linearGradient>
<linearGradient id="paint2_linear_7304_513" x1="22.7578" y1="12.7461" x2="23.3916" y2="14.1733" gradientUnits="userSpaceOnUse">
<stop stop-color="#FFFFFB"/>
<stop offset="1" stop-color="#FFFFFB" stop-opacity="0"/>
</linearGradient>
<linearGradient id="paint3_linear_7304_513" x1="0" y1="12.7461" x2="0.633748" y2="14.1733" gradientUnits="userSpaceOnUse">
<stop stop-color="#FFFFFB"/>
<stop offset="1" stop-color="#FFFFFB" stop-opacity="0"/>
</linearGradient>
<linearGradient id="paint4_linear_7304_513" x1="12.7422" y1="0" x2="14.0208" y2="0.374995" gradientUnits="userSpaceOnUse">
<stop stop-color="#FFFFFB"/>
<stop offset="1" stop-color="#FFFFFB" stop-opacity="0"/>
</linearGradient>
<linearGradient id="paint5_linear_7304_513" x1="19.8203" y1="3.73047" x2="21.7039" y2="5.26122" gradientUnits="userSpaceOnUse">
<stop stop-color="#FFFFFB"/>
<stop offset="1" stop-color="#FFFFFB" stop-opacity="0"/>
</linearGradient>
<linearGradient id="paint6_linear_7304_513" x1="3.73047" y1="19.8242" x2="5.61395" y2="21.355" gradientUnits="userSpaceOnUse">
<stop stop-color="#FFFFFB"/>
<stop offset="1" stop-color="#FFFFFB" stop-opacity="0"/>
</linearGradient>
<linearGradient id="paint7_linear_7304_513" x1="19.8203" y1="19.8242" x2="21.7039" y2="21.355" gradientUnits="userSpaceOnUse">
<stop stop-color="#FFFFFB"/>
<stop offset="1" stop-color="#FFFFFB" stop-opacity="0"/>
</linearGradient>
<linearGradient id="paint8_linear_7304_513" x1="3.73047" y1="3.73047" x2="5.61401" y2="5.26116" gradientUnits="userSpaceOnUse">
<stop stop-color="#FFFFFB"/>
<stop offset="1" stop-color="#FFFFFB" stop-opacity="0"/>
</linearGradient>
<linearGradient id="paint9_linear_7304_513" x1="9.62109" y1="26.2266" x2="11.4617" y2="29.3088" gradientUnits="userSpaceOnUse">
<stop stop-color="#FFFFFB"/>
<stop offset="1" stop-color="#FFFFFB" stop-opacity="0"/>
</linearGradient>
<linearGradient id="paint10_linear_7304_513" x1="8.78125" y1="8.44922" x2="11.0851" y2="10.3216" gradientUnits="userSpaceOnUse">
<stop stop-color="#FFFFFB"/>
<stop offset="1" stop-color="#FFFFFB" stop-opacity="0"/>
</linearGradient>
</defs>
</svg>
