<svg width="20" height="20" viewBox="0 0 20 20" fill="none" xmlns="http://www.w3.org/2000/svg">
<path d="M18.1818 10C18.1818 5.48131 14.5187 1.81818 10 1.81818C5.48131 1.81818 1.81818 5.48131 1.81818 10C1.81818 14.5187 5.48131 18.1818 10 18.1818C14.5187 18.1818 18.1818 14.5187 18.1818 10ZM20 10C20 15.5228 15.5228 20 10 20C4.47715 20 0 15.5228 0 10C0 4.47715 4.47715 0 10 0C15.5228 0 20 4.47715 20 10Z" fill="#022C3C"/>
<path d="M10.0147 13.6377C10.5168 13.6377 10.9238 14.0447 10.9238 14.5468C10.9236 15.0487 10.5167 15.4559 10.0147 15.4559H10.0058C9.50389 15.4559 9.09695 15.0487 9.09675 14.5468C9.09675 14.0447 9.50376 13.6377 10.0058 13.6377H10.0147ZM8.09089 5.04395C8.83112 4.60897 9.70116 4.44966 10.5474 4.59473C11.3937 4.73989 12.1614 5.17993 12.7145 5.83674C13.2673 6.49347 13.5705 7.32474 13.5694 8.18316L13.5579 8.43795C13.4419 9.68759 12.4917 10.5245 11.8009 10.985C11.4051 11.2489 11.0154 11.4425 10.7285 11.5701C10.5837 11.6344 10.4612 11.6831 10.3734 11.7165C10.3295 11.7333 10.2937 11.7464 10.2677 11.7556C10.2549 11.7602 10.2446 11.7644 10.2367 11.7671C10.2328 11.7685 10.2295 11.7698 10.2269 11.7707C10.2257 11.7711 10.2243 11.7713 10.2233 11.7716L10.2216 11.7725H10.2207C9.74437 11.9312 9.22889 11.6735 9.07012 11.1972C8.91184 10.7215 9.16851 10.2069 9.64363 10.0475V10.0484L9.6454 10.0475C9.6478 10.0467 9.65233 10.0453 9.65872 10.0431C9.67264 10.0381 9.69581 10.0298 9.72619 10.0182C9.78748 9.99486 9.87899 9.95828 9.98986 9.90901C10.2142 9.80929 10.5067 9.66271 10.7924 9.47222C11.4191 9.0544 11.751 8.60953 11.7512 8.18316V8.18138C11.7519 7.75206 11.6007 7.33619 11.3242 7.00773C11.0477 6.67924 10.6634 6.45887 10.2402 6.38628C9.81708 6.31375 9.38165 6.39337 9.01152 6.61089C8.64145 6.82839 8.36036 7.17012 8.21784 7.57502C8.05123 8.04865 7.53203 8.29828 7.0584 8.13166C6.58485 7.96506 6.33617 7.44579 6.50265 6.97222C6.78762 6.16212 7.35052 5.47907 8.09089 5.04395Z" fill="#022C3C"/>
</svg>
