<svg width="60" height="60" viewBox="0 0 60 60" fill="none" xmlns="http://www.w3.org/2000/svg">
<path d="M0 1.06211C0 0.475524 0.475524 0 1.06211 0C1.6487 0 2.12422 0.475524 2.12422 1.06211V57.8747H58.9368C59.5234 57.8748 59.999 58.3503 59.999 58.9368C59.9989 59.5234 59.5234 59.9989 58.9368 59.999H1.06211C0.47554 59.999 2.62752e-05 59.5234 0 58.9368V1.06211Z" fill="#00A78B"/>
<path d="M26.0128 23.7595C26.0128 19.8818 22.8696 16.7378 18.9919 16.7375C15.114 16.7375 11.9699 19.8816 11.9699 23.7595C11.9702 27.6372 15.1142 30.7804 18.9919 30.7804C22.8694 30.7801 26.0126 27.637 26.0128 23.7595ZM28.1371 23.7595C28.1368 28.8102 24.0426 32.9044 18.9919 32.9046C13.941 32.9046 9.84594 28.8103 9.8457 23.7595C9.8457 18.7084 13.9408 14.6133 18.9919 14.6133C24.0428 14.6135 28.1371 18.7086 28.1371 23.7595Z" fill="#00A78B"/>
<path d="M57.8761 10.2517C57.8761 6.37384 54.7325 3.22983 50.8552 3.22969C46.9772 3.22969 43.8332 6.37381 43.8332 10.2517C43.8334 14.1293 46.9774 17.2726 50.8552 17.2726C54.7324 17.2725 57.8759 14.1293 57.8761 10.2517ZM60.0003 10.2517C60.0001 15.3024 55.9056 19.3967 50.8552 19.3968C45.8043 19.3968 41.7092 15.3025 41.709 10.2517C41.709 5.20058 45.8041 1.10547 50.8552 1.10547C55.9057 1.10561 60.0003 5.20072 60.0003 10.2517Z" fill="#00A78B"/>
<path d="M46.6359 39.9314C46.6359 36.0536 43.4927 32.9096 39.6149 32.9094C35.7371 32.9094 32.593 36.0535 32.593 39.9314C32.5932 43.8089 35.7372 46.9523 39.6149 46.9523C43.4925 46.952 46.6356 43.8088 46.6359 39.9314ZM48.7601 39.9314C48.7599 44.982 44.6657 49.0762 39.6149 49.0765C34.564 49.0765 30.469 44.9821 30.4688 39.9314C30.4688 34.8803 34.5639 30.7852 39.6149 30.7852C44.6658 30.7854 48.7601 34.8804 48.7601 39.9314Z" fill="#00A78B"/>
<path d="M11.822 27.9843C12.2229 27.5561 12.8947 27.5346 13.3228 27.9355C13.751 28.3365 13.7735 29.0082 13.3726 29.4364L1.83667 41.7554C1.43567 42.1831 0.763822 42.205 0.335815 41.8042C-0.092281 41.4032 -0.113855 40.7315 0.287066 40.3033L11.822 27.9843Z" fill="#00A78B"/>
<path d="M25.2615 27.0644C25.6615 26.6356 26.3334 26.6117 26.7624 27.0115L34.1598 33.9111C34.5885 34.3112 34.6117 34.9831 34.2117 35.412C33.8116 35.8407 33.1397 35.8638 32.7108 35.4638L25.3144 28.5653C24.8856 28.1653 24.8617 27.4934 25.2615 27.0644Z" fill="#00A78B"/>
<path d="M47.5179 17.6092C47.7186 17.0581 48.3276 16.7739 48.8788 16.9745C49.4299 17.1751 49.714 17.7842 49.5135 18.3353L44.1791 32.9871C43.9784 33.5381 43.3694 33.8223 42.8183 33.6218C42.2671 33.4212 41.9828 32.8112 42.1835 32.26L47.5179 17.6092Z" fill="#00A78B"/>
</svg>
