<svg width="35" height="35" viewBox="0 0 35 35" fill="none" xmlns="http://www.w3.org/2000/svg">
<path d="M23.3462 19.2595C25.6464 19.2595 28.9745 18.7851 28.9745 16.0491C28.9819 15.8377 28.9616 15.6262 28.9175 15.4203L27.5477 9.47019C27.2314 8.16102 26.9538 7.56711 24.6554 6.41791C22.8718 5.50591 18.9866 4 17.8374 4C16.7673 4 16.4565 5.37904 15.1805 5.37904C13.9044 5.37904 13.0402 4.34936 11.891 4.34936C10.7418 4.34936 10.0688 5.10139 9.51353 6.64775C9.51353 6.64775 7.96717 11.0092 7.76858 11.6417C7.73733 11.7576 7.72262 11.8789 7.72813 11.9984C7.72813 13.6937 14.4027 19.2522 23.3462 19.2522M29.3276 17.1597C29.6457 18.6656 29.6457 18.8237 29.6457 19.0223C29.6457 21.5965 26.7515 23.0252 22.9472 23.0252C14.3494 23.0307 6.81797 17.9926 6.81797 14.6627C6.81797 14.1994 6.91174 13.7397 7.09561 13.3149C4.00289 13.4694 0 14.021 0 17.555C0 23.3433 13.715 30.4775 24.5745 30.4775C32.9002 30.4775 35 26.7118 35 23.7386C35 21.3998 32.9774 18.7447 29.3312 17.1597" fill="#EE0000"/>
<path d="M29.327 17.1596C29.6451 18.6655 29.6451 18.8236 29.6451 19.0222C29.6451 21.5964 26.7509 23.0251 22.9466 23.0251C14.3488 23.0306 6.81738 17.9925 6.81738 14.6626C6.81738 14.1992 6.91116 13.7395 7.09503 13.3148L7.768 11.6489C7.73674 11.7629 7.72387 11.8806 7.72755 11.9983C7.72755 13.6936 14.4021 19.252 23.3456 19.252C25.6459 19.252 28.9739 18.7776 28.9739 16.0416C28.9813 15.8302 28.9611 15.6187 28.9169 15.4128L29.327 17.1596Z" fill="black"/>
</svg>
