<svg width="136" height="42" viewBox="0 0 136 42" fill="none" xmlns="http://www.w3.org/2000/svg">
<path d="M22.986 41.9639V37.3315H23.443V41.9639H22.986Z" fill="#3B3B3B"/>
<path d="M30.014 41.9639V38.1594L28.324 41.1018H28.0573L26.3673 38.1594V41.9639H25.9103V37.3315H26.3803L28.1874 40.5033L30.0075 37.3315H30.471V41.9639H30.014Z" fill="#3B3B3B"/>
<path d="M34.3717 37.3315H34.7572L36.6813 41.9639H36.1982L35.5981 40.5146H33.5161L32.9224 41.9639H32.4329L34.3717 37.3315ZM35.494 40.1568L34.5603 37.8667L33.6137 40.1568H35.4923H35.494Z" fill="#3B3B3B"/>
<path d="M41.8307 41.2859C41.3997 41.7609 40.9036 41.9967 40.3424 41.9967C40.0285 41.9967 39.7406 41.93 39.4771 41.795C39.2136 41.66 38.9859 41.4811 38.7924 41.2599C38.5988 41.0387 38.4475 40.7866 38.3386 40.5068C38.2296 40.2254 38.1759 39.9375 38.1759 39.6415C38.1759 39.3455 38.2296 39.0364 38.3353 38.7534C38.441 38.4704 38.5907 38.2216 38.7826 38.0069C38.9745 37.7922 39.2006 37.6197 39.4608 37.4912C39.7211 37.3627 40.0074 37.2993 40.3164 37.2993C40.5425 37.2993 40.7491 37.3237 40.9361 37.3741C41.1231 37.4246 41.2891 37.4945 41.4354 37.5823C41.5818 37.6718 41.7071 37.7775 41.8144 37.9028C41.9218 38.0264 42.0112 38.163 42.086 38.311L41.7331 38.5452C41.5802 38.2573 41.3834 38.0475 41.1394 37.9125C40.8954 37.7775 40.6189 37.7108 40.3099 37.7108C40.0529 37.7108 39.8219 37.7645 39.6154 37.8735C39.4088 37.9825 39.2331 38.1272 39.0867 38.3078C38.9404 38.4883 38.8281 38.6949 38.7501 38.9275C38.672 39.1601 38.633 39.4008 38.633 39.648C38.633 39.9083 38.6769 40.1571 38.7663 40.3913C38.8558 40.6255 38.9778 40.8321 39.1355 41.0078C39.2917 41.1835 39.4755 41.325 39.6869 41.429C39.8984 41.5331 40.1277 41.5852 40.3749 41.5852C40.6401 41.5852 40.8938 41.5234 41.1345 41.3998C41.3753 41.2762 41.6079 41.0793 41.8291 40.8093V40.04H40.7978V39.687H42.2146V41.9642H41.8291V41.2859H41.8307Z" fill="#3B3B3B"/>
<path d="M44.4592 41.9639V37.3315H44.9163V41.9639H44.4592Z" fill="#3B3B3B"/>
<path d="M47.8393 38.179V41.9639H47.3822V37.3315H47.7352L50.8011 41.188V37.338H51.2582V41.9639H50.8597L47.8393 38.179Z" fill="#3B3B3B"/>
<path d="M56.8387 41.5589V41.9639H53.7256V37.3315H56.7802V37.7365H54.1826V39.407H56.4468V39.7925H54.1826V41.5605H56.8387V41.5589Z" fill="#3B3B3B"/>
<path d="M61.9735 41.9639V37.3315H62.4306V41.9639H61.9735Z" fill="#3B3B3B"/>
<path d="M69.0002 41.9639V38.1594L67.3102 41.1018H67.0435L65.3535 38.1594V41.9639H64.8965V37.3315H65.3666L67.1736 40.5033L68.9937 37.3315H69.4572V41.9639H69.0002Z" fill="#3B3B3B"/>
<path d="M71.9246 41.9639V37.3315H73.8423C74.0424 37.3315 74.2262 37.3738 74.3937 37.4584C74.5612 37.543 74.706 37.6536 74.828 37.7919C74.95 37.9285 75.0459 38.0846 75.1142 38.2587C75.1842 38.4327 75.2183 38.6084 75.2183 38.7873C75.2183 38.9792 75.1858 39.163 75.1208 39.3387C75.0557 39.5143 74.9646 39.6705 74.8459 39.8055C74.7288 39.9405 74.5889 40.0495 74.4246 40.1324C74.2619 40.2154 74.0798 40.256 73.8797 40.256H72.3784V41.9655H71.9214L71.9246 41.9639ZM72.3801 39.8494H73.8618C73.9968 39.8494 74.1188 39.8201 74.231 39.7616C74.3416 39.703 74.436 39.6249 74.5157 39.5273C74.5938 39.4298 74.6556 39.3159 74.6979 39.1874C74.7418 39.0589 74.7629 38.9255 74.7629 38.7857C74.7629 38.6458 74.7385 38.5059 74.6881 38.3774C74.6377 38.2489 74.571 38.1367 74.4864 38.0407C74.4018 37.9447 74.301 37.8699 74.1855 37.8162C74.07 37.7626 73.9497 37.7349 73.8228 37.7349H72.3801V39.8494Z" fill="#3B3B3B"/>
<path d="M79.1543 41.9965C78.8323 41.9965 78.5379 41.9299 78.2695 41.7981C78.0028 41.6647 77.7718 41.4891 77.5815 41.2695C77.3896 41.0499 77.2416 40.7994 77.1375 40.5164C77.0334 40.2334 76.9813 39.9439 76.9813 39.6495C76.9813 39.3551 77.0366 39.0444 77.1472 38.7614C77.2578 38.4784 77.4107 38.2279 77.6075 38.0116C77.8027 37.7936 78.0337 37.6212 78.2988 37.4927C78.5639 37.3642 78.8518 37.3008 79.1609 37.3008C79.4699 37.3008 79.7773 37.3691 80.0457 37.5057C80.3124 37.6424 80.5418 37.8229 80.7304 38.0441C80.9191 38.2653 81.0671 38.5174 81.1712 38.7972C81.2753 39.0769 81.3274 39.3632 81.3274 39.656C81.3274 39.965 81.2721 40.261 81.1615 40.5441C81.0509 40.8271 80.898 41.0759 80.7044 41.2906C80.5109 41.5053 80.2815 41.6777 80.0164 41.8062C79.7513 41.9347 79.4634 41.9982 79.1543 41.9982V41.9965ZM77.4384 39.6478C77.4384 39.9 77.479 40.1423 77.562 40.3749C77.6449 40.6075 77.7621 40.8141 77.9149 40.9946C78.0678 41.1752 78.2484 41.3183 78.4566 41.4256C78.6648 41.533 78.8974 41.585 79.1543 41.585C79.4113 41.585 79.6521 41.5281 79.8651 41.4159C80.0782 41.302 80.2587 41.1556 80.4068 40.9718C80.5548 40.7897 80.6686 40.5831 80.75 40.3521C80.8313 40.1212 80.8703 39.8869 80.8703 39.6478C80.8703 39.3957 80.828 39.1534 80.7435 38.9208C80.6589 38.6882 80.5401 38.4833 80.3872 38.3043C80.2344 38.1254 80.0538 37.9839 79.8456 37.8766C79.6374 37.7692 79.4065 37.7172 79.1543 37.7172C78.9022 37.7172 78.6566 37.7725 78.4436 37.8831C78.2305 37.9937 78.0499 38.1417 77.9019 38.3239C77.7539 38.506 77.6401 38.7126 77.5587 38.9436C77.4774 39.1745 77.4384 39.4087 77.4384 39.6478Z" fill="#3B3B3B"/>
<path d="M86.2004 38.1989C86.0703 38.0509 85.8963 37.9322 85.6783 37.8395C85.4604 37.7484 85.2132 37.7029 84.935 37.7029C84.5268 37.7029 84.2275 37.7793 84.0404 37.9338C83.8534 38.0883 83.7607 38.2982 83.7607 38.5633C83.7607 38.7032 83.7851 38.817 83.8355 38.9065C83.8859 38.9959 83.9624 39.0724 84.0665 39.1374C84.1706 39.2025 84.3039 39.2594 84.4682 39.3066C84.6325 39.3538 84.8244 39.4026 85.0456 39.4497C85.2929 39.5018 85.5157 39.5603 85.7141 39.6254C85.9126 39.6905 86.0801 39.7718 86.22 39.8694C86.3598 39.967 86.4656 40.0857 86.5404 40.2256C86.6136 40.3655 86.651 40.5379 86.651 40.7477C86.651 40.9575 86.6103 41.1462 86.5274 41.3023C86.4444 41.4585 86.3289 41.5902 86.1809 41.6943C86.0329 41.7984 85.8573 41.8765 85.6523 41.9253C85.4474 41.9757 85.2245 42.0001 84.9806 42.0001C84.2633 42.0001 83.6436 41.7757 83.1215 41.3284L83.3492 40.9559C83.4321 41.0421 83.5313 41.125 83.6468 41.2031C83.7623 41.2812 83.8908 41.3495 84.0323 41.4081C84.1738 41.4666 84.3251 41.5122 84.4861 41.5447C84.6471 41.5772 84.8163 41.5935 84.9952 41.5935C85.3644 41.5935 85.6523 41.5268 85.8589 41.395C86.0655 41.2633 86.1696 41.0616 86.1696 40.7916C86.1696 40.6485 86.1403 40.5281 86.0817 40.4289C86.0232 40.3313 85.9353 40.2467 85.8182 40.1735C85.7011 40.102 85.5547 40.0402 85.3807 39.9881C85.2067 39.9361 85.005 39.884 84.774 39.832C84.53 39.775 84.3169 39.7165 84.1348 39.6563C83.9526 39.5961 83.7981 39.5197 83.6712 39.4286C83.5444 39.3375 83.45 39.2269 83.3866 39.0984C83.3231 38.9699 83.2922 38.8121 83.2922 38.6251C83.2922 38.412 83.3329 38.2217 83.4126 38.0542C83.4923 37.8866 83.6078 37.7484 83.7558 37.6362C83.9038 37.5256 84.0779 37.441 84.2779 37.3808C84.478 37.3222 84.6992 37.293 84.9432 37.293C85.2522 37.293 85.5271 37.3401 85.7678 37.4328C86.0085 37.5256 86.2281 37.6573 86.4233 37.8281L86.2021 38.1941L86.2004 38.1989Z" fill="#3B3B3B"/>
<path d="M91.4672 38.1989C91.337 38.0509 91.163 37.9322 90.9451 37.8395C90.7271 37.7484 90.4799 37.7029 90.2018 37.7029C89.7935 37.7029 89.4942 37.7793 89.3072 37.9338C89.1201 38.0883 89.0274 38.2982 89.0274 38.5633C89.0274 38.7032 89.0518 38.817 89.1022 38.9065C89.1526 38.9959 89.2291 39.0724 89.3332 39.1374C89.4373 39.2025 89.5706 39.2594 89.7349 39.3066C89.8992 39.3538 90.0911 39.4026 90.3123 39.4497C90.5596 39.5018 90.7824 39.5603 90.9808 39.6254C91.1793 39.6905 91.3468 39.7718 91.4867 39.8694C91.6266 39.967 91.7323 40.0857 91.8071 40.2256C91.8803 40.3655 91.9177 40.5379 91.9177 40.7477C91.9177 40.9575 91.8771 41.1462 91.7941 41.3023C91.7112 41.4585 91.5957 41.5902 91.4477 41.6943C91.2996 41.7984 91.124 41.8765 90.919 41.9253C90.7141 41.9757 90.4913 42.0001 90.2473 42.0001C89.53 42.0001 88.9103 41.7757 88.3882 41.3284L88.6159 40.9559C88.6989 41.0421 88.7981 41.125 88.9135 41.2031C89.029 41.2812 89.1575 41.3495 89.299 41.4081C89.4405 41.4666 89.5918 41.5122 89.7528 41.5447C89.9139 41.5772 90.083 41.5935 90.2619 41.5935C90.6312 41.5935 90.919 41.5268 91.1256 41.395C91.3322 41.2633 91.4363 41.0616 91.4363 40.7916C91.4363 40.6485 91.407 40.5281 91.3484 40.4289C91.2899 40.3313 91.2021 40.2467 91.0849 40.1735C90.9678 40.102 90.8215 40.0402 90.6474 39.9881C90.4734 39.9361 90.2717 39.884 90.0407 39.832C89.7967 39.775 89.5837 39.7165 89.4015 39.6563C89.2193 39.5961 89.0648 39.5197 88.9379 39.4286C88.8111 39.3375 88.7167 39.2269 88.6533 39.0984C88.5899 38.9699 88.559 38.8121 88.559 38.6251C88.559 38.412 88.5996 38.2217 88.6793 38.0542C88.759 37.8866 88.8745 37.7484 89.0225 37.6362C89.1705 37.5256 89.3446 37.441 89.5446 37.3808C89.7447 37.3222 89.9659 37.293 90.2099 37.293C90.5189 37.293 90.7938 37.3401 91.0345 37.4328C91.2753 37.5256 91.4948 37.6573 91.69 37.8281L91.4688 38.1941L91.4672 38.1989Z" fill="#3B3B3B"/>
<path d="M94.0242 41.9639V37.3315H94.4812V41.9639H94.0242Z" fill="#3B3B3B"/>
<path d="M100.432 40.77C100.432 40.944 100.398 41.1034 100.328 41.2498C100.258 41.3962 100.166 41.5215 100.049 41.6288C99.9315 41.7362 99.7933 41.8175 99.6371 41.876C99.481 41.9346 99.3134 41.9639 99.1345 41.9639H96.9485V37.3315H99.1801C99.3411 37.3315 99.4858 37.3657 99.6176 37.4356C99.7477 37.5056 99.8583 37.595 99.951 37.7073C100.042 37.8179 100.114 37.9447 100.162 38.0862C100.213 38.2278 100.237 38.3709 100.237 38.514C100.237 38.7482 100.179 38.9629 100.062 39.1565C99.9445 39.3501 99.7819 39.4948 99.5721 39.5908C99.8372 39.6689 100.047 39.8152 100.202 40.0283C100.356 40.2414 100.432 40.4902 100.432 40.7716V40.77ZM97.4039 37.73V39.4395H98.9963C99.1101 39.4395 99.2142 39.4151 99.3134 39.3679C99.411 39.3208 99.4956 39.2573 99.5655 39.1793C99.6355 39.1012 99.6892 39.0101 99.7282 38.9093C99.7672 38.8068 99.7868 38.6994 99.7868 38.5856C99.7868 38.4717 99.7689 38.3579 99.7315 38.2522C99.694 38.1481 99.642 38.057 99.5753 37.9822C99.507 37.9057 99.4289 37.8455 99.3378 37.8C99.2467 37.7544 99.1459 37.7317 99.0369 37.7317H97.4055L97.4039 37.73ZM99.9754 40.6919C99.9754 40.5781 99.9559 40.4691 99.9169 40.3617C99.8778 40.2544 99.8225 40.1617 99.751 40.0804C99.6794 40.0007 99.5948 39.934 99.4972 39.8852C99.3996 39.8348 99.2939 39.8104 99.1801 39.8104H97.4055V41.5654H99.1345C99.2516 41.5654 99.3622 41.541 99.4647 41.4938C99.5672 41.4466 99.6566 41.3816 99.7315 41.3019C99.8079 41.2222 99.8681 41.1278 99.9104 41.0205C99.9543 40.9131 99.9754 40.8042 99.9754 40.6903V40.6919Z" fill="#3B3B3B"/>
<path d="M102.599 41.9639V37.3315H103.056V41.5605H105.732V41.9655H102.599V41.9639Z" fill="#3B3B3B"/>
<path d="M110.819 41.5589V41.9639H107.706V37.3315H110.761V37.7365H108.163V39.407H110.427V39.7925H108.163V41.5605H110.819V41.5589Z" fill="#3B3B3B"/>
<path d="M59.7371 13.3912C63.1398 10.5253 66.6417 7.64312 70.1013 4.83901C70.817 4.24533 71.5961 3.65978 72.4159 3.21574C80.9616 -1.55647 91.5486 4.76093 92.3179 14.3769C93.2645 23.2593 85.9046 31.0113 76.9555 30.4567C74.8019 30.3184 72.6696 29.6629 70.7991 28.5959C70.046 28.1828 69.0782 27.4753 68.3609 26.9792C66.8906 25.9594 65.4365 24.9216 63.9742 23.892C58.4766 20.0209 51.9559 15.3642 46.5103 11.4215L42.1642 8.27746C41.9154 8.09692 40.8565 7.32107 40.5914 7.13402C39.8725 6.6298 39.0787 6.21829 38.259 5.92877C31.6293 3.66954 24.9915 9.0891 25.255 15.9839C25.3005 23.2626 32.9451 28.4251 39.7326 25.5787C40.4613 25.286 41.1932 24.8598 41.8552 24.432C42.9986 23.7213 45.292 22.3176 46.4436 21.6247C48.6963 20.2763 51.1605 18.8336 53.4555 17.5828C50.9442 20.0079 48.1075 22.542 45.4726 24.8468C45.1456 25.1184 43.2215 26.8279 42.8832 27.054C35.0726 32.9273 23.8383 28.5536 21.2781 19.2939C18.7782 10.592 24.4596 1.59898 33.4851 0.328668C37.1237 -0.193444 40.9492 0.806866 43.9306 2.94736C52.9578 9.35747 62.4648 16.2246 71.37 22.7941C71.8742 23.1634 72.8127 23.8888 73.3543 24.2076C77.8305 26.9954 83.8096 25.3868 86.6804 21.0456C91.303 13.9361 86.5422 4.43888 78.0062 3.99321C75.9942 3.89237 73.8992 4.39985 72.1117 5.40829C71.3879 5.79865 69.5011 7.09824 68.7708 7.56342C65.7748 9.52338 62.769 11.4687 59.7388 13.3864L59.7371 13.3912Z" fill="url(#paint0_linear_6175_4311)"/>
<path d="M18.2886 2.97653C18.2886 4.61768 16.9516 6.01487 15.2502 6.01487C10.1462 6.01487 6.01486 10.1462 6.01486 15.2502V27.4621C6.01486 29.1033 4.67787 30.5005 3.03834 30.5005C1.3988 30.5005 0 29.1033 0 27.4621V15.2502C0 6.80535 6.86554 0 15.2502 0C16.9516 0 18.2886 1.337 18.2886 2.97653Z" fill="black"/>
<path d="M116.77 2.97653C116.77 4.61768 115.433 6.01487 113.731 6.01487C108.627 6.01487 104.496 10.1462 104.496 15.2502V27.4621C104.496 29.1033 103.159 30.5005 101.519 30.5005C99.8798 30.5005 98.481 29.1033 98.481 27.4621V15.2502C98.481 6.80535 105.346 0 113.731 0C115.433 0 116.77 1.337 116.77 2.97653Z" fill="black"/>
<path d="M118.63 30.8777C119.677 30.8777 120.525 30.0293 120.525 28.9828C120.525 27.9363 119.677 27.0879 118.63 27.0879C117.583 27.0879 116.735 27.9363 116.735 28.9828C116.735 30.0293 117.583 30.8777 118.63 30.8777Z" fill="black"/>
<path d="M128.934 30.5084V29.617C128.466 29.6902 128.29 30.1912 127.877 30.4075C124.551 32.1512 121.463 27.8669 123.347 24.7294C124.23 23.2574 126.454 22.4197 128.005 23.3403C128.358 23.5501 128.532 23.9519 128.934 24.0039V23.1126H130.975V30.5084H128.936H128.934ZM126.74 24.7977C123.755 25.0319 124.673 30.0627 127.748 28.7485C129.686 27.9206 129.037 24.6171 126.74 24.7977Z" fill="black"/>
<path d="M134.673 23.1128H132.504V30.5086H134.673V23.1128Z" fill="black"/>
<path d="M133.586 22.4392C134.414 22.4392 135.086 21.7678 135.086 20.9396C135.086 20.1114 134.414 19.4399 133.586 19.4399C132.758 19.4399 132.086 20.1114 132.086 20.9396C132.086 21.7678 132.758 22.4392 133.586 22.4392Z" fill="black"/>
<defs>
<linearGradient id="paint0_linear_6175_4311" x1="20.6844" y1="15.3414" x2="92.4009" y2="15.3414" gradientUnits="userSpaceOnUse">
<stop stop-color="#590685"/>
<stop offset="1" stop-color="#12003C"/>
</linearGradient>
</defs>
</svg>
