<svg width="35" height="35" viewBox="0 0 35 35" fill="none" xmlns="http://www.w3.org/2000/svg">
<circle cx="17.5" cy="17.5" r="17.5" fill="#007AFF"/>
<g clip-path="url(#clip0_6475_2944)">
<path d="M2.97898 19.2144H5.20225C5.58971 19.2144 5.80189 19.1785 5.92627 19.0998C6.07987 19.0064 6.16766 18.8494 6.16766 18.6631C6.16766 18.441 6.05051 18.2475 5.85324 18.1543C5.75099 18.0971 5.5605 18.0684 5.32649 18.0684H4.42688C3.842 18.0684 3.46162 17.9681 3.20577 17.7532C2.91318 17.5024 2.74512 17.1157 2.74512 16.7004C2.74512 16.0917 3.08876 15.5616 3.59338 15.3897C3.81278 15.3108 4.06863 15.2896 4.6392 15.2896H7.05252V16.1418H4.87307C4.41227 16.1489 4.37568 16.1489 4.22223 16.1847C4.01758 16.2347 3.8932 16.421 3.8932 16.6715C3.8932 16.8867 3.99545 17.0585 4.17118 17.1372C4.3174 17.2018 4.43441 17.216 4.78557 17.216H5.56803C6.28482 17.216 6.67228 17.3235 6.95764 17.61C7.17705 17.8247 7.32342 18.2475 7.32342 18.6631C7.32342 19.1716 7.08203 19.6441 6.70179 19.8734C6.46055 20.0237 6.1535 20.0666 5.42918 20.0666H2.97898V19.2144Z" fill="white"/>
<path d="M10.11 15.2534C9.4226 15.2534 8.82282 15.4183 8.44258 15.7191C7.95995 16.0916 7.7041 16.7865 7.7041 17.7034C7.7041 18.3406 7.84265 18.8638 8.12816 19.2576C8.50839 19.795 9.24732 20.0959 10.1834 20.0959C10.8416 20.0959 11.3975 19.938 11.7633 19.6516C12.246 19.2723 12.517 18.5841 12.517 17.746L12.5148 17.6093L12.5089 17.4748L12.4991 17.3439L12.486 17.2154L12.4689 17.0901L12.4477 16.9687L12.4233 16.8513L12.3951 16.7375L12.3798 16.6821L12.3634 16.6279L12.3463 16.5743L12.3284 16.5227L12.31 16.4712L12.2902 16.4214L12.2696 16.3731L12.248 16.3252L12.2263 16.2795L12.2035 16.2344L12.1797 16.1906L12.1552 16.1486L12.1295 16.1074L12.1037 16.0674L12.0767 16.0292L12.049 15.9925C11.6757 15.5187 10.9804 15.2534 10.11 15.2534ZM10.1171 16.0625C10.9875 16.0625 11.3751 16.5643 11.3751 17.6814C11.3751 18.7845 10.9801 19.293 10.1171 19.293C9.23964 19.293 8.84451 18.7842 8.84451 17.6671L8.8451 17.62L8.84569 17.5735L8.84643 17.5278L8.84834 17.4827L8.85041 17.4386L8.85248 17.3949L8.85513 17.3522L8.85838 17.3102L8.86221 17.2687L8.8662 17.2287L8.87077 17.1895L8.87594 17.1508L8.88125 17.1127L8.88715 17.0751L8.89379 17.039L8.90043 17.0028L8.90781 16.9682L8.91577 16.9346L8.92374 16.9011L8.93245 16.8687L8.9416 16.837L8.95074 16.8059L8.96048 16.7763L8.97111 16.7472L8.98232 16.7189L8.99353 16.6912L9.00548 16.6647L9.01803 16.6383L9.03042 16.6131L9.04355 16.5891L9.05742 16.5657L9.07129 16.5433C9.26886 16.235 9.64186 16.0625 10.1171 16.0625Z" fill="white"/>
<path d="M13.0723 15.2896V20.0669H14.1101V18.3974H15.7783C16.3341 18.3974 16.5966 18.3263 16.882 18.0899C17.2184 17.8107 17.4233 17.3452 17.4233 16.8436C17.4233 16.4211 17.2699 16.0269 16.9847 15.7261C16.663 15.3751 16.3628 15.2896 15.5071 15.2896H13.0723ZM14.1101 16.1419H15.5436C15.7118 16.1419 15.8435 16.156 15.9239 16.1847C16.1509 16.2635 16.2826 16.4926 16.2826 16.8076C16.2826 17.0728 16.2019 17.3021 16.0705 17.4096L16.06 17.4186L16.0494 17.4274L16.0381 17.4359L16.0271 17.4444L16.0151 17.4521L16.0033 17.4593L15.9908 17.4664L15.9777 17.473L15.9644 17.4793L15.9505 17.4858L15.9366 17.4911L15.9222 17.4967L15.9068 17.5019L15.8916 17.5061L15.8758 17.5108L15.8593 17.5152L15.8424 17.5188L15.8252 17.5219L15.8074 17.5251L15.7889 17.5282L15.7699 17.5308L15.7507 17.5334L15.7302 17.5355L15.7097 17.5381L15.6886 17.5395L15.6662 17.5408L15.6438 17.5423L15.6207 17.5436L15.5968 17.544L15.5723 17.5447H15.5473L15.5214 17.5453H14.1098V16.1419H14.1101Z" fill="white"/>
<path d="M21.8629 20.0663H20.8243V18.097H18.9448V20.0663H17.9062V15.2896H18.9448V17.2447H20.8243V15.2896H21.8629V20.0663Z" fill="white"/>
<path d="M24.891 15.2534C24.2038 15.2534 23.604 15.4183 23.2236 15.7191C22.741 16.0916 22.4844 16.7865 22.4844 17.7034C22.4844 18.3406 22.6235 18.8638 22.9092 19.2576C23.289 19.795 24.0279 20.0959 24.9642 20.0959C25.6227 20.0959 26.1781 19.938 26.5435 19.6516C27.0261 19.2723 27.297 18.5841 27.297 17.746L27.2949 17.6093L27.2892 17.4748L27.2794 17.3439L27.2661 17.2154L27.2489 17.0901L27.2278 16.9687L27.2033 16.8513L27.1755 16.7375L27.1598 16.6821L27.144 16.6279L27.127 16.5743L27.1086 16.5227L27.0901 16.4712L27.0702 16.4214L27.0497 16.3731L27.0286 16.3252L27.0062 16.2795L26.9831 16.2344L26.9595 16.1906L26.935 16.1486L26.9094 16.1074L26.8837 16.0674L26.8563 16.0292L26.8285 15.9925C26.4558 15.5187 25.7616 15.2534 24.891 15.2534ZM24.8986 16.0625C25.7685 16.0625 26.1564 16.5643 26.1564 17.6814C26.1564 18.7845 25.7613 19.293 24.8986 19.293C24.0211 19.293 23.626 18.7842 23.626 17.6671V17.62L23.6266 17.5735L23.628 17.5278L23.6292 17.4827L23.6313 17.4386L23.6342 17.3949L23.6369 17.3522L23.64 17.3102L23.6431 17.2687L23.6471 17.2287L23.6522 17.1895L23.6568 17.1508L23.662 17.1127L23.668 17.0751L23.6744 17.039L23.6813 17.0028L23.6885 16.9682L23.6963 16.9346L23.7045 16.9011L23.7132 16.8687L23.7223 16.837L23.7315 16.8059L23.7418 16.7763L23.7521 16.7472L23.7627 16.7189L23.774 16.6912L23.7858 16.6647L23.7984 16.6383L23.8108 16.6131L23.8241 16.5891L23.838 16.5657L23.8527 16.5433C24.0499 16.235 24.423 16.0625 24.8986 16.0625Z" fill="white"/>
<path d="M27.9111 19.2144H30.1343C30.5217 19.2144 30.7337 19.1785 30.8582 19.0998C31.0115 19.0064 31.0995 18.8494 31.0995 18.6631C31.0995 18.441 30.9824 18.2475 30.785 18.1543C30.6825 18.0971 30.4926 18.0684 30.2586 18.0684H29.3588C28.7738 18.0684 28.3934 17.9681 28.1376 17.7532C27.8451 17.5024 27.6768 17.1157 27.6768 16.7004C27.6768 16.0917 28.0203 15.5616 28.5252 15.3897C28.7444 15.3108 29.0007 15.2896 29.571 15.2896H31.9845V16.1418H29.805C29.3442 16.1489 29.3076 16.1489 29.1543 16.1847C28.9494 16.2347 28.825 16.421 28.825 16.6715C28.825 16.8867 28.9275 17.0585 29.1034 17.1372C29.2492 17.2018 29.3662 17.216 29.7175 17.216H30.5C31.2166 17.216 31.6042 17.3235 31.8899 17.61C32.109 17.8247 32.2551 18.2474 32.2551 18.663C32.2551 19.1715 32.0138 19.644 31.6334 19.8733C31.3922 20.0236 31.085 20.0665 30.3608 20.0665H27.9109V19.2144H27.9111Z" fill="white"/>
</g>
<defs>
<clipPath id="clip0_6475_2944">
<rect width="30.1" height="5.25" fill="white" transform="translate(2.4502 15.0498)"/>
</clipPath>
</defs>
</svg>
