<svg width="451" height="289" viewBox="0 0 451 289" fill="none" xmlns="http://www.w3.org/2000/svg">
<path d="M448.454 145.673L215.357 11.0945C212.75 9.5878 208.718 9.66431 207.047 11.2534L158.65 56.8899C156.925 58.5261 152.782 58.6026 150.098 57.0488L101.695 29.1043C99.4293 27.7918 95.9922 27.6505 94.0323 28.7864L42.3748 58.6144L1.33493 82.3096C-0.630841 83.4455 -0.383646 85.4231 1.88817 86.7355L77.129 130.177C79.1301 131.33 79.6421 133.025 78.3591 134.244L27.7022 182.034C26.4544 183.217 26.9547 184.865 28.897 185.983L38.6964 191.645L203.768 286.95C206.034 288.262 209.471 288.404 211.431 287.268L257.397 260.73L276.826 249.512L383.619 187.855L410.121 172.553L449.007 150.099C450.973 148.963 450.726 146.986 448.454 145.673Z" fill="#F9F4EF"/>
<path d="M449.001 140.094V150.1C449.001 150.1 450.349 149.341 450.325 148.287V138.299C450.325 138.299 450.384 139.147 449.001 140.094Z" fill="#F9F4EF"/>
<path d="M442.039 143.679L449.666 148.905V138.799L442.039 143.679Z" fill="#F9F4EF"/>
<path d="M28.3275 175.219V185.224C28.3275 185.224 26.9797 184.465 27.0032 183.412L27.0209 173.495C27.0209 173.495 26.9503 174.271 28.3334 175.219H28.3275Z" fill="#F9F4EF"/>
<path d="M35.2719 179.092L27.6443 184.318V174.219L35.2719 179.092Z" fill="#F9F4EF"/>
<path d="M1.32455 76.0123V86.0177C1.32455 86.0177 -0.0232373 85.2585 0.00030486 84.205L0.0179787 74.2878C0.0179787 74.2878 -0.0526592 75.0647 1.33044 76.0123H1.32455Z" fill="#F9F4EF"/>
<path d="M8.26293 79.8793L0.635254 85.1057V75.0061L8.26293 79.8793Z" fill="#F9F4EF"/>
<path d="M375.949 177.526L161.768 53.871C159.085 52.3231 154.935 52.3996 153.217 54.0299L83.3435 120.336C82.0605 121.555 82.5784 123.25 84.5736 124.403L276.266 235.075C278.532 236.388 278.779 238.365 276.819 239.501L383.612 177.844C381.646 178.98 378.215 178.839 375.949 177.526Z" fill="#E8E5D9"/>
<path d="M383.614 177.844L410.116 162.542L383.614 177.844Z" fill="#010101"/>
<path d="M211.433 277.251L276.821 239.501L211.433 277.251Z" fill="#010101"/>
<path d="M276.273 235.075L84.5806 124.403C82.5795 123.249 82.0674 121.554 83.3505 120.336L153.224 54.0295C154.948 52.3933 159.092 52.3168 161.775 53.8706L375.95 177.526C378.216 178.838 381.654 178.98 383.613 177.844L410.116 162.541L449.002 140.088C450.968 138.952 450.72 136.975 448.449 135.662L215.352 1.08315C212.744 -0.423552 208.713 -0.347042 207.041 1.24206L158.65 46.8845C156.926 48.5206 152.782 48.5972 150.098 47.0434L101.696 19.0988C99.4298 17.7863 95.9927 17.6451 94.0328 18.781L42.3753 48.603L1.33542 72.2982C-0.630353 73.4342 -0.383158 75.4117 1.88866 76.7242L77.1295 120.165C79.1305 121.319 79.6426 123.014 78.3596 124.232L27.7027 172.023C26.4549 173.206 26.9552 174.854 28.8974 175.972L38.6969 181.634L203.769 276.939C206.035 278.251 209.472 278.392 211.432 277.257L276.82 239.501C278.786 238.365 278.539 236.387 276.267 235.075H276.273Z" fill="black"/>
<path d="M110.653 107.059C110.595 107.059 110.536 107.041 110.477 107.011L71.9971 84.7229C71.3026 84.3226 70.8906 83.5987 70.8906 82.7983C70.8906 81.9979 71.3085 81.2798 71.9971 80.8796L110.483 58.5852C110.648 58.491 110.859 58.544 110.959 58.7146C111.054 58.8794 111.001 59.0972 110.83 59.1914L72.3502 81.4799C71.8735 81.7565 71.591 82.2509 71.591 82.7983C71.591 83.3456 71.8735 83.84 72.3502 84.1167L110.83 106.405C110.995 106.499 111.054 106.717 110.959 106.882C110.895 106.994 110.777 107.053 110.659 107.053L110.653 107.059Z" fill="#F9F4EF"/>
<path d="M179.191 220.602C178.55 220.602 177.908 220.438 177.337 220.108L144.684 201.257C144.52 201.162 144.461 200.945 144.555 200.78C144.649 200.615 144.867 200.556 145.032 200.65L177.685 219.502C178.615 220.037 179.774 220.037 180.698 219.502L213.127 200.65C213.292 200.556 213.51 200.609 213.604 200.78C213.698 200.945 213.645 201.162 213.481 201.257L181.051 220.108C180.474 220.443 179.833 220.608 179.185 220.608L179.191 220.602Z" fill="#F9F4EF"/>
<path d="M150.677 199.061C153.201 200.515 153.213 202.869 150.706 204.323C148.199 205.777 144.12 205.777 141.601 204.323C139.076 202.869 139.064 200.515 141.572 199.061C144.079 197.608 148.152 197.608 150.677 199.061Z" fill="white"/>
<path d="M146.163 205.753C144.45 205.753 142.737 205.376 141.431 204.623C140.095 203.852 139.359 202.81 139.359 201.68C139.359 200.562 140.083 199.52 141.407 198.755C144.003 197.248 148.246 197.248 150.859 198.755C152.195 199.526 152.931 200.568 152.937 201.698C152.937 202.816 152.213 203.858 150.895 204.623C149.594 205.376 147.887 205.753 146.174 205.753H146.163ZM146.115 198.314C144.532 198.314 142.943 198.661 141.743 199.361C140.648 199.997 140.042 200.821 140.047 201.68C140.047 202.545 140.66 203.375 141.772 204.017C144.197 205.412 148.122 205.412 150.53 204.017C151.624 203.381 152.225 202.557 152.225 201.698C152.225 200.827 151.613 199.997 150.5 199.355C149.288 198.655 147.705 198.308 146.115 198.308V198.314Z" fill="#DBDEE4"/>
<path d="M150.677 199.061C153.202 200.515 153.214 202.869 150.706 204.323C148.199 205.777 144.12 205.777 141.601 204.323C139.076 202.869 139.065 200.515 141.572 199.061C144.079 197.608 148.152 197.608 150.677 199.061Z" fill="white"/>
<path d="M146.163 205.753C144.45 205.753 142.738 205.376 141.431 204.623C140.095 203.852 139.359 202.81 139.359 201.68C139.359 200.562 140.083 199.52 141.407 198.755C144.003 197.248 148.246 197.248 150.86 198.755C152.196 199.526 152.931 200.568 152.937 201.698C152.937 202.816 152.213 203.858 150.895 204.623C149.594 205.376 147.887 205.753 146.175 205.753H146.163ZM146.116 198.314C144.533 198.314 142.944 198.661 141.743 199.361C140.648 199.997 140.042 200.821 140.048 201.68C140.048 202.545 140.66 203.375 141.772 204.017C144.197 205.412 148.123 205.412 150.53 204.017C151.625 203.381 152.225 202.557 152.225 201.698C152.225 200.827 151.613 199.997 150.501 199.355C149.288 198.655 147.705 198.308 146.116 198.308V198.314Z" fill="#F9F4EF"/>
<path d="M146.15 203.352C145.167 203.352 144.214 203.128 143.537 202.74C142.995 202.428 142.683 202.045 142.683 201.686C142.683 201.333 142.99 200.956 143.519 200.644C144.19 200.256 145.138 200.032 146.121 200.032C147.104 200.032 148.051 200.256 148.728 200.644C149.269 200.956 149.581 201.345 149.581 201.698C149.581 202.051 149.275 202.428 148.746 202.74C148.075 203.128 147.127 203.352 146.144 203.352H146.15Z" fill="#474747"/>
<path d="M209.813 203.34C209.696 203.34 209.578 203.275 209.513 203.169C209.419 203.005 209.472 202.787 209.637 202.693L325.494 135.439C325.659 135.344 325.876 135.397 325.971 135.568C326.065 135.733 326.012 135.951 325.847 136.045L209.99 203.299C209.937 203.328 209.872 203.346 209.813 203.346V203.34Z" fill="#F9F4EF"/>
<path d="M270.228 165.778C269.175 165.778 268.151 166.019 267.427 166.437C266.844 166.773 266.508 167.185 266.508 167.567C266.508 167.944 266.838 168.356 267.409 168.686C268.127 169.103 269.145 169.345 270.199 169.345C271.252 169.345 272.276 169.103 273 168.686C273.583 168.35 273.918 167.938 273.918 167.55C273.918 167.173 273.589 166.761 273.018 166.431C272.3 166.014 271.282 165.772 270.228 165.772V165.778Z" fill="#474747"/>
<path d="M318.703 195.582C318.645 195.582 318.586 195.565 318.527 195.535L281.66 174.265C281.083 173.929 280.736 173.335 280.736 172.67C280.736 172.005 281.083 171.405 281.66 171.069L334.359 140.5C334.524 140.405 334.736 140.458 334.836 140.629C334.93 140.794 334.877 141.012 334.706 141.106L282.007 171.675C281.648 171.881 281.43 172.258 281.43 172.67C281.43 173.088 281.648 173.459 282.007 173.665L318.874 194.935C319.039 195.029 319.098 195.241 319.004 195.412C318.939 195.524 318.821 195.588 318.703 195.588V195.582Z" fill="#F9F4EF"/>
<path d="M311.734 195.776C309.215 194.322 309.197 191.968 311.705 190.514C314.212 189.061 318.285 189.061 320.809 190.514C323.328 191.968 323.346 194.322 320.839 195.776C318.332 197.23 314.259 197.23 311.734 195.776Z" fill="white"/>
<path d="M316.291 197.207C314.579 197.207 312.866 196.83 311.559 196.077C310.223 195.306 309.488 194.258 309.488 193.134C309.488 192.016 310.212 190.974 311.53 190.209C314.125 188.702 318.369 188.702 320.982 190.209C322.318 190.98 323.054 192.022 323.054 193.152C323.054 194.27 322.33 195.312 321.012 196.077C319.711 196.83 318.004 197.207 316.291 197.207ZM311.907 195.471C314.326 196.865 318.257 196.865 320.664 195.471C321.759 194.835 322.359 194.011 322.359 193.152C322.359 192.286 321.747 191.457 320.635 190.815C318.21 189.42 314.284 189.42 311.877 190.815C310.782 191.451 310.182 192.275 310.182 193.134C310.182 194.005 310.794 194.835 311.907 195.476V195.471Z" fill="#DBDEE4"/>
<path d="M316.256 191.48C317.239 191.48 318.192 191.704 318.869 192.092C319.411 192.404 319.723 192.787 319.723 193.146C319.723 193.499 319.417 193.875 318.887 194.187C318.216 194.576 317.268 194.799 316.286 194.799C315.303 194.799 314.355 194.576 313.678 194.187C313.137 193.875 312.825 193.487 312.825 193.134C312.825 192.781 313.131 192.404 313.661 192.092C314.331 191.704 315.279 191.48 316.262 191.48H316.256Z" fill="#1FB6FF"/>
<path d="M311.734 195.776C309.215 194.323 309.197 191.968 311.704 190.515C314.211 189.061 318.284 189.061 320.809 190.515C323.328 191.968 323.346 194.323 320.839 195.776C318.331 197.23 314.258 197.23 311.734 195.776Z" fill="white"/>
<path d="M316.291 197.207C314.578 197.207 312.866 196.83 311.559 196.077C310.223 195.306 309.487 194.258 309.487 193.134C309.487 192.016 310.211 190.974 311.53 190.209C314.125 188.702 318.369 188.702 320.982 190.209C322.318 190.98 323.054 192.022 323.054 193.152C323.054 194.27 322.33 195.312 321.011 196.077C319.71 196.83 318.004 197.207 316.291 197.207ZM311.906 195.471C314.325 196.866 318.257 196.866 320.664 195.471C321.759 194.835 322.359 194.011 322.359 193.152C322.359 192.287 321.747 191.457 320.634 190.815C318.21 189.42 314.284 189.42 311.877 190.815C310.782 191.451 310.182 192.275 310.182 193.134C310.182 194.005 310.794 194.835 311.906 195.477V195.471Z" fill="#F9F4EF"/>
<g style="mix-blend-mode:multiply">
<path d="M316.255 191.48C317.238 191.48 318.191 191.704 318.868 192.092C319.41 192.404 319.722 192.787 319.722 193.146C319.722 193.499 319.415 193.876 318.886 194.188C318.215 194.576 317.267 194.8 316.284 194.8C315.302 194.8 314.354 194.576 313.677 194.188C313.136 193.876 312.824 193.487 312.824 193.134C312.824 192.781 313.13 192.404 313.659 192.092C314.33 191.704 315.278 191.48 316.261 191.48H316.255Z" fill="#474747"/>
</g>
<path d="M296.414 180.339C297.468 180.339 298.492 180.58 299.216 180.998C299.798 181.334 300.134 181.746 300.134 182.128C300.134 182.505 299.804 182.917 299.233 183.246C298.515 183.664 297.497 183.906 296.443 183.906C295.39 183.906 294.366 183.664 293.642 183.246C293.059 182.911 292.724 182.499 292.724 182.11C292.724 181.734 293.053 181.322 293.624 180.992C294.342 180.574 295.36 180.333 296.414 180.333V180.339Z" fill="#474747"/>
<path d="M248.935 187.996C248.876 187.996 248.818 187.978 248.759 187.949L143.819 127.034C143.655 126.939 143.596 126.722 143.696 126.557C143.79 126.386 144.002 126.333 144.172 126.427L249.112 187.343C249.277 187.437 249.335 187.655 249.235 187.819C249.171 187.931 249.053 187.99 248.935 187.99V187.996Z" fill="#F9F4EF"/>
<path d="M246.355 231.678C246.237 231.678 246.119 231.614 246.054 231.502C245.96 231.337 246.019 231.119 246.184 231.025L283.051 209.755C283.41 209.549 283.628 209.172 283.628 208.76C283.628 208.342 283.416 207.971 283.051 207.759L230.352 177.196C230.187 177.102 230.128 176.884 230.222 176.719C230.316 176.548 230.534 176.495 230.699 176.59L283.398 207.153C283.975 207.489 284.322 208.089 284.322 208.754C284.322 209.419 283.975 210.019 283.398 210.349L246.531 231.619C246.478 231.649 246.419 231.666 246.355 231.666V231.678Z" fill="#F9F4EF"/>
<path d="M253.324 231.867C255.843 230.414 255.861 228.059 253.354 226.606C250.846 225.152 246.773 225.152 244.249 226.606C241.73 228.059 241.712 230.414 244.219 231.867C246.726 233.321 250.799 233.321 253.324 231.867Z" fill="white"/>
<path d="M248.765 233.303C247.052 233.303 245.345 232.927 244.044 232.173C242.726 231.408 241.996 230.367 241.996 229.248C241.996 228.124 242.738 227.077 244.068 226.306C246.681 224.799 250.925 224.799 253.52 226.306C254.839 227.071 255.568 228.112 255.563 229.231C255.563 230.361 254.827 231.402 253.491 232.173C252.184 232.927 250.472 233.303 248.759 233.303H248.765ZM248.812 225.864C247.229 225.864 245.639 226.211 244.427 226.912C243.315 227.553 242.703 228.383 242.703 229.248C242.703 230.108 243.303 230.932 244.398 231.567C246.799 232.962 250.725 232.962 253.149 231.567C254.262 230.926 254.874 230.096 254.874 229.231C254.874 228.371 254.274 227.547 253.179 226.912C251.978 226.211 250.395 225.864 248.812 225.864Z" fill="#DBDEE4"/>
<path d="M248.799 227.576C247.816 227.576 246.863 227.8 246.186 228.189C245.645 228.5 245.333 228.883 245.333 229.242C245.333 229.595 245.639 229.972 246.168 230.284C246.839 230.672 247.787 230.896 248.77 230.896C249.753 230.896 250.7 230.672 251.377 230.284C251.919 229.972 252.23 229.583 252.23 229.23C252.23 228.877 251.924 228.5 251.395 228.189C250.724 227.8 249.776 227.576 248.793 227.576H248.799Z" fill="#1FB6FF"/>
<path d="M253.325 231.867C255.844 230.414 255.861 228.059 253.354 226.606C250.847 225.152 246.774 225.152 244.249 226.606C241.73 228.059 241.712 230.414 244.22 231.867C246.727 233.321 250.8 233.321 253.325 231.867Z" fill="white"/>
<path d="M248.765 233.304C247.052 233.304 245.346 232.927 244.045 232.174C242.727 231.408 241.997 230.367 241.997 229.248C241.997 228.124 242.738 227.077 244.068 226.306C246.682 224.799 250.925 224.799 253.521 226.306C254.839 227.071 255.569 228.113 255.563 229.231C255.563 230.361 254.827 231.403 253.491 232.174C252.185 232.927 250.472 233.304 248.759 233.304H248.765ZM248.812 225.864C247.229 225.864 245.64 226.212 244.427 226.912C243.315 227.553 242.703 228.383 242.703 229.248C242.703 230.108 243.303 230.932 244.398 231.567C246.799 232.962 250.725 232.962 253.15 231.567C254.262 230.926 254.874 230.096 254.874 229.231C254.874 228.371 254.274 227.548 253.179 226.912C251.979 226.212 250.395 225.864 248.812 225.864Z" fill="#F9F4EF"/>
<path d="M248.8 227.577C247.817 227.577 246.863 227.8 246.186 228.189C245.645 228.501 245.333 228.883 245.333 229.242C245.333 229.595 245.639 229.972 246.169 230.284C246.84 230.672 247.787 230.896 248.77 230.896C249.753 230.896 250.701 230.672 251.377 230.284C251.919 229.972 252.231 229.584 252.231 229.23C252.231 228.877 251.925 228.501 251.395 228.189C250.724 227.8 249.777 227.577 248.794 227.577H248.8Z" fill="#474747"/>
<path d="M268.639 216.435C267.585 216.435 266.561 216.676 265.837 217.094C265.255 217.43 264.919 217.842 264.919 218.224C264.919 218.601 265.249 219.013 265.82 219.343C266.538 219.76 267.556 220.002 268.609 220.002C269.663 220.002 270.687 219.76 271.411 219.343C271.994 219.007 272.329 218.595 272.329 218.207C272.329 217.83 271.999 217.418 271.429 217.088C270.711 216.671 269.692 216.429 268.639 216.429V216.435Z" fill="#474747"/>
<path d="M265.79 82.7982C265.732 82.7982 265.673 82.7806 265.614 82.7512L224.109 58.7087C222.573 57.82 220.672 57.82 219.136 58.7087L177.631 82.7512C177.466 82.8453 177.248 82.7924 177.154 82.6217C177.06 82.4569 177.113 82.2391 177.284 82.145L218.788 58.1025C220.536 57.0902 222.708 57.0902 224.456 58.1025L265.961 82.145C266.126 82.2391 266.185 82.4569 266.091 82.6217C266.026 82.7335 265.908 82.7924 265.79 82.7924V82.7982Z" fill="#F9F4EF"/>
<path d="M261.902 84.464C259.383 83.0103 259.365 80.6561 261.872 79.2024C264.379 77.7486 268.458 77.7486 270.977 79.2024C273.496 80.6561 273.514 83.0103 271.007 84.464C268.499 85.9178 264.427 85.9178 261.902 84.464Z" fill="white"/>
<path d="M266.457 85.8941C264.744 85.8941 263.032 85.5174 261.725 84.764C260.389 83.993 259.653 82.9513 259.647 81.8213C259.647 80.703 260.371 79.6613 261.69 78.8961C264.285 77.3894 268.529 77.3894 271.142 78.8961C272.478 79.6671 273.214 80.7089 273.214 81.8389C273.214 82.9572 272.49 83.9989 271.165 84.764C269.865 85.5174 268.158 85.8941 266.445 85.8941H266.457ZM266.416 78.4547C264.832 78.4547 263.249 78.802 262.043 79.5023C260.948 80.138 260.348 80.962 260.348 81.8213C260.348 82.6923 260.966 83.5222 262.072 84.1578C264.491 85.5527 268.423 85.5527 270.83 84.1578C271.925 83.5222 272.531 82.6982 272.525 81.8389C272.525 80.9737 271.913 80.1439 270.8 79.5023C269.588 78.802 267.999 78.4547 266.416 78.4547Z" fill="#DBDEE4"/>
<path d="M261.902 84.464C259.383 83.0103 259.365 80.6561 261.872 79.2024C264.38 77.7486 268.458 77.7486 270.977 79.2024C273.496 80.6561 273.514 83.0103 271.007 84.464C268.5 85.9178 264.427 85.9178 261.902 84.464Z" fill="white"/>
<path d="M266.457 85.8941C264.744 85.8941 263.032 85.5174 261.725 84.764C260.389 83.993 259.653 82.9513 259.647 81.8213C259.647 80.703 260.371 79.6613 261.69 78.8961C264.285 77.3894 268.529 77.3894 271.142 78.8961C272.478 79.6671 273.214 80.7089 273.214 81.8389C273.214 82.9572 272.49 83.9989 271.165 84.764C269.865 85.5174 268.158 85.8941 266.445 85.8941H266.457ZM266.416 78.4547C264.833 78.4547 263.249 78.802 262.043 79.5023C260.948 80.138 260.348 80.962 260.348 81.8213C260.348 82.6923 260.966 83.5222 262.072 84.1578C264.491 85.5527 268.423 85.5527 270.83 84.1578C271.925 83.5222 272.531 82.6982 272.525 81.8389C272.525 80.9737 271.913 80.1439 270.801 79.5023C269.588 78.802 267.999 78.4547 266.416 78.4547Z" fill="#F9F4EF"/>
<path d="M266.422 80.1677C267.405 80.1677 268.358 80.3914 269.035 80.7798C269.576 81.0918 269.888 81.4743 269.888 81.8333C269.888 82.1865 269.582 82.5631 269.053 82.8751C268.382 83.2635 267.434 83.4872 266.451 83.4872C265.468 83.4872 264.521 83.2635 263.844 82.8751C263.302 82.5631 262.99 82.1747 262.99 81.8216C262.99 81.4684 263.297 81.0918 263.826 80.7798C264.497 80.3914 265.445 80.1677 266.428 80.1677H266.422Z" fill="#474747"/>
<path d="M340.396 170.193H357.158L393.042 149.476L334.275 102.238L280.604 135.674L340.396 170.193Z" fill="#474747"/>
<path d="M351.03 126.857L357.816 169.798L379.858 157.074L401.899 144.349L408.679 93.5686L351.03 126.857Z" fill="#F9F4EF"/>
<path d="M351.029 126.857L290.844 92.1086L348.492 58.8199L408.678 93.5682L351.029 126.857Z" fill="#F9F4EF"/>
<path d="M357.815 169.798L297.63 135.05L296.853 130.13L290.844 92.109L351.029 126.857L357.038 164.872L357.815 169.798Z" fill="#E5D5CA"/>
<path d="M330.676 115.498C330.611 115.498 330.541 115.48 330.482 115.445L310.177 103.721C309.988 103.615 309.924 103.374 310.035 103.185C310.141 102.997 310.383 102.932 310.571 103.044L330.876 114.768C331.064 114.874 331.129 115.115 331.017 115.304C330.947 115.427 330.811 115.498 330.676 115.498Z" fill="#474747"/>
<path d="M290.844 92.4971C290.709 92.4971 290.579 92.4265 290.503 92.3029C290.397 92.1145 290.461 91.8732 290.644 91.7673L307.147 82.2386C307.335 82.1327 307.577 82.1915 307.683 82.3798C307.789 82.5682 307.724 82.8095 307.541 82.9154L291.038 92.4441C290.979 92.4794 290.909 92.4971 290.844 92.4971Z" fill="#474747"/>
<path d="M314.557 78.8077C314.422 78.8077 314.293 78.737 314.216 78.6134C314.11 78.4251 314.175 78.1838 314.357 78.0779L348.299 58.479C348.423 58.4084 348.57 58.4084 348.694 58.479L358.01 63.8584C358.199 63.9643 358.263 64.2056 358.152 64.394C358.04 64.5823 357.804 64.647 357.616 64.5352L348.493 59.2677L314.752 78.7488C314.693 78.7841 314.622 78.8018 314.557 78.8018V78.8077Z" fill="#474747"/>
<path d="M408.678 93.9631C408.613 93.9631 408.542 93.9454 408.483 93.9101L368.538 70.8505C368.35 70.7446 368.285 70.5033 368.397 70.315C368.509 70.1266 368.744 70.0619 368.933 70.1737L408.878 93.2333C409.066 93.3392 409.131 93.5805 409.019 93.7689C408.948 93.8925 408.813 93.9631 408.678 93.9631Z" fill="#474747"/>
<path d="M357.816 169.798L297.63 135.05L296.853 130.13L357.039 164.872L357.816 169.798Z" fill="#25272A"/>
<path d="M357.815 170.192C357.751 170.192 357.68 170.175 357.621 170.139L297.441 135.391C297.341 135.332 297.271 135.226 297.247 135.114L296.47 130.188C296.447 130.041 296.512 129.888 296.635 129.806C296.759 129.717 296.924 129.712 297.053 129.788L357.233 164.536C357.333 164.595 357.403 164.701 357.427 164.813L358.204 169.739C358.227 169.886 358.163 170.039 358.039 170.122C357.974 170.169 357.892 170.192 357.815 170.192ZM297.989 134.803L357.297 169.045L356.679 165.119L297.371 130.877L297.989 134.803Z" fill="#474747"/>
<path d="M351.029 127.246C350.893 127.246 350.764 127.175 350.687 127.052C350.581 126.863 350.646 126.622 350.829 126.516L408.483 93.2273C408.672 93.1214 408.913 93.1861 409.019 93.3686C409.125 93.5569 409.06 93.7982 408.878 93.9041L351.223 127.193C351.164 127.228 351.093 127.246 351.029 127.246Z" fill="#474747"/>
<path d="M402.652 138.681L401.898 144.348L357.815 169.798L357.039 164.871L402.652 138.681Z" fill="#25272A"/>
<path d="M357.814 170.192C357.755 170.192 357.696 170.18 357.643 170.151C357.526 170.098 357.443 169.986 357.426 169.857L356.649 164.93C356.625 164.772 356.702 164.613 356.843 164.53L402.462 138.34C402.591 138.263 402.75 138.269 402.874 138.351C402.997 138.434 403.062 138.581 403.045 138.728L402.285 144.396C402.268 144.519 402.197 144.625 402.091 144.684L358.008 170.133C357.95 170.169 357.879 170.186 357.814 170.186V170.192ZM357.467 165.078L358.114 169.168L401.538 144.096L402.162 139.411L357.467 165.072V165.078Z" fill="#474747"/>
<path d="M303.492 99.8012C303.427 99.8012 303.357 99.7836 303.298 99.7483L290.65 92.4443C290.462 92.3384 290.397 92.097 290.509 91.9087C290.615 91.7204 290.856 91.6556 291.044 91.7675L303.692 99.0714C303.881 99.1774 303.945 99.4187 303.834 99.607C303.763 99.7306 303.628 99.8012 303.492 99.8012Z" fill="#474747"/>
<path d="M346.537 125.18C346.466 125.18 346.39 125.162 346.325 125.121L337.002 119.212C336.82 119.094 336.767 118.853 336.879 118.67C336.997 118.488 337.238 118.435 337.42 118.547L346.743 124.456C346.925 124.574 346.978 124.815 346.867 124.997C346.79 125.115 346.666 125.18 346.537 125.18Z" fill="#474747"/>
<path d="M296.852 130.518C296.664 130.518 296.493 130.383 296.464 130.188L290.455 92.1678C290.42 91.956 290.567 91.75 290.778 91.7205C290.99 91.6911 291.196 91.8324 291.226 92.0443L297.235 130.065C297.27 130.277 297.123 130.483 296.911 130.512C296.888 130.512 296.87 130.512 296.852 130.512V130.518Z" fill="#474747"/>
<path d="M352.99 139.676C352.801 139.676 352.631 139.541 352.601 139.346L350.635 126.922C350.6 126.71 350.747 126.504 350.959 126.475C351.171 126.439 351.377 126.587 351.406 126.798L353.372 139.223C353.407 139.435 353.26 139.641 353.048 139.67C353.025 139.67 353.007 139.67 352.99 139.67V139.676Z" fill="#474747"/>
<path d="M356.386 161.134C356.197 161.134 356.027 160.999 355.997 160.805L353.861 147.286C353.826 147.074 353.973 146.868 354.185 146.838C354.396 146.803 354.602 146.95 354.632 147.162L356.768 160.681C356.804 160.893 356.657 161.099 356.445 161.128C356.421 161.128 356.403 161.128 356.386 161.128V161.134Z" fill="#474747"/>
<path d="M402.656 139.075C402.656 139.075 402.621 139.075 402.603 139.075C402.391 139.046 402.238 138.852 402.268 138.634L408.295 93.5212C408.324 93.3035 408.524 93.1563 408.736 93.1857C408.948 93.2152 409.101 93.4094 409.071 93.6272L403.045 138.74C403.021 138.94 402.85 139.081 402.656 139.081V139.075Z" fill="#474747"/>
<path d="M353.762 86.5651C307.696 84.8347 302.67 109.454 353.762 105.446V86.5651Z" fill="#474747"/>
<path d="M372.477 93.7341C372.477 96.8593 370.411 99.9845 366.285 102.368C358.028 107.135 344.638 107.135 336.381 102.368C332.249 99.9845 330.189 96.8593 330.189 93.7341V83.6698C330.242 86.7538 332.302 89.832 336.381 92.1862C344.638 96.9535 358.028 96.9535 366.285 92.1862C370.364 89.832 372.424 86.7538 372.477 83.6698C372.477 83.6698 372.477 95.5351 372.477 93.7341Z" fill="#E5D5CA"/>
<path d="M362.366 79.4377L372.477 81.4035V93.5101C372.477 96.6353 370.411 99.7605 366.286 102.144C365.079 102.839 363.761 103.433 362.372 103.927C357.84 105.528 352.496 106.058 347.422 105.511V79.4436H362.372L362.366 79.4377Z" fill="#F9F4EF"/>
<path d="M366.356 92.0686C358.099 96.8359 344.709 96.8359 336.452 92.0686C328.195 87.3013 328.195 79.5677 336.452 74.8004C344.709 70.0332 358.099 70.0332 366.356 74.8004C374.614 79.5677 374.614 87.3013 366.356 92.0686Z" fill="#F9F4EF"/>
<path d="M351.406 96.0234C345.921 96.0234 340.436 94.8168 336.257 92.4038C332.137 90.026 329.865 86.836 329.865 83.4283C329.865 80.0206 332.137 76.8365 336.257 74.4528C344.609 69.6326 358.204 69.6326 366.556 74.4528C370.676 76.8306 372.947 80.0206 372.947 83.4283C372.947 86.836 370.676 90.0201 366.556 92.4038C362.377 94.8168 356.892 96.0234 351.406 96.0234ZM351.406 71.6219C346.062 71.6219 340.718 72.799 336.651 75.1473C332.784 77.378 330.654 80.3266 330.654 83.4401C330.654 86.5535 332.784 89.5022 336.651 91.7328C344.785 96.4295 358.028 96.4295 366.161 91.7328C370.028 89.5022 372.159 86.5535 372.159 83.4401C372.159 80.3266 370.028 77.378 366.161 75.1473C362.095 72.799 356.75 71.6219 351.406 71.6219Z" fill="#474747"/>
<path d="M351.406 106.199C345.921 106.199 340.436 104.993 336.257 102.58C332.137 100.202 329.865 97.0119 329.865 93.6042V83.6635C329.865 83.4457 330.042 83.2692 330.26 83.2692C330.477 83.2692 330.654 83.4398 330.66 83.6576C330.713 86.7299 332.837 89.6373 336.651 91.8385C344.791 96.5352 358.028 96.5352 366.161 91.8385C369.975 89.6373 372.106 86.7299 372.153 83.6576C372.153 83.4457 372.329 83.2692 372.547 83.2692C372.765 83.2692 372.947 83.4457 372.947 83.6635V93.6042C372.947 97.0119 370.676 100.196 366.556 102.58C362.377 104.993 356.892 106.199 351.406 106.199ZM330.654 86.9476V93.6101C330.654 96.7235 332.784 99.6722 336.651 101.903C344.785 106.599 358.028 106.599 366.161 101.903C370.028 99.6722 372.159 96.7235 372.159 93.6101V86.9535C371.17 89.0488 369.257 90.9675 366.556 92.5271C358.204 97.3474 344.609 97.3474 336.257 92.5271C333.55 90.9675 331.643 89.0488 330.654 86.9535V86.9476Z" fill="#474747"/>
<path d="M347.087 99.7958C346.869 99.7958 346.692 99.6193 346.692 99.4015V95.6465C346.692 95.4288 346.869 95.2522 347.087 95.2522C347.305 95.2522 347.481 95.4288 347.481 95.6465V99.4015C347.481 99.6193 347.305 99.7958 347.087 99.7958Z" fill="#474747"/>
<path d="M366.104 102.668C365.886 102.668 365.71 102.492 365.71 102.274V98.9134C365.71 98.6956 365.886 98.519 366.104 98.519C366.322 98.519 366.498 98.6956 366.498 98.9134V102.274C366.498 102.492 366.322 102.668 366.104 102.668Z" fill="#474747"/>
<path d="M351.525 102.698C351.307 102.698 351.131 102.521 351.131 102.303V95.6408C351.131 95.423 351.307 95.2465 351.525 95.2465C351.743 95.2465 351.919 95.423 351.919 95.6408V102.303C351.919 102.521 351.743 102.698 351.525 102.698Z" fill="#474747"/>
<path d="M338.472 97.671C338.254 97.671 338.078 97.4944 338.078 97.2767V93.2098C338.078 92.992 338.254 92.8154 338.472 92.8154C338.69 92.8154 338.866 92.992 338.866 93.2098V97.2767C338.866 97.4944 338.69 97.671 338.472 97.671Z" fill="#474747"/>
<path d="M147.514 166.096H164.276L200.16 145.379L141.393 98.1418L87.7229 131.572L147.514 166.096Z" fill="#474747"/>
<path d="M158.149 122.755L164.929 165.702L186.976 152.978L209.018 140.253L215.798 89.4725L158.149 122.755Z" fill="#F9F4EF"/>
<path d="M158.148 122.755L97.9622 88.007L155.611 54.7242L215.797 89.4725L158.148 122.755Z" fill="#F9F4EF"/>
<path d="M164.928 165.702L104.748 130.953L103.971 126.027L97.9622 88.0066L158.148 122.755L164.151 160.775L164.928 165.702Z" fill="#E5D5CA"/>
<path d="M137.797 111.402C137.732 111.402 137.661 111.384 137.602 111.349L117.297 99.6247C117.109 99.5188 117.044 99.2775 117.156 99.0891C117.262 98.9008 117.503 98.8361 117.692 98.9479L137.997 110.672C138.185 110.778 138.25 111.019 138.138 111.207C138.067 111.331 137.932 111.402 137.797 111.402Z" fill="#474747"/>
<path d="M97.9627 88.4015C97.8273 88.4015 97.6978 88.3309 97.6213 88.2073C97.5154 88.019 97.5802 87.7777 97.7626 87.6717L114.266 78.143C114.454 78.0371 114.695 78.0959 114.801 78.2843C114.907 78.4726 114.842 78.7139 114.66 78.8199L98.1569 88.3486C98.0981 88.3839 98.0274 88.4015 97.9627 88.4015Z" fill="#474747"/>
<path d="M121.676 74.7113C121.541 74.7113 121.411 74.6407 121.335 74.5171C121.229 74.3288 121.294 74.0875 121.476 73.9815L155.418 54.3885C155.541 54.3179 155.689 54.3179 155.812 54.3885L165.129 59.7679C165.317 59.8739 165.382 60.1152 165.27 60.3035C165.158 60.4919 164.923 60.5566 164.735 60.4448L155.612 55.1772L121.87 74.6584C121.811 74.6937 121.741 74.7113 121.676 74.7113Z" fill="#474747"/>
<path d="M215.796 89.8607C215.731 89.8607 215.661 89.843 215.602 89.8077L175.657 66.7481C175.468 66.6422 175.404 66.4009 175.516 66.2125C175.627 66.0242 175.863 65.9595 176.051 66.0713L215.996 89.1309C216.185 89.2368 216.249 89.4781 216.138 89.6664C216.067 89.79 215.932 89.8607 215.796 89.8607Z" fill="#474747"/>
<path d="M164.928 165.702L104.748 130.954L103.971 126.027L164.151 160.776L164.928 165.702Z" fill="#25272A"/>
<path d="M164.927 166.096C164.862 166.096 164.792 166.079 164.733 166.043L104.553 131.295C104.453 131.236 104.383 131.13 104.359 131.018L103.582 126.092C103.559 125.945 103.623 125.792 103.747 125.71C103.871 125.621 104.035 125.615 104.165 125.692L164.345 160.44C164.445 160.499 164.515 160.605 164.539 160.717L165.316 165.643C165.339 165.79 165.274 165.943 165.151 166.026C165.086 166.073 165.004 166.096 164.927 166.096ZM105.107 130.706L164.415 164.949L163.797 161.023L104.489 126.781L105.107 130.706Z" fill="#474747"/>
<path d="M158.147 123.149C158.012 123.149 157.883 123.078 157.806 122.955C157.7 122.767 157.765 122.525 157.947 122.419L215.602 89.1306C215.79 89.0247 216.032 89.0894 216.138 89.2719C216.244 89.4602 216.179 89.7015 215.996 89.8075L158.342 123.096C158.283 123.131 158.212 123.149 158.147 123.149Z" fill="#474747"/>
<path d="M209.772 134.585L209.018 140.253L164.93 165.702L164.153 160.776L209.772 134.585Z" fill="#25272A"/>
<path d="M164.928 166.096C164.87 166.096 164.811 166.085 164.758 166.055C164.64 166.002 164.558 165.89 164.54 165.761L163.763 160.835C163.739 160.676 163.816 160.517 163.957 160.435L209.576 134.244C209.706 134.167 209.865 134.173 209.988 134.256C210.112 134.338 210.176 134.485 210.159 134.632L209.4 140.3C209.382 140.424 209.311 140.53 209.205 140.588L165.123 166.038C165.064 166.073 164.993 166.091 164.928 166.091V166.096ZM164.581 160.982L165.228 165.072L208.652 140L209.276 135.315L164.581 160.976V160.982Z" fill="#474747"/>
<path d="M110.611 95.705C110.546 95.705 110.475 95.6874 110.417 95.6521L97.7686 88.3481C97.5802 88.2422 97.5155 88.0009 97.6273 87.8125C97.7333 87.6242 97.9746 87.5594 98.1629 87.6713L110.811 94.9752C110.999 95.0812 111.064 95.3225 110.952 95.5108C110.882 95.6344 110.746 95.705 110.611 95.705Z" fill="#474747"/>
<path d="M153.658 121.084C153.587 121.084 153.51 121.066 153.446 121.025L144.123 115.116C143.941 114.998 143.888 114.757 143.999 114.574C144.117 114.392 144.358 114.339 144.541 114.451L153.864 120.36C154.046 120.478 154.099 120.719 153.987 120.901C153.911 121.019 153.787 121.084 153.658 121.084Z" fill="#474747"/>
<path d="M103.971 126.422C103.783 126.422 103.612 126.287 103.583 126.092L97.5735 88.0717C97.5382 87.8598 97.6853 87.6538 97.8972 87.6244C98.1091 87.5949 98.3151 87.7362 98.3445 87.9481L104.354 125.969C104.389 126.181 104.242 126.387 104.03 126.416C104.006 126.416 103.989 126.416 103.971 126.416V126.422Z" fill="#474747"/>
<path d="M160.108 135.574C159.92 135.574 159.749 135.438 159.72 135.244L157.754 122.82C157.719 122.608 157.866 122.402 158.078 122.372C158.29 122.337 158.496 122.484 158.525 122.696L160.491 135.12C160.526 135.332 160.379 135.538 160.167 135.568C160.144 135.568 160.126 135.568 160.108 135.568V135.574Z" fill="#474747"/>
<path d="M163.498 157.039C163.31 157.039 163.139 156.903 163.11 156.709L160.973 143.19C160.938 142.978 161.085 142.772 161.297 142.743C161.509 142.707 161.715 142.854 161.744 143.066L163.881 156.585C163.916 156.797 163.769 157.003 163.557 157.033C163.534 157.033 163.516 157.033 163.498 157.033V157.039Z" fill="#474747"/>
<path d="M209.771 134.979C209.771 134.979 209.735 134.979 209.718 134.979C209.506 134.95 209.353 134.756 209.382 134.538L215.409 89.425C215.439 89.2073 215.639 89.0601 215.85 89.0896C216.062 89.119 216.215 89.3132 216.186 89.531L210.159 134.644C210.136 134.844 209.965 134.985 209.771 134.985V134.979Z" fill="#474747"/>
<path d="M160.881 82.4689C114.815 80.7385 109.789 105.358 160.881 101.35V82.4689Z" fill="#474747"/>
<path d="M179.598 89.6374C179.598 92.7626 177.532 95.8878 173.406 98.2715C165.149 103.039 151.759 103.039 143.502 98.2715C139.37 95.8878 137.31 92.7626 137.31 89.6374V79.5731C137.363 82.6571 139.423 85.7353 143.502 88.0895C151.759 92.8568 165.149 92.8568 173.406 88.0895C177.485 85.7353 179.545 82.6571 179.598 79.5731C179.598 79.5731 179.598 91.4384 179.598 89.6374Z" fill="#E5D5CA"/>
<path d="M169.485 75.3411L179.596 77.3068V89.4134C179.596 92.5386 177.53 95.6639 173.404 98.0475C172.198 98.742 170.88 99.3364 169.491 99.8308C164.959 101.432 159.615 101.961 154.541 101.414V75.3411H169.491H169.485Z" fill="#F9F4EF"/>
<path d="M173.475 87.9717C165.218 92.739 151.828 92.739 143.571 87.9717C135.313 83.2044 135.313 75.4708 143.571 70.7035C151.828 65.9362 165.218 65.9362 173.475 70.7035C181.733 75.4708 181.733 83.2044 173.475 87.9717Z" fill="#F9F4EF"/>
<path d="M158.527 91.9267C153.042 91.9267 147.557 90.7201 143.378 88.3071C139.258 85.9293 136.986 82.7394 136.986 79.3316C136.986 75.9239 139.258 72.7398 143.378 70.3562C151.73 65.5359 165.325 65.5359 173.677 70.3562C177.797 72.7339 180.068 75.9239 180.068 79.3316C180.068 82.7394 177.797 85.9234 173.677 88.3071C169.498 90.7201 164.013 91.9267 158.527 91.9267ZM158.527 67.5193C153.183 67.5193 147.839 68.6964 143.772 71.0448C139.905 73.2754 137.775 76.2241 137.775 79.3375C137.775 82.451 139.905 85.3996 143.772 87.6302C151.906 92.3269 165.149 92.3269 173.282 87.6302C177.149 85.3996 179.28 82.451 179.28 79.3375C179.28 76.2241 177.149 73.2754 173.282 71.0448C169.215 68.6964 163.871 67.5193 158.527 67.5193Z" fill="#474747"/>
<path d="M158.527 102.097C153.042 102.097 147.557 100.89 143.378 98.4773C139.258 96.0996 136.986 92.9096 136.986 89.5019V79.5612C136.986 79.3434 137.163 79.1669 137.381 79.1669C137.598 79.1669 137.775 79.3376 137.781 79.5553C137.834 82.6276 139.958 85.535 143.772 87.7362C151.912 92.4329 165.149 92.4329 173.282 87.7362C177.096 85.535 179.227 82.6276 179.274 79.5553C179.274 79.3434 179.45 79.1669 179.668 79.1669C179.886 79.1669 180.068 79.3434 180.068 79.5612V89.5019C180.068 92.9096 177.797 96.0937 173.677 98.4773C169.498 100.89 164.013 102.097 158.527 102.097ZM137.769 82.8512V89.5137C137.769 92.6271 139.9 95.5758 143.766 97.8064C151.9 102.503 165.143 102.503 173.277 97.8064C177.143 95.5758 179.274 92.6271 179.274 89.5137V82.8571C178.285 84.9524 176.372 86.8711 173.671 88.4307C165.319 93.251 151.724 93.251 143.372 88.4307C140.665 86.8711 138.758 84.9524 137.769 82.8571V82.8512Z" fill="#474747"/>
<path d="M154.205 95.6934C153.988 95.6934 153.811 95.5169 153.811 95.2991V91.5441C153.811 91.3263 153.988 91.1498 154.205 91.1498C154.423 91.1498 154.6 91.3263 154.6 91.5441V95.2991C154.6 95.5169 154.423 95.6934 154.205 95.6934Z" fill="#474747"/>
<path d="M173.223 98.5717C173.005 98.5717 172.828 98.3951 172.828 98.1773V94.8167C172.828 94.5989 173.005 94.4224 173.223 94.4224C173.441 94.4224 173.617 94.5989 173.617 94.8167V98.1773C173.617 98.3951 173.441 98.5717 173.223 98.5717Z" fill="#474747"/>
<path d="M158.644 98.6009C158.426 98.6009 158.25 98.4243 158.25 98.2065V91.5441C158.25 91.3263 158.426 91.1498 158.644 91.1498C158.862 91.1498 159.038 91.3263 159.038 91.5441V98.2065C159.038 98.4243 158.862 98.6009 158.644 98.6009Z" fill="#474747"/>
<path d="M145.591 93.5743C145.373 93.5743 145.197 93.3978 145.197 93.18V89.1131C145.197 88.8953 145.373 88.7188 145.591 88.7188C145.809 88.7188 145.985 88.8953 145.985 89.1131V93.18C145.985 93.3978 145.809 93.5743 145.591 93.5743Z" fill="#474747"/>
<path d="M225.05 178.898L216.122 184.053C214.439 185.025 214.256 186.496 215.716 187.343L228.005 194.436C229.759 195.448 231.754 195.983 233.779 195.983H239.517C239.517 195.983 226.734 177.927 225.044 178.898H225.05Z" fill="#474747"/>
<path d="M221.232 161.859V185.313C221.238 185.601 221.426 185.89 221.809 186.107L238.147 195.601L238.135 172.147L221.803 162.654C221.426 162.436 221.232 162.142 221.232 161.859Z" fill="#E5D5CA"/>
<path d="M240.907 172.194L240.919 195.648L257.363 186.154C257.746 185.931 257.94 185.636 257.94 185.348V161.894C257.934 162.183 257.74 162.477 257.357 162.7L240.913 172.194H240.907Z" fill="#F9F4EF"/>
<path d="M238.14 195.819C238.111 195.819 238.081 195.813 238.052 195.795L221.714 186.302C221.29 186.06 221.06 185.725 221.06 185.354V161.9H221.055C221.055 161.806 221.131 161.73 221.225 161.73C221.319 161.73 221.396 161.806 221.396 161.9C221.396 162.136 221.572 162.371 221.879 162.548L238.217 172.041C238.299 172.088 238.329 172.194 238.282 172.277C238.234 172.359 238.129 172.388 238.046 172.335L221.714 162.842C221.596 162.771 221.49 162.695 221.402 162.612V185.348C221.408 185.584 221.578 185.819 221.89 185.996L238.229 195.489C238.311 195.536 238.34 195.642 238.293 195.725C238.264 195.777 238.205 195.807 238.146 195.807L238.14 195.819Z" fill="#474747"/>
<path d="M257.935 184.613C257.841 184.613 257.764 184.536 257.764 184.442V162.612C257.67 162.701 257.564 162.777 257.44 162.848L240.996 172.341C240.914 172.388 240.808 172.359 240.761 172.276C240.714 172.194 240.743 172.088 240.825 172.041L257.27 162.548C257.582 162.365 257.764 162.13 257.764 161.888C257.764 161.794 257.841 161.718 257.935 161.718C258.029 161.718 258.105 161.794 258.105 161.888V184.436C258.105 184.53 258.035 184.607 257.941 184.607L257.935 184.613Z" fill="#474747"/>
<path d="M240.914 195.819C240.855 195.819 240.796 195.789 240.767 195.73C240.72 195.648 240.749 195.542 240.832 195.495L252.35 188.844C252.432 188.797 252.538 188.827 252.585 188.909C252.632 188.991 252.603 189.097 252.52 189.144L241.002 195.795C241.002 195.795 240.944 195.819 240.914 195.819Z" fill="#474747"/>
<path d="M221.81 161.094C221.045 161.535 221.039 162.259 221.798 162.7L238.136 172.194C238.902 172.635 240.143 172.635 240.909 172.194L257.353 162.7C258.118 162.259 258.124 161.541 257.359 161.094L241.02 151.6C240.255 151.159 239.019 151.159 238.248 151.6L221.804 161.094H221.81Z" fill="#F9F4EF"/>
<path d="M239.518 172.7C238.988 172.7 238.459 172.582 238.047 172.341L221.708 162.848C221.285 162.6 221.055 162.265 221.055 161.9C221.055 161.529 221.291 161.194 221.72 160.947L238.164 151.453C238.977 150.982 240.301 150.982 241.107 151.453L257.446 160.947C257.869 161.194 258.105 161.529 258.105 161.894C258.105 162.259 257.869 162.6 257.44 162.848L240.995 172.341C240.583 172.582 240.054 172.7 239.524 172.7H239.518ZM238.335 151.748L221.891 161.241C221.573 161.423 221.397 161.659 221.397 161.9C221.397 162.135 221.567 162.371 221.879 162.553L238.217 172.047C238.93 172.465 240.101 172.465 240.819 172.047L257.263 162.553C257.581 162.371 257.757 162.135 257.757 161.9C257.757 161.665 257.587 161.429 257.269 161.247L240.931 151.753C240.219 151.336 239.053 151.336 238.335 151.753V151.748Z" fill="#474747"/>
<path d="M238.135 172.194V195.648C238.906 196.089 240.147 196.089 240.913 195.648V172.194C240.136 172.635 238.9 172.635 238.135 172.194Z" fill="#F9F4EF"/>
<path d="M239.524 196.16C238.994 196.16 238.465 196.042 238.053 195.801C237.97 195.754 237.941 195.648 237.988 195.566C238.035 195.483 238.141 195.454 238.223 195.507C238.912 195.907 240.013 195.919 240.736 195.554V184.295C240.736 184.201 240.807 184.124 240.901 184.124C240.995 184.124 241.072 184.201 241.072 184.295V195.654C241.072 195.713 241.043 195.772 240.99 195.801C240.578 196.042 240.048 196.16 239.518 196.16H239.524Z" fill="#474747"/>
<path d="M238.14 181.075C238.046 181.075 237.97 180.999 237.97 180.904V172.194C237.97 172.135 237.999 172.076 238.052 172.047C238.105 172.017 238.17 172.017 238.223 172.047C238.935 172.459 240.106 172.465 240.824 172.047C240.906 172 241.012 172.029 241.06 172.111C241.107 172.194 241.077 172.3 240.995 172.347C240.247 172.776 239.123 172.818 238.311 172.476V180.91C238.311 181.004 238.24 181.081 238.146 181.081L238.14 181.075Z" fill="#474747"/>
<path d="M94.8453 53.9709L85.917 59.1267C84.2337 60.0978 84.0513 61.5692 85.5109 62.4167L97.7999 69.5088C99.5538 70.5211 101.549 71.0567 103.574 71.0567H109.312C109.312 71.0567 96.5286 52.9998 94.8394 53.9709H94.8453Z" fill="#474747"/>
<path d="M91.0272 36.9263V60.3802C91.0331 60.6686 91.2214 60.957 91.604 61.1747L107.942 70.6681L107.93 47.2142L91.5981 37.7208C91.2214 37.5031 91.0272 37.2088 91.0272 36.9263Z" fill="#E5D5CA"/>
<path d="M110.702 47.2616L110.714 70.7155L127.158 61.2221C127.541 60.9985 127.735 60.7042 127.735 60.4158V36.9619C127.729 37.2503 127.535 37.5446 127.153 37.7682L110.708 47.2616H110.702Z" fill="#F9F4EF"/>
<path d="M107.942 70.8922C107.912 70.8922 107.883 70.8863 107.853 70.8686L91.5151 61.3753C91.0914 61.1339 90.8618 60.7985 90.8618 60.4277V36.9738H90.856C90.856 36.8796 90.9325 36.8031 91.0267 36.8031C91.1208 36.8031 91.1973 36.8796 91.1973 36.9738C91.1973 37.2092 91.3739 37.4446 91.6799 37.6212L108.018 47.1146C108.101 47.1617 108.13 47.2676 108.083 47.35C108.036 47.4324 107.93 47.4618 107.848 47.4089L91.5151 37.9155C91.3974 37.8448 91.2915 37.7683 91.2032 37.6859V60.4277C91.2091 60.6631 91.3798 60.8985 91.6917 61.0751L108.03 70.5685C108.112 70.6156 108.142 70.7215 108.095 70.8039C108.065 70.8569 108.006 70.8863 107.948 70.8863L107.942 70.8922Z" fill="#474747"/>
<path d="M127.728 59.686C127.634 59.686 127.558 59.6095 127.558 59.5154V37.6859C127.463 37.7741 127.357 37.8507 127.234 37.9213L110.79 47.4147C110.707 47.4618 110.601 47.4323 110.554 47.3499C110.507 47.2675 110.537 47.1616 110.619 47.1145L127.063 37.6211C127.375 37.4387 127.558 37.2032 127.558 36.9619C127.558 36.8678 127.634 36.7913 127.728 36.7913C127.822 36.7913 127.899 36.8678 127.899 36.9619V59.5095C127.899 59.6036 127.828 59.6801 127.734 59.6801L127.728 59.686Z" fill="#474747"/>
<path d="M110.714 70.892C110.655 70.892 110.596 70.8626 110.567 70.8037C110.519 70.7213 110.549 70.6154 110.631 70.5683L122.149 63.9176C122.232 63.8705 122.338 63.9 122.385 63.9824C122.432 64.0648 122.402 64.1707 122.32 64.2178L110.802 70.8684C110.802 70.8684 110.743 70.892 110.714 70.892Z" fill="#474747"/>
<path d="M91.6034 36.1616C90.8383 36.603 90.8324 37.3269 91.5916 37.7684L107.93 47.2617C108.695 47.7032 109.937 47.7032 110.702 47.2617L127.146 37.7684C127.911 37.3269 127.917 36.6089 127.152 36.1616L110.814 26.6682C110.049 26.2268 108.813 26.2268 108.042 26.6682L91.5975 36.1616H91.6034Z" fill="#F9F4EF"/>
<path d="M109.314 47.7679C108.784 47.7679 108.254 47.6502 107.842 47.4089L91.5039 37.9155C91.0801 37.6683 90.8506 37.3329 90.8506 36.9679C90.8506 36.5972 91.086 36.2617 91.5156 36.0145L107.96 26.5211C108.772 26.0503 110.096 26.0503 110.903 26.5211L127.241 36.0145C127.665 36.2617 127.9 36.5972 127.9 36.9621C127.9 37.327 127.665 37.6683 127.235 37.9155L110.791 47.4089C110.379 47.6502 109.849 47.7679 109.319 47.7679H109.314ZM108.136 26.8213L91.6922 36.3147C91.3744 36.4971 91.1978 36.7325 91.1978 36.9738C91.1978 37.2093 91.3685 37.4447 91.6804 37.6271L108.019 47.1205C108.731 47.5384 109.902 47.5384 110.62 47.1205L127.064 37.6271C127.382 37.4447 127.559 37.2093 127.559 36.9738C127.559 36.7384 127.388 36.503 127.07 36.3205L110.732 26.8272C110.02 26.4093 108.854 26.4093 108.136 26.8272V26.8213Z" fill="#474747"/>
<path d="M107.928 47.2614V70.7211C108.699 71.1626 109.941 71.1626 110.706 70.7211V47.2614C109.929 47.7028 108.693 47.7028 107.928 47.2614Z" fill="#F9F4EF"/>
<path d="M109.324 71.227C108.794 71.227 108.264 71.1093 107.852 70.868C107.77 70.8209 107.741 70.7149 107.788 70.6325C107.835 70.5501 107.941 70.5207 108.023 70.5737C108.712 70.9739 109.812 70.9857 110.536 70.6208V59.3617C110.536 59.2676 110.607 59.191 110.701 59.191C110.795 59.191 110.872 59.2676 110.872 59.3617V70.7208C110.872 70.7797 110.842 70.8385 110.789 70.868C110.377 71.1093 109.848 71.227 109.318 71.227H109.324Z" fill="#474747"/>
<path d="M107.936 56.1423C107.842 56.1423 107.765 56.0658 107.765 55.9716V47.261C107.765 47.2022 107.795 47.1433 107.848 47.1139C107.9 47.0845 107.965 47.0845 108.018 47.1139C108.73 47.5259 109.902 47.5318 110.62 47.1139C110.702 47.0668 110.808 47.0962 110.855 47.1786C110.902 47.261 110.873 47.367 110.79 47.4141C110.043 47.8437 108.919 47.8849 108.106 47.5435V55.9716C108.106 56.0658 108.036 56.1423 107.942 56.1423H107.936Z" fill="#474747"/>
</svg>
