<svg width="77" height="77" viewBox="0 0 77 77" fill="none" xmlns="http://www.w3.org/2000/svg">
<path d="M73.8993 38.5C73.8993 18.9495 58.0508 3.10067 38.5 3.10067C18.9495 3.10067 3.10067 18.9495 3.10067 38.5C3.10067 58.0508 18.9495 73.8993 38.5 73.8993C58.0508 73.8993 73.8993 58.0508 73.8993 38.5ZM77 38.5C77 59.7632 59.7632 77 38.5 77C17.2371 77 0 59.7632 0 38.5C0 17.237 17.237 0 38.5 0C59.7632 0 77 17.2371 77 38.5Z" fill="white"/>
<path d="M36.9492 24.2886C36.9492 23.4324 37.6433 22.7383 38.4996 22.7383C39.3558 22.7383 40.0499 23.4324 40.0499 24.2886V37.9257L54.1149 54.3163C54.6724 54.9659 54.5978 55.9448 53.9484 56.5025C53.2987 57.06 52.3198 56.9856 51.7622 56.336L37.3227 39.5094C37.0817 39.2283 36.9492 38.8703 36.9492 38.5V24.2886Z" fill="white"/>
</svg>
