<svg width="20" height="20" viewBox="0 0 20 20" fill="none" xmlns="http://www.w3.org/2000/svg">
<path d="M16.5453 5.10737L10.1817 1.92559L3.81816 5.10737V9.99989C3.81816 14.1424 6.6896 17.7231 10.1817 18.1727C13.6739 17.7231 16.5453 14.1424 16.5453 9.99989V5.10737ZM18.3634 9.99989C18.3634 14.9085 14.9263 19.4784 10.282 19.9944C10.2154 20.0019 10.1481 20.0019 10.0814 19.9944C5.43714 19.4784 2 14.9085 2 9.99989V4.54541C2 4.20108 2.1945 3.8862 2.50248 3.73221L9.77512 0.0958871L9.87278 0.0541617C10.1055 -0.0299485 10.3643 -0.0161359 10.5883 0.0958871L17.861 3.73221C18.1689 3.8862 18.3634 4.20108 18.3634 4.54541V9.99989Z" fill="#022C3C"/>
<path d="M12.2662 7.53872C12.6212 7.18371 13.1966 7.18371 13.5517 7.53872C13.9067 7.89374 13.9067 8.4692 13.5517 8.82422L9.91533 12.4605C9.56031 12.8156 8.98485 12.8156 8.62983 12.4605L6.81167 10.6424C6.45666 10.2874 6.45666 9.7119 6.81167 9.35689C7.16669 9.00187 7.74215 9.00187 8.09717 9.35689L9.27258 10.5323L12.2662 7.53872Z" fill="#022C3C"/>
</svg>
