<svg width="35" height="35" viewBox="0 0 35 35" fill="none" xmlns="http://www.w3.org/2000/svg">
<path d="M17.5 35C27.165 35 35 27.165 35 17.5C35 7.83502 27.165 0 17.5 0C7.83502 0 0 7.83502 0 17.5C0 27.165 7.83502 35 17.5 35Z" fill="#F47421"/>
<path d="M24.3257 17.5008C24.3257 13.7315 21.2701 10.6759 17.5008 10.6759C13.7315 10.6759 10.6759 13.7315 10.6759 17.5008C10.6759 21.2701 13.7315 24.3257 17.5008 24.3257C21.2701 24.3257 24.3257 21.2701 24.3257 17.5008ZM27.6507 17.5008C27.6506 23.1064 23.1064 27.6506 17.5008 27.6507C11.8951 27.6507 7.35063 23.1065 7.35059 17.5008C7.35059 11.8951 11.8951 7.35059 17.5008 7.35059C23.1065 7.35063 27.6507 11.8951 27.6507 17.5008Z" fill="white"/>
<path d="M5.59769 20.7813C7.4099 20.7813 8.87898 19.3122 8.87898 17.5C8.87898 15.6878 7.4099 14.2188 5.59769 14.2188C3.78549 14.2188 2.31641 15.6878 2.31641 17.5C2.31641 19.3122 3.78549 20.7813 5.59769 20.7813Z" fill="#F47421"/>
<path d="M27.9997 16.8706V18.1299H24.1108V16.8706H27.9997Z" fill="#F47421"/>
<path d="M5.59746 19.8363C6.88772 19.8363 7.93369 18.7903 7.93369 17.5C7.93369 16.2098 6.88772 15.1638 5.59746 15.1638C4.3072 15.1638 3.26123 16.2098 3.26123 17.5C3.26123 18.7903 4.3072 19.8363 5.59746 19.8363Z" fill="white"/>
<path d="M20.6076 5.55307C19.7015 7.12248 20.2393 9.12929 21.8087 10.0354C23.3781 10.9415 25.3849 10.4038 26.291 8.83436C27.1971 7.26494 26.6594 5.25813 25.09 4.35203C23.5205 3.44593 21.5137 3.98365 20.6076 5.55307Z" fill="#F47421"/>
<path d="M12.7982 26.9069L11.7076 26.2773L13.6521 22.9094L14.7427 23.5391L12.7982 26.9069Z" fill="#F47421"/>
<path d="M21.4265 6.02563C20.7814 7.14303 21.1642 8.57184 22.2816 9.21698C23.399 9.86211 24.8279 9.47926 25.473 8.36186C26.1181 7.24446 25.7353 5.81564 24.6179 5.17051C23.5005 4.52538 22.0717 4.90823 21.4265 6.02563Z" fill="white"/>
<path d="M26.2908 26.1656C25.3847 24.5962 23.3779 24.0585 21.8084 24.9646C20.239 25.8707 19.7013 27.8775 20.6074 29.4469C21.5135 31.0163 23.5203 31.554 25.0897 30.6479C26.6591 29.7418 27.1969 27.735 26.2908 26.1656Z" fill="#F47421"/>
<path d="M11.7025 8.72246L12.7931 8.09279L14.7376 11.4607L13.647 12.0903L11.7025 8.72246Z" fill="#F47421"/>
<path d="M25.4721 26.6383C24.827 25.5209 23.3982 25.1381 22.2808 25.7832C21.1634 26.4284 20.7805 27.8572 21.4256 28.9746C22.0708 30.092 23.4996 30.4748 24.617 29.8297C25.7344 29.1846 26.1172 27.7557 25.4721 26.6383Z" fill="white"/>
</svg>
