<svg width="35" height="35" viewBox="0 0 35 35" fill="none" xmlns="http://www.w3.org/2000/svg">
<mask id="mask0_6475_2905" style="mask-type:luminance" maskUnits="userSpaceOnUse" x="0" y="0" width="35" height="35">
<path d="M35 0H0V35H35V0Z" fill="white"/>
</mask>
<g mask="url(#mask0_6475_2905)">
<path d="M8.89766 29.5373L1.85392 25.9225L1.78828 25.8896C0.727338 25.3482 0 24.2436 0 22.9693V12.0318C0 10.7576 0.727338 9.65293 1.78828 9.11152L1.85392 9.07871L8.89766 5.46387C7.83672 6.01074 7.10938 7.10996 7.10938 8.38418V26.617C7.10938 27.8912 7.83672 28.9904 8.89766 29.5373Z" fill="url(#paint0_linear_6475_2905)"/>
<path d="M32.9816 5.35469C32.5933 5.19609 32.1668 5.10312 31.7183 5.10312C30.6246 5.10312 29.6566 5.63906 29.0605 6.45937L29.0496 6.47578L26.2496 10.3367L21.0543 17.5008L15.6238 24.9875L13.059 28.5258L13.048 28.5422C12.4519 29.3625 11.484 29.8984 10.3902 29.8984C9.86522 29.8984 9.36756 29.7727 8.9246 29.5539C8.91366 29.5484 8.90272 29.543 8.89725 29.5375L1.85352 25.9227C2.28555 26.1305 2.77225 26.2508 3.28085 26.2508C4.43475 26.2508 5.44647 25.6547 6.03163 24.7578L7.10897 23.1008L10.7512 17.5008L15.6238 10.0141L20.2176 2.95391C20.8027 2.05156 21.8144 1.46094 22.9683 1.46094C23.4168 1.46094 23.8433 1.54844 24.2316 1.7125L32.9816 5.35469Z" fill="url(#paint1_linear_6475_2905)"/>
<path d="M32.9816 5.35469C32.5933 5.19609 32.1668 5.10312 31.7183 5.10312C30.6246 5.10312 29.6566 5.63906 29.0605 6.45937L29.0496 6.47578L26.2496 10.3367L21.0543 17.5008L15.6238 24.9875L13.059 28.5258L13.048 28.5422C12.4519 29.3625 11.484 29.8984 10.3902 29.8984C9.86522 29.8984 9.36756 29.7727 8.9246 29.5539C8.91366 29.5484 8.90272 29.543 8.89725 29.5375L1.85352 25.9227C2.28555 26.1305 2.77225 26.2508 3.28085 26.2508C4.43475 26.2508 5.44647 25.6547 6.03163 24.7578L7.10897 23.1008L10.7512 17.5008L15.6238 10.0141L20.2176 2.95391C20.8027 2.05156 21.8144 1.46094 22.9683 1.46094C23.4168 1.46094 23.8433 1.54844 24.2316 1.7125L32.9816 5.35469Z" fill="url(#paint2_linear_6475_2905)" fill-opacity="0.3"/>
<path d="M32.9816 29.6468L24.2316 33.2889C23.8433 33.453 23.4168 33.5405 22.9683 33.5405C21.8144 33.5405 20.8027 32.9499 20.2176 32.0475L15.6238 24.9874L10.7512 17.5007L7.10897 11.9007L6.03163 10.2437C5.44647 9.34678 4.43475 8.75068 3.28085 8.75068C2.77225 8.75068 2.28555 8.871 1.85352 9.07881L8.89725 5.46396C8.90272 5.4585 8.91366 5.45303 8.9246 5.44756C9.36756 5.22881 9.86522 5.10303 10.3902 5.10303C11.484 5.10303 12.4519 5.63896 13.048 6.45928L13.059 6.47568L15.6238 10.014L21.0543 17.5007L26.2496 24.6647L29.0496 28.5257L29.0605 28.5421C29.6566 29.3624 30.6246 29.8983 31.7183 29.8983C32.1668 29.8983 32.5933 29.8054 32.9816 29.6468Z" fill="url(#paint3_linear_6475_2905)"/>
<path d="M32.9816 29.6468L24.2316 33.2889C23.8433 33.453 23.4168 33.5405 22.9683 33.5405C21.8144 33.5405 20.8027 32.9499 20.2176 32.0475L15.6238 24.9874L10.7512 17.5007L7.10897 11.9007L6.03163 10.2437C5.44647 9.34678 4.43475 8.75068 3.28085 8.75068C2.77225 8.75068 2.28555 8.871 1.85352 9.07881L8.89725 5.46396C8.90272 5.4585 8.91366 5.45303 8.9246 5.44756C9.36756 5.22881 9.86522 5.10303 10.3902 5.10303C11.484 5.10303 12.4519 5.63896 13.048 6.45928L13.059 6.47568L15.6238 10.014L21.0543 17.5007L26.2496 24.6647L29.0496 28.5257L29.0605 28.5421C29.6566 29.3624 30.6246 29.8983 31.7183 29.8983C32.1668 29.8983 32.5933 29.8054 32.9816 29.6468Z" fill="url(#paint4_radial_6475_2905)"/>
<path d="M34.9994 8.38428V26.6171C34.9994 27.9788 34.1682 29.1491 32.9814 29.6468L24.2314 33.289C25.4182 32.7968 26.2494 31.6265 26.2494 30.2593V4.74209C26.2494 3.3749 25.4182 2.20459 24.2314 1.7124L32.9814 5.35459C34.1682 5.85225 34.9994 7.02256 34.9994 8.38428Z" fill="url(#paint5_linear_6475_2905)"/>
</g>
<defs>
<linearGradient id="paint0_linear_6475_2905" x1="-3.31343" y1="29.5373" x2="11.4234" y2="21.6962" gradientUnits="userSpaceOnUse">
<stop offset="0.0725439" stop-color="#85148A"/>
<stop offset="0.296162" stop-color="#7F21A9"/>
<stop offset="0.661273" stop-color="#5B2AB5"/>
<stop offset="0.854932" stop-color="#4B20A0"/>
</linearGradient>
<linearGradient id="paint1_linear_6475_2905" x1="22.6178" y1="0.367184" x2="7.6295" y2="31.9163" gradientUnits="userSpaceOnUse">
<stop stop-color="#4B20A0"/>
<stop offset="0.265936" stop-color="#6D37CD"/>
<stop offset="0.7848" stop-color="#7A41DC"/>
<stop offset="1" stop-color="#CA59F7"/>
</linearGradient>
<linearGradient id="paint2_linear_6475_2905" x1="19.4225" y1="15.1328" x2="8.61795" y2="22.8615" gradientUnits="userSpaceOnUse">
<stop stop-color="#30116E" stop-opacity="0"/>
<stop offset="0.164241" stop-color="#30116E" stop-opacity="0.7"/>
<stop offset="0.712141" stop-color="#30116E"/>
<stop offset="1" stop-color="#30116E" stop-opacity="0"/>
</linearGradient>
<linearGradient id="paint3_linear_6475_2905" x1="6.12812" y1="5.10303" x2="22.546" y2="37.1663" gradientUnits="userSpaceOnUse">
<stop offset="0.0374343" stop-color="#FFBAC7"/>
<stop offset="0.187907" stop-color="#EA71EF"/>
<stop offset="0.349289" stop-color="#CA59F7"/>
<stop offset="0.618324" stop-color="#8B52F4"/>
<stop offset="1" stop-color="#5750E2"/>
</linearGradient>
<radialGradient id="paint4_radial_6475_2905" cx="0" cy="0" r="1" gradientTransform="matrix(29.4967 11.8489 -26.9579 67.2662 -0.506222 20.4155)" gradientUnits="userSpaceOnUse">
<stop offset="0.611142" stop-color="#8B52F4" stop-opacity="0"/>
<stop offset="0.977982" stop-color="#30116E"/>
</radialGradient>
<linearGradient id="paint5_linear_6475_2905" x1="29.6154" y1="-1.45106" x2="29.6154" y2="37.5458" gradientUnits="userSpaceOnUse">
<stop stop-color="#FFBAC7"/>
<stop offset="0.291496" stop-color="#EA71EF"/>
<stop offset="0.675458" stop-color="#8B52F4"/>
<stop offset="0.916582" stop-color="#5750E2"/>
</linearGradient>
</defs>
</svg>
