<svg width="35" height="35" viewBox="0 0 35 35" fill="none" xmlns="http://www.w3.org/2000/svg">
<g clip-path="url(#clip0_6475_2915)">
<path d="M2.4873 17.4994C2.4873 23.4417 5.94074 28.577 10.9485 31.0105L3.78709 11.3896C2.95409 13.2567 2.4873 15.3229 2.4873 17.4994Z" fill="#21759B"/>
<path d="M27.6356 16.7418C27.6356 14.8864 26.9692 13.6015 26.3975 12.6014C25.6365 11.3648 24.9232 10.3175 24.9232 9.08092C24.9232 7.7009 25.9699 6.41628 27.4442 6.41628C27.5108 6.41628 27.5739 6.42457 27.6388 6.42828C24.9678 3.98131 21.4092 2.4873 17.5007 2.4873C12.2558 2.4873 7.64145 5.17823 4.95703 9.25403C5.30926 9.2646 5.64121 9.27203 5.92316 9.27203C7.49347 9.27203 9.92422 9.0815 9.92422 9.0815C10.7335 9.03379 10.8289 10.2224 10.0205 10.3181C10.0205 10.3181 9.20719 10.4138 8.3022 10.4612L13.7693 26.7225L17.0548 16.8692L14.7157 10.4607C13.9073 10.4132 13.1414 10.3175 13.1414 10.3175C12.3324 10.2701 12.4272 9.03322 13.2363 9.08092C13.2363 9.08092 15.7156 9.27146 17.1907 9.27146C18.7608 9.27146 21.1918 9.08092 21.1918 9.08092C22.0017 9.03322 22.0968 10.2219 21.2881 10.3175C21.2881 10.3175 20.4731 10.4132 19.5698 10.4607L24.9952 26.5988L26.4927 21.5949C27.1417 19.5184 27.6356 18.027 27.6356 16.7418Z" fill="#21759B"/>
<path d="M17.7642 18.813L13.2598 31.9017C14.6047 32.297 16.027 32.5133 17.5008 32.5133C19.2491 32.5133 20.9257 32.211 22.4863 31.6623C22.446 31.598 22.4094 31.5297 22.3794 31.4555L17.7642 18.813Z" fill="#21759B"/>
<path d="M30.6741 10.2969C30.7386 10.7751 30.7752 11.2884 30.7752 11.8406C30.7752 13.364 30.4907 15.0765 29.6337 17.2179L25.0479 30.4762C29.5111 27.8736 32.5132 23.0382 32.5132 17.4998C32.5135 14.8897 31.8467 12.4353 30.6741 10.2969Z" fill="#21759B"/>
<path d="M17.5006 0C7.851 0 0 7.85024 0 17.4996C0 27.15 7.851 35 17.5006 35C27.1499 35 35.002 27.15 35.002 17.4996C35.0017 7.85024 27.1499 0 17.5006 0ZM17.5006 34.1979C8.2935 34.1979 0.80244 26.707 0.80244 17.4996C0.80244 8.29273 8.29322 0.802421 17.5006 0.802421C26.7074 0.802421 34.1978 8.29273 34.1978 17.4996C34.1978 26.707 26.7074 34.1979 17.5006 34.1979Z" fill="#21759B"/>
</g>
<defs>
<clipPath id="clip0_6475_2915">
<rect width="35" height="35" fill="white"/>
</clipPath>
</defs>
</svg>
